<svg width="412" height="94" viewBox="0 0 412 94" fill="none" xmlns="http://www.w3.org/2000/svg">
<g clip-path="url(#clip0_193_135)">
<path d="M25.1168 21.3775L25.1122 21.3626L25.1053 21.3842L23.8106 22.1475L23.95 21.8339L24.083 21.5346L23.8952 21.2663L23.2466 20.3397L23.2216 20.3039L23.1915 20.2723L20.5969 17.5481L20.5784 17.5286L20.5581 17.5109L15.7953 13.3596L15.7516 13.3215L15.7013 13.2928L14.3669 12.5331L14.3296 12.5118L14.2896 12.4963L11.3244 11.3472L11.2751 11.3281L11.2232 11.3183L8.5916 10.8179L8.52175 10.8046L8.45077 10.8086L4.80422 11.0141L0.583868 5.66483L0.124129 2.48059L0.212376 2.1887L0.962953 2.13509L1.38368 2.32926L1.90324 3.22673L2.01782 3.42465L2.23668 3.49098L2.84828 3.67631L3.08235 3.74724L3.29646 3.629L4.32851 3.05906L10.177 4.7351L10.2071 4.74373L10.2379 4.74906L13.7776 5.36066L13.8548 5.37399L13.9327 5.36637L17.1573 5.0513L17.2248 5.0447L17.2891 5.02266L18.5308 4.59645L18.6393 4.55918L18.7255 4.48333L21.7561 1.81566L23.2028 1.1552L23.6044 1.24971L31.9659 4.36691L35.294 6.44925L37.5845 9.40689L37.6597 9.50403L37.7679 9.56229L39.9891 10.7584L40.1092 11.0672L40.0394 11.4063L39.5982 12.0093L37.2188 14.0335L33.7028 15.8185L32.0111 16.3941L30.3396 16.5363L30.2349 16.5452L30.1401 16.5903L27.9162 17.6467L27.8341 17.6856L27.7679 17.7479L25.9147 19.4899L25.7186 19.6742L25.7329 19.943L25.7883 20.9816L25.1168 21.3775ZM23.5736 24.1331L24.0756 23.9191L24.4301 24.3673L24.7225 24.7368L24.4928 25.0621L22.8206 25.531L21.5333 25.3701L22.516 24.5839L23.5736 24.1331ZM37.0617 23.0066L36.4095 23.9784L35.9121 23.9114L34.0869 22.8955L32.9057 21.9421L32.9622 21.7812L33.9207 20.9141L34.2319 20.8252H35.8316L36.073 20.9631L37.0687 22.81L37.0617 23.0066Z" fill="#F85937" fill-opacity="0.24" stroke="#F85937" stroke-width="1.15893"/>
<mask id="path-2-inside-1_193_135" fill="white">
<path d="M154.87 11.5538L155.092 12.1468L156.334 11.5908L156.26 11.8874L156.797 12.5174L156.297 13.2773L155.685 12.8511L155.426 13.4441L155.074 13.5738L154.796 13.2773L154.518 11.5167L154.87 11.3129V11.5538ZM73.0308 10.4233L73.1234 11.1646L72.7898 11.7206L72.6601 13.0179L71.6037 13.963L70.8254 17.1321L67.8602 21.5428L67.4525 22.6176L66.0255 24.4338L65.8402 25.5087L67.0448 25.5458L67.9714 26.1944L68.6571 26.3427L67.7861 27.5102L66.6371 27.8808L66.4517 27.5473L66.0255 27.6029L65.1915 28.1588L64.0425 28.1218L64.9136 25.379L63.3383 25.7126L62.597 26.4168L62.7824 27.399L62.597 29.3079L61.8557 29.2523L61.5407 28.6036L59.3724 27.8624L58.6866 28.1032L56.611 27.7697L56.1107 28.1959L55.3694 28.0106L55.0913 26.6207L54.5354 26.528L52.9231 26.8616L52.4598 27.2878L51.7185 27.1396L51.2181 26.7133L50.8104 26.806L50.5695 27.5102L50.0135 27.6585L48.9015 26.8616L47.8823 25.657L47.178 25.8052L46.344 25.4346H45.195L44.5465 24.6933L44.1758 23.5257L44.9171 22.1358L45.5657 21.9875L45.6955 22.6918L47.1224 23.4887H47.6784L48.7347 22.4138L49.5131 22.3211L50.3471 22.7844L50.8475 22.4138V22.0802L51.4405 22.1173L51.9038 21.654L52.1818 18.6702L52.0891 15.7421L51.0698 14.7414L50.7548 13.2958L51.5888 12.0912L53.1084 11.2017L53.2937 10.275L53.8497 10.4604L53.9423 10.1824L55.74 9.38552L56.6666 7.93999L58.3345 6.6427L61.3924 5.53075L63.468 5.71608L64.9506 6.17939L65.7846 6.73534L70.2324 7.75466L72.8269 9.84883L73.0308 10.4233ZM100.922 3.60336L103.053 3.47367L103.869 3.93698L104.035 4.32615L101.7 6.0311L100.144 9.44112L98.8464 11.2017L96.9932 10.0341L98.1236 7.73611L97.7715 7.03187L97.3268 7.01337L97.5121 5.95701L97.3453 4.73386L98.4202 3.86284L99.7916 3.26979L100.922 3.60336ZM148.235 6.92068H146.957L146.049 6.17939L145.974 4.51148L146.567 3.49217L147.513 2.80648L148.977 2.95477L149.699 3.69605L149.977 4.67827L149.496 5.97551L148.736 6.82804L148.235 6.92068ZM112.56 1.99105L114.636 1.75011L115.377 2.12079L116.211 1.97255L118.62 2.89917L118.713 4.47438L119.306 6.38322L120.27 7.40254L120.678 7.49518L121.382 9.25578L123.606 10.4233L124.199 10.4604L124.903 9.81173L126.145 9.44112L126.701 8.23646L128.684 6.60566H129.981L130.5 7.12456L132.112 7.18016L134.985 8.06968L135.948 9.64495L136.097 10.6272L135.856 13.5182L135.114 14.6302L135.263 15.4271L136.412 15.0564L136.819 14.3151L137.06 12.8325L136.56 12.0912L136.653 11.2944L137.487 9.71909L138.098 8.97781L139.988 7.62492H140.767L141.082 8.05118L142.972 7.90289L145.937 8.64418L145.622 9.90443L145.771 10.7384L147.531 13.3885L147.624 15.1491L146.623 15.6124L146.734 16.2981L146.438 16.6872L147.16 17.8363L147.105 19.3003L147.624 19.634H148.384L149.125 19.115L150.126 18.9297L149.458 17.8919L150.181 17.9845L150.645 17.7066L150.793 17.0579L151.386 16.6872L151.997 17.6139L151.756 18.8741L151.145 19.708L151.423 21.8022L150.218 22.7844L149.57 22.5991L148.958 22.84L147.29 22.2841L145.066 22.7103L144.103 21.5057L142.991 20.7644L142.12 21.1351L141.842 21.7837L141.378 21.8764L139.896 21.413L138.747 21.5057L138.432 21.1721L137.727 21.5428L137.357 22.247L136.375 22.7103L136.56 22.9512L137.524 23.3775L142.62 23.3404L144.103 24.1744L144.418 25.0083L143.676 25.6199L141.137 25.9535L140.266 25.7126L138.839 24.786L137.264 24.4153L135.003 24.8416L130.889 26.7504L128.906 27.2137L126.589 26.3241L125.978 24.9712L126.182 23.7852L127.386 22.3026L127.535 21.654L127.257 21.1351L127.72 20.3381L127.405 19.4486L126.886 18.7073H126.608L126.423 19.0409L126.552 20.0602L126.83 20.2455L126.589 20.7644L126.033 21.1351L125.255 20.8941L124.551 21.969L123.346 22.525L123.105 23.5072L122.234 23.711L119.695 26.2685L117.99 26.9728L116.471 25.8608H115.915L115.414 26.2871L114.062 26.3797L113.468 27.4917L112.542 27.955H111.893L109.91 29.1225L108.761 28.6963L108.428 28.3257V27.7697L107.223 28.1403L106.945 28.6592L105.981 28.7148L105.425 28.2515H104.869L103.998 28.4924L99.5507 31.0128L95.1585 32.4955L92.7492 32.6437L89.6914 31.6244L87.8382 31.7171L86.0405 33.5889L82.9456 34.3301L81.0923 33.6815L80.4993 32.9402L79.2947 32.6993L78.609 33.1626L75.0508 31.8097L73.5867 30.9202L73.0308 29.9936L73.457 29.4376L73.5497 28.7333L73.3088 28.3071L73.6238 26.7318L74.2354 26.6392L74.6431 26.2129L74.4948 25.4717L75.9218 25.1937L75.6439 24.1744L74.4392 22.3582L74.9396 21.932L74.1612 20.0787L75.4029 17.4656L76.274 17.2247L76.4592 16.8541L76.0516 15.3159L76.9225 15.9275L79.8507 15.4642L84.1502 12.536L85.3919 10.9051L86.3185 10.6272H86.8745L88.6721 11.7391L89.0984 11.6465L94.5654 13.8703L94.9361 12.9808L95.77 12.2395L96.919 11.8133L97.753 12.0912L99.9213 11.8503L100.385 12.3692L101.126 12.4063L101.997 13.2958L103.146 13.2032L103.739 14.9637L103.461 15.4271L102.312 15.7606L102.164 16.0943L102.497 16.5576L103.368 16.9838L105.036 16.8355L104.443 14.4263L105.184 14.1854L105.87 15.946L106.889 15.9831L106.982 16.817L105.5 16.9653L106.093 17.6695L105.907 18.7814L106.5 21.0239L107.056 21.8578L109.836 21.3019L112.245 22.3211H112.894L115.618 20.0787L118.157 19.5228L119.399 19.671L120.085 20.3196L122.994 19.1521L122.624 17.7622L121.919 17.5768L121.678 16.9282L120.622 16.6502L120.344 17.1135L119.695 16.0387L118.546 15.3344L117.99 14.4078L117.305 14.5931L116.378 13.2402L113.283 13.6109L107.872 10.1639L106.389 8.25501L104.684 6.71685L104.369 6.0682L104.962 4.21496L107.093 2.67674L108.391 2.76943L111.541 1.2868L112.56 1.99105Z"/>
</mask>
<path d="M154.87 11.5538L155.092 12.1468L156.334 11.5908L156.26 11.8874L156.797 12.5174L156.297 13.2773L155.685 12.8511L155.426 13.4441L155.074 13.5738L154.796 13.2773L154.518 11.5167L154.87 11.3129V11.5538ZM73.0308 10.4233L73.1234 11.1646L72.7898 11.7206L72.6601 13.0179L71.6037 13.963L70.8254 17.1321L67.8602 21.5428L67.4525 22.6176L66.0255 24.4338L65.8402 25.5087L67.0448 25.5458L67.9714 26.1944L68.6571 26.3427L67.7861 27.5102L66.6371 27.8808L66.4517 27.5473L66.0255 27.6029L65.1915 28.1588L64.0425 28.1218L64.9136 25.379L63.3383 25.7126L62.597 26.4168L62.7824 27.399L62.597 29.3079L61.8557 29.2523L61.5407 28.6036L59.3724 27.8624L58.6866 28.1032L56.611 27.7697L56.1107 28.1959L55.3694 28.0106L55.0913 26.6207L54.5354 26.528L52.9231 26.8616L52.4598 27.2878L51.7185 27.1396L51.2181 26.7133L50.8104 26.806L50.5695 27.5102L50.0135 27.6585L48.9015 26.8616L47.8823 25.657L47.178 25.8052L46.344 25.4346H45.195L44.5465 24.6933L44.1758 23.5257L44.9171 22.1358L45.5657 21.9875L45.6955 22.6918L47.1224 23.4887H47.6784L48.7347 22.4138L49.5131 22.3211L50.3471 22.7844L50.8475 22.4138V22.0802L51.4405 22.1173L51.9038 21.654L52.1818 18.6702L52.0891 15.7421L51.0698 14.7414L50.7548 13.2958L51.5888 12.0912L53.1084 11.2017L53.2937 10.275L53.8497 10.4604L53.9423 10.1824L55.74 9.38552L56.6666 7.93999L58.3345 6.6427L61.3924 5.53075L63.468 5.71608L64.9506 6.17939L65.7846 6.73534L70.2324 7.75466L72.8269 9.84883L73.0308 10.4233ZM100.922 3.60336L103.053 3.47367L103.869 3.93698L104.035 4.32615L101.7 6.0311L100.144 9.44112L98.8464 11.2017L96.9932 10.0341L98.1236 7.73611L97.7715 7.03187L97.3268 7.01337L97.5121 5.95701L97.3453 4.73386L98.4202 3.86284L99.7916 3.26979L100.922 3.60336ZM148.235 6.92068H146.957L146.049 6.17939L145.974 4.51148L146.567 3.49217L147.513 2.80648L148.977 2.95477L149.699 3.69605L149.977 4.67827L149.496 5.97551L148.736 6.82804L148.235 6.92068ZM112.56 1.99105L114.636 1.75011L115.377 2.12079L116.211 1.97255L118.62 2.89917L118.713 4.47438L119.306 6.38322L120.27 7.40254L120.678 7.49518L121.382 9.25578L123.606 10.4233L124.199 10.4604L124.903 9.81173L126.145 9.44112L126.701 8.23646L128.684 6.60566H129.981L130.5 7.12456L132.112 7.18016L134.985 8.06968L135.948 9.64495L136.097 10.6272L135.856 13.5182L135.114 14.6302L135.263 15.4271L136.412 15.0564L136.819 14.3151L137.06 12.8325L136.56 12.0912L136.653 11.2944L137.487 9.71909L138.098 8.97781L139.988 7.62492H140.767L141.082 8.05118L142.972 7.90289L145.937 8.64418L145.622 9.90443L145.771 10.7384L147.531 13.3885L147.624 15.1491L146.623 15.6124L146.734 16.2981L146.438 16.6872L147.16 17.8363L147.105 19.3003L147.624 19.634H148.384L149.125 19.115L150.126 18.9297L149.458 17.8919L150.181 17.9845L150.645 17.7066L150.793 17.0579L151.386 16.6872L151.997 17.6139L151.756 18.8741L151.145 19.708L151.423 21.8022L150.218 22.7844L149.57 22.5991L148.958 22.84L147.29 22.2841L145.066 22.7103L144.103 21.5057L142.991 20.7644L142.12 21.1351L141.842 21.7837L141.378 21.8764L139.896 21.413L138.747 21.5057L138.432 21.1721L137.727 21.5428L137.357 22.247L136.375 22.7103L136.56 22.9512L137.524 23.3775L142.62 23.3404L144.103 24.1744L144.418 25.0083L143.676 25.6199L141.137 25.9535L140.266 25.7126L138.839 24.786L137.264 24.4153L135.003 24.8416L130.889 26.7504L128.906 27.2137L126.589 26.3241L125.978 24.9712L126.182 23.7852L127.386 22.3026L127.535 21.654L127.257 21.1351L127.72 20.3381L127.405 19.4486L126.886 18.7073H126.608L126.423 19.0409L126.552 20.0602L126.83 20.2455L126.589 20.7644L126.033 21.1351L125.255 20.8941L124.551 21.969L123.346 22.525L123.105 23.5072L122.234 23.711L119.695 26.2685L117.99 26.9728L116.471 25.8608H115.915L115.414 26.2871L114.062 26.3797L113.468 27.4917L112.542 27.955H111.893L109.91 29.1225L108.761 28.6963L108.428 28.3257V27.7697L107.223 28.1403L106.945 28.6592L105.981 28.7148L105.425 28.2515H104.869L103.998 28.4924L99.5507 31.0128L95.1585 32.4955L92.7492 32.6437L89.6914 31.6244L87.8382 31.7171L86.0405 33.5889L82.9456 34.3301L81.0923 33.6815L80.4993 32.9402L79.2947 32.6993L78.609 33.1626L75.0508 31.8097L73.5867 30.9202L73.0308 29.9936L73.457 29.4376L73.5497 28.7333L73.3088 28.3071L73.6238 26.7318L74.2354 26.6392L74.6431 26.2129L74.4948 25.4717L75.9218 25.1937L75.6439 24.1744L74.4392 22.3582L74.9396 21.932L74.1612 20.0787L75.4029 17.4656L76.274 17.2247L76.4592 16.8541L76.0516 15.3159L76.9225 15.9275L79.8507 15.4642L84.1502 12.536L85.3919 10.9051L86.3185 10.6272H86.8745L88.6721 11.7391L89.0984 11.6465L94.5654 13.8703L94.9361 12.9808L95.77 12.2395L96.919 11.8133L97.753 12.0912L99.9213 11.8503L100.385 12.3692L101.126 12.4063L101.997 13.2958L103.146 13.2032L103.739 14.9637L103.461 15.4271L102.312 15.7606L102.164 16.0943L102.497 16.5576L103.368 16.9838L105.036 16.8355L104.443 14.4263L105.184 14.1854L105.87 15.946L106.889 15.9831L106.982 16.817L105.5 16.9653L106.093 17.6695L105.907 18.7814L106.5 21.0239L107.056 21.8578L109.836 21.3019L112.245 22.3211H112.894L115.618 20.0787L118.157 19.5228L119.399 19.671L120.085 20.3196L122.994 19.1521L122.624 17.7622L121.919 17.5768L121.678 16.9282L120.622 16.6502L120.344 17.1135L119.695 16.0387L118.546 15.3344L117.99 14.4078L117.305 14.5931L116.378 13.2402L113.283 13.6109L107.872 10.1639L106.389 8.25501L104.684 6.71685L104.369 6.0682L104.962 4.21496L107.093 2.67674L108.391 2.76943L111.541 1.2868L112.56 1.99105Z" fill="#F85937" fill-opacity="0.24" stroke="#F85937" stroke-width="2.31786" mask="url(#path-2-inside-1_193_135)"/>
<mask id="path-3-inside-2_193_135" fill="white">
<path d="M286.84 79.1972L288.155 79.049L288.378 79.3455L286.172 81.94L285.487 82.1809L285.728 82.5145L287.581 82.7739L287.97 84.2936L287.081 85.387L285.338 85.3314L284.245 85.8689L283.708 86.536L282.281 87.0735L281.947 87.7036L282.077 88.3708L281.391 89.9645L280.909 89.7977L280.224 90.2425L279.334 89.631L278.611 89.5383L277.685 90.0572L277.036 90.9653L273.774 91.1321L272.718 91.8919L273.348 92.522L272.811 93.5042L272.106 93.5228L271.884 92.9668L271.031 93.0409L270.883 92.7444L269.771 93.0224L269.549 93.7081L268.622 93.1521L268.455 92.244L268.715 90.7614L267.862 89.1306L268.103 88.4449L269.679 87.7592L270.883 87.6851L272.051 87.0735L273.404 87.2774L274.089 86.8696L275.535 86.7029L278.148 84.1639L279.093 84.238L279.983 83.645L280.39 82.4404L281.206 82.496L281.076 81.7547L282.614 80.1238L285.82 78.6783L286.191 77.1401L287.321 78.3076L286.71 78.7524L286.84 79.1972ZM240.787 77.2698L242.102 77.4922L242.399 77.8258L242.047 80.2721L241.491 80.9207L240.416 81.2543L239.36 82.3662L237.988 83.2188L236.858 83.404L235.912 82.9407L234.078 83.1076L232.039 81.8659L236.876 79.1601L237.284 77.6219L238.044 77.1586L239.285 76.7509L240.787 77.2698ZM289.286 68.3743L290.268 68.1704L290.435 69.0044L288.989 69.4862L288.767 70.1905L288.026 70.5982L287.711 70.5796L287.692 69.968L286.877 69.8939L286.895 70.6538L287.414 70.9132L287.674 71.5433L287.507 72.0807L287.748 72.7108L286.951 72.5997L287.155 73.1186L287.525 73.2483L287.321 74.0266L286.58 74.0081L286.321 73.1371L285.969 73.0444L285.264 73.1742L284.801 74.0637L284.523 74.1008L284.06 73.2853L284.189 72.3031L283.911 71.8213L284.708 70.7464L285.672 70.2461L286.636 68.6337L286.914 67.5588L288.748 66.8361L289.156 67.4476L289.286 68.3743ZM178.684 43.4296L179.37 43.8929L180.241 45.5053L181.019 46.1909L181.928 46.4689L183.799 46.0612L184.3 46.2836L185.022 47.3955L185.245 48.2666L185.375 50.509L186.097 51.4356L187.376 51.5283L188.062 52.3622H188.432L189.748 51.6209L192.936 50.8426L193.807 51.8619L193.937 52.6403L197.087 54.2526L197.643 55.8649L199.83 59.9605L201.702 60.6092L203.666 61.7582L204.574 63.0555L205.204 65.0384L204.797 66.521L203.518 67.633L202.647 67.7627L201.498 69.5047L199.904 70.5611L198.755 70.5982L197.977 71.2468L196.068 70.8762L195.16 71.0985L193.473 71.9696L193.343 72.6182L192.88 73.1186L192.287 73.1556L190.823 72.3217L189.767 71.3024L187.08 71.3951L185.764 71.1727L184.985 71.358L182.928 70.4313L181.557 69.0971L180.871 68.8746L179.5 67.2067L178.684 67.0214L178.406 66.7434L178.721 66.0948L178.258 64.9458L176.331 62.7404L175.089 62.3698L174.959 61.7767H174.088L173.996 60.9057L171.623 60.535L171.123 60.6648L170.567 59.8308L168.306 58.3297L167.843 57.7737L167.38 56.3838H166.787L166.212 56.81L165.804 56.1244L164.896 55.7537L162.654 55.4386L161.097 54.8827L159.355 55.6239L158.855 56.5506L156.983 55.5869L156.297 55.7722L155.889 55.1236L153.017 54.9012L151.961 55.0865L151.738 54.8085L148.032 53.5669L147.253 53.0109L145.382 50.4719L144.14 49.5453L143.547 48.5261L144.733 46.506L145.789 45.4867L147.031 44.7454L149.718 44.0968L151.812 42.8551L152.35 42.9848L152.813 43.4852L154.685 42.5586L155.593 42.4289L157.001 43.0219H158.966L160.652 42.4659L162.987 43.059L164.451 42.0953L166.36 42.0582L167.732 43.0219L169.585 43.4296L170.215 43.2999L171.308 43.7632L172.402 42.7439L174.589 41.4096L175.645 39.8528L176.016 39.7602L177.016 41.6505L178.684 43.4296ZM336.414 29.4932L336.784 29.6415L336.229 30.8091L336.21 31.7727L336.636 32.4399L337.581 32.9032L338.415 32.8847L339.657 31.921L340.787 31.6059L341.381 30.9758L341.899 29.8083L342.659 30.6423L343.141 30.7349L344.272 31.6801L344.309 33.2553L343.827 34.9047L344.105 36.2946L342.826 36.4429L341.64 37.1471L341.584 37.4066L340.25 36.3688L338.323 36.4058L337.804 37.4622L337.711 38.1849L338.193 40.1865L339.991 41.4281L340.065 42.503L340.954 43.5408L341.251 45.7462L339.564 46.9508L338.137 48.5445L337.822 51.5839L336.84 52.6217L334.783 53.4742L333.838 54.3082L331.132 57.7552L330.002 59.6455L328.76 60.1088L327.277 61.5728L323.775 63.6114L322.57 66.1875L319.938 68.1704L318.882 68.6522L317.993 68.6708L311.654 68.1333L310.765 68.3001L309.912 68.6522L308.967 69.5974L308.671 70.4128L307.225 71.2839L306.706 71.9696L304.835 72.2105L302.629 73.2112L302.166 73.7858L299.775 74.527H298.348L296.68 74.9348L295.68 74.4529L295.124 74.4714L293.808 75.1201L293.307 74.4714L291.51 73.7672L288.989 74.7124L289.063 73.7302L289.49 73.378L290.194 71.8584L289.953 70.5796L291.028 70.1719L291.158 68.9488L293.919 67.7812L295.049 67.7071L296.069 67.0029L297.922 66.2986L298.83 64.7048L298.459 64.1859L296.588 63.5373L296.032 63.7597L294.938 63.5744L294.16 63.9079L293.734 64.5566L293.178 64.3898L292.955 64.0377L292.937 60.6833L293.604 59.8123L294.123 59.627L294.734 59.7937L295.476 58.9042L295.68 56.9212L294.846 55.6981L295.754 55.3274L296.106 54.6788L296.18 53.4927L295.754 51.343L297.978 49.045L299.405 48.4705L299.683 47.3585L300.238 46.8766L300.591 46.9137L301.48 46.1909L302.629 45.8203L303.241 44.7084L304.242 44.3747L304.408 43.7447L305.131 43.2257L305.483 42.4289L306.095 41.9285L307.707 41.8173L309.338 44.0226L310.19 43.9856L310.672 44.5786L311.432 44.3747L311.803 43.4852L313.1 42.7068L313.489 42.781L315.027 44.2821L315.491 45.4126L315.231 47.0064L317.474 46.4875L317.9 45.5609L317.492 44.7269L318.511 43.4667L318.289 43.0034L318.493 42.4474L318.808 42.4845L319.383 41.7432L320.291 41.6134L320.55 40.8166L321.106 40.5386L320.884 39.5008L321.254 38.7038L321.328 37.6104L321.681 37.1657L321.625 36.5912L322.459 36.8135L324.034 36.6468L325.665 36.0723L328.463 33.8298L328.612 32.792L330.076 32.6252L331.855 31.328L333.838 30.8831L334.802 30.0492L336.414 29.4932ZM171.568 25.1381L170.79 25.101L170.771 24.6007L171.253 24.1003L171.716 24.3598L171.568 25.1381ZM167.472 24.6192L167.38 24.8972L166.268 24.4524L167.083 24.0447L167.472 24.6192ZM165.434 19.7452L164.989 20.0232L164.711 19.7822L164.136 19.8749L163.858 20.3938L164.359 20.9127L163.988 20.9312L163.228 20.1714L165.193 18.9112L165.471 19.041L165.434 19.7452ZM166.731 18.2997L167.268 18.3182L167.25 19.4487L167.602 20.7274L167.787 20.3382L168.658 20.2641L168.695 19.8193L168.084 19.1707L168.825 19.4487L169.14 18.5962L169.826 18.8186L170.474 18.4665L171.42 18.4479L171.846 18.7815L171.623 19.8564L170.326 20.0973L170.104 20.8015L169.696 21.1166H169.344L169.27 20.6903L168.899 20.7089L168.473 21.3946L168.325 22.0802L169.214 22.4139L169.492 22.9698L169.4 23.4887L168.288 24.7304L167.787 24.7119L167.713 24.0818L167.231 23.5999L165.86 24.1744L165.471 22.9328L165.971 21.339L166.416 21.1166L167.176 21.3204L166.898 20.3938L166.471 20.783L166.193 20.6347L166.527 20.4309L166.601 19.7637L165.804 18.2811L166.397 18.0402L166.731 18.2997ZM254.241 12.4434L255.316 13.055L255.52 12.6843L255.724 13.0179L255.464 14.0001L254.667 14.6673L253.611 14.3707L252.944 13.5554L253.036 12.5916L254.241 12.4434ZM161.171 13.2033L161.153 14.0743L161.486 14.2781L163.618 14.6673L164.322 14.3152L164.248 15.5198L164.526 16.0016L164.266 16.0387L163.858 15.4827L163.692 15.8348L164.007 16.3167V17.5954L164.414 17.7808L162.728 18.0216V17.1321L162.042 16.9838L161.95 17.5213L161.319 18.1329L160.634 18.1885L160.967 18.8371L161.431 18.7815L161.801 18.3553L161.894 18.5962L161.597 19.0595L161.523 19.3375L161.282 19.7266L160.56 19.6155L159.948 20.4679L160.652 21.3019L160.393 21.9876L161.153 22.4139L160.189 22.8772L159.059 21.9876L158.095 22.3953L158.262 21.4687L158.984 20.8571L159.151 19.7266L159.077 19.3375L158.41 18.8186L158.039 18.9854L158.484 18.0587L158.021 17.5954L158.54 16.7059L158.91 16.7985L159.615 16.4279V15.7051L159.967 15.631L159.93 15.2047L159.336 14.9638L160.115 14.4078L160.059 14.0372L159.689 13.8518L159.596 12.9808L160.523 13.2033L160.634 12.3878L161.171 13.2033ZM279.408 12.4434L279.556 13.0365L278.945 13.5554L276.48 14.482L275.627 14.4449L274.96 14.0557L273.626 15.1862L272.18 17.8734L271.328 18.3738L270.568 18.2997L270.049 17.4286L270.513 15.5383L272.514 14.4634L272.625 13.5368L273.422 12.7214L274.145 12.6658L274.868 13.0921L275.461 12.6658H278L278.722 12.2766L279.408 12.4434ZM233.244 8.21802L233.614 8.27362L234.022 9.18169L233.837 9.81179L233.355 10.0898L231.928 9.62645L231.613 9.86738L231.465 9.68204L231.817 9.42262L232.225 8.31066L232.799 8.05124L233.244 8.21802ZM281.057 6.29064L281.298 6.45742L281.688 5.97556L282.095 5.90147L282.762 6.47597L283.911 6.56861L285.005 7.16166L284.467 8.03269L284.041 8.18092L284.152 10.0713L283.633 11.1832L281.854 11.4056L279.908 11.072L276.443 11.8874L275.683 11.5909L274.256 11.8689L274.163 10.5346L275.294 8.57014L277.518 7.2914L278.778 6.198L280.001 6.36478L280.798 5.88292L281.057 5.95707V6.29064ZM314.731 9.94153L313.174 11.8874L312.896 13.8704L310.413 16.1684L308.504 16.4464L308.078 16.1499L308.448 14.6488L307.429 12.2395L305.947 12.1654L304.686 13.0921L304.668 13.4071L303.63 13.1106L303.611 12.7214L304.501 11.7206L305.113 9.90448L308.133 8.18092L309.078 8.73693L309.153 9.97857L309.468 10.2566L310.19 10.0527L311.377 8.81102L311.729 7.95854L312.952 7.2543L314.286 4.99334L315.064 4.34475L316.251 4.3262L316.677 4.67832L316.844 5.40106L316.028 6.92073L316.176 8.73693L315.824 9.38558L314.731 9.94153ZM301.258 5.36401L303.111 5.58639L303.926 6.75395L301.202 7.77321L300.035 7.47674L298.7 7.99564L297.996 8.88516L297.866 9.75619L296.773 10.8681L296.643 11.4612L295.902 12.3507L295.235 12.2766L295.29 11.8133L295.012 11.665L294.215 11.6836L293.215 12.7584L292.344 13.2033L292.066 13.9074L292.77 14.797L292.974 15.7236L291.992 16.8726L290.917 16.7985L290.398 15.5013L290.009 15.3345L288.674 15.9275L287.803 17.2804L287.081 17.4842L285.635 16.9097L285.264 16.1684L284.301 15.6495L283.541 16.2981L281.91 16.0572L281.558 16.502L280.909 15.946L280.965 15.1677L281.669 15.1491L284.041 13.1662L284.838 11.5909L286.358 11.0905L286.747 10.6643L288.192 10.4234L289.286 9.645L287.914 8.25507L287.136 8.12533L285.32 8.4404L286.432 7.08752L287.266 6.7169L287.785 7.16166L288.971 7.3099L289.86 6.42038L290.935 6.21649L292.103 6.38328L292.325 6.55012L291.88 7.01343L291.658 7.8844L290.268 9.47822L290.194 9.97857L291.936 10.5716L293.252 9.53381L293.233 8.94076L292.659 8.66278L292.64 7.8659H293.567L293.437 8.51455L293.585 8.81102L294.66 7.8844L294.345 6.58716L293.641 6.34623V5.75318L294.938 5.58639L295.365 5.80877L295.29 6.55012L296.606 6.82809L296.847 6.55012L296.625 5.69758L299.442 3.97408L301.258 5.36401ZM322.959 2.54711L325.628 2.73239L325.294 3.34399L325.257 4.62273L325.721 4.91925L327.259 3.99263L330.372 3.39958L332.837 3.88144L335.543 3.93704L336.97 3.26984L338.527 3.60341L339.713 3.32544L341.436 3.41813L342.733 5.99411L342.585 8.10683L342.808 9.05195L342.103 9.66355L340.398 10.1269L334.839 10.3492L331.929 11.4797L329.927 11.6094L327.407 11.3129L325.424 12.5916L323.793 12.9623L323.311 12.3878L322.274 12.1469L320.031 13.4627L319.735 13.4071L319.605 12.8326L317.974 13.0179L317.251 12.3137L317.307 11.665L317.492 11.0905L319.253 8.97786L319.345 8.27362L320.105 8.03269L321.569 6.84659L322.755 6.69835L323.756 6.08681L323.46 5.84588L322.237 6.06826L319.29 7.53233L319.438 6.64276L319.123 5.93852L320.902 3.54782L321.551 2.86213L322.959 2.54711ZM271.94 2.06524L273.385 3.01042L273.441 3.82585L273.07 4.86366L273.589 5.4752L273.682 6.58716L274.942 7.8659L274.979 8.62574L273.663 9.88593L273.126 9.97857L271.884 9.27433L271.495 9.40407L270.42 10.9793L270.846 12.0357L270.624 13.1477L269.771 13.2773L268.808 12.6102L267.659 12.2951L267.362 12.5732L267.566 14.1855L269.197 15.909L269.289 17.0209L268.9 17.7066L267.269 18.3367L265.713 18.3182L265.509 19.078L265.12 18.7815H263.581L262.025 19.7452L261.524 19.5969L261.08 19.9676L260.19 20.0973L259.115 21.4687L255.464 22.6733L254.056 22.8216L253.074 22.4509L251.072 22.9328L249.756 22.5065L248.477 22.7289L247.829 22.1358L245.883 22.21L245.067 22.4509L244.512 23.2478L244.104 23.3219L243.177 24.2486L239.675 25.4902L237.895 25.5273L237.488 26.0833L235.282 26.9728L233.67 26.8431L232.706 26.0833L231.743 25.9535L231.391 26.213L231.502 27.047L231.224 27.6956L230.76 27.8253L230.186 27.5659L230.779 25.657L229.667 25.2122L228.759 24.4709L227.388 24.7489L222.717 24.1559L222.273 24.23L221.958 25.342L222.069 26.9172L221.272 27.6956L220.216 28.0106L218.9 27.2878L216.379 27.5473L215.842 27.2694L212.914 28.3813L211.209 29.5118L210.412 29.4747L207.688 28.5666L205.983 27.1767L205.464 25.6941L205.019 25.5273L203.518 25.8609L202.888 27.2508L202.035 27.4732L200.275 26.7505L198.773 26.6393L197.124 24.9713L192.306 25.0084L190.86 25.2678L190.415 25.0269L188.136 26.1944L187.58 25.8609L187.042 26.1574L184.911 25.6014L183.41 24.0447L182.799 23.952L178.666 25.0825L177.054 25.3049L176.275 25.1381L175.608 25.8423V26.4354L175.219 26.5651L174.44 26.3242L174.681 25.8238L174.385 25.657L174.403 24.8045L172.921 24.6748L172.643 24.1003L171.679 23.2849L171.568 22.5991L171.586 22.1358L171.753 21.4872L171.568 21.061L171.994 20.2085L172.013 18.1329L171.605 17.9475L171.772 17.3359L172.661 16.3723L172.569 16.0943L173.495 15.7792L174.088 15.0935L174.237 14.0743L173.606 13.2588L173.477 12.5361L174.255 12.4619L174.329 13.5368L174.885 13.648L175.089 13.9631L175.979 13.37L176.423 13.3885L177.165 12.6102L178.091 13.4812L178.536 12.814L178.073 12.5546L178.11 12.1098L178.758 11.072L179.704 11.1461L180.148 10.8311L180.538 10.8496L180.797 11.6465L181.205 11.9801L180.871 12.6472L181.575 12.7214L181.965 11.9986L181.983 10.1454L183.151 10.6828L183.614 9.88593H183.892L184.504 8.51455L184.948 8.58864L185.856 8.31066L186.301 7.84735L187.209 7.77321L188.525 7.71761L189.971 8.08828L191.286 7.62497L191.416 6.75395L191.768 6.43887L192.621 7.14311L192.602 7.75471L193.343 8.19947L194.919 7.58793L195.864 8.12533L197.198 8.14388L197.513 7.73616L197.069 7.23581L197.272 6.86514L198.662 7.51378L200.015 9.16314L200.923 9.08905L201.72 9.79329L203.888 9.51526L205.556 10.0527L207.688 10.0342L208.67 9.7006L209.596 9.83034L209.541 10.479L209.782 10.7199L210.708 10.6643V11.3315L211.098 12.0542L212.413 11.8689L213.618 12.3878L214.786 12.4619L215.49 12.9438L216.287 12.7955L217.677 13.648L219.122 13.8333L220.03 14.2225L221.42 16.4649L223.681 17.5027L225.256 16.6688L225.72 17.2433L226.331 17.4842L226.72 18.4665L227.666 17.3545L228.796 16.9838L228.333 16.5761L228.314 15.9275L228.629 15.8163L229.834 16.5947L229.426 15.7978L229.611 14.2781L230.001 13.8704L230.816 14.0743L230.76 14.7414L231.502 14.5376L231.947 15.1306L233.54 14.5561L235.19 14.7229L235.709 15.075L236.654 14.7044L237.191 14.1299L237.71 14.5376L239.36 14.6117L239.878 14.2967L240.879 12.9252L240.768 13.8518L241.713 13.0365L242.621 12.814L243.047 12.9252L242.547 14.4264L242.714 15.668L244.419 15.4642L244.956 16.1313L245.531 15.668L247.31 16.502L249.552 18.7444L251.684 19.2633L252.796 18.5591L253.778 18.3738L256.558 18.0772L257.336 18.2626L258.744 16.3167L258.67 15.5939L257.54 14.5932L257.948 13.9631L260.023 13.37L260.579 12.499L261.172 12.3322L261.432 11.3129L261.932 11.4426L262.469 10.9423L263.452 11.2203L265.676 10.2195L266.695 10.4048L268.103 8.34771L270.16 8.12533L270.828 7.69912L271.495 5.6235L272.292 5.14163L271.161 4.51154L269.994 4.49299L268.252 5.06749L267.492 6.32768L265.676 5.97556L265.62 5.73469L266.491 4.99334L267.269 3.62196V2.19499L268.789 1.80576L269.938 0.823547L271.94 2.06524Z"/>
</mask>
<path d="M286.84 79.1972L288.155 79.049L288.378 79.3455L286.172 81.94L285.487 82.1809L285.728 82.5145L287.581 82.7739L287.97 84.2936L287.081 85.387L285.338 85.3314L284.245 85.8689L283.708 86.536L282.281 87.0735L281.947 87.7036L282.077 88.3708L281.391 89.9645L280.909 89.7977L280.224 90.2425L279.334 89.631L278.611 89.5383L277.685 90.0572L277.036 90.9653L273.774 91.1321L272.718 91.8919L273.348 92.522L272.811 93.5042L272.106 93.5228L271.884 92.9668L271.031 93.0409L270.883 92.7444L269.771 93.0224L269.549 93.7081L268.622 93.1521L268.455 92.244L268.715 90.7614L267.862 89.1306L268.103 88.4449L269.679 87.7592L270.883 87.6851L272.051 87.0735L273.404 87.2774L274.089 86.8696L275.535 86.7029L278.148 84.1639L279.093 84.238L279.983 83.645L280.39 82.4404L281.206 82.496L281.076 81.7547L282.614 80.1238L285.82 78.6783L286.191 77.1401L287.321 78.3076L286.71 78.7524L286.84 79.1972ZM240.787 77.2698L242.102 77.4922L242.399 77.8258L242.047 80.2721L241.491 80.9207L240.416 81.2543L239.36 82.3662L237.988 83.2188L236.858 83.404L235.912 82.9407L234.078 83.1076L232.039 81.8659L236.876 79.1601L237.284 77.6219L238.044 77.1586L239.285 76.7509L240.787 77.2698ZM289.286 68.3743L290.268 68.1704L290.435 69.0044L288.989 69.4862L288.767 70.1905L288.026 70.5982L287.711 70.5796L287.692 69.968L286.877 69.8939L286.895 70.6538L287.414 70.9132L287.674 71.5433L287.507 72.0807L287.748 72.7108L286.951 72.5997L287.155 73.1186L287.525 73.2483L287.321 74.0266L286.58 74.0081L286.321 73.1371L285.969 73.0444L285.264 73.1742L284.801 74.0637L284.523 74.1008L284.06 73.2853L284.189 72.3031L283.911 71.8213L284.708 70.7464L285.672 70.2461L286.636 68.6337L286.914 67.5588L288.748 66.8361L289.156 67.4476L289.286 68.3743ZM178.684 43.4296L179.37 43.8929L180.241 45.5053L181.019 46.1909L181.928 46.4689L183.799 46.0612L184.3 46.2836L185.022 47.3955L185.245 48.2666L185.375 50.509L186.097 51.4356L187.376 51.5283L188.062 52.3622H188.432L189.748 51.6209L192.936 50.8426L193.807 51.8619L193.937 52.6403L197.087 54.2526L197.643 55.8649L199.83 59.9605L201.702 60.6092L203.666 61.7582L204.574 63.0555L205.204 65.0384L204.797 66.521L203.518 67.633L202.647 67.7627L201.498 69.5047L199.904 70.5611L198.755 70.5982L197.977 71.2468L196.068 70.8762L195.16 71.0985L193.473 71.9696L193.343 72.6182L192.88 73.1186L192.287 73.1556L190.823 72.3217L189.767 71.3024L187.08 71.3951L185.764 71.1727L184.985 71.358L182.928 70.4313L181.557 69.0971L180.871 68.8746L179.5 67.2067L178.684 67.0214L178.406 66.7434L178.721 66.0948L178.258 64.9458L176.331 62.7404L175.089 62.3698L174.959 61.7767H174.088L173.996 60.9057L171.623 60.535L171.123 60.6648L170.567 59.8308L168.306 58.3297L167.843 57.7737L167.38 56.3838H166.787L166.212 56.81L165.804 56.1244L164.896 55.7537L162.654 55.4386L161.097 54.8827L159.355 55.6239L158.855 56.5506L156.983 55.5869L156.297 55.7722L155.889 55.1236L153.017 54.9012L151.961 55.0865L151.738 54.8085L148.032 53.5669L147.253 53.0109L145.382 50.4719L144.14 49.5453L143.547 48.5261L144.733 46.506L145.789 45.4867L147.031 44.7454L149.718 44.0968L151.812 42.8551L152.35 42.9848L152.813 43.4852L154.685 42.5586L155.593 42.4289L157.001 43.0219H158.966L160.652 42.4659L162.987 43.059L164.451 42.0953L166.36 42.0582L167.732 43.0219L169.585 43.4296L170.215 43.2999L171.308 43.7632L172.402 42.7439L174.589 41.4096L175.645 39.8528L176.016 39.7602L177.016 41.6505L178.684 43.4296ZM336.414 29.4932L336.784 29.6415L336.229 30.8091L336.21 31.7727L336.636 32.4399L337.581 32.9032L338.415 32.8847L339.657 31.921L340.787 31.6059L341.381 30.9758L341.899 29.8083L342.659 30.6423L343.141 30.7349L344.272 31.6801L344.309 33.2553L343.827 34.9047L344.105 36.2946L342.826 36.4429L341.64 37.1471L341.584 37.4066L340.25 36.3688L338.323 36.4058L337.804 37.4622L337.711 38.1849L338.193 40.1865L339.991 41.4281L340.065 42.503L340.954 43.5408L341.251 45.7462L339.564 46.9508L338.137 48.5445L337.822 51.5839L336.84 52.6217L334.783 53.4742L333.838 54.3082L331.132 57.7552L330.002 59.6455L328.76 60.1088L327.277 61.5728L323.775 63.6114L322.57 66.1875L319.938 68.1704L318.882 68.6522L317.993 68.6708L311.654 68.1333L310.765 68.3001L309.912 68.6522L308.967 69.5974L308.671 70.4128L307.225 71.2839L306.706 71.9696L304.835 72.2105L302.629 73.2112L302.166 73.7858L299.775 74.527H298.348L296.68 74.9348L295.68 74.4529L295.124 74.4714L293.808 75.1201L293.307 74.4714L291.51 73.7672L288.989 74.7124L289.063 73.7302L289.49 73.378L290.194 71.8584L289.953 70.5796L291.028 70.1719L291.158 68.9488L293.919 67.7812L295.049 67.7071L296.069 67.0029L297.922 66.2986L298.83 64.7048L298.459 64.1859L296.588 63.5373L296.032 63.7597L294.938 63.5744L294.16 63.9079L293.734 64.5566L293.178 64.3898L292.955 64.0377L292.937 60.6833L293.604 59.8123L294.123 59.627L294.734 59.7937L295.476 58.9042L295.68 56.9212L294.846 55.6981L295.754 55.3274L296.106 54.6788L296.18 53.4927L295.754 51.343L297.978 49.045L299.405 48.4705L299.683 47.3585L300.238 46.8766L300.591 46.9137L301.48 46.1909L302.629 45.8203L303.241 44.7084L304.242 44.3747L304.408 43.7447L305.131 43.2257L305.483 42.4289L306.095 41.9285L307.707 41.8173L309.338 44.0226L310.19 43.9856L310.672 44.5786L311.432 44.3747L311.803 43.4852L313.1 42.7068L313.489 42.781L315.027 44.2821L315.491 45.4126L315.231 47.0064L317.474 46.4875L317.9 45.5609L317.492 44.7269L318.511 43.4667L318.289 43.0034L318.493 42.4474L318.808 42.4845L319.383 41.7432L320.291 41.6134L320.55 40.8166L321.106 40.5386L320.884 39.5008L321.254 38.7038L321.328 37.6104L321.681 37.1657L321.625 36.5912L322.459 36.8135L324.034 36.6468L325.665 36.0723L328.463 33.8298L328.612 32.792L330.076 32.6252L331.855 31.328L333.838 30.8831L334.802 30.0492L336.414 29.4932ZM171.568 25.1381L170.79 25.101L170.771 24.6007L171.253 24.1003L171.716 24.3598L171.568 25.1381ZM167.472 24.6192L167.38 24.8972L166.268 24.4524L167.083 24.0447L167.472 24.6192ZM165.434 19.7452L164.989 20.0232L164.711 19.7822L164.136 19.8749L163.858 20.3938L164.359 20.9127L163.988 20.9312L163.228 20.1714L165.193 18.9112L165.471 19.041L165.434 19.7452ZM166.731 18.2997L167.268 18.3182L167.25 19.4487L167.602 20.7274L167.787 20.3382L168.658 20.2641L168.695 19.8193L168.084 19.1707L168.825 19.4487L169.14 18.5962L169.826 18.8186L170.474 18.4665L171.42 18.4479L171.846 18.7815L171.623 19.8564L170.326 20.0973L170.104 20.8015L169.696 21.1166H169.344L169.27 20.6903L168.899 20.7089L168.473 21.3946L168.325 22.0802L169.214 22.4139L169.492 22.9698L169.4 23.4887L168.288 24.7304L167.787 24.7119L167.713 24.0818L167.231 23.5999L165.86 24.1744L165.471 22.9328L165.971 21.339L166.416 21.1166L167.176 21.3204L166.898 20.3938L166.471 20.783L166.193 20.6347L166.527 20.4309L166.601 19.7637L165.804 18.2811L166.397 18.0402L166.731 18.2997ZM254.241 12.4434L255.316 13.055L255.52 12.6843L255.724 13.0179L255.464 14.0001L254.667 14.6673L253.611 14.3707L252.944 13.5554L253.036 12.5916L254.241 12.4434ZM161.171 13.2033L161.153 14.0743L161.486 14.2781L163.618 14.6673L164.322 14.3152L164.248 15.5198L164.526 16.0016L164.266 16.0387L163.858 15.4827L163.692 15.8348L164.007 16.3167V17.5954L164.414 17.7808L162.728 18.0216V17.1321L162.042 16.9838L161.95 17.5213L161.319 18.1329L160.634 18.1885L160.967 18.8371L161.431 18.7815L161.801 18.3553L161.894 18.5962L161.597 19.0595L161.523 19.3375L161.282 19.7266L160.56 19.6155L159.948 20.4679L160.652 21.3019L160.393 21.9876L161.153 22.4139L160.189 22.8772L159.059 21.9876L158.095 22.3953L158.262 21.4687L158.984 20.8571L159.151 19.7266L159.077 19.3375L158.41 18.8186L158.039 18.9854L158.484 18.0587L158.021 17.5954L158.54 16.7059L158.91 16.7985L159.615 16.4279V15.7051L159.967 15.631L159.93 15.2047L159.336 14.9638L160.115 14.4078L160.059 14.0372L159.689 13.8518L159.596 12.9808L160.523 13.2033L160.634 12.3878L161.171 13.2033ZM279.408 12.4434L279.556 13.0365L278.945 13.5554L276.48 14.482L275.627 14.4449L274.96 14.0557L273.626 15.1862L272.18 17.8734L271.328 18.3738L270.568 18.2997L270.049 17.4286L270.513 15.5383L272.514 14.4634L272.625 13.5368L273.422 12.7214L274.145 12.6658L274.868 13.0921L275.461 12.6658H278L278.722 12.2766L279.408 12.4434ZM233.244 8.21802L233.614 8.27362L234.022 9.18169L233.837 9.81179L233.355 10.0898L231.928 9.62645L231.613 9.86738L231.465 9.68204L231.817 9.42262L232.225 8.31066L232.799 8.05124L233.244 8.21802ZM281.057 6.29064L281.298 6.45742L281.688 5.97556L282.095 5.90147L282.762 6.47597L283.911 6.56861L285.005 7.16166L284.467 8.03269L284.041 8.18092L284.152 10.0713L283.633 11.1832L281.854 11.4056L279.908 11.072L276.443 11.8874L275.683 11.5909L274.256 11.8689L274.163 10.5346L275.294 8.57014L277.518 7.2914L278.778 6.198L280.001 6.36478L280.798 5.88292L281.057 5.95707V6.29064ZM314.731 9.94153L313.174 11.8874L312.896 13.8704L310.413 16.1684L308.504 16.4464L308.078 16.1499L308.448 14.6488L307.429 12.2395L305.947 12.1654L304.686 13.0921L304.668 13.4071L303.63 13.1106L303.611 12.7214L304.501 11.7206L305.113 9.90448L308.133 8.18092L309.078 8.73693L309.153 9.97857L309.468 10.2566L310.19 10.0527L311.377 8.81102L311.729 7.95854L312.952 7.2543L314.286 4.99334L315.064 4.34475L316.251 4.3262L316.677 4.67832L316.844 5.40106L316.028 6.92073L316.176 8.73693L315.824 9.38558L314.731 9.94153ZM301.258 5.36401L303.111 5.58639L303.926 6.75395L301.202 7.77321L300.035 7.47674L298.7 7.99564L297.996 8.88516L297.866 9.75619L296.773 10.8681L296.643 11.4612L295.902 12.3507L295.235 12.2766L295.29 11.8133L295.012 11.665L294.215 11.6836L293.215 12.7584L292.344 13.2033L292.066 13.9074L292.77 14.797L292.974 15.7236L291.992 16.8726L290.917 16.7985L290.398 15.5013L290.009 15.3345L288.674 15.9275L287.803 17.2804L287.081 17.4842L285.635 16.9097L285.264 16.1684L284.301 15.6495L283.541 16.2981L281.91 16.0572L281.558 16.502L280.909 15.946L280.965 15.1677L281.669 15.1491L284.041 13.1662L284.838 11.5909L286.358 11.0905L286.747 10.6643L288.192 10.4234L289.286 9.645L287.914 8.25507L287.136 8.12533L285.32 8.4404L286.432 7.08752L287.266 6.7169L287.785 7.16166L288.971 7.3099L289.86 6.42038L290.935 6.21649L292.103 6.38328L292.325 6.55012L291.88 7.01343L291.658 7.8844L290.268 9.47822L290.194 9.97857L291.936 10.5716L293.252 9.53381L293.233 8.94076L292.659 8.66278L292.64 7.8659H293.567L293.437 8.51455L293.585 8.81102L294.66 7.8844L294.345 6.58716L293.641 6.34623V5.75318L294.938 5.58639L295.365 5.80877L295.29 6.55012L296.606 6.82809L296.847 6.55012L296.625 5.69758L299.442 3.97408L301.258 5.36401ZM322.959 2.54711L325.628 2.73239L325.294 3.34399L325.257 4.62273L325.721 4.91925L327.259 3.99263L330.372 3.39958L332.837 3.88144L335.543 3.93704L336.97 3.26984L338.527 3.60341L339.713 3.32544L341.436 3.41813L342.733 5.99411L342.585 8.10683L342.808 9.05195L342.103 9.66355L340.398 10.1269L334.839 10.3492L331.929 11.4797L329.927 11.6094L327.407 11.3129L325.424 12.5916L323.793 12.9623L323.311 12.3878L322.274 12.1469L320.031 13.4627L319.735 13.4071L319.605 12.8326L317.974 13.0179L317.251 12.3137L317.307 11.665L317.492 11.0905L319.253 8.97786L319.345 8.27362L320.105 8.03269L321.569 6.84659L322.755 6.69835L323.756 6.08681L323.46 5.84588L322.237 6.06826L319.29 7.53233L319.438 6.64276L319.123 5.93852L320.902 3.54782L321.551 2.86213L322.959 2.54711ZM271.94 2.06524L273.385 3.01042L273.441 3.82585L273.07 4.86366L273.589 5.4752L273.682 6.58716L274.942 7.8659L274.979 8.62574L273.663 9.88593L273.126 9.97857L271.884 9.27433L271.495 9.40407L270.42 10.9793L270.846 12.0357L270.624 13.1477L269.771 13.2773L268.808 12.6102L267.659 12.2951L267.362 12.5732L267.566 14.1855L269.197 15.909L269.289 17.0209L268.9 17.7066L267.269 18.3367L265.713 18.3182L265.509 19.078L265.12 18.7815H263.581L262.025 19.7452L261.524 19.5969L261.08 19.9676L260.19 20.0973L259.115 21.4687L255.464 22.6733L254.056 22.8216L253.074 22.4509L251.072 22.9328L249.756 22.5065L248.477 22.7289L247.829 22.1358L245.883 22.21L245.067 22.4509L244.512 23.2478L244.104 23.3219L243.177 24.2486L239.675 25.4902L237.895 25.5273L237.488 26.0833L235.282 26.9728L233.67 26.8431L232.706 26.0833L231.743 25.9535L231.391 26.213L231.502 27.047L231.224 27.6956L230.76 27.8253L230.186 27.5659L230.779 25.657L229.667 25.2122L228.759 24.4709L227.388 24.7489L222.717 24.1559L222.273 24.23L221.958 25.342L222.069 26.9172L221.272 27.6956L220.216 28.0106L218.9 27.2878L216.379 27.5473L215.842 27.2694L212.914 28.3813L211.209 29.5118L210.412 29.4747L207.688 28.5666L205.983 27.1767L205.464 25.6941L205.019 25.5273L203.518 25.8609L202.888 27.2508L202.035 27.4732L200.275 26.7505L198.773 26.6393L197.124 24.9713L192.306 25.0084L190.86 25.2678L190.415 25.0269L188.136 26.1944L187.58 25.8609L187.042 26.1574L184.911 25.6014L183.41 24.0447L182.799 23.952L178.666 25.0825L177.054 25.3049L176.275 25.1381L175.608 25.8423V26.4354L175.219 26.5651L174.44 26.3242L174.681 25.8238L174.385 25.657L174.403 24.8045L172.921 24.6748L172.643 24.1003L171.679 23.2849L171.568 22.5991L171.586 22.1358L171.753 21.4872L171.568 21.061L171.994 20.2085L172.013 18.1329L171.605 17.9475L171.772 17.3359L172.661 16.3723L172.569 16.0943L173.495 15.7792L174.088 15.0935L174.237 14.0743L173.606 13.2588L173.477 12.5361L174.255 12.4619L174.329 13.5368L174.885 13.648L175.089 13.9631L175.979 13.37L176.423 13.3885L177.165 12.6102L178.091 13.4812L178.536 12.814L178.073 12.5546L178.11 12.1098L178.758 11.072L179.704 11.1461L180.148 10.8311L180.538 10.8496L180.797 11.6465L181.205 11.9801L180.871 12.6472L181.575 12.7214L181.965 11.9986L181.983 10.1454L183.151 10.6828L183.614 9.88593H183.892L184.504 8.51455L184.948 8.58864L185.856 8.31066L186.301 7.84735L187.209 7.77321L188.525 7.71761L189.971 8.08828L191.286 7.62497L191.416 6.75395L191.768 6.43887L192.621 7.14311L192.602 7.75471L193.343 8.19947L194.919 7.58793L195.864 8.12533L197.198 8.14388L197.513 7.73616L197.069 7.23581L197.272 6.86514L198.662 7.51378L200.015 9.16314L200.923 9.08905L201.72 9.79329L203.888 9.51526L205.556 10.0527L207.688 10.0342L208.67 9.7006L209.596 9.83034L209.541 10.479L209.782 10.7199L210.708 10.6643V11.3315L211.098 12.0542L212.413 11.8689L213.618 12.3878L214.786 12.4619L215.49 12.9438L216.287 12.7955L217.677 13.648L219.122 13.8333L220.03 14.2225L221.42 16.4649L223.681 17.5027L225.256 16.6688L225.72 17.2433L226.331 17.4842L226.72 18.4665L227.666 17.3545L228.796 16.9838L228.333 16.5761L228.314 15.9275L228.629 15.8163L229.834 16.5947L229.426 15.7978L229.611 14.2781L230.001 13.8704L230.816 14.0743L230.76 14.7414L231.502 14.5376L231.947 15.1306L233.54 14.5561L235.19 14.7229L235.709 15.075L236.654 14.7044L237.191 14.1299L237.71 14.5376L239.36 14.6117L239.878 14.2967L240.879 12.9252L240.768 13.8518L241.713 13.0365L242.621 12.814L243.047 12.9252L242.547 14.4264L242.714 15.668L244.419 15.4642L244.956 16.1313L245.531 15.668L247.31 16.502L249.552 18.7444L251.684 19.2633L252.796 18.5591L253.778 18.3738L256.558 18.0772L257.336 18.2626L258.744 16.3167L258.67 15.5939L257.54 14.5932L257.948 13.9631L260.023 13.37L260.579 12.499L261.172 12.3322L261.432 11.3129L261.932 11.4426L262.469 10.9423L263.452 11.2203L265.676 10.2195L266.695 10.4048L268.103 8.34771L270.16 8.12533L270.828 7.69912L271.495 5.6235L272.292 5.14163L271.161 4.51154L269.994 4.49299L268.252 5.06749L267.492 6.32768L265.676 5.97556L265.62 5.73469L266.491 4.99334L267.269 3.62196V2.19499L268.789 1.80576L269.938 0.823547L271.94 2.06524Z" fill="#F85937" fill-opacity="0.24" stroke="#F85937" stroke-width="2.31786" mask="url(#path-3-inside-2_193_135)"/>
<mask id="path-4-inside-3_193_135" fill="white">
<path d="M321.626 36.5721L321.681 37.1466L321.329 37.5914L321.255 38.6848L320.885 39.4817L321.107 40.5195L320.551 40.7975L320.291 41.5943L319.383 41.7241L318.809 42.4654L318.494 42.4283L318.29 42.9843L318.512 43.4476L317.493 44.7078L317.901 45.5417L317.475 46.4684L315.232 46.9873L315.492 45.3935L315.028 44.263L313.49 42.7619L313.101 42.6878L311.804 43.4661L311.433 44.3557L310.673 44.5595L310.191 43.9665L309.339 44.0036L307.708 41.7982L311.118 40.5565L312.156 39.2593L315.603 37.962L321.626 36.5721ZM410.6 14.0181L405.485 18.1138L403.057 20.5971L395.756 23.0063L391.475 23.6364L389.084 24.7855L387.75 26.0827L387.119 27.6394L385.637 29.2888L380.818 30.0857L375.333 30.5676L368.606 34.9783L365.455 35.108L363.453 35.6269L351 39.667L348.924 40.8901L345.125 44.541L342.493 44.9302L341.215 45.7827L340.918 43.5773L340.029 42.5395L339.954 41.4646L338.157 40.223L337.675 38.2215L337.768 37.4987L338.287 36.4423L340.214 36.4053L341.548 37.4431L341.604 37.1837L342.79 36.4794L344.069 36.3311L343.791 34.9412L344.272 33.2918L344.235 31.7166L343.105 30.7714L342.623 30.6788L341.863 29.8448L341.344 31.0123L340.751 31.6424L339.621 31.9575L338.379 32.9212L337.545 32.9397L336.6 32.4764L336.174 31.8092L336.192 30.8455L336.748 29.678L336.378 29.5298L337.397 28.7885L341.326 23.1361L341.845 20.5971L342.994 19.1145L345.699 18.3176L351.945 17.0945L361.063 15.7601L365.418 14.1849L368.42 14.3887L369.977 14.7965L371.107 15.4266L372.868 15.5563L377.853 14.7409L379.577 14.0366L381.856 12.4614L383.58 12.3502L386.563 13.2397L387.75 14.2405L388.472 14.3146L395.144 12.3131L399.221 10.2561L402.631 9.10699L408.839 9.38503L412.194 11.4421L412.231 12.6282L410.6 14.0181Z"/>
</mask>
<path d="M321.626 36.5721L321.681 37.1466L321.329 37.5914L321.255 38.6848L320.885 39.4817L321.107 40.5195L320.551 40.7975L320.291 41.5943L319.383 41.7241L318.809 42.4654L318.494 42.4283L318.29 42.9843L318.512 43.4476L317.493 44.7078L317.901 45.5417L317.475 46.4684L315.232 46.9873L315.492 45.3935L315.028 44.263L313.49 42.7619L313.101 42.6878L311.804 43.4661L311.433 44.3557L310.673 44.5595L310.191 43.9665L309.339 44.0036L307.708 41.7982L311.118 40.5565L312.156 39.2593L315.603 37.962L321.626 36.5721ZM410.6 14.0181L405.485 18.1138L403.057 20.5971L395.756 23.0063L391.475 23.6364L389.084 24.7855L387.75 26.0827L387.119 27.6394L385.637 29.2888L380.818 30.0857L375.333 30.5676L368.606 34.9783L365.455 35.108L363.453 35.6269L351 39.667L348.924 40.8901L345.125 44.541L342.493 44.9302L341.215 45.7827L340.918 43.5773L340.029 42.5395L339.954 41.4646L338.157 40.223L337.675 38.2215L337.768 37.4987L338.287 36.4423L340.214 36.4053L341.548 37.4431L341.604 37.1837L342.79 36.4794L344.069 36.3311L343.791 34.9412L344.272 33.2918L344.235 31.7166L343.105 30.7714L342.623 30.6788L341.863 29.8448L341.344 31.0123L340.751 31.6424L339.621 31.9575L338.379 32.9212L337.545 32.9397L336.6 32.4764L336.174 31.8092L336.192 30.8455L336.748 29.678L336.378 29.5298L337.397 28.7885L341.326 23.1361L341.845 20.5971L342.994 19.1145L345.699 18.3176L351.945 17.0945L361.063 15.7601L365.418 14.1849L368.42 14.3887L369.977 14.7965L371.107 15.4266L372.868 15.5563L377.853 14.7409L379.577 14.0366L381.856 12.4614L383.58 12.3502L386.563 13.2397L387.75 14.2405L388.472 14.3146L395.144 12.3131L399.221 10.2561L402.631 9.10699L408.839 9.38503L412.194 11.4421L412.231 12.6282L410.6 14.0181Z" fill="#F85937" fill-opacity="0.24" stroke="#F85937" stroke-width="2.31786" mask="url(#path-4-inside-3_193_135)"/>
</g>
<defs>
<clipPath id="clip0_193_135">
<rect width="411.42" height="92.6621" fill="white" transform="translate(0.429688 0.541138)"/>
</clipPath>
</defs>
</svg>
