<svg width="334" height="346" viewBox="0 0 334 346" fill="none" xmlns="http://www.w3.org/2000/svg">
<g clip-path="url(#clip0_193_129)">
<mask id="path-1-inside-1_193_129" fill="white">
<path d="M147.387 342.261L144.551 342.134L141.879 340.825L141.589 340.225L143.497 339.535L145.969 339.662L147.841 340.589L147.95 341.534L147.387 342.261ZM110.545 337.026L113.889 338.208L117.052 338.48L118.633 338.208L119.433 338.698L119.487 339.153L116.615 342.188L116.27 342.279L110.127 340.243L109.254 339.698L108.018 337.317L110.545 337.026ZM203.622 344.951L202.404 345.042L202.386 344.624L205.276 341.497L207.511 340.28L208.584 338.48L210.219 336.681L210.819 336.517L215.399 337.99L214.254 339.117L208.511 341.334L206.548 342.733L206.275 343.533L204.185 344.878L203.622 344.951ZM171.015 335.754L168.725 335.209L165.253 330.956L164.999 330.247L165.271 328.92L165.453 328.229L165.962 327.666L168.925 327.266L172.651 328.266L173.359 328.847L173.977 331.465L171.015 335.754ZM75.1932 323.486L76.6654 323.504L77.4469 325.939L74.8842 326.048L71.8308 326.975L70.1949 328.138L68.4319 330.301L65.7601 331.719L61.3434 331.21L56.3815 330.229L54.564 330.265L50.3836 331.137L46.3304 334.391L45.7852 334.5L45.458 334.046L46.7303 329.193L51.7468 323.086L58.4535 325.067L63.27 324.231L65.5238 322.286L67.8685 321.195L72.0489 320.141L72.4305 320.414L72.5759 321.632L75.1932 323.486ZM96.404 322.849L95.9316 323.086L95.3135 322.958L94.8774 322.213L95.5498 318.578L96.2041 318.16L99.2758 319.16L99.3849 319.632L99.1486 320.905L96.404 322.849ZM212.073 318.433L209.638 317.669L209.22 316.706L209.783 315.834L210.728 315.488L214.963 315.052L215.345 315.307L214 316.942L212.073 318.433ZM233.048 308.909L231.721 309.472L231.03 309.345L229.922 310.254L231.139 316.197V317.488L229.595 322.141L227.777 324.503L222.397 328.466L220.598 331.374L220.489 333.664L220.125 334.282L219.289 334.718L214.054 334.209L213.182 333.773L212.419 329.593L215.727 323.885L215.309 322.958L217.217 317.778L219.398 315.961L220.252 315.634L221.906 314.071L224.142 311.362L226.614 307L227.995 306.255L230.358 306.001L232.139 306.891L233.048 308.909ZM238.937 305.71L240.573 308.145L240.845 309.309L240.354 310.254L240.027 310.345L238.501 309.29L237.755 307.673L235.956 307.346L233.83 307.818L232.903 307.636L232.648 307.237L232.83 306.364L233.357 306.001L238.937 305.71ZM136.045 308.891L135.154 309.2L132.41 307.491L131.992 306.746L132.101 306.364L132.682 305.71L134.9 304.365L137.426 305.746L137.572 306.11L136.845 307.909L136.045 308.891ZM332.45 281.936L331.905 282.536L330.76 285.171L330.578 286.371L329.433 288.588L328.96 288.17L328.124 288.298L327.997 289.025L328.306 289.861L328.851 290.17V290.897H328.251L327.652 291.26L327.415 292.514L326.216 294.368L325.253 295.277H324.707L323.689 294.496L323.817 293.659L324.725 292.823L325.325 291.387L325.452 289.879L326.18 288.807L325.634 288.861L325.216 288.316L324.616 286.698L324.798 285.789L325.998 284.953L327.325 284.481L327.27 283.154L327.579 282.736L328.833 282.136L329.378 281.173L331.178 279.737L332.141 279.791L332.686 280.337L332.45 281.936ZM265.582 268.886L264.473 269.341L262.983 268.868L262.183 268.068L262.274 265.814L261.856 261.907L260.984 259.417L261.184 258.835L263.219 258.253L266.509 264.524V266.578L265.582 268.886ZM327.106 260.907L327.288 262.761L328.015 264.742L326.87 264.978V265.524L329.269 266.723L329.215 267.323L328.906 267.796L328.179 267.977L326.797 267.378L326.743 268.286L327.47 268.759L327.597 269.177L327.47 269.959L326.997 270.195L326.343 270.068L325.198 269.159L324.889 269.395V269.94L326.579 271.14L326.943 271.794L327.961 272.394L328.615 273.466L327.961 277.665L327.415 279.337L326.216 281.373L323.926 282.572L323.017 282.391L322.599 282.754L323.253 284.553L324.217 285.153L324.089 286.062L322.108 287.861L320.491 287.389L319.891 287.698L319.473 288.716L319.654 289.315L320.563 289.007L320.509 289.915L319.364 291.769L318.11 292.605L315.71 295.368L315.656 296.568L314.747 297.713L311.021 299.33L310.476 299.93L309.64 299.839L308.985 298.221L308.386 297.676H307.131L305.75 295.277V294.623L306.168 294.259L306.822 291.497L307.24 285.844L307.786 284.463L307.731 283.681L308.277 281.882L308.04 278.701L307.259 275.938L308.458 275.811L307.677 273.648L308.095 272.63V271.722L308.876 271.067L309.185 271.376V271.976L309.658 272.031L310.567 271.485H311.475L311.657 272.685L312.021 272.994L312.62 272.812L313.457 271.976L314.42 269.577V269.213L313.511 268.668L313.566 268.123L313.875 267.578L314.838 266.85L314.965 266.251L315.692 265.651L316.165 264.506L316.038 264.088L315.492 263.852L314.583 264.397L313.257 263.324L311.748 263.143L310.839 262.179L310.967 261.58L312.112 260.325L313.911 261.471L314.565 261.525L316.91 259.726L318.055 256.727L319.436 255.818L319.564 254.673L319.2 253.11L319.509 252.274L321.127 250.056L322.272 249.747L322.926 250.111L324.671 253.11L325.58 253.891L325.634 254.491L326.416 255.691L326.47 257.726L327.979 259.653L327.852 260.562L327.106 260.907ZM271.253 266.687L267.927 271.013L267.618 270.922L267.6 270.358L270.526 261.271L271.144 260.18L272.216 259.162L276.251 249.02L276.996 248.711L278.032 248.857L278.632 250.129L276.179 258.108L275.215 259.289L273.67 260.198L271.544 263.106L271.035 264.942L271.253 266.687ZM131.901 196.202L128.12 196.947L127.884 196.711L128.357 195.657L128.339 193.876L129.302 193.167L131.501 193.385L133.173 195.039L133.137 195.402L131.901 196.202ZM135.063 193.203L136.554 193.73L137.208 192.549L137.681 192.603L138.208 194.021V196.184L135.591 196.584L135.191 196.42L133.01 193.367L132.955 192.803L133.355 192.422L133.828 192.385L135.063 193.203ZM125.994 196.475L124.831 198.583L123.013 200.11L119.178 201.219L118.487 201.146L121.777 198.038L122.177 197.22L121.668 197.002L115.016 201.146L113.653 201.055L112.889 200.092L112.835 198.565L114.471 196.766L116.434 195.511L121.359 194.566L122.759 192.84L124.049 192.313L125.049 192.549L126.085 193.149L126.357 193.585L125.994 196.475ZM103.911 188.332L100.384 187.314L99.1304 186.078L100.494 184.988L101.911 185.17L103.62 186.769L104.456 187.969L103.911 188.332ZM108.327 184.861L105.165 184.842L104.074 183.934L106.273 181.934L107.782 181.698L108.836 182.534L108.764 184.588L108.327 184.861ZM83.8266 181.444L87.2254 183.588L87.6071 185.351L85.735 185.26L85.3352 185.915L85.6987 187.26L87.0619 188.496L88.0251 188.132L88.5886 187.532L92.2237 188.732L91.4785 196.238L90.8605 197.384L89.8791 197.674L88.6794 197.347L87.3708 197.674L84.5536 198.838L79.8643 201.346L74.4117 203.036L68.5955 200.964L64.6332 199.128L60.2347 196.166L54.0005 190.259L53.1462 187.896L52.8917 182.679L53.3825 181.662L55.6181 180.135L56.3633 180.298L57.1449 181.389L58.1809 182.243L59.2896 182.298L60.2892 180.935L61.5251 180.244L65.6874 179.153L75.7748 178.754L78.592 179.226L83.8266 181.444ZM171.924 174.028L178.957 176.827L181.175 176.936L188.954 176.245L190.154 176.554L196.842 181.298L198.133 184.588V187.078L198.623 188.732L199.441 189.677L201.641 189.604L203.149 189.968L204.312 191.131L205.803 195.475L205.675 196.602L204.585 198.147L204.131 202.763L204.403 204.236L197.678 201.6L195.843 199.674L190.826 196.747L182.52 193.948L178.031 191.658L177.013 190.313L176.958 188.768L175.522 187.623L174.795 187.387L167.361 186.824L163.09 186.224L162.563 186.805L162.781 187.787L164.108 189.35L164.453 190.368L163.999 191.404L163.145 191.622L156.492 189.968L154.584 189.822L151.621 188.696L150.258 187.86L145.024 188.078L144.442 187.605L144.733 186.896L145.987 185.769L146.06 184.552L144.806 183.661L143.206 183.425L139.716 185.624L137.045 188.114L136.59 188.968L134.736 190.531L131.101 191.331L130.247 191.295L129.066 190.804L128.175 190.041L124.976 185.297L122.304 183.497L121.177 179.208L119.923 179.244L118.506 180.68L117.379 183.425L116.779 187.478L115.943 188.641L115.161 188.841L113.471 191.876L112.871 194.403L112.58 193.948L112.126 192.058L113.071 189.968L113.289 187.696L111.708 185.242L110.89 182.752L114.907 179.626L120.832 172.428L128.048 172.61L133.191 172.374L142.188 172.701L146.06 171.829L147.659 170.538L148.313 170.593L148.895 170.938L149.131 171.574L149.077 174.028L150.04 175.137L151.04 175.718L153.548 175.191L157.747 172.519L158.346 172.029L158.674 170.756L159.546 170.375L163.417 170.102L166.653 171.083L171.106 172.937L171.924 174.028Z"/>
</mask>
<path d="M147.387 342.261L144.551 342.134L141.879 340.825L141.589 340.225L143.497 339.535L145.969 339.662L147.841 340.589L147.95 341.534L147.387 342.261ZM110.545 337.026L113.889 338.208L117.052 338.48L118.633 338.208L119.433 338.698L119.487 339.153L116.615 342.188L116.27 342.279L110.127 340.243L109.254 339.698L108.018 337.317L110.545 337.026ZM203.622 344.951L202.404 345.042L202.386 344.624L205.276 341.497L207.511 340.28L208.584 338.48L210.219 336.681L210.819 336.517L215.399 337.99L214.254 339.117L208.511 341.334L206.548 342.733L206.275 343.533L204.185 344.878L203.622 344.951ZM171.015 335.754L168.725 335.209L165.253 330.956L164.999 330.247L165.271 328.92L165.453 328.229L165.962 327.666L168.925 327.266L172.651 328.266L173.359 328.847L173.977 331.465L171.015 335.754ZM75.1932 323.486L76.6654 323.504L77.4469 325.939L74.8842 326.048L71.8308 326.975L70.1949 328.138L68.4319 330.301L65.7601 331.719L61.3434 331.21L56.3815 330.229L54.564 330.265L50.3836 331.137L46.3304 334.391L45.7852 334.5L45.458 334.046L46.7303 329.193L51.7468 323.086L58.4535 325.067L63.27 324.231L65.5238 322.286L67.8685 321.195L72.0489 320.141L72.4305 320.414L72.5759 321.632L75.1932 323.486ZM96.404 322.849L95.9316 323.086L95.3135 322.958L94.8774 322.213L95.5498 318.578L96.2041 318.16L99.2758 319.16L99.3849 319.632L99.1486 320.905L96.404 322.849ZM212.073 318.433L209.638 317.669L209.22 316.706L209.783 315.834L210.728 315.488L214.963 315.052L215.345 315.307L214 316.942L212.073 318.433ZM233.048 308.909L231.721 309.472L231.03 309.345L229.922 310.254L231.139 316.197V317.488L229.595 322.141L227.777 324.503L222.397 328.466L220.598 331.374L220.489 333.664L220.125 334.282L219.289 334.718L214.054 334.209L213.182 333.773L212.419 329.593L215.727 323.885L215.309 322.958L217.217 317.778L219.398 315.961L220.252 315.634L221.906 314.071L224.142 311.362L226.614 307L227.995 306.255L230.358 306.001L232.139 306.891L233.048 308.909ZM238.937 305.71L240.573 308.145L240.845 309.309L240.354 310.254L240.027 310.345L238.501 309.29L237.755 307.673L235.956 307.346L233.83 307.818L232.903 307.636L232.648 307.237L232.83 306.364L233.357 306.001L238.937 305.71ZM136.045 308.891L135.154 309.2L132.41 307.491L131.992 306.746L132.101 306.364L132.682 305.71L134.9 304.365L137.426 305.746L137.572 306.11L136.845 307.909L136.045 308.891ZM332.45 281.936L331.905 282.536L330.76 285.171L330.578 286.371L329.433 288.588L328.96 288.17L328.124 288.298L327.997 289.025L328.306 289.861L328.851 290.17V290.897H328.251L327.652 291.26L327.415 292.514L326.216 294.368L325.253 295.277H324.707L323.689 294.496L323.817 293.659L324.725 292.823L325.325 291.387L325.452 289.879L326.18 288.807L325.634 288.861L325.216 288.316L324.616 286.698L324.798 285.789L325.998 284.953L327.325 284.481L327.27 283.154L327.579 282.736L328.833 282.136L329.378 281.173L331.178 279.737L332.141 279.791L332.686 280.337L332.45 281.936ZM265.582 268.886L264.473 269.341L262.983 268.868L262.183 268.068L262.274 265.814L261.856 261.907L260.984 259.417L261.184 258.835L263.219 258.253L266.509 264.524V266.578L265.582 268.886ZM327.106 260.907L327.288 262.761L328.015 264.742L326.87 264.978V265.524L329.269 266.723L329.215 267.323L328.906 267.796L328.179 267.977L326.797 267.378L326.743 268.286L327.47 268.759L327.597 269.177L327.47 269.959L326.997 270.195L326.343 270.068L325.198 269.159L324.889 269.395V269.94L326.579 271.14L326.943 271.794L327.961 272.394L328.615 273.466L327.961 277.665L327.415 279.337L326.216 281.373L323.926 282.572L323.017 282.391L322.599 282.754L323.253 284.553L324.217 285.153L324.089 286.062L322.108 287.861L320.491 287.389L319.891 287.698L319.473 288.716L319.654 289.315L320.563 289.007L320.509 289.915L319.364 291.769L318.11 292.605L315.71 295.368L315.656 296.568L314.747 297.713L311.021 299.33L310.476 299.93L309.64 299.839L308.985 298.221L308.386 297.676H307.131L305.75 295.277V294.623L306.168 294.259L306.822 291.497L307.24 285.844L307.786 284.463L307.731 283.681L308.277 281.882L308.04 278.701L307.259 275.938L308.458 275.811L307.677 273.648L308.095 272.63V271.722L308.876 271.067L309.185 271.376V271.976L309.658 272.031L310.567 271.485H311.475L311.657 272.685L312.021 272.994L312.62 272.812L313.457 271.976L314.42 269.577V269.213L313.511 268.668L313.566 268.123L313.875 267.578L314.838 266.85L314.965 266.251L315.692 265.651L316.165 264.506L316.038 264.088L315.492 263.852L314.583 264.397L313.257 263.324L311.748 263.143L310.839 262.179L310.967 261.58L312.112 260.325L313.911 261.471L314.565 261.525L316.91 259.726L318.055 256.727L319.436 255.818L319.564 254.673L319.2 253.11L319.509 252.274L321.127 250.056L322.272 249.747L322.926 250.111L324.671 253.11L325.58 253.891L325.634 254.491L326.416 255.691L326.47 257.726L327.979 259.653L327.852 260.562L327.106 260.907ZM271.253 266.687L267.927 271.013L267.618 270.922L267.6 270.358L270.526 261.271L271.144 260.18L272.216 259.162L276.251 249.02L276.996 248.711L278.032 248.857L278.632 250.129L276.179 258.108L275.215 259.289L273.67 260.198L271.544 263.106L271.035 264.942L271.253 266.687ZM131.901 196.202L128.12 196.947L127.884 196.711L128.357 195.657L128.339 193.876L129.302 193.167L131.501 193.385L133.173 195.039L133.137 195.402L131.901 196.202ZM135.063 193.203L136.554 193.73L137.208 192.549L137.681 192.603L138.208 194.021V196.184L135.591 196.584L135.191 196.42L133.01 193.367L132.955 192.803L133.355 192.422L133.828 192.385L135.063 193.203ZM125.994 196.475L124.831 198.583L123.013 200.11L119.178 201.219L118.487 201.146L121.777 198.038L122.177 197.22L121.668 197.002L115.016 201.146L113.653 201.055L112.889 200.092L112.835 198.565L114.471 196.766L116.434 195.511L121.359 194.566L122.759 192.84L124.049 192.313L125.049 192.549L126.085 193.149L126.357 193.585L125.994 196.475ZM103.911 188.332L100.384 187.314L99.1304 186.078L100.494 184.988L101.911 185.17L103.62 186.769L104.456 187.969L103.911 188.332ZM108.327 184.861L105.165 184.842L104.074 183.934L106.273 181.934L107.782 181.698L108.836 182.534L108.764 184.588L108.327 184.861ZM83.8266 181.444L87.2254 183.588L87.6071 185.351L85.735 185.26L85.3352 185.915L85.6987 187.26L87.0619 188.496L88.0251 188.132L88.5886 187.532L92.2237 188.732L91.4785 196.238L90.8605 197.384L89.8791 197.674L88.6794 197.347L87.3708 197.674L84.5536 198.838L79.8643 201.346L74.4117 203.036L68.5955 200.964L64.6332 199.128L60.2347 196.166L54.0005 190.259L53.1462 187.896L52.8917 182.679L53.3825 181.662L55.6181 180.135L56.3633 180.298L57.1449 181.389L58.1809 182.243L59.2896 182.298L60.2892 180.935L61.5251 180.244L65.6874 179.153L75.7748 178.754L78.592 179.226L83.8266 181.444ZM171.924 174.028L178.957 176.827L181.175 176.936L188.954 176.245L190.154 176.554L196.842 181.298L198.133 184.588V187.078L198.623 188.732L199.441 189.677L201.641 189.604L203.149 189.968L204.312 191.131L205.803 195.475L205.675 196.602L204.585 198.147L204.131 202.763L204.403 204.236L197.678 201.6L195.843 199.674L190.826 196.747L182.52 193.948L178.031 191.658L177.013 190.313L176.958 188.768L175.522 187.623L174.795 187.387L167.361 186.824L163.09 186.224L162.563 186.805L162.781 187.787L164.108 189.35L164.453 190.368L163.999 191.404L163.145 191.622L156.492 189.968L154.584 189.822L151.621 188.696L150.258 187.86L145.024 188.078L144.442 187.605L144.733 186.896L145.987 185.769L146.06 184.552L144.806 183.661L143.206 183.425L139.716 185.624L137.045 188.114L136.59 188.968L134.736 190.531L131.101 191.331L130.247 191.295L129.066 190.804L128.175 190.041L124.976 185.297L122.304 183.497L121.177 179.208L119.923 179.244L118.506 180.68L117.379 183.425L116.779 187.478L115.943 188.641L115.161 188.841L113.471 191.876L112.871 194.403L112.58 193.948L112.126 192.058L113.071 189.968L113.289 187.696L111.708 185.242L110.89 182.752L114.907 179.626L120.832 172.428L128.048 172.61L133.191 172.374L142.188 172.701L146.06 171.829L147.659 170.538L148.313 170.593L148.895 170.938L149.131 171.574L149.077 174.028L150.04 175.137L151.04 175.718L153.548 175.191L157.747 172.519L158.346 172.029L158.674 170.756L159.546 170.375L163.417 170.102L166.653 171.083L171.106 172.937L171.924 174.028Z" fill="#F85937" fill-opacity="0.24" stroke="#F85937" stroke-width="2.31786" mask="url(#path-1-inside-1_193_129)"/>
<mask id="path-2-inside-2_193_129" fill="white">
<path d="M54.7632 160.487L53.8362 160.632L52.8729 160.087L52.0186 159.015L51.3825 157.706L50.9281 154.707L49.3105 152.362L48.1836 147.855L48.9833 145.874L49.4377 145.147L50.092 144.729L51.1644 144.874L52.6003 146.128L52.6367 146.91L51.6733 149.582L51.6188 150.69L55.3266 158.815L54.7632 160.487ZM34.8245 139.585L41.6767 140.167L44.0577 139.858L45.0393 139.276L52.2005 139.058L63.5238 140.021L63.0694 140.712L60.5066 141.802L51.9642 142.766L35.8061 143.765L32.0619 142.002L31.8256 141.603L31.8074 140.094L32.9525 138.767L34.0249 138.604L34.352 139.294L34.8245 139.585ZM19.7206 136.295L21.4837 136.913L24.8462 136.004L30.2625 137.295L31.1349 139.076L31.1894 142.111L30.4988 141.875L26.1549 141.73L22.8833 142.22L22.0654 142.639L21.8109 143.693L21.1202 143.911L16.5581 142.42L14.4134 142.911L11.4326 144.674L7.72481 145.71L6.14355 146.037L2.41758 146.146L0.000198335 141.966L-0.0361328 140.021L1.23612 136.113L2.10857 135.114L6.36164 134.278L9.65142 134.26L19.7206 136.295ZM111.671 127.735L118.923 131.951L119.886 132.769L120.413 133.696L120.468 134.478L119.813 135.859L118.287 136.695L117.323 136.804L106.236 135.932L104.164 137.131L101.147 137.586L97.6212 135.968L96.4397 135.005L95.9489 134.205L96.4579 132.315L96.3307 131.406L96.7306 129.498L97.4031 128.171L97.9483 127.553L98.5299 128.007L103.819 124.736L106.745 125.299L111.671 127.735ZM103.346 122.445L99.6022 122.791L98.3845 121.973V121.646L99.9476 120.21L101.22 119.774L104.491 121.082L103.346 122.445ZM94.0223 107.978L92.7501 108.414L89.0786 107.578L88.8423 107.233L88.8787 106.342L89.9328 102.998L90.3691 102.561L91.1325 102.38L91.9504 102.561L93.1317 104.779L94.0223 107.978ZM101.983 93.201L105.509 97.7631L104.946 99.4898L103.674 100.708L102.983 102.18L103.092 103.052L104.419 105.124L105.4 105.688L106.545 104.997L108.781 104.67L110.78 105.56L112.18 107.414L112.071 108.341L109.635 110.341L107.709 110.868L105.237 109.813L103.037 107.142L99.1842 108.777L98.3845 108.505L97.7665 107.414L96.6578 102.561L93.5317 99.2535L93.1135 97.4177L94.0769 93.8372L95.6582 93.4373L96.9668 94.6005L99.1297 94.128L100.729 92.8375L101.983 93.201ZM89.7693 99.6897L87.6791 99.5624L87.3883 98.7627L87.3519 92.3649L88.5334 91.5107L91.4414 91.2017L92.1685 92.0378L92.8592 95.0731L92.0231 98.7082L89.7693 99.6897ZM111.398 26.733L112.252 27.042L112.852 26.8784L113.616 27.0965L115.361 28.6778L115.851 29.5866L116.633 35.6572L115.142 41.0735L112.58 45.5629L110.271 47.4713L104.528 51.3972L103.819 52.4696L103.91 54.3235L104.673 55.614L107.727 57.7768L108.981 58.3039L110.544 58.0677L112.834 56.341L113.198 52.2151L114.633 49.7978L116.651 48.2529L118.25 48.0529L119.668 48.3074L120.704 47.7803L121.595 45.9082L121.322 45.054L120.722 44.5632L119.941 44.4723L119.559 42.9819L121.377 40.092L127.229 36.0389L129.356 35.1483L132.7 34.2213L135.172 33.8578L137.026 33.9123L137.735 34.0577L138.207 34.4939L137.353 48.7072L136.299 49.925L129.428 53.9418L124.812 55.2868L122.104 57.9767L122.085 58.7765L122.849 60.3214L124.812 62.0117L126.393 62.9205L133.9 65.6287L135.263 65.5741L136.626 65.8649L137.207 70.3725L136.899 71.9719L138.098 72.8444L141.497 73.7531L142.915 74.9164L143.878 76.7703L142.26 75.5707L141.042 75.1163L132.518 73.117L129.665 70.7178L126.738 70.6996L124.23 71.0632L122.158 70.5179L121.086 69.8999L120.468 69.0093L117.742 68.5368L114.088 68.2096L112.943 68.9003L112.471 69.5001L111.616 73.735L112.489 74.4256L113.034 78.7332L111.78 80.7871L111.853 83.2408L116.596 95.6729L118.396 99.0353L119.777 100.871L122.158 104.924L128.083 110.813L124.321 110.613L123.394 110.304L122.703 109.65L122.94 109.014L119.795 106.615L117.087 105.506L116.106 104.706L113.634 99.2534L111.017 94.8913L106.618 92.4194L104.891 89.7658L106.055 80.987L105.655 76.9157L104.655 72.4445L103.474 71.7902L101.965 70.1907L100.584 65.974L100.457 64.2473L101.165 60.6849L102.492 59.3036L103.474 57.3406L103.328 56.3955L99.9658 55.3958L99.6022 54.8506L100.075 53.0694L99.2206 50.0886L96.676 50.5611L96.4397 49.8523L96.6396 45.1448L100.566 38.0382L100.802 36.2206L100.529 35.5299L101.892 28.6959L105.782 22.8979L112.634 15.5914L113.834 14.5735L117.196 14.5553L116.76 16.591L113.834 21.0259L113.07 21.9346L112.216 22.2073L110.962 23.2069L110.798 26.0423L111.398 26.733ZM131.119 19.1356L127.629 19.2992L124.157 20.1534L123.176 17.5725L122.594 13.0104L122.776 11.1202L124.648 7.63048L126.375 5.48576L129.101 2.83213L133.136 0.923706L133.591 1.01458L137.008 5.68569L137.28 7.12156L134.954 13.9374L133.336 16.8455L131.555 18.8812L131.119 19.1356Z"/>
</mask>
<path d="M54.7632 160.487L53.8362 160.632L52.8729 160.087L52.0186 159.015L51.3825 157.706L50.9281 154.707L49.3105 152.362L48.1836 147.855L48.9833 145.874L49.4377 145.147L50.092 144.729L51.1644 144.874L52.6003 146.128L52.6367 146.91L51.6733 149.582L51.6188 150.69L55.3266 158.815L54.7632 160.487ZM34.8245 139.585L41.6767 140.167L44.0577 139.858L45.0393 139.276L52.2005 139.058L63.5238 140.021L63.0694 140.712L60.5066 141.802L51.9642 142.766L35.8061 143.765L32.0619 142.002L31.8256 141.603L31.8074 140.094L32.9525 138.767L34.0249 138.604L34.352 139.294L34.8245 139.585ZM19.7206 136.295L21.4837 136.913L24.8462 136.004L30.2625 137.295L31.1349 139.076L31.1894 142.111L30.4988 141.875L26.1549 141.73L22.8833 142.22L22.0654 142.639L21.8109 143.693L21.1202 143.911L16.5581 142.42L14.4134 142.911L11.4326 144.674L7.72481 145.71L6.14355 146.037L2.41758 146.146L0.000198335 141.966L-0.0361328 140.021L1.23612 136.113L2.10857 135.114L6.36164 134.278L9.65142 134.26L19.7206 136.295ZM111.671 127.735L118.923 131.951L119.886 132.769L120.413 133.696L120.468 134.478L119.813 135.859L118.287 136.695L117.323 136.804L106.236 135.932L104.164 137.131L101.147 137.586L97.6212 135.968L96.4397 135.005L95.9489 134.205L96.4579 132.315L96.3307 131.406L96.7306 129.498L97.4031 128.171L97.9483 127.553L98.5299 128.007L103.819 124.736L106.745 125.299L111.671 127.735ZM103.346 122.445L99.6022 122.791L98.3845 121.973V121.646L99.9476 120.21L101.22 119.774L104.491 121.082L103.346 122.445ZM94.0223 107.978L92.7501 108.414L89.0786 107.578L88.8423 107.233L88.8787 106.342L89.9328 102.998L90.3691 102.561L91.1325 102.38L91.9504 102.561L93.1317 104.779L94.0223 107.978ZM101.983 93.201L105.509 97.7631L104.946 99.4898L103.674 100.708L102.983 102.18L103.092 103.052L104.419 105.124L105.4 105.688L106.545 104.997L108.781 104.67L110.78 105.56L112.18 107.414L112.071 108.341L109.635 110.341L107.709 110.868L105.237 109.813L103.037 107.142L99.1842 108.777L98.3845 108.505L97.7665 107.414L96.6578 102.561L93.5317 99.2535L93.1135 97.4177L94.0769 93.8372L95.6582 93.4373L96.9668 94.6005L99.1297 94.128L100.729 92.8375L101.983 93.201ZM89.7693 99.6897L87.6791 99.5624L87.3883 98.7627L87.3519 92.3649L88.5334 91.5107L91.4414 91.2017L92.1685 92.0378L92.8592 95.0731L92.0231 98.7082L89.7693 99.6897ZM111.398 26.733L112.252 27.042L112.852 26.8784L113.616 27.0965L115.361 28.6778L115.851 29.5866L116.633 35.6572L115.142 41.0735L112.58 45.5629L110.271 47.4713L104.528 51.3972L103.819 52.4696L103.91 54.3235L104.673 55.614L107.727 57.7768L108.981 58.3039L110.544 58.0677L112.834 56.341L113.198 52.2151L114.633 49.7978L116.651 48.2529L118.25 48.0529L119.668 48.3074L120.704 47.7803L121.595 45.9082L121.322 45.054L120.722 44.5632L119.941 44.4723L119.559 42.9819L121.377 40.092L127.229 36.0389L129.356 35.1483L132.7 34.2213L135.172 33.8578L137.026 33.9123L137.735 34.0577L138.207 34.4939L137.353 48.7072L136.299 49.925L129.428 53.9418L124.812 55.2868L122.104 57.9767L122.085 58.7765L122.849 60.3214L124.812 62.0117L126.393 62.9205L133.9 65.6287L135.263 65.5741L136.626 65.8649L137.207 70.3725L136.899 71.9719L138.098 72.8444L141.497 73.7531L142.915 74.9164L143.878 76.7703L142.26 75.5707L141.042 75.1163L132.518 73.117L129.665 70.7178L126.738 70.6996L124.23 71.0632L122.158 70.5179L121.086 69.8999L120.468 69.0093L117.742 68.5368L114.088 68.2096L112.943 68.9003L112.471 69.5001L111.616 73.735L112.489 74.4256L113.034 78.7332L111.78 80.7871L111.853 83.2408L116.596 95.6729L118.396 99.0353L119.777 100.871L122.158 104.924L128.083 110.813L124.321 110.613L123.394 110.304L122.703 109.65L122.94 109.014L119.795 106.615L117.087 105.506L116.106 104.706L113.634 99.2534L111.017 94.8913L106.618 92.4194L104.891 89.7658L106.055 80.987L105.655 76.9157L104.655 72.4445L103.474 71.7902L101.965 70.1907L100.584 65.974L100.457 64.2473L101.165 60.6849L102.492 59.3036L103.474 57.3406L103.328 56.3955L99.9658 55.3958L99.6022 54.8506L100.075 53.0694L99.2206 50.0886L96.676 50.5611L96.4397 49.8523L96.6396 45.1448L100.566 38.0382L100.802 36.2206L100.529 35.5299L101.892 28.6959L105.782 22.8979L112.634 15.5914L113.834 14.5735L117.196 14.5553L116.76 16.591L113.834 21.0259L113.07 21.9346L112.216 22.2073L110.962 23.2069L110.798 26.0423L111.398 26.733ZM131.119 19.1356L127.629 19.2992L124.157 20.1534L123.176 17.5725L122.594 13.0104L122.776 11.1202L124.648 7.63048L126.375 5.48576L129.101 2.83213L133.136 0.923706L133.591 1.01458L137.008 5.68569L137.28 7.12156L134.954 13.9374L133.336 16.8455L131.555 18.8812L131.119 19.1356Z" fill="#F85937" fill-opacity="0.24" stroke="#F85937" stroke-width="2.31786" mask="url(#path-2-inside-2_193_129)"/>
</g>
<defs>
<clipPath id="clip0_193_129">
<rect width="332.613" height="345.336" fill="white" transform="translate(0.499023 0.0438232)"/>
</clipPath>
</defs>
</svg>
