<svg width="406" height="412" viewBox="0 0 406 412" fill="none" xmlns="http://www.w3.org/2000/svg">
<g clip-path="url(#clip0_193_210)">
<mask id="path-1-inside-1_193_210" fill="white">
<path d="M66.023 165.828L65.7185 166.007L64.4465 164.054L62.2071 161.654L60.4514 160.83L59.3944 160.651L58.9644 160.382L59.1615 160.113L60.9351 159.755L64.6256 159.988L65.8618 161.923L66.4709 163.678L66.453 165.219L66.023 165.828ZM16.6663 56.3475L21.3064 58.8915L21.4497 60.0739L21.9513 60.898L23.7608 62.6896L26.9676 65.1977L28.4904 65.8247L35.5491 67.5804L42.7869 68.0642L46.2087 67.4371L50.2038 65.8606H50.8488L52.4611 66.7205L55.1843 66.0756L57.1908 66.2905L59.7168 67.24L60.3976 67.8313L60.9709 69.372L62.0817 69.7482L63.8374 69.3899L70.8781 66.6668L71.7201 66.7026L73.2966 68.2971L75.2494 71.0023L79.1012 75.0511L81.896 77.416L84.0638 77.9176L85.6582 81.0886L85.927 83.8117L86.6615 85.5495L87.4498 86.6065L87.2885 88.2726L88.7576 88.0935L90.4954 88.7384L91.6419 89.2938L95.3325 92.1244L95.5833 94.5072L94.9384 96.0479L94.2217 96.2987L92.7885 96.03L91.409 96.4062L91.3015 96.9795L90.8178 97.1945L89.8146 97.4095L89.1338 97.2482L88.9726 97.6244L89.51 98.5739L89.4563 99.2547L88.7217 99.6847L88.9905 100.527L88.1485 101.745L88.2022 103.483L87.826 104.002L87.396 106.385L85.2283 107.55L85.3357 108.23L85.067 108.714L84.0638 108.033L83.7413 108.087L83.58 108.66L84.3146 109.986L84.0996 110.613L81.4481 112.727L80.6598 113.838L81.2511 115.307L82.0931 116.203V116.776L82.5768 117.098L82.523 118.424L83.8488 119.051L84.225 120.628L85.2283 121.362L84.6371 122.312L85.1208 123.315L85.1745 124.103L86.339 124.892L86.8227 124.677L87.5035 125.949L87.0735 127.364L82.8276 128.528L82.9888 128.851L84.0458 129.066L84.9416 129.962L85.0491 131.287L86.1599 132.452L85.9986 134.19L84.8879 134.082L84.5654 134.297L84.9416 134.763L84.8879 135.712L85.3716 137.289V139.188L87.0198 139.618L88.0768 141.517L89.7787 141.732L89.725 142.198L90.155 142.717L89.5638 143.613L89.4563 144.294L89.725 145.458L90.6208 146.354L90.6745 146.82L89.5638 147.196L89.1338 149.722L89.4563 151.514L90.1908 152.517L90.0833 153.789L91.5703 154.416L92.5198 157.318L91.427 162.317L85.1387 158.769H84.4221L82.7559 159.594L78.9937 158.644L76.0377 154.524L75.8585 147.357L75.2853 143.47L74.2462 140.281L73.8879 139.905L72.4546 139.887L69.6419 138.776L68.7999 138.382L67.6175 137.253L65.396 134.154L64.5719 130.642L63.7299 129.263L60.9888 128.331L58.1582 123.817L55.9546 119.66L53.4465 118.263L52.6045 117.331L52.067 115.307L49.2005 113.3L44.4709 113.032L42.0882 113.426L40.8699 113.175L39.9383 112.637L36.9285 109.699L33.5963 104.737L30.5507 101.494L29.1891 101.064L26.8422 99.2547L25.0865 98.4665L22.9904 96.6033L19.479 92.3752L14.3911 87.6456L10.2705 84.2775L6.92038 79.2075L2.60279 70.8052L3.21191 69.6049L3.10442 69.0674L1.00832 65.7172L1.72494 61.9192L0.72168 59.626L1.02624 56.8133L2.56696 56.8312L6.45458 54.3231L7.1712 54.1977L12.3129 54.986L16.6663 56.3475Z"/>
</mask>
<path d="M66.023 165.828L65.7185 166.007L64.4465 164.054L62.2071 161.654L60.4514 160.83L59.3944 160.651L58.9644 160.382L59.1615 160.113L60.9351 159.755L64.6256 159.988L65.8618 161.923L66.4709 163.678L66.453 165.219L66.023 165.828ZM16.6663 56.3475L21.3064 58.8915L21.4497 60.0739L21.9513 60.898L23.7608 62.6896L26.9676 65.1977L28.4904 65.8247L35.5491 67.5804L42.7869 68.0642L46.2087 67.4371L50.2038 65.8606H50.8488L52.4611 66.7205L55.1843 66.0756L57.1908 66.2905L59.7168 67.24L60.3976 67.8313L60.9709 69.372L62.0817 69.7482L63.8374 69.3899L70.8781 66.6668L71.7201 66.7026L73.2966 68.2971L75.2494 71.0023L79.1012 75.0511L81.896 77.416L84.0638 77.9176L85.6582 81.0886L85.927 83.8117L86.6615 85.5495L87.4498 86.6065L87.2885 88.2726L88.7576 88.0935L90.4954 88.7384L91.6419 89.2938L95.3325 92.1244L95.5833 94.5072L94.9384 96.0479L94.2217 96.2987L92.7885 96.03L91.409 96.4062L91.3015 96.9795L90.8178 97.1945L89.8146 97.4095L89.1338 97.2482L88.9726 97.6244L89.51 98.5739L89.4563 99.2547L88.7217 99.6847L88.9905 100.527L88.1485 101.745L88.2022 103.483L87.826 104.002L87.396 106.385L85.2283 107.55L85.3357 108.23L85.067 108.714L84.0638 108.033L83.7413 108.087L83.58 108.66L84.3146 109.986L84.0996 110.613L81.4481 112.727L80.6598 113.838L81.2511 115.307L82.0931 116.203V116.776L82.5768 117.098L82.523 118.424L83.8488 119.051L84.225 120.628L85.2283 121.362L84.6371 122.312L85.1208 123.315L85.1745 124.103L86.339 124.892L86.8227 124.677L87.5035 125.949L87.0735 127.364L82.8276 128.528L82.9888 128.851L84.0458 129.066L84.9416 129.962L85.0491 131.287L86.1599 132.452L85.9986 134.19L84.8879 134.082L84.5654 134.297L84.9416 134.763L84.8879 135.712L85.3716 137.289V139.188L87.0198 139.618L88.0768 141.517L89.7787 141.732L89.725 142.198L90.155 142.717L89.5638 143.613L89.4563 144.294L89.725 145.458L90.6208 146.354L90.6745 146.82L89.5638 147.196L89.1338 149.722L89.4563 151.514L90.1908 152.517L90.0833 153.789L91.5703 154.416L92.5198 157.318L91.427 162.317L85.1387 158.769H84.4221L82.7559 159.594L78.9937 158.644L76.0377 154.524L75.8585 147.357L75.2853 143.47L74.2462 140.281L73.8879 139.905L72.4546 139.887L69.6419 138.776L68.7999 138.382L67.6175 137.253L65.396 134.154L64.5719 130.642L63.7299 129.263L60.9888 128.331L58.1582 123.817L55.9546 119.66L53.4465 118.263L52.6045 117.331L52.067 115.307L49.2005 113.3L44.4709 113.032L42.0882 113.426L40.8699 113.175L39.9383 112.637L36.9285 109.699L33.5963 104.737L30.5507 101.494L29.1891 101.064L26.8422 99.2547L25.0865 98.4665L22.9904 96.6033L19.479 92.3752L14.3911 87.6456L10.2705 84.2775L6.92038 79.2075L2.60279 70.8052L3.21191 69.6049L3.10442 69.0674L1.00832 65.7172L1.72494 61.9192L0.72168 59.626L1.02624 56.8133L2.56696 56.8312L6.45458 54.3231L7.1712 54.1977L12.3129 54.986L16.6663 56.3475Z" fill="#F85937" fill-opacity="0.24" stroke="#F85937" stroke-width="2.31786" mask="url(#path-1-inside-1_193_210)"/>
<mask id="path-2-inside-2_193_210" fill="white">
<path d="M362.323 321.692L361.177 322.014L360.155 321.71L357.128 319.972L357.701 318.592L359.761 317.679L362.807 318.986L363.04 319.506L362.323 321.692ZM391.489 306.625L399.3 308.793L404.836 313.289L405.768 316.442L403.045 321.154L402.812 324.612L399.91 325.938L399.085 327.962L396.219 328.625L395.897 328.105L395.717 326.045L392.636 322.552L391.973 322.802L391.149 323.644L391.758 324.397L391.633 325.758L390.934 326.224L385.649 327.926L384.646 327.496L383.624 321.208L384.628 318.252L384.735 314.131L385.38 313.361L385.326 311.659L385.81 308.183L386.312 307.521L387.638 307.324L389.519 307.449L391.489 306.625ZM337.51 283.12L338.98 285.503L339.857 288.011L339.839 291.254L340.502 294.711L342.151 299.745L343.064 301.68L344.462 303.454L345.769 304.69L346.665 305.066L353.795 306.374L358.919 308.381L357.701 309.079L355.82 311.229L353.545 317.087L353.33 318.574L353.563 319.363L354.96 320.187L355.515 320.061L357.647 321.047V323.25L356.913 324.021L350.768 324.146L348.439 320.42L343.387 318.144L339.195 316.944L337.564 316.138L334.572 315.833L333.838 315.296L332.172 312.519L331.616 310.118V309.061L332.781 306.374L332.638 304.78L331.545 303.848L330.219 303.472L329.162 302.146L328.517 295.84L328.248 295.249L326.851 294.245L318.574 293.314L316.585 293.905L314.31 294.102L307.95 292.526L307.484 291.003L308.111 288.656L309.204 287.85L312.572 286.631L315.636 284.517L316.048 283.872L316.137 283.048L315.708 282.206L314.095 281.221L314.382 279.591L315.869 278.068L317.786 276.85L321.548 275.667L322.426 275.882L323.751 279.017L324.02 282.009L325.668 283.335L327.89 283.854L328.768 283.783L325.651 276.24L326.743 275.667L331.168 274.467L331.903 274.628L335.504 277.065L336.023 277.817L335.54 279.304L335.791 280.325L337.51 283.12Z"/>
</mask>
<path d="M362.323 321.692L361.177 322.014L360.155 321.71L357.128 319.972L357.701 318.592L359.761 317.679L362.807 318.986L363.04 319.506L362.323 321.692ZM391.489 306.625L399.3 308.793L404.836 313.289L405.768 316.442L403.045 321.154L402.812 324.612L399.91 325.938L399.085 327.962L396.219 328.625L395.897 328.105L395.717 326.045L392.636 322.552L391.973 322.802L391.149 323.644L391.758 324.397L391.633 325.758L390.934 326.224L385.649 327.926L384.646 327.496L383.624 321.208L384.628 318.252L384.735 314.131L385.38 313.361L385.326 311.659L385.81 308.183L386.312 307.521L387.638 307.324L389.519 307.449L391.489 306.625ZM337.51 283.12L338.98 285.503L339.857 288.011L339.839 291.254L340.502 294.711L342.151 299.745L343.064 301.68L344.462 303.454L345.769 304.69L346.665 305.066L353.795 306.374L358.919 308.381L357.701 309.079L355.82 311.229L353.545 317.087L353.33 318.574L353.563 319.363L354.96 320.187L355.515 320.061L357.647 321.047V323.25L356.913 324.021L350.768 324.146L348.439 320.42L343.387 318.144L339.195 316.944L337.564 316.138L334.572 315.833L333.838 315.296L332.172 312.519L331.616 310.118V309.061L332.781 306.374L332.638 304.78L331.545 303.848L330.219 303.472L329.162 302.146L328.517 295.84L328.248 295.249L326.851 294.245L318.574 293.314L316.585 293.905L314.31 294.102L307.95 292.526L307.484 291.003L308.111 288.656L309.204 287.85L312.572 286.631L315.636 284.517L316.048 283.872L316.137 283.048L315.708 282.206L314.095 281.221L314.382 279.591L315.869 278.068L317.786 276.85L321.548 275.667L322.426 275.882L323.751 279.017L324.02 282.009L325.668 283.335L327.89 283.854L328.768 283.783L325.651 276.24L326.743 275.667L331.168 274.467L331.903 274.628L335.504 277.065L336.023 277.817L335.54 279.304L335.791 280.325L337.51 283.12Z" fill="#F85937" fill-opacity="0.24" stroke="#F85937" stroke-width="2.31786" mask="url(#path-2-inside-2_193_210)"/>
<mask id="path-3-inside-3_193_210" fill="white">
<path d="M212.64 313.719L213.017 314.776L214.539 315.743L214.79 317.015L216.367 317.965L216.6 318.467L217.388 318.735L217.925 320.867L218.642 322.014L219.753 322.265L220.595 323.053L222.655 322.336L224.393 322.73L225.522 323.77L226.041 325.095L225.844 327.281L226.256 327.55L225.898 328.445L228.89 331.169L230.018 331.348L230.466 331.796L231.882 330.792L233.422 330.739L235.035 329.735L235.483 329.932L235.536 330.542L236.056 331.384L236.54 331.169L237.543 331.634L238.546 331.186L238.259 331.384L238.385 332.387L238.761 332.745L240.23 332.172L241.645 332.333L242.022 333.139L241.699 333.766L241.771 335.253L241.502 336.919L241.448 337.17L240.857 337.331L240.284 338.621L238.994 339.947L238.689 339.857L238.044 338.711L237.095 337.708L236.145 337.17L235.859 337.242L235.733 339.84L234.855 340.395L233.727 341.757L233.512 343.799L231.129 344.641L230.717 345.286L229.875 345.608L231.075 345.967L231.792 346.683L232.097 347.4L233.691 348.314L235.214 350.248L236.432 350.947L237.794 351.305L238.886 350.786L239.603 351.072L240.069 351.986L240.445 352.201L242.702 352.309L244.386 352.058L244.906 352.488L245.623 352.577L246.518 355.032L247.342 356.232L247.36 359.152L250.782 359.708L251.66 360.711L252.968 361.499L254.276 361.517L255.297 361.893L256.013 361.732L256.623 362.825L257.608 363.362L259.364 362.717L260.367 363.04L260.922 364.204L260.94 365.226L259.919 366.193L259.453 367.125L261.406 368.988L260.134 370.099L261.531 370.17L262.678 371.066L263.215 371.818L263.538 373.395L262.839 374.273L263.484 374.112L264.595 374.631L265.312 374.667L265.956 375.742L265.813 376.333L265.67 376.423L265.473 376.62L264.022 376.53L263.789 377.444L262.875 378.16L262.105 378.304L261.083 379.253L260.51 379.361L260.188 380.31L258.755 380.131L257.805 379.11L256.963 378.698L255.44 378.34L254.903 378.698L254.347 378.465L254.222 378.035L254.616 377.748L254.15 377.05L253.237 376.369L252.663 376.405L252.162 376.853L251.445 376.297L251.355 375.975L251.785 375.366L248.937 372.248L243.311 368.522L238.582 366.784L238.689 366.336L237.614 364.867L235.841 363.577L235.59 362.968L229.194 358.149L227.815 356.841L219.663 350.965L219.341 350.571L219.395 348.672L220.147 348.475L220.219 347.991L218.66 344.892L218.194 342.007L214.217 338.783L210.598 336.597L208.377 335.719L208.484 335.146L198.487 327.926L195.854 324.558L196.015 324.128L195.621 323.214L194.958 322.748L194.618 321.441L194.026 321.046L191.877 317.857L189.727 312.662L183.976 309.437L181.952 306.589L180.429 305.156L183.313 303.167L184.066 302.379L186.018 301.59L187.344 300.587L188.777 298.849L188.795 298.813L197.233 304.116L196.642 307.646L196.947 307.861L197.448 307.001L198.237 306.857L198.756 307.216L199.759 306.929L199.974 306.41L200.637 306.481L201.425 307.717L204.041 310.53L204.758 310.817L205.116 311.462L205.707 311.605L206.567 312.465L207.803 312.823L210.204 312.537L211.709 313.468L212.551 313.683L212.64 313.719Z"/>
</mask>
<path d="M212.64 313.719L213.017 314.776L214.539 315.743L214.79 317.015L216.367 317.965L216.6 318.467L217.388 318.735L217.925 320.867L218.642 322.014L219.753 322.265L220.595 323.053L222.655 322.336L224.393 322.73L225.522 323.77L226.041 325.095L225.844 327.281L226.256 327.55L225.898 328.445L228.89 331.169L230.018 331.348L230.466 331.796L231.882 330.792L233.422 330.739L235.035 329.735L235.483 329.932L235.536 330.542L236.056 331.384L236.54 331.169L237.543 331.634L238.546 331.186L238.259 331.384L238.385 332.387L238.761 332.745L240.23 332.172L241.645 332.333L242.022 333.139L241.699 333.766L241.771 335.253L241.502 336.919L241.448 337.17L240.857 337.331L240.284 338.621L238.994 339.947L238.689 339.857L238.044 338.711L237.095 337.708L236.145 337.17L235.859 337.242L235.733 339.84L234.855 340.395L233.727 341.757L233.512 343.799L231.129 344.641L230.717 345.286L229.875 345.608L231.075 345.967L231.792 346.683L232.097 347.4L233.691 348.314L235.214 350.248L236.432 350.947L237.794 351.305L238.886 350.786L239.603 351.072L240.069 351.986L240.445 352.201L242.702 352.309L244.386 352.058L244.906 352.488L245.623 352.577L246.518 355.032L247.342 356.232L247.36 359.152L250.782 359.708L251.66 360.711L252.968 361.499L254.276 361.517L255.297 361.893L256.013 361.732L256.623 362.825L257.608 363.362L259.364 362.717L260.367 363.04L260.922 364.204L260.94 365.226L259.919 366.193L259.453 367.125L261.406 368.988L260.134 370.099L261.531 370.17L262.678 371.066L263.215 371.818L263.538 373.395L262.839 374.273L263.484 374.112L264.595 374.631L265.312 374.667L265.956 375.742L265.813 376.333L265.67 376.423L265.473 376.62L264.022 376.53L263.789 377.444L262.875 378.16L262.105 378.304L261.083 379.253L260.51 379.361L260.188 380.31L258.755 380.131L257.805 379.11L256.963 378.698L255.44 378.34L254.903 378.698L254.347 378.465L254.222 378.035L254.616 377.748L254.15 377.05L253.237 376.369L252.663 376.405L252.162 376.853L251.445 376.297L251.355 375.975L251.785 375.366L248.937 372.248L243.311 368.522L238.582 366.784L238.689 366.336L237.614 364.867L235.841 363.577L235.59 362.968L229.194 358.149L227.815 356.841L219.663 350.965L219.341 350.571L219.395 348.672L220.147 348.475L220.219 347.991L218.66 344.892L218.194 342.007L214.217 338.783L210.598 336.597L208.377 335.719L208.484 335.146L198.487 327.926L195.854 324.558L196.015 324.128L195.621 323.214L194.958 322.748L194.618 321.441L194.026 321.046L191.877 317.857L189.727 312.662L183.976 309.437L181.952 306.589L180.429 305.156L183.313 303.167L184.066 302.379L186.018 301.59L187.344 300.587L188.777 298.849L188.795 298.813L197.233 304.116L196.642 307.646L196.947 307.861L197.448 307.001L198.237 306.857L198.756 307.216L199.759 306.929L199.974 306.41L200.637 306.481L201.425 307.717L204.041 310.53L204.758 310.817L205.116 311.462L205.707 311.605L206.567 312.465L207.803 312.823L210.204 312.537L211.709 313.468L212.551 313.683L212.64 313.719Z" fill="#F85937" fill-opacity="0.24" stroke="#F85937" stroke-width="2.31786" mask="url(#path-3-inside-3_193_210)"/>
<mask id="path-4-inside-4_193_210" fill="white">
<path d="M287.995 279.752L285.701 278.82L284.734 279.017L284.161 279.304L283.874 279.787L284.053 281.131L283.48 281.901L281.652 282.385L279.915 282.188L278.267 282.959L275.848 283.532L273.913 283.048H272.569L271.674 283.371L269.864 282.439L269.058 282.296L267.768 282.941L267.249 283.872L264.275 284.016L260.369 285.467L258.416 287.187V288.638L258.058 289.999L258.201 290.573L257.843 291.289V293.672L258.846 294.532L257.61 295.392L255.657 295.893L255.514 296.628L255.872 299.423L255.514 299.799L255.729 301.16L255.442 301.232L255.084 300.587L254.135 300.372L253.49 299.208L252.038 298.419L251.752 297.631L250.587 296.628L250.444 295.248L249.871 294.603L248.993 294.46L248.491 294.89L248.205 295.678L247.613 295.893L247.255 296.413L246.825 297.488L248.061 298.706L248.348 300.014L245.589 301.089L243.565 300.444L243.421 300.014L243.063 299.942L242.543 300.874L239.139 300.301L237.85 299.799L236.828 301.304L237.921 303.095L237.043 303.758L235.162 306.929L234.356 307.574L233.854 307.646L233.353 307.359L231.687 308.721L230.307 309.294L229.949 309.652V310.226L228.856 311.39L227.996 311.032L227.262 311.175L226.187 311.963L226.025 311.677H224.664L223.428 311.39L222.407 310.387L221.475 309.867L221.117 310.226H220.597L219.074 309.294L218.071 309.724L217.928 311.032L217.193 311.82L215.742 312.035L215.384 312.393L214.291 312.68L213.574 313.988L212.553 313.683L211.711 313.468L210.206 312.537L207.806 312.823L206.569 312.465L205.709 311.605L205.118 311.462L204.76 310.817L204.043 310.53L201.428 307.717L200.639 306.481L199.977 306.41L199.762 306.929L198.758 307.216L198.239 306.858L197.45 307.001L196.949 307.861L196.644 307.646L197.235 304.117L188.797 298.814L189.209 297.9L188.887 294.944L187.884 291.952L187.185 290.626L185.913 290.053L185.286 289.318L185.017 288.423L184.175 287.527L183.906 286.792L183.53 280.253L183.853 280.2L184.749 280.844L185.071 280.2L185.34 280.146L186.558 281.418L187.561 280.791L189.46 280.844L190.428 280.361L191.431 280.415L192.542 280.092L193.222 280.737L195.032 280.253L197.146 277.046L200.747 274.843L201.858 272.836V272.424L201.123 271.797V271.421L201.858 270.579L201.123 267.677L202.234 266.584L203.345 266.638L203.936 266.208L205.047 265.939L206.516 264.112L207.053 262.571L206.838 262.428L206.211 262.893L205.262 262.105L205.459 260.743L205.208 260.529L205.154 258.737L205.1 258.701L206.175 258.88L206.247 258.325L207.68 258.002L208.003 256.892L209.06 256.372L209.49 256.748L209.687 256.121L210.529 255.638L211.245 255.745L212.051 256.336L212.786 256.05L214.452 256.856L215.115 256.265L215.814 256.336L216.548 256.963V257.519L216.907 257.77L217.605 257.698L219.146 256.82L220.167 256.748L220.705 258.11L222.496 259.024L222.424 260.17L224.61 260.385L225.452 261.747L226.832 261.783L228.265 262.374L229.465 262.213L230.558 262.965L231.078 262.875L231.991 261.783L233.227 261.639L234.177 260.099L235.019 259.31L235.198 258.665L238.96 255.978L240.483 254.24L242.024 251.822L244.138 251.965L245.661 251.571L252.128 252.7L252.827 253.255L254.35 252.413L256.464 252.216L257.216 252.986L258.631 253.631L260.226 255.602L261.838 256.91L263.63 257.662L264.758 258.594L266.729 259.059L267.679 259.722L269.183 259.059L269.13 259.257L271.315 258.791L276.063 260.134L279.485 261.46L283.444 260.116L284.161 260.242L285.504 263.359L284.949 265.939L285.397 267.408L286.669 269.504L286.884 271.403L286.346 274.897L287.135 278.229L287.995 279.752Z"/>
</mask>
<path d="M287.995 279.752L285.701 278.82L284.734 279.017L284.161 279.304L283.874 279.787L284.053 281.131L283.48 281.901L281.652 282.385L279.915 282.188L278.267 282.959L275.848 283.532L273.913 283.048H272.569L271.674 283.371L269.864 282.439L269.058 282.296L267.768 282.941L267.249 283.872L264.275 284.016L260.369 285.467L258.416 287.187V288.638L258.058 289.999L258.201 290.573L257.843 291.289V293.672L258.846 294.532L257.61 295.392L255.657 295.893L255.514 296.628L255.872 299.423L255.514 299.799L255.729 301.16L255.442 301.232L255.084 300.587L254.135 300.372L253.49 299.208L252.038 298.419L251.752 297.631L250.587 296.628L250.444 295.248L249.871 294.603L248.993 294.46L248.491 294.89L248.205 295.678L247.613 295.893L247.255 296.413L246.825 297.488L248.061 298.706L248.348 300.014L245.589 301.089L243.565 300.444L243.421 300.014L243.063 299.942L242.543 300.874L239.139 300.301L237.85 299.799L236.828 301.304L237.921 303.095L237.043 303.758L235.162 306.929L234.356 307.574L233.854 307.646L233.353 307.359L231.687 308.721L230.307 309.294L229.949 309.652V310.226L228.856 311.39L227.996 311.032L227.262 311.175L226.187 311.963L226.025 311.677H224.664L223.428 311.39L222.407 310.387L221.475 309.867L221.117 310.226H220.597L219.074 309.294L218.071 309.724L217.928 311.032L217.193 311.82L215.742 312.035L215.384 312.393L214.291 312.68L213.574 313.988L212.553 313.683L211.711 313.468L210.206 312.537L207.806 312.823L206.569 312.465L205.709 311.605L205.118 311.462L204.76 310.817L204.043 310.53L201.428 307.717L200.639 306.481L199.977 306.41L199.762 306.929L198.758 307.216L198.239 306.858L197.45 307.001L196.949 307.861L196.644 307.646L197.235 304.117L188.797 298.814L189.209 297.9L188.887 294.944L187.884 291.952L187.185 290.626L185.913 290.053L185.286 289.318L185.017 288.423L184.175 287.527L183.906 286.792L183.53 280.253L183.853 280.2L184.749 280.844L185.071 280.2L185.34 280.146L186.558 281.418L187.561 280.791L189.46 280.844L190.428 280.361L191.431 280.415L192.542 280.092L193.222 280.737L195.032 280.253L197.146 277.046L200.747 274.843L201.858 272.836V272.424L201.123 271.797V271.421L201.858 270.579L201.123 267.677L202.234 266.584L203.345 266.638L203.936 266.208L205.047 265.939L206.516 264.112L207.053 262.571L206.838 262.428L206.211 262.893L205.262 262.105L205.459 260.743L205.208 260.529L205.154 258.737L205.1 258.701L206.175 258.88L206.247 258.325L207.68 258.002L208.003 256.892L209.06 256.372L209.49 256.748L209.687 256.121L210.529 255.638L211.245 255.745L212.051 256.336L212.786 256.05L214.452 256.856L215.115 256.265L215.814 256.336L216.548 256.963V257.519L216.907 257.77L217.605 257.698L219.146 256.82L220.167 256.748L220.705 258.11L222.496 259.024L222.424 260.17L224.61 260.385L225.452 261.747L226.832 261.783L228.265 262.374L229.465 262.213L230.558 262.965L231.078 262.875L231.991 261.783L233.227 261.639L234.177 260.099L235.019 259.31L235.198 258.665L238.96 255.978L240.483 254.24L242.024 251.822L244.138 251.965L245.661 251.571L252.128 252.7L252.827 253.255L254.35 252.413L256.464 252.216L257.216 252.986L258.631 253.631L260.226 255.602L261.838 256.91L263.63 257.662L264.758 258.594L266.729 259.059L267.679 259.722L269.183 259.059L269.13 259.257L271.315 258.791L276.063 260.134L279.485 261.46L283.444 260.116L284.161 260.242L285.504 263.359L284.949 265.939L285.397 267.408L286.669 269.504L286.884 271.403L286.346 274.897L287.135 278.229L287.995 279.752Z" fill="#F85937" fill-opacity="0.24" stroke="#F85937" stroke-width="2.31786" mask="url(#path-4-inside-4_193_210)"/>
<mask id="path-5-inside-5_193_210" fill="white">
<path d="M287.707 239.066L287.922 239.55L289.283 239.944L289.498 240.732L290.555 242.398L291.308 242.972L291.182 243.402L289.337 244.888L288.638 246.34L288.369 248.274L288.154 248.454L287.402 248.274L286.22 246.698H285.861L284.983 247.056L284.715 249.331L283.837 249.69L283.443 249.17L283.228 247.379L282.565 245.193L281.418 244.673L280.451 243.581L280.845 242.04L281.293 241.467L281.257 240.858L282.368 240.732L282.583 240.463L282.708 239.066L283.102 240.428L282.314 241.18L283.067 242.327L283.371 242.058L283.335 240.786L283.55 240.696L283.998 241.18L285.109 241.27L285.987 240.696V239.639L286.291 239.281L287.402 238.923L287.707 239.066ZM297.13 234.82L297.399 234.999L298.062 234.82L298.026 233.208L298.474 232.849L300.588 235.698L302.272 237.059L303.633 237.185L303.759 237.973L303.221 238.063L301.143 237.185L300.624 237.669L301.412 238.582L301.197 239.012L299.567 238.188L298.868 238.403L297.238 237.221L297.327 236.827L297.058 236.612L296.396 236.701L295.858 235.734L294.407 234.945L292.812 235.214L291.218 236.307L290.251 236.128L289.068 237.042L288.405 236.773L288.137 235.985L286.865 236.253L285.987 235.823L285.897 235.429L285.933 234.283L287.169 233.369L287.348 232.975L288.405 232.581L288.101 228.514L289.552 227.851L291.397 228.765L292.544 229.768L293.511 231.219L293.959 231.255L294.407 232.133L295.518 233.011L295.554 233.763L295.912 234.283L297.13 234.82ZM284.733 224.053L285.037 224.447L285.163 223.659L285.611 223.874L286.094 223.748L289.534 227.421L288.746 227.69L288.477 227.511L287.778 228.173L286.9 227.654L284.607 225.11L282.977 222.315L283.371 222.405L284.733 224.053ZM289.05 221.294L292.185 225.146L293.547 226.543L294.568 227.116L294.747 227.6L294.443 228.12L293.26 227.546L292.15 226.454L290.466 225.361L288.871 223.175L287.545 222.082L287.51 221.169L288.62 221.437L288.71 221.079L289.05 221.294ZM285.449 218.445L286.47 219.144L286.381 219.323L285.593 219.198L285.467 219.467L285.915 219.592L286.094 220.076L285.646 220.201L284.536 219.449L284.661 219.932L284.303 220.058L283.855 220.757L283.317 220.631L282.475 219.144L282.081 219.27L281.956 218.123L282.081 217.818L282.923 218.571L283.228 218.481L283.353 217.693L282.565 217.299L282.171 216.726L282.744 216.815L285.449 218.445ZM281.168 204.274L280.809 204.973L280.845 205.761L282.099 206.711L281.508 206.818L280.666 207.32L282.332 207.643L282.457 207.069L283.156 207.589L282.798 208.108L281.651 207.84V209.506L281.436 209.685L280.415 208.861L278.086 204.919L278.122 204.615L279 204.4L279.519 204.346L280.666 203.988L281.168 204.274ZM270.4 205.027L270.221 205.331L269.379 204.185L267.48 202.572L267.086 201.91L266.961 200.906L268.716 201.605L269.899 202.698L270.114 203.45L270.866 204.364L270.687 204.884L270.4 205.027ZM267.713 204.579L267.319 205.457L267.014 204.704L266.352 204.615L264.847 203.612L264.005 202.214V201.462L264.488 201.426L265.062 200.673L267.086 202.949L267.713 204.579ZM256.641 201.193L256.838 202.34L258.881 204.704L258.523 205.331L256.767 203.988L257.501 205.278L257.197 206.693L257.752 207.356L257.053 209.094L256.749 209.398L256.122 209.47L255.692 208.807L255.423 209.04L254.402 208.717L253.847 207.571L252.754 206.317L252.431 203.092L253.023 202.232L253.094 200.924L254.062 201.157L254.456 201.713L254.259 200.727L254.492 199.939L254.295 199.706L255.28 198.954L256.176 199.079L256.48 199.563L256.641 201.193ZM276.456 199.384L277.029 199.563L277.298 198.774L278.05 198.685L278.624 199.384L278.355 200.297L277.817 200.423L277.996 201.336L278.749 201.605L279.412 201.48L280.827 202.089V202.447L280.254 203.11L278.534 204.274L277.907 204.328L277.244 202.178L276.062 201.605L275.614 201.784L275.578 200.082L275.22 199.778L274.61 200.351L274.127 199.921L274.431 198.739L275.309 198.559L276.366 199.043L276.456 199.384ZM266.656 198.846H266.298L265.026 197.449V196.875L265.778 196.266L266.656 197.144V198.846ZM268.77 195.388L268.681 195.872L269.254 196.535L269.702 196.929L270.185 197.413L272.389 198.595L272.479 199.473L271.941 199.348L271.726 199.652L271.511 200.011L271.69 200.709L271.422 200.978H271.027L270.15 199.885L268.824 199.455L267.641 198.542V197.538L268 197.144L266.853 196.051L267.068 195.532L267.677 195.836L268.34 195.406V194.528L268.645 194.708L268.77 195.388ZM254.384 193.382L254.492 193.686L254.259 193.812L253.632 193.615L253.524 194.958L253.99 196.033L254.617 196.141L255.513 198.147L253.954 198.076L253.793 197.682L252.736 197.556L251.446 196.607L251.41 195.227L251.733 194.994L251.966 194.134L253.22 193.776L253.811 192.755L254.384 193.382ZM277.28 193.328L277.369 194.206L276.975 194.6V196.75L275.65 196.84L275.345 197.628L275.703 198.416L274.198 198.022L273.751 198.416L272.873 198.147L272.604 197.717L271.242 197.574L269.97 196.75L269.397 194.905L269.487 194.421L270.203 194.314L270.06 195.299L270.723 195.263L270.597 193.991L270.293 193.866L270.257 193.382L272.425 193.597L272.729 192.146L273.392 192.02L274.413 193.292L275.023 193.471L275.327 193.042L274.879 192.737V192.128L275.9 191.698L276.689 192.361L277.28 193.328ZM290.645 192.361L290.913 193.543L292.239 194.331L293.081 196.481L292.633 198.667L292.759 199.366L293.117 199.724V200.476L292.633 200.602V201.032L293.081 201.247L294.192 201.121L293.977 202.035L292.615 203.88L291.594 203.45L289.874 203.486L288.853 203.128L287.492 201.945L287.044 202.125L285.808 201.82L285.843 201.515L287.08 201.211L286.238 200.458L286.417 199.975L286.202 199.67L285.413 199.007L285.808 198.398L286.829 198.488L286.47 197.7L287.223 196.786L286.435 196.033L285.019 196.786L285.055 197.789L284.751 198.058H284.213L284.303 197.395L283.461 197.09L283.156 197.753L282.762 197.968L280.648 197.843L279.985 197.27L279.501 196.177L279.286 195.388L280.218 194.027L282.905 193.597L282.422 192.235L283.12 191.931L284.392 192.2L284.571 191.841L285.27 191.572L287.295 192.397L288.405 192.432L289.462 191.77L289.821 190.856L290.573 190.641L290.842 190.82L290.645 192.361Z"/>
</mask>
<path d="M287.707 239.066L287.922 239.55L289.283 239.944L289.498 240.732L290.555 242.398L291.308 242.972L291.182 243.402L289.337 244.888L288.638 246.34L288.369 248.274L288.154 248.454L287.402 248.274L286.22 246.698H285.861L284.983 247.056L284.715 249.331L283.837 249.69L283.443 249.17L283.228 247.379L282.565 245.193L281.418 244.673L280.451 243.581L280.845 242.04L281.293 241.467L281.257 240.858L282.368 240.732L282.583 240.463L282.708 239.066L283.102 240.428L282.314 241.18L283.067 242.327L283.371 242.058L283.335 240.786L283.55 240.696L283.998 241.18L285.109 241.27L285.987 240.696V239.639L286.291 239.281L287.402 238.923L287.707 239.066ZM297.13 234.82L297.399 234.999L298.062 234.82L298.026 233.208L298.474 232.849L300.588 235.698L302.272 237.059L303.633 237.185L303.759 237.973L303.221 238.063L301.143 237.185L300.624 237.669L301.412 238.582L301.197 239.012L299.567 238.188L298.868 238.403L297.238 237.221L297.327 236.827L297.058 236.612L296.396 236.701L295.858 235.734L294.407 234.945L292.812 235.214L291.218 236.307L290.251 236.128L289.068 237.042L288.405 236.773L288.137 235.985L286.865 236.253L285.987 235.823L285.897 235.429L285.933 234.283L287.169 233.369L287.348 232.975L288.405 232.581L288.101 228.514L289.552 227.851L291.397 228.765L292.544 229.768L293.511 231.219L293.959 231.255L294.407 232.133L295.518 233.011L295.554 233.763L295.912 234.283L297.13 234.82ZM284.733 224.053L285.037 224.447L285.163 223.659L285.611 223.874L286.094 223.748L289.534 227.421L288.746 227.69L288.477 227.511L287.778 228.173L286.9 227.654L284.607 225.11L282.977 222.315L283.371 222.405L284.733 224.053ZM289.05 221.294L292.185 225.146L293.547 226.543L294.568 227.116L294.747 227.6L294.443 228.12L293.26 227.546L292.15 226.454L290.466 225.361L288.871 223.175L287.545 222.082L287.51 221.169L288.62 221.437L288.71 221.079L289.05 221.294ZM285.449 218.445L286.47 219.144L286.381 219.323L285.593 219.198L285.467 219.467L285.915 219.592L286.094 220.076L285.646 220.201L284.536 219.449L284.661 219.932L284.303 220.058L283.855 220.757L283.317 220.631L282.475 219.144L282.081 219.27L281.956 218.123L282.081 217.818L282.923 218.571L283.228 218.481L283.353 217.693L282.565 217.299L282.171 216.726L282.744 216.815L285.449 218.445ZM281.168 204.274L280.809 204.973L280.845 205.761L282.099 206.711L281.508 206.818L280.666 207.32L282.332 207.643L282.457 207.069L283.156 207.589L282.798 208.108L281.651 207.84V209.506L281.436 209.685L280.415 208.861L278.086 204.919L278.122 204.615L279 204.4L279.519 204.346L280.666 203.988L281.168 204.274ZM270.4 205.027L270.221 205.331L269.379 204.185L267.48 202.572L267.086 201.91L266.961 200.906L268.716 201.605L269.899 202.698L270.114 203.45L270.866 204.364L270.687 204.884L270.4 205.027ZM267.713 204.579L267.319 205.457L267.014 204.704L266.352 204.615L264.847 203.612L264.005 202.214V201.462L264.488 201.426L265.062 200.673L267.086 202.949L267.713 204.579ZM256.641 201.193L256.838 202.34L258.881 204.704L258.523 205.331L256.767 203.988L257.501 205.278L257.197 206.693L257.752 207.356L257.053 209.094L256.749 209.398L256.122 209.47L255.692 208.807L255.423 209.04L254.402 208.717L253.847 207.571L252.754 206.317L252.431 203.092L253.023 202.232L253.094 200.924L254.062 201.157L254.456 201.713L254.259 200.727L254.492 199.939L254.295 199.706L255.28 198.954L256.176 199.079L256.48 199.563L256.641 201.193ZM276.456 199.384L277.029 199.563L277.298 198.774L278.05 198.685L278.624 199.384L278.355 200.297L277.817 200.423L277.996 201.336L278.749 201.605L279.412 201.48L280.827 202.089V202.447L280.254 203.11L278.534 204.274L277.907 204.328L277.244 202.178L276.062 201.605L275.614 201.784L275.578 200.082L275.22 199.778L274.61 200.351L274.127 199.921L274.431 198.739L275.309 198.559L276.366 199.043L276.456 199.384ZM266.656 198.846H266.298L265.026 197.449V196.875L265.778 196.266L266.656 197.144V198.846ZM268.77 195.388L268.681 195.872L269.254 196.535L269.702 196.929L270.185 197.413L272.389 198.595L272.479 199.473L271.941 199.348L271.726 199.652L271.511 200.011L271.69 200.709L271.422 200.978H271.027L270.15 199.885L268.824 199.455L267.641 198.542V197.538L268 197.144L266.853 196.051L267.068 195.532L267.677 195.836L268.34 195.406V194.528L268.645 194.708L268.77 195.388ZM254.384 193.382L254.492 193.686L254.259 193.812L253.632 193.615L253.524 194.958L253.99 196.033L254.617 196.141L255.513 198.147L253.954 198.076L253.793 197.682L252.736 197.556L251.446 196.607L251.41 195.227L251.733 194.994L251.966 194.134L253.22 193.776L253.811 192.755L254.384 193.382ZM277.28 193.328L277.369 194.206L276.975 194.6V196.75L275.65 196.84L275.345 197.628L275.703 198.416L274.198 198.022L273.751 198.416L272.873 198.147L272.604 197.717L271.242 197.574L269.97 196.75L269.397 194.905L269.487 194.421L270.203 194.314L270.06 195.299L270.723 195.263L270.597 193.991L270.293 193.866L270.257 193.382L272.425 193.597L272.729 192.146L273.392 192.02L274.413 193.292L275.023 193.471L275.327 193.042L274.879 192.737V192.128L275.9 191.698L276.689 192.361L277.28 193.328ZM290.645 192.361L290.913 193.543L292.239 194.331L293.081 196.481L292.633 198.667L292.759 199.366L293.117 199.724V200.476L292.633 200.602V201.032L293.081 201.247L294.192 201.121L293.977 202.035L292.615 203.88L291.594 203.45L289.874 203.486L288.853 203.128L287.492 201.945L287.044 202.125L285.808 201.82L285.843 201.515L287.08 201.211L286.238 200.458L286.417 199.975L286.202 199.67L285.413 199.007L285.808 198.398L286.829 198.488L286.47 197.7L287.223 196.786L286.435 196.033L285.019 196.786L285.055 197.789L284.751 198.058H284.213L284.303 197.395L283.461 197.09L283.156 197.753L282.762 197.968L280.648 197.843L279.985 197.27L279.501 196.177L279.286 195.388L280.218 194.027L282.905 193.597L282.422 192.235L283.12 191.931L284.392 192.2L284.571 191.841L285.27 191.572L287.295 192.397L288.405 192.432L289.462 191.77L289.821 190.856L290.573 190.641L290.842 190.82L290.645 192.361Z" fill="#F85937" fill-opacity="0.24" stroke="#F85937" stroke-width="2.31786" mask="url(#path-5-inside-5_193_210)"/>
<mask id="path-6-inside-6_193_210" fill="white">
<path d="M265.904 376.279L267.069 376.19L267.158 377.103L267.929 377.157L268.609 378.017V378.985L267.839 379.701V380.077L268.466 380.131L269.81 381.385L270.347 380.758L270.634 379.164L271.547 379.845L274.056 379.558L274.486 379.182L274.826 379.271L274.969 379.701L276.6 380.185L278.391 379.218L278.624 378.537L279.305 378.393L280.129 378.877H280.845L281.383 378.537L282.1 379.218L282.727 379.02L284.034 377.336L284.088 376.709L283.891 376.082L282.691 374.972L282.601 373.485L281.634 372.911L282.117 371.514L283.282 370.367L282.745 365.512L283.228 364.025L283.712 363.882L283.855 363.201L285.288 362.198L286.202 361.141L287.313 361.231L288.424 360.317L290.591 359.457L291.792 358.454L292.508 359.367L292.902 359.457L296.862 359.654L299.513 359.224L299.657 358.597L301.681 357.594L302.792 357.164L303.903 357.218L304.583 356.304L305.694 355.533L306.267 353.814L306.805 353.24L307.486 353.151L306.948 352.524L307.718 351.753L308.202 349.836L308.596 350.069L308.883 349.926L309.08 349.012L310.047 348.529L311.248 348.959L312.502 347.812L312.896 346.952L312.412 345.841L313.129 345.268L313.326 344.265L313.953 343.441L314.347 343.674L314.885 345.59L315.458 345.16L316.425 344.963L316.999 345.107L317.196 346.397L318.593 346.307L318.933 346.791H319.99L319.758 348.224L319.99 348.511L320.707 348.224L321.334 348.708L321.245 349.532L321.675 349.872L322.248 349.532L322.445 349.675L322.642 350.248H321.961L322.785 350.929V351.359L323.323 351.932L322.606 352.9L322.517 353.419L322.947 353.509V353.025L323.376 353.258L324.201 353.169L324.344 353.258L323.806 353.778V354.208H324.971L325.025 354.638L325.508 354.835L325.311 355.659L325.652 355.892L326.995 356.035L327.533 355.802L327.622 355.318L328.017 355.229L328.93 355.713L329.45 356.698L329.109 361.535L331.725 365.853L331.815 366.444V368.683L331.205 370.17L331.241 370.797L332.119 371.657L331.044 373.843L330.399 377.193L330.722 378.734L331.6 379.845L331.797 380.525L331.725 380.919L330.847 381.385L330.363 383.607L330.632 390.074L330.363 391.024L329.486 391.615L329.253 392.564L329.414 396.452L329.109 399.336L329.486 400.644L328.447 404.46L328.572 406.574L327.927 408.455L326.512 410.462L326.028 410.659L325.741 408.921L322.767 408.527L322.14 408.043L321.782 407.13L321.818 406.216L322.14 405.607L321.979 405.195L320.94 404.209H319.99L319.632 403.779L317.16 402.4L315.673 401.003L315.189 399.731L313.111 396.631L312.52 396.506L311.893 396.775L311.606 397.33V400.501L311.373 400.985L310.065 400.537L308.99 401.271L309.689 402.149L309.707 402.722L310.28 402.705L309.42 403.314L309.779 403.708L309.797 404.335L310.567 404.89L310.406 405.105L309.277 405.123L308.614 405.84L309.08 406.664L310.424 406.52L309.51 407.47L308.489 407.649L305.479 406.001L302.469 404.747L297.059 401.325L295.733 400.286L294.318 398.566L293.315 398.602L291.451 398.047L289.911 398.763L289.087 399.48L289.821 399.946L290.054 400.985L291.863 403.152L292.526 403.6L293.046 404.55L293.01 405.177L292.723 405.374L294.837 408.545L294.64 409.064L295.429 411.161L295.267 411.519L290.824 411.752L290.161 411.376L290.018 410.963L290.574 410.677L290.251 409.369L286.453 405.911L285.718 404.621L284.214 403.511L282.1 402.525L282.691 401.701L281.007 399.641L275.704 395.897L273.052 392.833L272.837 390.988L272.264 390.45L269.917 389.931L269.845 389.178L270.795 388.193L270.508 387.315L269.792 386.473L269.362 386.061L268.717 386.097L267.875 384.986L266.083 383.643H265.528L265.492 384.001L265.17 384.073L264.847 383.875L264.973 382.604L263.575 381.421L262.303 381.493L261.157 380.507L260.207 380.275L260.53 379.325L261.103 379.235L262.124 378.268L262.894 378.125L263.808 377.408L264.041 376.494L265.492 376.584L265.689 376.387L265.904 376.279Z"/>
</mask>
<path d="M265.904 376.279L267.069 376.19L267.158 377.103L267.929 377.157L268.609 378.017V378.985L267.839 379.701V380.077L268.466 380.131L269.81 381.385L270.347 380.758L270.634 379.164L271.547 379.845L274.056 379.558L274.486 379.182L274.826 379.271L274.969 379.701L276.6 380.185L278.391 379.218L278.624 378.537L279.305 378.393L280.129 378.877H280.845L281.383 378.537L282.1 379.218L282.727 379.02L284.034 377.336L284.088 376.709L283.891 376.082L282.691 374.972L282.601 373.485L281.634 372.911L282.117 371.514L283.282 370.367L282.745 365.512L283.228 364.025L283.712 363.882L283.855 363.201L285.288 362.198L286.202 361.141L287.313 361.231L288.424 360.317L290.591 359.457L291.792 358.454L292.508 359.367L292.902 359.457L296.862 359.654L299.513 359.224L299.657 358.597L301.681 357.594L302.792 357.164L303.903 357.218L304.583 356.304L305.694 355.533L306.267 353.814L306.805 353.24L307.486 353.151L306.948 352.524L307.718 351.753L308.202 349.836L308.596 350.069L308.883 349.926L309.08 349.012L310.047 348.529L311.248 348.959L312.502 347.812L312.896 346.952L312.412 345.841L313.129 345.268L313.326 344.265L313.953 343.441L314.347 343.674L314.885 345.59L315.458 345.16L316.425 344.963L316.999 345.107L317.196 346.397L318.593 346.307L318.933 346.791H319.99L319.758 348.224L319.99 348.511L320.707 348.224L321.334 348.708L321.245 349.532L321.675 349.872L322.248 349.532L322.445 349.675L322.642 350.248H321.961L322.785 350.929V351.359L323.323 351.932L322.606 352.9L322.517 353.419L322.947 353.509V353.025L323.376 353.258L324.201 353.169L324.344 353.258L323.806 353.778V354.208H324.971L325.025 354.638L325.508 354.835L325.311 355.659L325.652 355.892L326.995 356.035L327.533 355.802L327.622 355.318L328.017 355.229L328.93 355.713L329.45 356.698L329.109 361.535L331.725 365.853L331.815 366.444V368.683L331.205 370.17L331.241 370.797L332.119 371.657L331.044 373.843L330.399 377.193L330.722 378.734L331.6 379.845L331.797 380.525L331.725 380.919L330.847 381.385L330.363 383.607L330.632 390.074L330.363 391.024L329.486 391.615L329.253 392.564L329.414 396.452L329.109 399.336L329.486 400.644L328.447 404.46L328.572 406.574L327.927 408.455L326.512 410.462L326.028 410.659L325.741 408.921L322.767 408.527L322.14 408.043L321.782 407.13L321.818 406.216L322.14 405.607L321.979 405.195L320.94 404.209H319.99L319.632 403.779L317.16 402.4L315.673 401.003L315.189 399.731L313.111 396.631L312.52 396.506L311.893 396.775L311.606 397.33V400.501L311.373 400.985L310.065 400.537L308.99 401.271L309.689 402.149L309.707 402.722L310.28 402.705L309.42 403.314L309.779 403.708L309.797 404.335L310.567 404.89L310.406 405.105L309.277 405.123L308.614 405.84L309.08 406.664L310.424 406.52L309.51 407.47L308.489 407.649L305.479 406.001L302.469 404.747L297.059 401.325L295.733 400.286L294.318 398.566L293.315 398.602L291.451 398.047L289.911 398.763L289.087 399.48L289.821 399.946L290.054 400.985L291.863 403.152L292.526 403.6L293.046 404.55L293.01 405.177L292.723 405.374L294.837 408.545L294.64 409.064L295.429 411.161L295.267 411.519L290.824 411.752L290.161 411.376L290.018 410.963L290.574 410.677L290.251 409.369L286.453 405.911L285.718 404.621L284.214 403.511L282.1 402.525L282.691 401.701L281.007 399.641L275.704 395.897L273.052 392.833L272.837 390.988L272.264 390.45L269.917 389.931L269.845 389.178L270.795 388.193L270.508 387.315L269.792 386.473L269.362 386.061L268.717 386.097L267.875 384.986L266.083 383.643H265.528L265.492 384.001L265.17 384.073L264.847 383.875L264.973 382.604L263.575 381.421L262.303 381.493L261.157 380.507L260.207 380.275L260.53 379.325L261.103 379.235L262.124 378.268L262.894 378.125L263.808 377.408L264.041 376.494L265.492 376.584L265.689 376.387L265.904 376.279Z" fill="#F85937" fill-opacity="0.24" stroke="#F85937" stroke-width="2.31786" mask="url(#path-6-inside-6_193_210)"/>
<mask id="path-7-inside-7_193_210" fill="white">
<path d="M247.451 212.892L246.394 212.587L245.839 211.154L246.681 208.055L247.612 207.087L248.526 206.872L249.977 208.072L250.658 209.076L250.891 211.566L250.174 212.211L247.451 212.892ZM230.073 197.914L230.772 198.022L232.868 197.305L234.283 197.413L239.371 200.369L242.632 202.823L243.008 203.397L243.33 204.776L242.882 206.657L241.897 207.195L239.694 204.991L237.795 204.113L231.542 203.934L228.514 204.74L227.565 204.686L225.594 203.701L223.301 201.498L224.251 200.064L225.791 199.849L226.132 199.563V198.237L225.2 196.213L225.29 194.439L225.809 193.686L226.902 193.489L227.923 193.955L229.786 196.356L229.482 197.198L230.073 197.914ZM242.865 196.571L246.842 201.068L246.949 201.999L246.322 202.698L245.211 202.967L244.334 202.787L239.962 199.724L234.301 196.822L233.244 196.66L232.169 197.001L231.094 196.051L232.796 193.095L233.71 192.737H234.982L237.597 193.507L240.356 194.797L242.865 196.571ZM223.05 200.046H222.298L219.557 197.467L218.912 196.84L218.141 195.388L216.977 189.154L217.049 185.714L217.246 185.32L218.733 184.998L219.664 185.23L224.967 189.978L225.469 190.802L225.505 191.393L224.501 194.457L224.609 196.374L225.236 198.38L225.128 198.882L223.05 200.046ZM226.078 183.958L226.382 189.118L225.952 189.745L225.021 189.315L220.291 184.8L218.84 184.335L215.293 184.048L213.824 183.403L212.104 181.737L210.527 179.068L211.011 178.673L212.462 178.602L215.777 179.945L221.026 180.662L224.215 181.504L225.558 182.274L226.078 183.958ZM198.381 175.897L196.966 175.843L194.995 175.287L194.314 174.911L193.615 174.015L191.949 169.555L192.093 167.19L192.433 165.954L193.418 165.022L199.635 163.248L200.799 163.571L201.409 164.126L203.666 167.172L203.755 168.766L202.394 170.504L202.412 172.923L201.982 173.765L199.689 175.538L198.381 175.897ZM168.068 163.23L169.537 162.998L171.239 164.055L172.583 164.323L173.496 163.625L171.454 162.353L170.881 161.224L170.737 159.827L171.096 159.128L172.798 158.142L177.097 157.659L181.505 158.214L181.29 159.128L181.917 160.507L188.097 164.646L189.423 166.061L189.889 167.512L189.925 169.913L191.215 173.693L192.433 175.646L196.625 177.599L197.969 177.706L201.05 176.954L203.218 177.545L211.298 184.317L214.917 186.234L216.869 191.716L216.529 194.815L217.246 197.27L218.016 198.398L223.91 203.952L225.146 204.848L227.619 205.976L228.55 206.102L232.85 205.708L237.526 205.994L238.762 206.46L239.622 207.123L244.208 212.641L244.531 213.59L244.262 214.791L228.425 223.086L227.153 222.423L225.845 220.954L224.053 220.972L227.457 223.372L228.926 223.802L231.148 221.796L238.744 220.398L246.752 215.884L247.236 215.525L248.526 213.483L252.575 211.978L253.578 212.086L255.656 213.089L264.614 219.825L265.08 220.828L266.835 228.586L265.707 228.998L260.386 229.32L259.884 230.019L259.687 231.649L254.922 234.928L255.226 235.429L255.799 235.34L257.018 234.318L258.236 234.032L259.275 234.121L259.365 234.408L258.702 235.25L261.622 235.626L261.711 236.002L264.632 236.934L266.226 239.281L265.097 239.102L263.503 239.388L260.493 240.696L260.117 241.073L260.404 241.538L259.866 242.721L255.154 245.856L254.474 249.69L254.653 250.442L256.444 252.198L254.33 252.413L252.825 253.255L252.127 252.7L245.659 251.589L244.154 251.965L242.04 251.822L240.5 254.24L238.995 255.996L235.233 258.683L235.053 259.31L234.211 260.117L233.262 261.657L232.026 261.801L231.112 262.875L230.593 262.983L229.5 262.213L228.299 262.392L226.848 261.801L225.469 261.765L224.627 260.403L222.441 260.188L222.513 259.042L220.721 258.128L220.202 256.766L219.181 256.838L217.64 257.716L216.941 257.788L216.583 257.537V256.981L215.848 256.354L215.15 256.283L214.487 256.874L212.838 256.068L212.104 256.354L211.298 255.763L210.599 255.656L209.757 256.139L209.542 256.766L209.112 256.39L208.055 256.91L207.733 258.02L206.281 258.343L206.21 258.898L205.135 258.719L204.759 258.486H203.164L202.268 257.913L199.993 257.286L200.047 256.766L199.42 256.444L198.255 254.867L196.249 253.649L195.461 253.595L195.031 252.968L192.433 251.392L192.272 250.388L191.322 250.174L190.641 249.654L190.964 249.081L190.803 248.919L187.739 247.827L186.951 246.823L185.786 246.358L185.571 245.623L183.565 244.781L182.938 244.046L182.508 244.154L181.97 243.885L180.698 241.144L181.021 240.463L181.075 239.245L179.641 238.188L178.871 238.063L177.33 238.529L177.169 238.797L177.438 238.959L176.954 239.854L175.951 239.066L175.109 239.012L174.733 238.439L174.625 237.328L173.676 236.809L173.084 235.913L172.869 235.286L173.084 234.498L172.135 232.867L172.081 232.437L172.404 232.115L171.92 230.538L171.974 229.911L172.816 229.23L173.192 229.177L173.783 230.019L174.84 228.173L175.001 226.651L174.321 224.967V224.107L174.804 222.584L174.123 220.792L173.801 220.362L173.174 220.201L172.009 220.613L170.057 222.297L169.627 222.978L167.674 222.924L162.586 221.509L161.207 218.41L160.526 217.944L159.845 217.675L158.197 218.517H157.713L157.444 217.729V215.669L155.169 210.939L155.33 209.255L156.817 206.944L155.975 205.636L154.076 204.866L152.518 203.038L153.019 202.68L152.804 202.268L153.019 200.656L152.249 200.727L151.478 199.885V199.473L152.822 199.401L153.252 198.918L153.539 197.789L152.912 195.962L152.213 195.675L152.285 194.905L153.27 194.349L154.399 194.206L154.255 193.651L153.198 192.88L152.697 191.967L152.338 189.118L151.425 187.434L150.995 187.506L150.565 187.076L150.493 186.377L151.192 185.893L156.566 185.607V184.98L157.408 184.765L158.465 184.98L158.967 184.693L159.039 183.994H160.454L161.941 182.722L162.156 181.88L161.726 181.468L161.869 180.77L162.64 179.498L162.783 178.656L162.496 178.1L162.711 177.401L162.568 176.846L161.511 176.631L161.583 175.861L162.066 175.359L161.636 173.962L158.25 173.335L157.749 172.779V172.081L158.591 169.841L159.021 164.502L159.935 161.421L159.648 159.737L158.376 156.924L158.089 154.541L158.161 153.341L158.788 151.102L160.257 155.581L161.278 157.73L163.679 160.221L166.42 162.353L168.068 163.23Z"/>
</mask>
<path d="M247.451 212.892L246.394 212.587L245.839 211.154L246.681 208.055L247.612 207.087L248.526 206.872L249.977 208.072L250.658 209.076L250.891 211.566L250.174 212.211L247.451 212.892ZM230.073 197.914L230.772 198.022L232.868 197.305L234.283 197.413L239.371 200.369L242.632 202.823L243.008 203.397L243.33 204.776L242.882 206.657L241.897 207.195L239.694 204.991L237.795 204.113L231.542 203.934L228.514 204.74L227.565 204.686L225.594 203.701L223.301 201.498L224.251 200.064L225.791 199.849L226.132 199.563V198.237L225.2 196.213L225.29 194.439L225.809 193.686L226.902 193.489L227.923 193.955L229.786 196.356L229.482 197.198L230.073 197.914ZM242.865 196.571L246.842 201.068L246.949 201.999L246.322 202.698L245.211 202.967L244.334 202.787L239.962 199.724L234.301 196.822L233.244 196.66L232.169 197.001L231.094 196.051L232.796 193.095L233.71 192.737H234.982L237.597 193.507L240.356 194.797L242.865 196.571ZM223.05 200.046H222.298L219.557 197.467L218.912 196.84L218.141 195.388L216.977 189.154L217.049 185.714L217.246 185.32L218.733 184.998L219.664 185.23L224.967 189.978L225.469 190.802L225.505 191.393L224.501 194.457L224.609 196.374L225.236 198.38L225.128 198.882L223.05 200.046ZM226.078 183.958L226.382 189.118L225.952 189.745L225.021 189.315L220.291 184.8L218.84 184.335L215.293 184.048L213.824 183.403L212.104 181.737L210.527 179.068L211.011 178.673L212.462 178.602L215.777 179.945L221.026 180.662L224.215 181.504L225.558 182.274L226.078 183.958ZM198.381 175.897L196.966 175.843L194.995 175.287L194.314 174.911L193.615 174.015L191.949 169.555L192.093 167.19L192.433 165.954L193.418 165.022L199.635 163.248L200.799 163.571L201.409 164.126L203.666 167.172L203.755 168.766L202.394 170.504L202.412 172.923L201.982 173.765L199.689 175.538L198.381 175.897ZM168.068 163.23L169.537 162.998L171.239 164.055L172.583 164.323L173.496 163.625L171.454 162.353L170.881 161.224L170.737 159.827L171.096 159.128L172.798 158.142L177.097 157.659L181.505 158.214L181.29 159.128L181.917 160.507L188.097 164.646L189.423 166.061L189.889 167.512L189.925 169.913L191.215 173.693L192.433 175.646L196.625 177.599L197.969 177.706L201.05 176.954L203.218 177.545L211.298 184.317L214.917 186.234L216.869 191.716L216.529 194.815L217.246 197.27L218.016 198.398L223.91 203.952L225.146 204.848L227.619 205.976L228.55 206.102L232.85 205.708L237.526 205.994L238.762 206.46L239.622 207.123L244.208 212.641L244.531 213.59L244.262 214.791L228.425 223.086L227.153 222.423L225.845 220.954L224.053 220.972L227.457 223.372L228.926 223.802L231.148 221.796L238.744 220.398L246.752 215.884L247.236 215.525L248.526 213.483L252.575 211.978L253.578 212.086L255.656 213.089L264.614 219.825L265.08 220.828L266.835 228.586L265.707 228.998L260.386 229.32L259.884 230.019L259.687 231.649L254.922 234.928L255.226 235.429L255.799 235.34L257.018 234.318L258.236 234.032L259.275 234.121L259.365 234.408L258.702 235.25L261.622 235.626L261.711 236.002L264.632 236.934L266.226 239.281L265.097 239.102L263.503 239.388L260.493 240.696L260.117 241.073L260.404 241.538L259.866 242.721L255.154 245.856L254.474 249.69L254.653 250.442L256.444 252.198L254.33 252.413L252.825 253.255L252.127 252.7L245.659 251.589L244.154 251.965L242.04 251.822L240.5 254.24L238.995 255.996L235.233 258.683L235.053 259.31L234.211 260.117L233.262 261.657L232.026 261.801L231.112 262.875L230.593 262.983L229.5 262.213L228.299 262.392L226.848 261.801L225.469 261.765L224.627 260.403L222.441 260.188L222.513 259.042L220.721 258.128L220.202 256.766L219.181 256.838L217.64 257.716L216.941 257.788L216.583 257.537V256.981L215.848 256.354L215.15 256.283L214.487 256.874L212.838 256.068L212.104 256.354L211.298 255.763L210.599 255.656L209.757 256.139L209.542 256.766L209.112 256.39L208.055 256.91L207.733 258.02L206.281 258.343L206.21 258.898L205.135 258.719L204.759 258.486H203.164L202.268 257.913L199.993 257.286L200.047 256.766L199.42 256.444L198.255 254.867L196.249 253.649L195.461 253.595L195.031 252.968L192.433 251.392L192.272 250.388L191.322 250.174L190.641 249.654L190.964 249.081L190.803 248.919L187.739 247.827L186.951 246.823L185.786 246.358L185.571 245.623L183.565 244.781L182.938 244.046L182.508 244.154L181.97 243.885L180.698 241.144L181.021 240.463L181.075 239.245L179.641 238.188L178.871 238.063L177.33 238.529L177.169 238.797L177.438 238.959L176.954 239.854L175.951 239.066L175.109 239.012L174.733 238.439L174.625 237.328L173.676 236.809L173.084 235.913L172.869 235.286L173.084 234.498L172.135 232.867L172.081 232.437L172.404 232.115L171.92 230.538L171.974 229.911L172.816 229.23L173.192 229.177L173.783 230.019L174.84 228.173L175.001 226.651L174.321 224.967V224.107L174.804 222.584L174.123 220.792L173.801 220.362L173.174 220.201L172.009 220.613L170.057 222.297L169.627 222.978L167.674 222.924L162.586 221.509L161.207 218.41L160.526 217.944L159.845 217.675L158.197 218.517H157.713L157.444 217.729V215.669L155.169 210.939L155.33 209.255L156.817 206.944L155.975 205.636L154.076 204.866L152.518 203.038L153.019 202.68L152.804 202.268L153.019 200.656L152.249 200.727L151.478 199.885V199.473L152.822 199.401L153.252 198.918L153.539 197.789L152.912 195.962L152.213 195.675L152.285 194.905L153.27 194.349L154.399 194.206L154.255 193.651L153.198 192.88L152.697 191.967L152.338 189.118L151.425 187.434L150.995 187.506L150.565 187.076L150.493 186.377L151.192 185.893L156.566 185.607V184.98L157.408 184.765L158.465 184.98L158.967 184.693L159.039 183.994H160.454L161.941 182.722L162.156 181.88L161.726 181.468L161.869 180.77L162.64 179.498L162.783 178.656L162.496 178.1L162.711 177.401L162.568 176.846L161.511 176.631L161.583 175.861L162.066 175.359L161.636 173.962L158.25 173.335L157.749 172.779V172.081L158.591 169.841L159.021 164.502L159.935 161.421L159.648 159.737L158.376 156.924L158.089 154.541L158.161 153.341L158.788 151.102L160.257 155.581L161.278 157.73L163.679 160.221L166.42 162.353L168.068 163.23Z" fill="#F85937" fill-opacity="0.24" stroke="#F85937" stroke-width="2.31786" mask="url(#path-7-inside-7_193_210)"/>
<mask id="path-8-inside-8_193_210" fill="white">
<path d="M163.106 323.125L163.053 324.199L163.536 325.149L163.411 325.507L161.619 325.74L160.777 326.152L163.232 330.918L163.286 331.33L162.569 331.813L162.032 331.509L161.494 330.327L161.136 330.38L160.365 329.789L160.724 329.484L160.365 328.893L158.986 328.41L159.29 327.156L158.932 326.331L159.058 325.256L157.983 323.823L156.908 323.949L155.707 322.515L154.507 320.312L154.453 319.9L154.991 318.825L154.149 315.385L154.274 314.848L156.119 314.185L158.574 317.284L160.186 318.234L162.336 320.975L163.232 321.638L163.106 323.125ZM153.253 315.206L153.199 315.923H151.408L151.282 316.227L150.333 315.403L150.028 316.299L149.616 316.532L148.846 315.869L149.079 315.278L148.416 314.561L148.953 312.841V311.175L148.29 309.742L148.344 308.739L147.502 308.201L147.986 307.61L147.807 306.177L148.219 305.585L149.115 305.765L150.422 307.61L152.268 308.739L152.805 309.509L154.059 310.046L154.901 311.945L155.564 312.662L155.26 314.024L154.131 314.436L153.253 315.206ZM139.852 294.8L141.053 297.237L141.948 298.186L142.074 298.849L143.149 299.441L143.919 300.695L144.51 302.002V302.414L144.206 302.647L143.847 302.522L143.901 301.877L143.543 301.34L143.131 301.698H142.468L142.056 300.802H140.623L138.885 299.315L137.989 298.957L136.431 299.136L135.947 297.649L135.463 297.416L134.155 295.212L134.209 294.8L134.621 294.496L135.338 294.908L135.463 294.675L134.926 293.958L134.693 292.346L134.997 291.701L135.947 290.931H137.022L139.404 292.955L139.852 294.8ZM115.667 257.949L116.258 259.722L115.9 259.848L115.541 258.952L115.308 259.131L116.025 261.442L117.816 262.875L117.996 264.237L119.124 265.598L119.178 266.315L119.948 267.569L119.716 268.107L120.737 269.289L120.79 270.418L122.636 272.191L122.869 272.782L123.048 274.037L122.564 273.625L121.973 273.678L122.689 274.628L123.997 275.111L124.176 275.595L123.997 276.366L124.714 278.139L125.914 277.727L126.756 278.91L126.935 281.525L126.344 282.421L125.269 280.343L125.036 280.397L125.395 282.17L125.878 283.173L125.108 283.89L124.445 283.353L123.066 283.299L122.295 283.532L122.17 284.069L121.149 284.248L113.803 280.271L113.445 279.268L112.37 278.318L112.729 278.139V277.727L111.6 275.524L106.816 268.465L106.404 267.282L105.688 266.87L105.383 266.333L105.204 265.563L105.867 264.846L107.3 260.994L107.246 259.095L108.375 257.913L109.092 257.734L109.862 258.092L111.887 257.913L113.32 257.375L114.52 256.48L114.932 256.533L115.667 257.949ZM145.263 200.727L145.961 201.354L147.162 201.139L147.735 202.411L150.064 203.253L150.566 203.88L154.382 205.152L154.023 204.883L155.922 205.654L156.764 206.962L155.277 209.273L155.116 210.957L157.391 215.686V217.747L157.66 218.535H158.144L159.792 217.693L160.473 217.962L161.154 218.427L162.533 221.527L167.621 222.942L169.574 222.996L170.004 222.315L171.957 220.631L173.121 220.219L173.748 220.38L174.071 220.81L174.751 222.602L174.268 224.124V224.984L174.948 226.668L174.787 228.191L173.73 230.037L173.139 229.194L172.763 229.248L171.921 229.929L171.867 230.556L172.351 232.133L172.028 232.455L172.082 232.885L173.032 234.515L172.817 235.035L173.032 235.931L173.623 236.826L174.572 237.346L174.68 238.457L175.056 239.03L175.898 239.084L176.901 239.872L177.385 238.976L177.116 238.815L177.277 238.546L178.818 238.081L179.499 238.188L180.932 239.245L180.878 240.463L180.556 241.144L181.828 243.885L182.365 244.154L182.795 244.046L183.422 244.781L185.429 245.623L185.644 246.357L186.808 246.823L187.597 247.826L190.66 248.919L190.821 249.081L190.499 249.654L191.18 250.173L192.129 250.388L192.29 251.392L194.888 252.968L195.318 253.595L196.106 253.649L198.113 254.867L199.277 256.444L199.904 256.766L199.851 257.286L202.126 257.913L203.022 258.486H204.616L205.046 258.755L205.1 260.546L205.369 260.761L205.154 262.123L206.103 262.911L206.73 262.445L206.945 262.607L206.408 264.129L204.921 265.975L203.81 266.243L203.219 266.673L202.108 266.62L200.997 267.73L201.105 268.734L201.732 270.203V270.615L200.997 271.457V271.833L201.732 272.46V272.872L200.621 274.861L197.02 277.064L194.906 280.271L193.115 280.737L192.434 280.11L191.323 280.432L190.32 280.379L189.37 280.844L187.471 280.791L186.468 281.418L185.25 280.146L184.981 280.199L184.659 280.826L183.763 280.199L183.44 280.253L183.817 286.774L184.085 287.509L184.927 288.405L185.196 289.3L185.823 290.035L187.095 290.608L187.776 291.916L188.779 294.926L189.102 297.882L188.672 298.831L187.238 300.569L185.913 301.572L183.96 302.361L183.225 303.149L180.341 305.138L179.839 304.17L176.256 300.211L175.54 297.362L174.035 295.266L174.106 294.442L175.432 293.242L175.97 292.185L175.988 290.071L175.181 287.079L171.616 281.955L169.036 278.802L167.424 274.538L166.062 273.141L166.707 272.138L166.797 271.063L166.027 269.307L165.31 268.823L163.966 268.644L162.533 267.3L161.817 267.82L161.136 267.623L161.369 266.512L162.157 266.638L161.637 265.437L160.957 265.24L159.971 263.735L159.935 263.216L160.527 263.18L159.935 261.872L160.473 261.245V260.672L159.488 257.895L159.022 255.405L158.52 254.437L157.732 253.326L152.662 248.292L151.372 245.766L150.189 244.208L146.069 240.822V240.41L145.191 239.138L143.167 237.919L142.486 236.414V235.465L141.25 233.369L140.856 233.118L141.25 231.936L140.999 231.291L141.339 230.717L140.3 229.159L138.688 228.066L137.649 226.955L135.23 225.647L131.145 223.945L129.909 223.677L129.157 222.01L128.512 221.383L127.079 221.204L125.09 221.939L122.976 221.186L124.642 218.696L125.986 218.069L127.401 217.926L128.53 216.528L130.088 213.644L130.931 213.429L133.116 212.032L135.015 212.802L137.631 211.888L138.545 213.089L138.688 213.787L139.817 214.629L141.303 213.859L141.805 213.787L142.719 214.002L142.934 214.361L144.062 214.432L145.334 214.217L146.248 213.662L147.448 212.193V210.993L146.248 210.079L146.105 207.983L144.976 207.553H143.847L143.346 206.155V205.6L143.847 205.045L143.704 201.318L144.761 200.691L145.263 200.727Z"/>
</mask>
<path d="M163.106 323.125L163.053 324.199L163.536 325.149L163.411 325.507L161.619 325.74L160.777 326.152L163.232 330.918L163.286 331.33L162.569 331.813L162.032 331.509L161.494 330.327L161.136 330.38L160.365 329.789L160.724 329.484L160.365 328.893L158.986 328.41L159.29 327.156L158.932 326.331L159.058 325.256L157.983 323.823L156.908 323.949L155.707 322.515L154.507 320.312L154.453 319.9L154.991 318.825L154.149 315.385L154.274 314.848L156.119 314.185L158.574 317.284L160.186 318.234L162.336 320.975L163.232 321.638L163.106 323.125ZM153.253 315.206L153.199 315.923H151.408L151.282 316.227L150.333 315.403L150.028 316.299L149.616 316.532L148.846 315.869L149.079 315.278L148.416 314.561L148.953 312.841V311.175L148.29 309.742L148.344 308.739L147.502 308.201L147.986 307.61L147.807 306.177L148.219 305.585L149.115 305.765L150.422 307.61L152.268 308.739L152.805 309.509L154.059 310.046L154.901 311.945L155.564 312.662L155.26 314.024L154.131 314.436L153.253 315.206ZM139.852 294.8L141.053 297.237L141.948 298.186L142.074 298.849L143.149 299.441L143.919 300.695L144.51 302.002V302.414L144.206 302.647L143.847 302.522L143.901 301.877L143.543 301.34L143.131 301.698H142.468L142.056 300.802H140.623L138.885 299.315L137.989 298.957L136.431 299.136L135.947 297.649L135.463 297.416L134.155 295.212L134.209 294.8L134.621 294.496L135.338 294.908L135.463 294.675L134.926 293.958L134.693 292.346L134.997 291.701L135.947 290.931H137.022L139.404 292.955L139.852 294.8ZM115.667 257.949L116.258 259.722L115.9 259.848L115.541 258.952L115.308 259.131L116.025 261.442L117.816 262.875L117.996 264.237L119.124 265.598L119.178 266.315L119.948 267.569L119.716 268.107L120.737 269.289L120.79 270.418L122.636 272.191L122.869 272.782L123.048 274.037L122.564 273.625L121.973 273.678L122.689 274.628L123.997 275.111L124.176 275.595L123.997 276.366L124.714 278.139L125.914 277.727L126.756 278.91L126.935 281.525L126.344 282.421L125.269 280.343L125.036 280.397L125.395 282.17L125.878 283.173L125.108 283.89L124.445 283.353L123.066 283.299L122.295 283.532L122.17 284.069L121.149 284.248L113.803 280.271L113.445 279.268L112.37 278.318L112.729 278.139V277.727L111.6 275.524L106.816 268.465L106.404 267.282L105.688 266.87L105.383 266.333L105.204 265.563L105.867 264.846L107.3 260.994L107.246 259.095L108.375 257.913L109.092 257.734L109.862 258.092L111.887 257.913L113.32 257.375L114.52 256.48L114.932 256.533L115.667 257.949ZM145.263 200.727L145.961 201.354L147.162 201.139L147.735 202.411L150.064 203.253L150.566 203.88L154.382 205.152L154.023 204.883L155.922 205.654L156.764 206.962L155.277 209.273L155.116 210.957L157.391 215.686V217.747L157.66 218.535H158.144L159.792 217.693L160.473 217.962L161.154 218.427L162.533 221.527L167.621 222.942L169.574 222.996L170.004 222.315L171.957 220.631L173.121 220.219L173.748 220.38L174.071 220.81L174.751 222.602L174.268 224.124V224.984L174.948 226.668L174.787 228.191L173.73 230.037L173.139 229.194L172.763 229.248L171.921 229.929L171.867 230.556L172.351 232.133L172.028 232.455L172.082 232.885L173.032 234.515L172.817 235.035L173.032 235.931L173.623 236.826L174.572 237.346L174.68 238.457L175.056 239.03L175.898 239.084L176.901 239.872L177.385 238.976L177.116 238.815L177.277 238.546L178.818 238.081L179.499 238.188L180.932 239.245L180.878 240.463L180.556 241.144L181.828 243.885L182.365 244.154L182.795 244.046L183.422 244.781L185.429 245.623L185.644 246.357L186.808 246.823L187.597 247.826L190.66 248.919L190.821 249.081L190.499 249.654L191.18 250.173L192.129 250.388L192.29 251.392L194.888 252.968L195.318 253.595L196.106 253.649L198.113 254.867L199.277 256.444L199.904 256.766L199.851 257.286L202.126 257.913L203.022 258.486H204.616L205.046 258.755L205.1 260.546L205.369 260.761L205.154 262.123L206.103 262.911L206.73 262.445L206.945 262.607L206.408 264.129L204.921 265.975L203.81 266.243L203.219 266.673L202.108 266.62L200.997 267.73L201.105 268.734L201.732 270.203V270.615L200.997 271.457V271.833L201.732 272.46V272.872L200.621 274.861L197.02 277.064L194.906 280.271L193.115 280.737L192.434 280.11L191.323 280.432L190.32 280.379L189.37 280.844L187.471 280.791L186.468 281.418L185.25 280.146L184.981 280.199L184.659 280.826L183.763 280.199L183.44 280.253L183.817 286.774L184.085 287.509L184.927 288.405L185.196 289.3L185.823 290.035L187.095 290.608L187.776 291.916L188.779 294.926L189.102 297.882L188.672 298.831L187.238 300.569L185.913 301.572L183.96 302.361L183.225 303.149L180.341 305.138L179.839 304.17L176.256 300.211L175.54 297.362L174.035 295.266L174.106 294.442L175.432 293.242L175.97 292.185L175.988 290.071L175.181 287.079L171.616 281.955L169.036 278.802L167.424 274.538L166.062 273.141L166.707 272.138L166.797 271.063L166.027 269.307L165.31 268.823L163.966 268.644L162.533 267.3L161.817 267.82L161.136 267.623L161.369 266.512L162.157 266.638L161.637 265.437L160.957 265.24L159.971 263.735L159.935 263.216L160.527 263.18L159.935 261.872L160.473 261.245V260.672L159.488 257.895L159.022 255.405L158.52 254.437L157.732 253.326L152.662 248.292L151.372 245.766L150.189 244.208L146.069 240.822V240.41L145.191 239.138L143.167 237.919L142.486 236.414V235.465L141.25 233.369L140.856 233.118L141.25 231.936L140.999 231.291L141.339 230.717L140.3 229.159L138.688 228.066L137.649 226.955L135.23 225.647L131.145 223.945L129.909 223.677L129.157 222.01L128.512 221.383L127.079 221.204L125.09 221.939L122.976 221.186L124.642 218.696L125.986 218.069L127.401 217.926L128.53 216.528L130.088 213.644L130.931 213.429L133.116 212.032L135.015 212.802L137.631 211.888L138.545 213.089L138.688 213.787L139.817 214.629L141.303 213.859L141.805 213.787L142.719 214.002L142.934 214.361L144.062 214.432L145.334 214.217L146.248 213.662L147.448 212.193V210.993L146.248 210.079L146.105 207.983L144.976 207.553H143.847L143.346 206.155V205.6L143.847 205.045L143.704 201.318L144.761 200.691L145.263 200.727Z" fill="#F85937" fill-opacity="0.24" stroke="#F85937" stroke-width="2.31786" mask="url(#path-8-inside-8_193_210)"/>
<mask id="path-9-inside-9_193_210" fill="white">
<path d="M265.814 376.333L265.958 375.742L265.313 374.667L264.596 374.631L263.485 374.112L262.84 374.273L263.539 373.395L263.217 371.819L262.679 371.066L261.533 370.17L260.135 370.099L261.407 368.988L259.454 367.125L259.92 366.193L260.941 365.226L260.923 364.205L260.368 363.04L259.365 362.718L257.609 363.362L256.624 362.825L256.015 361.732L255.298 361.893L254.277 361.517L252.969 361.499L251.661 360.711L250.783 359.708L247.361 359.152L247.344 356.232L246.519 355.032L245.624 352.577L244.907 352.488L244.388 352.058L242.704 352.309L240.446 352.201L240.07 351.986L239.604 351.073L238.888 350.786L237.795 351.305L236.433 350.947L235.215 350.248L233.692 348.314L232.098 347.4L231.793 346.683L231.076 345.967L229.876 345.608L230.718 345.286L231.13 344.641L233.513 343.799L233.728 341.757L234.857 340.395L235.734 339.84L235.86 337.242L236.147 337.17L237.096 337.708L238.046 338.711L238.69 339.858L238.995 339.947L240.285 338.621L240.858 337.332L241.449 337.17L241.503 336.919L241.772 335.253L241.7 333.766L242.023 333.139L241.647 332.333L240.231 332.172L238.762 332.745L238.386 332.387L238.261 331.384L238.547 331.187L237.544 331.634L236.541 331.169L236.057 331.384L235.537 330.542L235.484 329.932L235.036 329.735L233.423 330.739L231.883 330.792L230.467 331.796L230.019 331.348L228.891 331.169L225.899 328.446L226.257 327.55L225.845 327.281L226.042 325.095L225.523 323.77L224.394 322.731L222.656 322.336L220.596 323.053L219.754 322.265L218.643 322.014L217.927 320.867L217.389 318.735L216.601 318.467L216.368 317.965L214.791 317.016L214.541 315.744L213.018 314.776L212.642 313.719L213.573 313.988L214.29 312.68L215.383 312.393L215.741 312.035L217.192 311.82L217.927 311.032L218.07 309.724L219.073 309.294L220.596 310.226H221.116L221.474 309.867L222.405 310.387L223.427 311.39L224.663 311.677H226.024L226.186 311.963L227.261 311.175L227.995 311.032L228.855 311.39L229.948 310.226V309.652L230.306 309.294L231.686 308.721L233.352 307.359L233.853 307.646L234.355 307.574L235.161 306.929L237.042 303.758L237.92 303.095L236.827 301.304L237.848 299.799L239.138 300.301L242.542 300.874L243.062 299.942L243.42 300.014L243.563 300.444L245.588 301.089L248.347 300.014L248.06 298.706L246.824 297.488L247.254 296.413L247.612 295.893L248.204 295.678L248.49 294.89L248.992 294.46L249.87 294.603L250.443 295.248L250.586 296.628L251.751 297.631L252.037 298.419L253.489 299.208L254.133 300.372L255.083 300.587L255.441 301.232L255.728 301.16L255.513 299.799L255.871 299.423L255.513 296.628L255.656 295.893L257.609 295.392L258.845 294.532L257.842 293.672V291.289L258.2 290.573L258.057 289.999L258.415 288.638V287.187L260.368 285.467L264.274 284.016L267.248 283.872L267.767 282.941L269.057 282.296L269.863 282.439L271.673 283.371L272.568 283.048H273.912L275.847 283.532L278.265 282.959L279.914 282.188L281.651 282.385L283.479 281.902L284.052 281.131L283.873 279.788L284.16 279.304L284.733 279.017L285.7 278.82L287.993 279.752L289.14 281.525L289.427 283.138L289.14 284.069L288.28 284.75L287.689 286.058V287.348L288.101 288.1L288.513 287.939L289.391 285.807L290.125 285.932L292.401 287.867L296.109 290.143L298.563 290.25L299.889 291.45L300.265 292.292L300.821 295.105L300.731 295.947L300.265 296.61L299.495 296.789L298.85 297.918L298.277 297.81L297.22 298.67L295.213 301.877L296.79 302.146L297.274 301.877L299.119 299.244L301 298.832L301.788 300.265L303.813 300.372L304.691 301.053L307.432 301.752L310.083 300.265L314.401 301.77L319.883 302.379L322.803 302.343L323.305 303.418L322.48 306.517L322.964 309.079L323.251 309.76L324.559 310.906L325.795 311.265L327.246 311.211L327.855 311.498L328.231 312.608L327.891 316.191L329.02 318.503L330.292 319.613L332.119 319.775L333.445 319.416L333.982 319.524L335.415 320.133L336.204 320.849L336.472 322.587L336.239 324.827L337.637 327.639V328.356L337.081 329.108L334.036 330.685L332.047 332.763L329.933 337.26L329.324 339.266L329.055 341.291L329.485 342.903L330.292 343.745L332.621 345.053L333.355 346.791L332.979 348.314L331.366 350.822L330.274 353.115L329.879 356.071L329.378 356.716L328.84 355.731L327.927 355.247L327.551 355.336L327.443 355.82L326.923 356.071L325.562 355.928L325.239 355.677L325.419 354.871L324.953 354.674L324.899 354.244H323.735V353.814L324.272 353.276L324.129 353.187L323.305 353.276L322.875 353.043V353.527L322.445 353.419L322.534 352.9L323.251 351.933L322.731 351.359V350.929L321.907 350.248H322.588L322.391 349.675L322.194 349.532L321.621 349.872L321.191 349.532L321.28 348.726L320.653 348.242L320.313 348.529L319.686 348.242L319.936 346.791H318.862L318.539 346.325L317.142 346.415L316.945 345.125L316.371 344.981L315.404 345.161L314.813 345.59L314.293 343.674L313.899 343.441L313.272 344.247L313.075 345.268L312.358 345.841L312.842 346.934L312.466 347.812L311.212 348.959L309.993 348.529L309.026 349.012L308.847 349.926L308.56 350.069L308.166 349.819L307.682 351.735L306.912 352.506L307.45 353.133L306.769 353.222L306.231 353.814L305.658 355.533L304.547 356.304L303.884 357.218L302.774 357.164L301.663 357.594L299.638 358.615L299.495 359.224L296.844 359.672L292.884 359.475L292.49 359.385L291.774 358.472L290.573 359.475L288.406 360.335L287.295 361.248L286.184 361.159L285.27 362.216L283.837 363.219L283.694 363.9L283.21 364.043L282.726 365.53L283.264 370.367L282.099 371.532L281.616 372.911L282.583 373.503L282.691 374.99L283.891 376.082L284.088 376.709L284.034 377.336L282.726 379.02L282.099 379.218L281.383 378.537L280.845 378.877H280.129L279.305 378.393L278.642 378.537L278.391 379.218L276.599 380.167L274.969 379.701L274.826 379.253L274.485 379.164L274.055 379.558L271.547 379.845L270.634 379.164L270.347 380.758L269.809 381.385L268.466 380.131L267.839 380.077V379.701L268.609 378.967V378.017L267.928 377.139L267.158 377.104L267.068 376.19L265.904 376.279L265.814 376.333Z"/>
</mask>
<path d="M265.814 376.333L265.958 375.742L265.313 374.667L264.596 374.631L263.485 374.112L262.84 374.273L263.539 373.395L263.217 371.819L262.679 371.066L261.533 370.17L260.135 370.099L261.407 368.988L259.454 367.125L259.92 366.193L260.941 365.226L260.923 364.205L260.368 363.04L259.365 362.718L257.609 363.362L256.624 362.825L256.015 361.732L255.298 361.893L254.277 361.517L252.969 361.499L251.661 360.711L250.783 359.708L247.361 359.152L247.344 356.232L246.519 355.032L245.624 352.577L244.907 352.488L244.388 352.058L242.704 352.309L240.446 352.201L240.07 351.986L239.604 351.073L238.888 350.786L237.795 351.305L236.433 350.947L235.215 350.248L233.692 348.314L232.098 347.4L231.793 346.683L231.076 345.967L229.876 345.608L230.718 345.286L231.13 344.641L233.513 343.799L233.728 341.757L234.857 340.395L235.734 339.84L235.86 337.242L236.147 337.17L237.096 337.708L238.046 338.711L238.69 339.858L238.995 339.947L240.285 338.621L240.858 337.332L241.449 337.17L241.503 336.919L241.772 335.253L241.7 333.766L242.023 333.139L241.647 332.333L240.231 332.172L238.762 332.745L238.386 332.387L238.261 331.384L238.547 331.187L237.544 331.634L236.541 331.169L236.057 331.384L235.537 330.542L235.484 329.932L235.036 329.735L233.423 330.739L231.883 330.792L230.467 331.796L230.019 331.348L228.891 331.169L225.899 328.446L226.257 327.55L225.845 327.281L226.042 325.095L225.523 323.77L224.394 322.731L222.656 322.336L220.596 323.053L219.754 322.265L218.643 322.014L217.927 320.867L217.389 318.735L216.601 318.467L216.368 317.965L214.791 317.016L214.541 315.744L213.018 314.776L212.642 313.719L213.573 313.988L214.29 312.68L215.383 312.393L215.741 312.035L217.192 311.82L217.927 311.032L218.07 309.724L219.073 309.294L220.596 310.226H221.116L221.474 309.867L222.405 310.387L223.427 311.39L224.663 311.677H226.024L226.186 311.963L227.261 311.175L227.995 311.032L228.855 311.39L229.948 310.226V309.652L230.306 309.294L231.686 308.721L233.352 307.359L233.853 307.646L234.355 307.574L235.161 306.929L237.042 303.758L237.92 303.095L236.827 301.304L237.848 299.799L239.138 300.301L242.542 300.874L243.062 299.942L243.42 300.014L243.563 300.444L245.588 301.089L248.347 300.014L248.06 298.706L246.824 297.488L247.254 296.413L247.612 295.893L248.204 295.678L248.49 294.89L248.992 294.46L249.87 294.603L250.443 295.248L250.586 296.628L251.751 297.631L252.037 298.419L253.489 299.208L254.133 300.372L255.083 300.587L255.441 301.232L255.728 301.16L255.513 299.799L255.871 299.423L255.513 296.628L255.656 295.893L257.609 295.392L258.845 294.532L257.842 293.672V291.289L258.2 290.573L258.057 289.999L258.415 288.638V287.187L260.368 285.467L264.274 284.016L267.248 283.872L267.767 282.941L269.057 282.296L269.863 282.439L271.673 283.371L272.568 283.048H273.912L275.847 283.532L278.265 282.959L279.914 282.188L281.651 282.385L283.479 281.902L284.052 281.131L283.873 279.788L284.16 279.304L284.733 279.017L285.7 278.82L287.993 279.752L289.14 281.525L289.427 283.138L289.14 284.069L288.28 284.75L287.689 286.058V287.348L288.101 288.1L288.513 287.939L289.391 285.807L290.125 285.932L292.401 287.867L296.109 290.143L298.563 290.25L299.889 291.45L300.265 292.292L300.821 295.105L300.731 295.947L300.265 296.61L299.495 296.789L298.85 297.918L298.277 297.81L297.22 298.67L295.213 301.877L296.79 302.146L297.274 301.877L299.119 299.244L301 298.832L301.788 300.265L303.813 300.372L304.691 301.053L307.432 301.752L310.083 300.265L314.401 301.77L319.883 302.379L322.803 302.343L323.305 303.418L322.48 306.517L322.964 309.079L323.251 309.76L324.559 310.906L325.795 311.265L327.246 311.211L327.855 311.498L328.231 312.608L327.891 316.191L329.02 318.503L330.292 319.613L332.119 319.775L333.445 319.416L333.982 319.524L335.415 320.133L336.204 320.849L336.472 322.587L336.239 324.827L337.637 327.639V328.356L337.081 329.108L334.036 330.685L332.047 332.763L329.933 337.26L329.324 339.266L329.055 341.291L329.485 342.903L330.292 343.745L332.621 345.053L333.355 346.791L332.979 348.314L331.366 350.822L330.274 353.115L329.879 356.071L329.378 356.716L328.84 355.731L327.927 355.247L327.551 355.336L327.443 355.82L326.923 356.071L325.562 355.928L325.239 355.677L325.419 354.871L324.953 354.674L324.899 354.244H323.735V353.814L324.272 353.276L324.129 353.187L323.305 353.276L322.875 353.043V353.527L322.445 353.419L322.534 352.9L323.251 351.933L322.731 351.359V350.929L321.907 350.248H322.588L322.391 349.675L322.194 349.532L321.621 349.872L321.191 349.532L321.28 348.726L320.653 348.242L320.313 348.529L319.686 348.242L319.936 346.791H318.862L318.539 346.325L317.142 346.415L316.945 345.125L316.371 344.981L315.404 345.161L314.813 345.59L314.293 343.674L313.899 343.441L313.272 344.247L313.075 345.268L312.358 345.841L312.842 346.934L312.466 347.812L311.212 348.959L309.993 348.529L309.026 349.012L308.847 349.926L308.56 350.069L308.166 349.819L307.682 351.735L306.912 352.506L307.45 353.133L306.769 353.222L306.231 353.814L305.658 355.533L304.547 356.304L303.884 357.218L302.774 357.164L301.663 357.594L299.638 358.615L299.495 359.224L296.844 359.672L292.884 359.475L292.49 359.385L291.774 358.472L290.573 359.475L288.406 360.335L287.295 361.248L286.184 361.159L285.27 362.216L283.837 363.219L283.694 363.9L283.21 364.043L282.726 365.53L283.264 370.367L282.099 371.532L281.616 372.911L282.583 373.503L282.691 374.99L283.891 376.082L284.088 376.709L284.034 377.336L282.726 379.02L282.099 379.218L281.383 378.537L280.845 378.877H280.129L279.305 378.393L278.642 378.537L278.391 379.218L276.599 380.167L274.969 379.701L274.826 379.253L274.485 379.164L274.055 379.558L271.547 379.845L270.634 379.164L270.347 380.758L269.809 381.385L268.466 380.131L267.839 380.077V379.701L268.609 378.967V378.017L267.928 377.139L267.158 377.104L267.068 376.19L265.904 376.279L265.814 376.333Z" fill="#F85937" fill-opacity="0.24" stroke="#F85937" stroke-width="2.31786" mask="url(#path-9-inside-9_193_210)"/>
<mask id="path-10-inside-10_193_210" fill="white">
<path d="M99.8634 236.146L100.616 236.217L101.888 237.686L102.819 239.317L102.891 240.23L102.3 240.875L102.64 241.287L102.372 242.721L102.569 243.545L102.192 244.118L101.745 244.279L102.389 245.641L102.282 246.017L101.906 246.214L101.225 246.322L101.637 245.193L101.458 244.96L100.938 245.408L100.347 245.139L99.9351 245.283L99.5947 246.035L99.9709 246.572L99.7918 247.02L99.2722 246.304L98.1794 245.551L95.6712 244.691L96.7283 244.243L96.7999 244.656L97.409 244.62L97.7853 243.115L98.3765 242.703L98.269 240.625L98.6452 239.12L99.3976 238.475L100.186 238.134L100.49 237.382L99.5589 236.092L99.8634 236.146ZM98.896 228.532L99.0752 228.944L99.6485 228.532V229.41L101.637 231.721L101.834 232.742L101.601 233.387L102.085 234.336L102.013 234.91L103.769 236.199L104.521 237.185L104.378 238.815L103.697 238.851L103.59 239.263L104.074 240.356L103.876 240.696L102.981 238.582L102.461 238.17L100.688 235.34L100.24 235.142V234.426L98.2511 231.971V231.703L97.6778 230.001L95.9579 229.159L97.7315 228.335L98.896 228.532ZM105.901 223.157L107.728 223.336L108.642 223.103L109.161 223.677L111.419 223.229L113.282 225.002L113.049 225.773L113.21 226.006L112.476 226.149L112.118 225.773L111.007 225.594L110.057 226.346L109.376 226.436L108.624 226.113L107.065 226.346L105.453 225.737L103.859 225.719L103.285 225.343L103.088 224.142L104.504 223.175L105.686 222.978L105.901 223.157ZM72.0051 184.711L72.5963 186.072L77.0035 192.074L80.1745 193.185L83.9546 196.535L84.7787 198.649L83.5247 201.533L83.238 208.735L82.7364 209.631L80.8911 211.602L77.4334 210.724L76.8243 209.989L77.111 209.434L74.7282 203.361L71.0377 199.527L69.3357 199.437L68.4937 199.061L67.9025 197.323L66.4514 194.546L63.5132 189.709L59.3031 185.607L60.6468 185.051L62.6891 185.159L63.567 184.926L66.0572 182.704L68.0458 182.292L70.7152 183.26L72.0051 184.711ZM102.21 177.455L103.429 177.67L103.966 176.756L104.736 177.204L105.435 178.44L104.199 178.655L101.924 178.494L100.652 178.028L100.311 177.151L101.171 176.022L102.228 176.47V177.455H102.21ZM38.1631 156.423L35.0637 156.136L34.5083 155.796L33.9709 154.004L26.6256 149.185L21.0002 147.178L19.1728 146.838L15.5539 143.38L15.2314 142.305L15.3927 141.786L18.295 138.149L21.1793 138.704L24.6907 143.058L25.7119 143.524L27.9334 143.846L31.4269 147.608L35.5653 150.457L38.181 151.532L39.0409 152.804L39.0588 153.628L39.8292 155.616L38.1631 156.423ZM91.4432 162.299L92.5361 157.3L91.5866 154.398L90.0996 153.771L90.2071 152.499L89.4725 151.496L89.1501 149.704L89.58 147.178L90.6908 146.802L90.637 146.336L89.7413 145.44L89.4725 144.276L89.58 143.595L90.1712 142.699L89.7413 142.18L89.795 141.714L88.0931 141.499L87.0361 139.6L85.3878 139.17V137.271L84.9041 135.695L84.9579 134.745L84.5817 134.279L84.9041 134.064L86.0149 134.172L86.1761 132.434L85.0654 131.269L84.9579 129.944L84.0621 129.048L83.0051 128.833L82.8439 128.51L87.0898 127.346L87.5198 125.931L86.839 124.659L86.3553 124.874L85.1908 124.085L85.137 123.297L84.6533 122.294L85.2445 121.344L84.2413 120.61L83.865 119.033L82.5393 118.406L82.5931 117.081L82.1093 116.758V116.185L81.2673 115.289L80.6761 113.82L81.4644 112.709L84.1159 110.595L84.3308 109.968L83.5963 108.642L83.7576 108.069L84.08 108.015L85.0833 108.696L85.352 108.212L85.2445 107.532L87.4123 106.367L87.8423 103.984L88.2185 103.465L88.1647 101.727L89.0067 100.509L88.738 99.6668L89.4725 99.2368L89.5263 98.5561L88.9888 97.6065L89.1501 97.2303L89.8308 97.3916L90.8341 97.1766L91.3178 96.9616L91.4253 96.3883L92.8048 96.0121L94.238 96.2808L94.9546 96.03L95.1338 100.885L96.5133 102.748L98.6452 102.677L101.315 103.823L103.303 105.006L104.772 107.335L107.889 108.123L108.517 109.18L108.337 110.129L108.749 111.616L112.583 114.142L116.578 115.45L119.749 117.206L126.844 121.685L128.958 123.584L131.126 124.426L132.774 125.59L134.064 127.883L134.709 128.51L135.64 129.066L138.077 129.8L141.409 131.681L145.637 135.91L148.109 137.88L148.342 138.471L148.521 142.395L148.271 143.47L147.232 144.885L147.303 145.673L149.346 147.967L148.862 148.432L149.776 148.164L149.22 146.82L149.65 145.996L148.701 145.279L148.02 145.351L147.966 145.1L149.65 143.971L150.367 144.097L151.639 145.476L151.513 147.967L152.821 151.012L153.054 150.976L152.337 148.056V146.748L152.875 145.799L153.932 145.172L155.043 145.208L156.333 146.82L157.497 149.095L158.464 150.027L158.859 151.03L158.142 153.305L158.357 156.888L159.629 159.701L159.916 161.385L159.002 164.467L158.572 169.805L157.73 172.045V172.743L158.232 173.299L161.618 173.926L162.048 175.323L161.474 175.807L161.403 176.577L162.46 176.792L162.603 177.348L162.388 178.046L162.675 178.602L162.531 179.444L161.761 180.716L161.618 181.414L162.048 181.844L161.833 182.686L160.346 183.958H158.93L158.859 184.657L158.357 184.944L157.3 184.729L156.458 184.944V185.571L151.083 185.857L150.385 186.341L150.456 187.04L150.886 187.47L151.316 187.398L152.23 189.082L152.588 191.931L153.09 192.844L154.147 193.615L154.29 194.17L153.162 194.313L152.176 194.869L152.105 195.639L152.803 195.926L153.43 197.753L153.144 198.882L152.714 199.366L151.37 199.437V199.849L152.14 200.691L152.911 200.62L152.696 201.39L152.911 202.662L152.409 203.02L153.323 204.346L154.308 205.116L150.492 203.844L149.99 203.217L147.662 202.375L147.088 201.103L145.888 201.318L145.189 200.691L144.688 200.62L143.631 201.247L143.774 204.973L143.272 205.528V206.084L143.774 207.481H144.903L146.031 207.911L146.175 210.007L147.375 210.921V212.121L146.175 213.59L145.261 214.146L143.989 214.361L142.86 214.289L142.645 213.931L141.732 213.716L141.23 213.787L139.743 214.558L138.614 213.716L138.471 213.017L137.557 211.817L134.942 212.73L133.043 211.96L130.857 213.357L130.015 213.572L128.456 216.457L127.328 217.854L125.912 217.998L124.569 218.625L122.903 221.115L122.544 221.007L122.078 220.631L122.652 220.362V218.804L121.236 217.944L121.989 215.866L120.95 210.581L118.854 204.704L116.65 199.724L112.762 188.222L110.38 182.776L108.893 180.877L108.911 180.286L109.251 180.304L110.057 181.164L110.398 181.307L110.738 181.02L112.261 178.638L112.297 177.151L110.648 174.714L109.287 173.603L108.821 173.675L108.409 174.159L109.305 174.427L109.681 175.646L108.947 175.699L107.621 174.857L103.966 169.913L102.963 168.999L100.365 167.351L94.2201 164.287L91.4432 162.299Z"/>
</mask>
<path d="M99.8634 236.146L100.616 236.217L101.888 237.686L102.819 239.317L102.891 240.23L102.3 240.875L102.64 241.287L102.372 242.721L102.569 243.545L102.192 244.118L101.745 244.279L102.389 245.641L102.282 246.017L101.906 246.214L101.225 246.322L101.637 245.193L101.458 244.96L100.938 245.408L100.347 245.139L99.9351 245.283L99.5947 246.035L99.9709 246.572L99.7918 247.02L99.2722 246.304L98.1794 245.551L95.6712 244.691L96.7283 244.243L96.7999 244.656L97.409 244.62L97.7853 243.115L98.3765 242.703L98.269 240.625L98.6452 239.12L99.3976 238.475L100.186 238.134L100.49 237.382L99.5589 236.092L99.8634 236.146ZM98.896 228.532L99.0752 228.944L99.6485 228.532V229.41L101.637 231.721L101.834 232.742L101.601 233.387L102.085 234.336L102.013 234.91L103.769 236.199L104.521 237.185L104.378 238.815L103.697 238.851L103.59 239.263L104.074 240.356L103.876 240.696L102.981 238.582L102.461 238.17L100.688 235.34L100.24 235.142V234.426L98.2511 231.971V231.703L97.6778 230.001L95.9579 229.159L97.7315 228.335L98.896 228.532ZM105.901 223.157L107.728 223.336L108.642 223.103L109.161 223.677L111.419 223.229L113.282 225.002L113.049 225.773L113.21 226.006L112.476 226.149L112.118 225.773L111.007 225.594L110.057 226.346L109.376 226.436L108.624 226.113L107.065 226.346L105.453 225.737L103.859 225.719L103.285 225.343L103.088 224.142L104.504 223.175L105.686 222.978L105.901 223.157ZM72.0051 184.711L72.5963 186.072L77.0035 192.074L80.1745 193.185L83.9546 196.535L84.7787 198.649L83.5247 201.533L83.238 208.735L82.7364 209.631L80.8911 211.602L77.4334 210.724L76.8243 209.989L77.111 209.434L74.7282 203.361L71.0377 199.527L69.3357 199.437L68.4937 199.061L67.9025 197.323L66.4514 194.546L63.5132 189.709L59.3031 185.607L60.6468 185.051L62.6891 185.159L63.567 184.926L66.0572 182.704L68.0458 182.292L70.7152 183.26L72.0051 184.711ZM102.21 177.455L103.429 177.67L103.966 176.756L104.736 177.204L105.435 178.44L104.199 178.655L101.924 178.494L100.652 178.028L100.311 177.151L101.171 176.022L102.228 176.47V177.455H102.21ZM38.1631 156.423L35.0637 156.136L34.5083 155.796L33.9709 154.004L26.6256 149.185L21.0002 147.178L19.1728 146.838L15.5539 143.38L15.2314 142.305L15.3927 141.786L18.295 138.149L21.1793 138.704L24.6907 143.058L25.7119 143.524L27.9334 143.846L31.4269 147.608L35.5653 150.457L38.181 151.532L39.0409 152.804L39.0588 153.628L39.8292 155.616L38.1631 156.423ZM91.4432 162.299L92.5361 157.3L91.5866 154.398L90.0996 153.771L90.2071 152.499L89.4725 151.496L89.1501 149.704L89.58 147.178L90.6908 146.802L90.637 146.336L89.7413 145.44L89.4725 144.276L89.58 143.595L90.1712 142.699L89.7413 142.18L89.795 141.714L88.0931 141.499L87.0361 139.6L85.3878 139.17V137.271L84.9041 135.695L84.9579 134.745L84.5817 134.279L84.9041 134.064L86.0149 134.172L86.1761 132.434L85.0654 131.269L84.9579 129.944L84.0621 129.048L83.0051 128.833L82.8439 128.51L87.0898 127.346L87.5198 125.931L86.839 124.659L86.3553 124.874L85.1908 124.085L85.137 123.297L84.6533 122.294L85.2445 121.344L84.2413 120.61L83.865 119.033L82.5393 118.406L82.5931 117.081L82.1093 116.758V116.185L81.2673 115.289L80.6761 113.82L81.4644 112.709L84.1159 110.595L84.3308 109.968L83.5963 108.642L83.7576 108.069L84.08 108.015L85.0833 108.696L85.352 108.212L85.2445 107.532L87.4123 106.367L87.8423 103.984L88.2185 103.465L88.1647 101.727L89.0067 100.509L88.738 99.6668L89.4725 99.2368L89.5263 98.5561L88.9888 97.6065L89.1501 97.2303L89.8308 97.3916L90.8341 97.1766L91.3178 96.9616L91.4253 96.3883L92.8048 96.0121L94.238 96.2808L94.9546 96.03L95.1338 100.885L96.5133 102.748L98.6452 102.677L101.315 103.823L103.303 105.006L104.772 107.335L107.889 108.123L108.517 109.18L108.337 110.129L108.749 111.616L112.583 114.142L116.578 115.45L119.749 117.206L126.844 121.685L128.958 123.584L131.126 124.426L132.774 125.59L134.064 127.883L134.709 128.51L135.64 129.066L138.077 129.8L141.409 131.681L145.637 135.91L148.109 137.88L148.342 138.471L148.521 142.395L148.271 143.47L147.232 144.885L147.303 145.673L149.346 147.967L148.862 148.432L149.776 148.164L149.22 146.82L149.65 145.996L148.701 145.279L148.02 145.351L147.966 145.1L149.65 143.971L150.367 144.097L151.639 145.476L151.513 147.967L152.821 151.012L153.054 150.976L152.337 148.056V146.748L152.875 145.799L153.932 145.172L155.043 145.208L156.333 146.82L157.497 149.095L158.464 150.027L158.859 151.03L158.142 153.305L158.357 156.888L159.629 159.701L159.916 161.385L159.002 164.467L158.572 169.805L157.73 172.045V172.743L158.232 173.299L161.618 173.926L162.048 175.323L161.474 175.807L161.403 176.577L162.46 176.792L162.603 177.348L162.388 178.046L162.675 178.602L162.531 179.444L161.761 180.716L161.618 181.414L162.048 181.844L161.833 182.686L160.346 183.958H158.93L158.859 184.657L158.357 184.944L157.3 184.729L156.458 184.944V185.571L151.083 185.857L150.385 186.341L150.456 187.04L150.886 187.47L151.316 187.398L152.23 189.082L152.588 191.931L153.09 192.844L154.147 193.615L154.29 194.17L153.162 194.313L152.176 194.869L152.105 195.639L152.803 195.926L153.43 197.753L153.144 198.882L152.714 199.366L151.37 199.437V199.849L152.14 200.691L152.911 200.62L152.696 201.39L152.911 202.662L152.409 203.02L153.323 204.346L154.308 205.116L150.492 203.844L149.99 203.217L147.662 202.375L147.088 201.103L145.888 201.318L145.189 200.691L144.688 200.62L143.631 201.247L143.774 204.973L143.272 205.528V206.084L143.774 207.481H144.903L146.031 207.911L146.175 210.007L147.375 210.921V212.121L146.175 213.59L145.261 214.146L143.989 214.361L142.86 214.289L142.645 213.931L141.732 213.716L141.23 213.787L139.743 214.558L138.614 213.716L138.471 213.017L137.557 211.817L134.942 212.73L133.043 211.96L130.857 213.357L130.015 213.572L128.456 216.457L127.328 217.854L125.912 217.998L124.569 218.625L122.903 221.115L122.544 221.007L122.078 220.631L122.652 220.362V218.804L121.236 217.944L121.989 215.866L120.95 210.581L118.854 204.704L116.65 199.724L112.762 188.222L110.38 182.776L108.893 180.877L108.911 180.286L109.251 180.304L110.057 181.164L110.398 181.307L110.738 181.02L112.261 178.638L112.297 177.151L110.648 174.714L109.287 173.603L108.821 173.675L108.409 174.159L109.305 174.427L109.681 175.646L108.947 175.699L107.621 174.857L103.966 169.913L102.963 168.999L100.365 167.351L94.2201 164.287L91.4432 162.299Z" fill="#F85937" fill-opacity="0.24" stroke="#F85937" stroke-width="2.31786" mask="url(#path-10-inside-10_193_210)"/>
</g>
<defs>
<clipPath id="clip0_193_210">
<rect width="404.886" height="410.261" fill="white" transform="translate(0.263672 0.903442)"/>
</clipPath>
</defs>
</svg>
