<svg width="338" height="91" viewBox="0 0 338 91" fill="none" xmlns="http://www.w3.org/2000/svg">
<g clip-path="url(#clip0_193_222)">
<mask id="path-1-inside-1_193_222" fill="white">
<path d="M51.3344 6.9601L50.2523 7.41096L50.1802 9.43087L51.2803 10.026L51.2442 11.2343L51.9475 11.3786L52.2361 12.6951L53.0296 14.0658L52.9575 14.3363L52.6329 15.4364L47.3848 15.4725L46.8437 14.8232L45.0042 14.3363L44.8239 14.4445L45.3649 14.733L45.3829 15.1839L44.4091 15.2561L44.0303 14.0838L43.4352 13.9035L42.2269 15.0577L43.0204 17.5825L42.5695 18.1777L41.4514 18.34L41.253 20.0713L42.2629 22.3076L42.1006 25.4276L42.299 26.0408H42.5875L43.3811 26.9064L43.7598 26.8523L44.7517 28.0426L44.0844 28.4935L44.0303 28.9804L42.3351 29.774L42.1908 31.0544L41.0185 32.2988L41.1989 33.0923L40.8743 33.417L41.1628 34.7876L40.2791 35.1303L38.4576 35.2204L38.2953 34.7155L37.105 34.6614L36.9968 34.2466L36.3295 34.0662L36.3836 33.2907L34.7425 32.5152L33.7506 32.4792L32.7767 31.7758L31.9471 31.5955L30.6847 30.1347L29.7108 29.7199L27.1138 29.5034L21.8116 30.6036L19.1064 30.2609L15.2831 30.856L14.5617 31.3791L13.2993 31.0364L12.6861 31.2528L11.586 30.2609L11.0269 30.1707L10.7564 30.7298L10.4137 30.7478L10.54 30.2789L9.51196 29.5936L7.43799 29.1608L6.86086 29.287L6.50018 30.0625L5.90503 30.5675L5.1656 30.3871L4.89509 28.5837L4.51635 28.0787H4.22782L4.10156 27.6098L5.86895 27.736L6.4641 26.9245L7.90688 25.8785L7.69047 25.103L9.18735 24.3816L10.2153 26.672L9.8907 26.7622L9.76445 27.177L10.6662 27.7721L11.2433 28.728L11.3335 29.5215L11.8926 29.9724L12.2713 29.9002L13.2091 28.764L13.4616 26.9786L15.3552 25.4276L15.4814 24.7062L16.1307 24.4537L16.7078 23.6963L17.1046 22.4158L16.9422 20.973L17.9161 19.2778L18.6375 18.7187L18.872 19.5844L18.5473 20.0172L19.2868 20.5943L19.8999 20.7025L21.7395 20.3238L23.0019 18.5925L23.3085 17.5465L23.4528 11.9918L24.5529 7.93398L25.2562 7.50114L25.2021 6.40103L26.5547 5.5534L27.0417 4.83202L28.4484 3.6778L28.773 2.10877L28.2861 2.19895L29.8551 0.684039L31.1896 0.485657L32.1996 1.6579L32.1635 3.98439L34.003 4.9763L34.4719 5.0304L35.8426 4.39918L36.3115 3.87618L36.5279 2.99247L36.9427 2.68589L38.5117 3.20888L38.7281 3.5696L39.2511 3.7319L39.9725 2.99247L40.4595 3.46137L41.0366 3.51547L40.8743 3.786L41.289 4.72382L42.1728 5.19271L42.8581 5.06645L44.1746 5.48127L45.4911 4.52543L46.3748 5.0845L48.052 4.77792L48.4308 4.48936L49.2063 4.94022L50.09 4.66969L50.9376 5.49929L50.7753 5.7157L51.3344 6.9601Z"/>
</mask>
<path d="M51.3344 6.9601L50.2523 7.41096L50.1802 9.43087L51.2803 10.026L51.2442 11.2343L51.9475 11.3786L52.2361 12.6951L53.0296 14.0658L52.9575 14.3363L52.6329 15.4364L47.3848 15.4725L46.8437 14.8232L45.0042 14.3363L44.8239 14.4445L45.3649 14.733L45.3829 15.1839L44.4091 15.2561L44.0303 14.0838L43.4352 13.9035L42.2269 15.0577L43.0204 17.5825L42.5695 18.1777L41.4514 18.34L41.253 20.0713L42.2629 22.3076L42.1006 25.4276L42.299 26.0408H42.5875L43.3811 26.9064L43.7598 26.8523L44.7517 28.0426L44.0844 28.4935L44.0303 28.9804L42.3351 29.774L42.1908 31.0544L41.0185 32.2988L41.1989 33.0923L40.8743 33.417L41.1628 34.7876L40.2791 35.1303L38.4576 35.2204L38.2953 34.7155L37.105 34.6614L36.9968 34.2466L36.3295 34.0662L36.3836 33.2907L34.7425 32.5152L33.7506 32.4792L32.7767 31.7758L31.9471 31.5955L30.6847 30.1347L29.7108 29.7199L27.1138 29.5034L21.8116 30.6036L19.1064 30.2609L15.2831 30.856L14.5617 31.3791L13.2993 31.0364L12.6861 31.2528L11.586 30.2609L11.0269 30.1707L10.7564 30.7298L10.4137 30.7478L10.54 30.2789L9.51196 29.5936L7.43799 29.1608L6.86086 29.287L6.50018 30.0625L5.90503 30.5675L5.1656 30.3871L4.89509 28.5837L4.51635 28.0787H4.22782L4.10156 27.6098L5.86895 27.736L6.4641 26.9245L7.90688 25.8785L7.69047 25.103L9.18735 24.3816L10.2153 26.672L9.8907 26.7622L9.76445 27.177L10.6662 27.7721L11.2433 28.728L11.3335 29.5215L11.8926 29.9724L12.2713 29.9002L13.2091 28.764L13.4616 26.9786L15.3552 25.4276L15.4814 24.7062L16.1307 24.4537L16.7078 23.6963L17.1046 22.4158L16.9422 20.973L17.9161 19.2778L18.6375 18.7187L18.872 19.5844L18.5473 20.0172L19.2868 20.5943L19.8999 20.7025L21.7395 20.3238L23.0019 18.5925L23.3085 17.5465L23.4528 11.9918L24.5529 7.93398L25.2562 7.50114L25.2021 6.40103L26.5547 5.5534L27.0417 4.83202L28.4484 3.6778L28.773 2.10877L28.2861 2.19895L29.8551 0.684039L31.1896 0.485657L32.1996 1.6579L32.1635 3.98439L34.003 4.9763L34.4719 5.0304L35.8426 4.39918L36.3115 3.87618L36.5279 2.99247L36.9427 2.68589L38.5117 3.20888L38.7281 3.5696L39.2511 3.7319L39.9725 2.99247L40.4595 3.46137L41.0366 3.51547L40.8743 3.786L41.289 4.72382L42.1728 5.19271L42.8581 5.06645L44.1746 5.48127L45.4911 4.52543L46.3748 5.0845L48.052 4.77792L48.4308 4.48936L49.2063 4.94022L50.09 4.66969L50.9376 5.49929L50.7753 5.7157L51.3344 6.9601Z" fill="#F85937" fill-opacity="0.24" stroke="#F85937" stroke-width="2.31786" mask="url(#path-1-inside-1_193_222)"/>
<mask id="path-2-inside-2_193_222" fill="white">
<path d="M63.0572 2.16302L64.4459 3.6058L65.2033 3.75008L69.171 2.84835L70.8121 3.31724L72.3992 5.0125L74.5994 8.72764L77.503 9.84581L79.4146 10.0802L80.9656 11.7755L81.7231 11.1623L82.1198 11.4148L83.0036 11.3607L85.3661 9.93599L86.4843 9.97204L86.7007 10.7295L87.8008 10.1344L88.0713 10.6213L87.5663 10.6033L87.7106 11.505L89.6583 12.1903L92.2193 13.6511L95.1229 14.5348L96.9263 13.4167L97.6838 12.569L97.5575 11.8837L96.9263 11.2705L97.5936 11.3787L98.0805 11.8837L100.497 11.8296L101.633 12.6412L101.778 11.7575L102.03 11.6312L102.553 12.3526L102.842 13.3265L102.625 13.6331L103.13 15.13L105.547 17.8352L108 19.296L108.27 21.4601L108.108 22.4881L108.775 25.8245L109.947 27.8985L111.011 28.169L111.516 27.5558L112.382 28.0248L112.526 29.0527L114.636 29.5577L116.314 28.7281L116.404 28.0608L115.845 27.8624L116.259 27.3755L117.107 27.3214L116.981 29.9725L115.971 31.5054L115.52 31.7038L114.745 32.7498L115.033 33.6516L114.943 34.8238L116.115 35.4911L116.043 36.1404L115.556 36.5552L115.736 37.1142L115.43 37.7815L115.52 38.4488L115.015 38.9177L113.825 39.0079L112.959 40.0539L111.913 40.1621L111.3 39.603L110.687 39.621L108.919 40.4867L108.883 41.5147L109.388 42.0016V42.9214L108.541 44.3822L108.703 45.8611L109.028 45.825L109.406 46.2578L111.516 46.0955L112.436 46.9612L112.635 47.8268L113.626 48.8909L113.392 49.7205L113.572 50.514L114.113 51.1812L114.727 52.8765L114.582 53.8144L114.059 54.6079L115.304 55.9244L116.187 56.3752L114.961 57.1508L114.023 56.6097L112.689 56.5015L111.841 57.0606L111.769 57.3131L112.364 57.9443L112.112 58.1787L111.462 57.7819L111.228 56.8622L109.334 56.7901L107.675 57.1688L106.954 57.8722L106.809 59.892L105.998 60.4691L104.88 60.902H101.832L93.7703 59.5133L90.9929 58.5755L88.3599 58.2509L86.4843 58.3771L86.1596 58.1968L85.9793 57.3491L85.1677 56.8442L84.284 56.4654L81.5788 56.1769L80.9837 54.8603L78.7834 53.2913L74.8519 51.8666L74.2026 51.3075L71.8401 50.8566L67.2052 50.514L63.5802 49.5582L46.5014 48.3679L44.9324 47.917L44.0487 47.0694L42.4977 46.5644L41.5058 46.9071L41.4697 46.2758L40.6221 44.3642L40.6401 42.9214L41.6681 41.2802L43.2551 40.9376L42.8223 39.9998L43.0027 39.3325L43.8863 38.575L44.6979 38.2684L45.8341 36.7355L45.7079 35.0944L44.7881 34.1746L42.5698 33.9041L41.7222 34.2106L41.1631 34.7878L40.8746 33.4171L41.1992 33.0925L41.0188 32.299L42.1911 31.0546L42.3354 29.7741L44.0306 28.9806L44.0847 28.4937L44.752 28.0428L43.7601 26.8525L43.3814 26.9066L42.5878 26.0409H42.2993L42.1009 25.4278L42.2632 22.3078L41.2533 20.0715L41.4517 18.3401L42.5698 18.1778L43.0207 17.5827L42.2272 15.0578L43.4355 13.9036L44.0306 14.0839L44.4094 15.2562L45.3832 15.1841L45.3652 14.7332L44.8242 14.4447L45.0045 14.3364L46.844 14.8234L47.3851 15.4726L52.6332 15.4365L52.9578 14.3364L53.0299 14.0659L53.9677 13.9757L53.5349 15.2021L53.7513 15.4726L55.3744 15.0218L56.9074 15.9055L57.232 15.8153L57.6107 14.102L57.232 13.4347L57.1418 12.4248L58.278 12.1182L59.0174 10.5672L59.1256 6.9783L59.7929 6.87007L60.1175 6.4192L59.6667 5.6798L60.4241 5.17484L60.1356 4.77807L59.829 4.94038L59.7388 4.3272L60.2979 3.85828L60.4963 2.66802L60.1897 2.2532L59.6667 2.37946V2.21715L60.7488 1.47772L63.0572 2.16302Z"/>
</mask>
<path d="M63.0572 2.16302L64.4459 3.6058L65.2033 3.75008L69.171 2.84835L70.8121 3.31724L72.3992 5.0125L74.5994 8.72764L77.503 9.84581L79.4146 10.0802L80.9656 11.7755L81.7231 11.1623L82.1198 11.4148L83.0036 11.3607L85.3661 9.93599L86.4843 9.97204L86.7007 10.7295L87.8008 10.1344L88.0713 10.6213L87.5663 10.6033L87.7106 11.505L89.6583 12.1903L92.2193 13.6511L95.1229 14.5348L96.9263 13.4167L97.6838 12.569L97.5575 11.8837L96.9263 11.2705L97.5936 11.3787L98.0805 11.8837L100.497 11.8296L101.633 12.6412L101.778 11.7575L102.03 11.6312L102.553 12.3526L102.842 13.3265L102.625 13.6331L103.13 15.13L105.547 17.8352L108 19.296L108.27 21.4601L108.108 22.4881L108.775 25.8245L109.947 27.8985L111.011 28.169L111.516 27.5558L112.382 28.0248L112.526 29.0527L114.636 29.5577L116.314 28.7281L116.404 28.0608L115.845 27.8624L116.259 27.3755L117.107 27.3214L116.981 29.9725L115.971 31.5054L115.52 31.7038L114.745 32.7498L115.033 33.6516L114.943 34.8238L116.115 35.4911L116.043 36.1404L115.556 36.5552L115.736 37.1142L115.43 37.7815L115.52 38.4488L115.015 38.9177L113.825 39.0079L112.959 40.0539L111.913 40.1621L111.3 39.603L110.687 39.621L108.919 40.4867L108.883 41.5147L109.388 42.0016V42.9214L108.541 44.3822L108.703 45.8611L109.028 45.825L109.406 46.2578L111.516 46.0955L112.436 46.9612L112.635 47.8268L113.626 48.8909L113.392 49.7205L113.572 50.514L114.113 51.1812L114.727 52.8765L114.582 53.8144L114.059 54.6079L115.304 55.9244L116.187 56.3752L114.961 57.1508L114.023 56.6097L112.689 56.5015L111.841 57.0606L111.769 57.3131L112.364 57.9443L112.112 58.1787L111.462 57.7819L111.228 56.8622L109.334 56.7901L107.675 57.1688L106.954 57.8722L106.809 59.892L105.998 60.4691L104.88 60.902H101.832L93.7703 59.5133L90.9929 58.5755L88.3599 58.2509L86.4843 58.3771L86.1596 58.1968L85.9793 57.3491L85.1677 56.8442L84.284 56.4654L81.5788 56.1769L80.9837 54.8603L78.7834 53.2913L74.8519 51.8666L74.2026 51.3075L71.8401 50.8566L67.2052 50.514L63.5802 49.5582L46.5014 48.3679L44.9324 47.917L44.0487 47.0694L42.4977 46.5644L41.5058 46.9071L41.4697 46.2758L40.6221 44.3642L40.6401 42.9214L41.6681 41.2802L43.2551 40.9376L42.8223 39.9998L43.0027 39.3325L43.8863 38.575L44.6979 38.2684L45.8341 36.7355L45.7079 35.0944L44.7881 34.1746L42.5698 33.9041L41.7222 34.2106L41.1631 34.7878L40.8746 33.4171L41.1992 33.0925L41.0188 32.299L42.1911 31.0546L42.3354 29.7741L44.0306 28.9806L44.0847 28.4937L44.752 28.0428L43.7601 26.8525L43.3814 26.9066L42.5878 26.0409H42.2993L42.1009 25.4278L42.2632 22.3078L41.2533 20.0715L41.4517 18.3401L42.5698 18.1778L43.0207 17.5827L42.2272 15.0578L43.4355 13.9036L44.0306 14.0839L44.4094 15.2562L45.3832 15.1841L45.3652 14.7332L44.8242 14.4447L45.0045 14.3364L46.844 14.8234L47.3851 15.4726L52.6332 15.4365L52.9578 14.3364L53.0299 14.0659L53.9677 13.9757L53.5349 15.2021L53.7513 15.4726L55.3744 15.0218L56.9074 15.9055L57.232 15.8153L57.6107 14.102L57.232 13.4347L57.1418 12.4248L58.278 12.1182L59.0174 10.5672L59.1256 6.9783L59.7929 6.87007L60.1175 6.4192L59.6667 5.6798L60.4241 5.17484L60.1356 4.77807L59.829 4.94038L59.7388 4.3272L60.2979 3.85828L60.4963 2.66802L60.1897 2.2532L59.6667 2.37946V2.21715L60.7488 1.47772L63.0572 2.16302Z" fill="#F85937" fill-opacity="0.24" stroke="#F85937" stroke-width="2.31786" mask="url(#path-2-inside-2_193_222)"/>
<mask id="path-3-inside-3_193_222" fill="white">
<path d="M256.695 80.65L257.867 80.8845L259.418 80.7943L260.284 81.3353L259.977 82.0026L258.156 82.4355L256.388 82.5256L255.577 82.1829L255.631 81.2452L256.262 80.9927L256.406 80.5057L256.695 80.65ZM333.559 38.7735L334.533 39.0981L334.406 39.567L334.821 39.9277L335.759 40.0359L335.939 40.4147H336.408L336.715 40.1622V39.4949L337.454 39.1703L337.436 38.7555L337.923 38.521L337.436 41.3164L336.895 41.7312L335.47 41.8394L333.126 40.6852L332.819 40.0901L333.324 39.2965L333.036 38.4849L333.288 38.0521L333.559 38.7735ZM290.636 40.9196L290.131 41.0278L288.869 40.6852L287.444 39.6933L286.867 38.5751L287.282 37.5472L288.815 37.0782L289.698 37.6914L291.033 40.4147L290.636 40.9196ZM329.753 34.3911L330.781 34.9862L331.07 35.6535L330.078 35.2928L329.032 35.5453L328.166 35.2207L328.058 34.6075L327.553 34.5534L327.355 34.0665L327.824 33.4713L329.753 34.3911ZM278.481 31.7219L281.655 33.3631L282.232 34.7518L281.204 34.7157L280.555 35.2928L279.599 35.6355L277.381 35.7797L276.768 36.2847L275.956 35.906L275.577 36.1405L276.659 36.6454L277.417 37.4931L280.014 37.6373L280.429 38.8276L277.543 38.4849L276.389 37.6373L276.551 37.0602L275.776 36.7176L274.748 37.5291L274.513 38.0341L274.441 38.3407L274.892 38.5391L275.09 39.1162L274.892 39.531L268.418 38.7555L267.335 39.4408L266.957 39.2785L265.911 39.4769L265.153 40.3245L264.396 42.5067L263.169 43.3183L262.791 43.0117L263.025 42.8494L262.881 42.5427L261.51 42.2722L255.865 42.0739L255.324 42.3804L253.034 42.4526L252.493 41.5689L251.88 41.6771L251.844 41.2623L252.222 40.7934L251.609 40.2524L250.924 41.0639L251.23 41.7492L251.916 42.3624L250.239 42.5247L243.836 40.9557L242.953 40.4507L240.265 40.2884L239.544 40.7393L238.354 40.7754L237.542 40.1261L237.957 38.4308H237.452L236.983 37.2045L237.362 36.3569L238.444 36.6274L240.662 34.7879L241.744 33.1828L241.672 32.5696L243.584 31.8843L246.451 31.8482L247.678 31.5777L250.635 31.9564L260.717 31.8482L262.863 32.1548L269.103 31.7039L271.177 31.8121L275.812 31.1268L278.481 31.7219ZM318.626 30.0447L322.612 30.3333L324.343 30.9284L327.03 32.4433L327.463 33.2369L326.67 34.3189L325.894 33.85L325.082 33.9041L324.307 33.1287L322.467 33.4172L321.872 32.7319L321.133 32.8401L320.953 33.0926L320.051 32.9844L320.177 33.3992L321.457 33.9943L322.143 34.9862L320.051 35.2207L319.564 34.5354L319.239 34.5534L318.824 34.7879L318.879 35.4732L318.41 35.6174L317.201 34.4632L318.049 33.4894L317.49 33.6697L315.975 33.5254L315.722 32.9663L316.047 31.8482L316.949 31.6859L317.382 31.0907L317.4 30.7661L316.624 30.3513L316.787 30.171L317.382 29.8824L318.626 30.0447ZM207.911 28.2232L208.813 28.3134L210.31 29.0528L211.446 29.0889L213.123 28.6741L214.386 27.9527L215.179 28.0429L217.253 31.4695L217.957 31.9925L219.598 32.2089L221.203 32.1187L223.06 31.3432L223.908 31.5596L226.252 31.1088L228.507 31.4154L228.958 31.1629L229.913 31.4334L230.978 32.245L232.168 32.4794L232.835 31.6498L232.42 31.1268L232.925 30.8022L232.835 30.189L233.557 30.8022L233.773 30.676L233.809 31.235L234.314 31.9384L234.837 31.9203L235.216 32.4253L234.981 32.9122L234.584 32.7499L234.548 33.2369L235.126 35.0584L236.226 35.8699L236.388 36.8618L235.703 37.6554L235.432 39.0801L236.839 40.3606L236.911 41.0459L236.388 41.3705V41.8935L236.875 42.2181L238.011 42.2903L238.318 41.5869L239.778 41.4246L240.428 41.9115L241.131 43.192L242.393 44.202L242.357 45.1037L241.961 45.5726L242.321 45.7529L242.033 47.863L242.141 50.1534L241.474 50.2616L242.087 51.3437L242.935 51.6142L243.187 52.011L242.935 53.5619L243.295 53.6521L243.746 54.5358L245.171 55.0408L245.604 54.7162L246.271 55.4556L247.137 55.8704L247.858 55.5638L248.67 55.7622L250.004 57.2771L252.583 58.5936L253.864 58.3411L255.072 58.5395L256.136 59.8019L256.839 59.4052L257.308 59.5314L258.228 59.1707L258.913 58.4674L259.977 58.3592L262.953 57.1689L264.45 57.5837L265.352 57.4755L268.147 58.269L269.5 57.5115L270.69 58.3592L271.105 58.3231L272.006 58.0526L272.782 57.1148L273.828 56.6278L276.1 57.1869L278.03 55.2211L279.581 54.4457L280.591 55.149L281.655 57.3673L281.944 57.4935L284.829 57.7099L286.001 57.1509L287.534 58.5936L290.33 59.0625L292.115 60.1446L292.927 61.2808V62.94L291.52 64.1844L291.881 66.5289L291.863 68.5487L291.105 69.9735L290.943 71.3621L290.384 72.5524L290.564 73.887L289.897 75.3117L289.139 79.3154L289.049 80.3615L289.807 81.8764L289.41 83.0667L289.825 83.4454L290.131 83.2831L290.456 81.7321L290.294 80.7402L290.51 80.6139L290.871 81.0107L290.835 81.9124L291.195 82.8503L290.979 83.8782L291.646 85.5915L292.512 86.6375L293.377 85.9522L294.496 87.0343L296.263 87.3228L297.327 88.946L296.876 90.3527L296.263 90.8396L295.001 91.1282L292.061 90.1362L290.131 90.1903L289.266 89.9739L289.157 89.5591L289.969 89.1624L290.185 88.5672L289.897 87.5392L288.797 86.4211L286.596 85.4292L285.623 85.5194L285.352 85.844L285.424 86.6916L285.136 86.872L281.637 85.9522L279.725 86.4933L279.256 86.1687V85.339L278.733 85.1226L278.246 85.4112L278.192 85.7899L277.092 85.8801L276.677 85.4292L277.345 85.2489L277.381 84.7799L276.876 84.1848H276.353L275.776 84.798L274.73 84.2029L273.215 83.9504L273.251 83.2109L272.71 83.8241L272.421 83.77L272.457 82.2371L272.097 82.0387L270.906 82.4535L270.618 82.9404L270.203 83.1027L269.806 82.9044L269.554 83.1388L269.391 83.0306L269.698 82.2551L269.464 81.8042L268.796 82.3092L268.436 82.0026L268.129 82.2191L266.704 80.5598L265.929 80.2713L265.207 80.3795L265.316 80.1631L265.009 79.9467L264.522 80.2172L263.584 80.0909L262.178 79.4236L262.141 78.6842L261.474 78.3957L260.392 78.5039L259.31 79.1531L258.138 77.2234L257.615 76.7725L256.172 75.8167L254.495 75.4019L252.926 75.2937L248.092 76.1053L246.253 77.1874L245.64 78.2875L244.702 79.0449L238.119 79.9467L238.264 80.8484L237.56 81.0829L235.378 79.9467L233.448 79.3515L229.823 79.0449L228.994 78.54H228.164L226.667 77.4399L225.297 77.0431L224.233 77.6022L223.132 77.4399L222.104 76.8808L217.542 76.7184L216.712 76.5561L216.207 75.9971L215.36 75.6364L214.223 75.4561L214.043 75.6725L214.241 76.0692H212.835L211.554 75.0052L211.157 74.9691L210.941 75.4199L209.769 75.1134L209.679 74.8248L208.939 75.0052L209.102 76.9169L208.542 77.2415L207.947 77.1693L208.146 76.5742L207.749 75.8708L207.136 75.8889L206.991 76.1774L207.352 76.8087L206.667 76.8266L206.486 77.2054L207.19 77.8005L207.316 78.2334L206.414 78.4678L205.855 78.4318L205.567 77.9268L204.214 77.7825L204.467 77.4218L204.34 76.8266H203.944L203.871 77.0611L203.276 76.8988L203.006 77.2234L202.501 77.0972L202.465 76.4299L201.906 76.3037L201.473 77.1333L199.146 76.5742L198.84 75.1675L198.245 74.8068L197.054 75.474L192.546 74.5182L191.608 75.1494L189.372 75.3478L187.875 74.3018L187.803 73.6886L187.298 73.6526L187.153 74.4641L185.35 74.6625L181.815 73.4903L181.599 72.0114L182.049 70.3703L183.312 68.711L185.584 69.3062L187.099 68.2061L188.091 68.7651L188.885 67.5028L188.758 65.5911L189.263 65.2484L189.191 64.7073L189.516 64.3827L190.67 64.0942L190.796 64.5991L191.554 64.4909L192.041 65.0861L192.582 64.9238L193.7 63.6974L194.024 62.435L194.584 62.0021L193.538 59.6396L193.718 58.6297L191.987 58.7018L190.49 57.4755L190.67 56.7902L190.544 55.4015L190.868 54.2833L189.714 53.5259L189.372 52.0831L189.426 50.9289L188.939 50.3337L188.398 48.4942L189.227 46.7448L189.119 45.8611L189.39 45.1037L189.065 44.8873L189.408 43.6068L189.57 43.3724L190.165 43.5527L190.886 43.3183L191.049 42.9936L191.427 43.0477L192.257 44.0577L194.349 44.8151L195.684 45.7169L197.74 46.2038L198.19 46.7448L198.912 46.9793L199.074 46.4923L198.533 46.2218L198.822 45.2299H197.992L198.641 43.6248L199.02 43.2461L199.291 43.4265L199.687 43.1018L199.868 43.2641L201.581 42.3624L202.807 41.1L203.98 38.7916L203.871 37.8898L204.25 37.2947L203.871 35.6715L204.214 34.86L202.447 33.6517L202.988 32.7139L203.709 32.4253L204.142 29.9906L205.35 29.8283L205.621 29.4496L205.549 28.3495L205.837 28.0249L206.162 28.2954L206.523 27.6822L207.226 28.1691L207.911 28.2232ZM237.975 -4.20312L238.678 -4.02276L238.66 -3.48172L239.147 -2.52588L238.823 -1.04705L237.452 -0.343704L236.316 -0.433855L236.009 -0.686339L235.36 -0.379753H234.512L233.989 -1.31756L234.476 -2.92265L235.053 -3.01283L235.18 -3.6801L235.811 -4.07687L236.334 -4.29327L237.037 -4.13097L237.434 -4.74414L237.975 -4.20312Z"/>
</mask>
<path d="M256.695 80.65L257.867 80.8845L259.418 80.7943L260.284 81.3353L259.977 82.0026L258.156 82.4355L256.388 82.5256L255.577 82.1829L255.631 81.2452L256.262 80.9927L256.406 80.5057L256.695 80.65ZM333.559 38.7735L334.533 39.0981L334.406 39.567L334.821 39.9277L335.759 40.0359L335.939 40.4147H336.408L336.715 40.1622V39.4949L337.454 39.1703L337.436 38.7555L337.923 38.521L337.436 41.3164L336.895 41.7312L335.47 41.8394L333.126 40.6852L332.819 40.0901L333.324 39.2965L333.036 38.4849L333.288 38.0521L333.559 38.7735ZM290.636 40.9196L290.131 41.0278L288.869 40.6852L287.444 39.6933L286.867 38.5751L287.282 37.5472L288.815 37.0782L289.698 37.6914L291.033 40.4147L290.636 40.9196ZM329.753 34.3911L330.781 34.9862L331.07 35.6535L330.078 35.2928L329.032 35.5453L328.166 35.2207L328.058 34.6075L327.553 34.5534L327.355 34.0665L327.824 33.4713L329.753 34.3911ZM278.481 31.7219L281.655 33.3631L282.232 34.7518L281.204 34.7157L280.555 35.2928L279.599 35.6355L277.381 35.7797L276.768 36.2847L275.956 35.906L275.577 36.1405L276.659 36.6454L277.417 37.4931L280.014 37.6373L280.429 38.8276L277.543 38.4849L276.389 37.6373L276.551 37.0602L275.776 36.7176L274.748 37.5291L274.513 38.0341L274.441 38.3407L274.892 38.5391L275.09 39.1162L274.892 39.531L268.418 38.7555L267.335 39.4408L266.957 39.2785L265.911 39.4769L265.153 40.3245L264.396 42.5067L263.169 43.3183L262.791 43.0117L263.025 42.8494L262.881 42.5427L261.51 42.2722L255.865 42.0739L255.324 42.3804L253.034 42.4526L252.493 41.5689L251.88 41.6771L251.844 41.2623L252.222 40.7934L251.609 40.2524L250.924 41.0639L251.23 41.7492L251.916 42.3624L250.239 42.5247L243.836 40.9557L242.953 40.4507L240.265 40.2884L239.544 40.7393L238.354 40.7754L237.542 40.1261L237.957 38.4308H237.452L236.983 37.2045L237.362 36.3569L238.444 36.6274L240.662 34.7879L241.744 33.1828L241.672 32.5696L243.584 31.8843L246.451 31.8482L247.678 31.5777L250.635 31.9564L260.717 31.8482L262.863 32.1548L269.103 31.7039L271.177 31.8121L275.812 31.1268L278.481 31.7219ZM318.626 30.0447L322.612 30.3333L324.343 30.9284L327.03 32.4433L327.463 33.2369L326.67 34.3189L325.894 33.85L325.082 33.9041L324.307 33.1287L322.467 33.4172L321.872 32.7319L321.133 32.8401L320.953 33.0926L320.051 32.9844L320.177 33.3992L321.457 33.9943L322.143 34.9862L320.051 35.2207L319.564 34.5354L319.239 34.5534L318.824 34.7879L318.879 35.4732L318.41 35.6174L317.201 34.4632L318.049 33.4894L317.49 33.6697L315.975 33.5254L315.722 32.9663L316.047 31.8482L316.949 31.6859L317.382 31.0907L317.4 30.7661L316.624 30.3513L316.787 30.171L317.382 29.8824L318.626 30.0447ZM207.911 28.2232L208.813 28.3134L210.31 29.0528L211.446 29.0889L213.123 28.6741L214.386 27.9527L215.179 28.0429L217.253 31.4695L217.957 31.9925L219.598 32.2089L221.203 32.1187L223.06 31.3432L223.908 31.5596L226.252 31.1088L228.507 31.4154L228.958 31.1629L229.913 31.4334L230.978 32.245L232.168 32.4794L232.835 31.6498L232.42 31.1268L232.925 30.8022L232.835 30.189L233.557 30.8022L233.773 30.676L233.809 31.235L234.314 31.9384L234.837 31.9203L235.216 32.4253L234.981 32.9122L234.584 32.7499L234.548 33.2369L235.126 35.0584L236.226 35.8699L236.388 36.8618L235.703 37.6554L235.432 39.0801L236.839 40.3606L236.911 41.0459L236.388 41.3705V41.8935L236.875 42.2181L238.011 42.2903L238.318 41.5869L239.778 41.4246L240.428 41.9115L241.131 43.192L242.393 44.202L242.357 45.1037L241.961 45.5726L242.321 45.7529L242.033 47.863L242.141 50.1534L241.474 50.2616L242.087 51.3437L242.935 51.6142L243.187 52.011L242.935 53.5619L243.295 53.6521L243.746 54.5358L245.171 55.0408L245.604 54.7162L246.271 55.4556L247.137 55.8704L247.858 55.5638L248.67 55.7622L250.004 57.2771L252.583 58.5936L253.864 58.3411L255.072 58.5395L256.136 59.8019L256.839 59.4052L257.308 59.5314L258.228 59.1707L258.913 58.4674L259.977 58.3592L262.953 57.1689L264.45 57.5837L265.352 57.4755L268.147 58.269L269.5 57.5115L270.69 58.3592L271.105 58.3231L272.006 58.0526L272.782 57.1148L273.828 56.6278L276.1 57.1869L278.03 55.2211L279.581 54.4457L280.591 55.149L281.655 57.3673L281.944 57.4935L284.829 57.7099L286.001 57.1509L287.534 58.5936L290.33 59.0625L292.115 60.1446L292.927 61.2808V62.94L291.52 64.1844L291.881 66.5289L291.863 68.5487L291.105 69.9735L290.943 71.3621L290.384 72.5524L290.564 73.887L289.897 75.3117L289.139 79.3154L289.049 80.3615L289.807 81.8764L289.41 83.0667L289.825 83.4454L290.131 83.2831L290.456 81.7321L290.294 80.7402L290.51 80.6139L290.871 81.0107L290.835 81.9124L291.195 82.8503L290.979 83.8782L291.646 85.5915L292.512 86.6375L293.377 85.9522L294.496 87.0343L296.263 87.3228L297.327 88.946L296.876 90.3527L296.263 90.8396L295.001 91.1282L292.061 90.1362L290.131 90.1903L289.266 89.9739L289.157 89.5591L289.969 89.1624L290.185 88.5672L289.897 87.5392L288.797 86.4211L286.596 85.4292L285.623 85.5194L285.352 85.844L285.424 86.6916L285.136 86.872L281.637 85.9522L279.725 86.4933L279.256 86.1687V85.339L278.733 85.1226L278.246 85.4112L278.192 85.7899L277.092 85.8801L276.677 85.4292L277.345 85.2489L277.381 84.7799L276.876 84.1848H276.353L275.776 84.798L274.73 84.2029L273.215 83.9504L273.251 83.2109L272.71 83.8241L272.421 83.77L272.457 82.2371L272.097 82.0387L270.906 82.4535L270.618 82.9404L270.203 83.1027L269.806 82.9044L269.554 83.1388L269.391 83.0306L269.698 82.2551L269.464 81.8042L268.796 82.3092L268.436 82.0026L268.129 82.2191L266.704 80.5598L265.929 80.2713L265.207 80.3795L265.316 80.1631L265.009 79.9467L264.522 80.2172L263.584 80.0909L262.178 79.4236L262.141 78.6842L261.474 78.3957L260.392 78.5039L259.31 79.1531L258.138 77.2234L257.615 76.7725L256.172 75.8167L254.495 75.4019L252.926 75.2937L248.092 76.1053L246.253 77.1874L245.64 78.2875L244.702 79.0449L238.119 79.9467L238.264 80.8484L237.56 81.0829L235.378 79.9467L233.448 79.3515L229.823 79.0449L228.994 78.54H228.164L226.667 77.4399L225.297 77.0431L224.233 77.6022L223.132 77.4399L222.104 76.8808L217.542 76.7184L216.712 76.5561L216.207 75.9971L215.36 75.6364L214.223 75.4561L214.043 75.6725L214.241 76.0692H212.835L211.554 75.0052L211.157 74.9691L210.941 75.4199L209.769 75.1134L209.679 74.8248L208.939 75.0052L209.102 76.9169L208.542 77.2415L207.947 77.1693L208.146 76.5742L207.749 75.8708L207.136 75.8889L206.991 76.1774L207.352 76.8087L206.667 76.8266L206.486 77.2054L207.19 77.8005L207.316 78.2334L206.414 78.4678L205.855 78.4318L205.567 77.9268L204.214 77.7825L204.467 77.4218L204.34 76.8266H203.944L203.871 77.0611L203.276 76.8988L203.006 77.2234L202.501 77.0972L202.465 76.4299L201.906 76.3037L201.473 77.1333L199.146 76.5742L198.84 75.1675L198.245 74.8068L197.054 75.474L192.546 74.5182L191.608 75.1494L189.372 75.3478L187.875 74.3018L187.803 73.6886L187.298 73.6526L187.153 74.4641L185.35 74.6625L181.815 73.4903L181.599 72.0114L182.049 70.3703L183.312 68.711L185.584 69.3062L187.099 68.2061L188.091 68.7651L188.885 67.5028L188.758 65.5911L189.263 65.2484L189.191 64.7073L189.516 64.3827L190.67 64.0942L190.796 64.5991L191.554 64.4909L192.041 65.0861L192.582 64.9238L193.7 63.6974L194.024 62.435L194.584 62.0021L193.538 59.6396L193.718 58.6297L191.987 58.7018L190.49 57.4755L190.67 56.7902L190.544 55.4015L190.868 54.2833L189.714 53.5259L189.372 52.0831L189.426 50.9289L188.939 50.3337L188.398 48.4942L189.227 46.7448L189.119 45.8611L189.39 45.1037L189.065 44.8873L189.408 43.6068L189.57 43.3724L190.165 43.5527L190.886 43.3183L191.049 42.9936L191.427 43.0477L192.257 44.0577L194.349 44.8151L195.684 45.7169L197.74 46.2038L198.19 46.7448L198.912 46.9793L199.074 46.4923L198.533 46.2218L198.822 45.2299H197.992L198.641 43.6248L199.02 43.2461L199.291 43.4265L199.687 43.1018L199.868 43.2641L201.581 42.3624L202.807 41.1L203.98 38.7916L203.871 37.8898L204.25 37.2947L203.871 35.6715L204.214 34.86L202.447 33.6517L202.988 32.7139L203.709 32.4253L204.142 29.9906L205.35 29.8283L205.621 29.4496L205.549 28.3495L205.837 28.0249L206.162 28.2954L206.523 27.6822L207.226 28.1691L207.911 28.2232ZM237.975 -4.20312L238.678 -4.02276L238.66 -3.48172L239.147 -2.52588L238.823 -1.04705L237.452 -0.343704L236.316 -0.433855L236.009 -0.686339L235.36 -0.379753H234.512L233.989 -1.31756L234.476 -2.92265L235.053 -3.01283L235.18 -3.6801L235.811 -4.07687L236.334 -4.29327L237.037 -4.13097L237.434 -4.74414L237.975 -4.20312Z" fill="#F85937" fill-opacity="0.24" stroke="#F85937" stroke-width="2.31786" mask="url(#path-3-inside-3_193_222)"/>
<path d="M4.86237 21.2883L4.92725 21.291L4.86237 21.4132V21.2883ZM4.86237 21.8821V21.5344L4.88912 21.6564L5.1343 22.775L4.78612 23.483L4.2075 23.6909L4.22953 23.3972L4.2526 23.0896L4.01029 22.8987L3.64954 22.6145L3.67142 22.1551L3.69723 21.6132L4.1526 21.7183L4.86237 21.8821ZM51.8121 7.81828L51.8697 7.84276L51.9312 7.85438L55.1774 8.46755L55.3848 8.50671L55.5687 8.40338L56.7703 7.72853L58.5278 7.61555L58.4426 10.4279L57.871 11.627L56.9757 11.8648L56.4954 11.9924L56.5483 12.4866L56.6565 13.4965L56.6694 13.6161L56.7287 13.7208L56.9976 14.1944L56.7796 15.1806L55.6645 14.5378L55.4541 14.4165L55.2201 14.4815L54.3358 14.7272L54.5329 14.1687L54.8409 13.2959L53.9213 13.4L53.3422 13.4656L52.7838 12.5012L52.5146 11.2728L52.4339 10.9049L52.065 10.8292L51.8392 10.7829L51.8605 10.0799L51.8713 9.72268L51.557 9.55264L50.7699 9.12686L50.8046 7.8321L51.3196 7.60896L51.8121 7.81828Z" fill="#F85937" fill-opacity="0.24" stroke="#F85937" stroke-width="1.15893"/>
<mask id="path-5-inside-4_193_222" fill="white">
<path d="M206.503 27.682L206.143 28.2951L205.818 28.0246L205.53 28.3492L205.602 29.4494L205.331 29.8281L204.141 29.9904L203.708 32.4251L202.987 32.7136L202.446 33.6514L204.213 34.8598L203.87 35.6533L204.249 37.2944L203.87 37.8715L203.979 38.7913L202.806 41.0817L201.562 42.3622L199.849 43.2639L199.668 43.1016L199.271 43.4262L199.001 43.2459L198.622 43.6066L197.991 45.2117H198.821L198.514 46.2036L199.055 46.4741L198.893 46.961L198.171 46.7266L197.721 46.1855L195.665 45.6986L194.33 44.7968L192.238 44.0394L191.408 43.0295L191.03 42.9754L190.867 43.3L190.146 43.5344L189.569 43.3541L189.407 43.5885L189.064 44.869L189.37 45.0854L189.1 45.8429L189.208 46.7266L188.379 48.4579L188.92 50.3155L189.407 50.8926L189.352 52.0468L189.695 53.4895L190.849 54.247L190.525 55.3652L190.651 56.7719L190.471 57.4391L191.967 58.6835L193.699 58.5934L193.518 59.6214L194.564 61.9659L194.005 62.3987L193.681 63.6611L192.563 64.9055L192.022 65.0498L191.535 64.4727L190.795 64.5809L190.651 64.0579L189.515 64.3645L189.19 64.6891L189.262 65.2121L188.757 65.5728L188.902 67.4664L188.09 68.7289L187.098 68.1698L185.583 69.2699L183.293 68.6748L182.048 70.334L181.598 71.9751L181.814 73.4539L179.668 72.931L179.74 72.0292L179.524 71.939L179.199 72.2636L179.055 72.0653L179.487 70.9651L179.091 70.9471L178.514 71.6325L178.099 71.3078L178.189 69.9552L177.161 67.0517L177.576 66.0597L177.54 64.0759L178.063 62.561L178.153 60.9559L177.63 60.6493L177.197 61.1363L176.53 60.3067L175.953 60.0722L175.646 60.469L174.907 60.5592L174.564 59.964L174.131 60.3788L173.879 60.1263L171.895 60.5411L171.516 59.9279L171.101 59.7656L170.452 60.1804L169.677 59.4591L169.099 59.3508L167.639 52.3354L163.328 55.7259L162.3 57.1145L161.831 56.8621L161.886 55.798L161.525 55.4914L161.002 55.7078L158.73 55.4734L157.629 55.7619L157.305 56.5374L157.882 57.0424L157.665 58.6294L157.052 59.5492L156.583 59.7296L156.223 60.487L155.501 60.9199L154.942 63.2283L153.896 63.1742L150.848 62.056L144.32 60.2706L138.296 59.3148L137.467 58.9902L135.321 59.4591L134.491 58.8458L134.798 57.9441L131.425 57.1867L125.87 56.7719L124.482 56.9883L123.418 57.6195L123.129 58.1606L122.967 58.8458L123.309 59.2787L123.814 59.1164L124.031 59.405L123.688 59.8378L116.997 58.395L116.096 58.5573L115.789 58.0163L116.114 57.5293L115.663 57.385L116.204 56.826L117.033 56.6998L117.358 56.2669H118.079V55.9964L117.683 55.8341L116.186 56.3751L115.302 55.9242L114.058 54.6077L114.581 53.8142L114.725 52.8764L114.112 51.1811L113.571 50.5138L113.39 49.7203L113.625 48.8907L112.633 47.8267L112.435 46.961L111.515 46.0953L109.405 46.2577L109.026 45.8248L108.701 45.8609L108.539 44.3821L109.387 42.9213V42.0015L108.882 41.5146L108.918 40.4866L110.685 39.6209L111.298 39.6029L111.912 40.162L112.958 40.0537L113.823 39.0077L115.014 38.9176L115.518 38.4487L115.428 37.7814L115.735 37.1141L115.555 36.555L116.041 36.1402L116.114 35.491L114.941 34.8237L115.032 33.6514L114.743 32.7497L115.518 31.7037L115.969 31.5053L116.979 29.9724L117.106 27.3213L117.286 27.7541L117.106 28.223L117.629 28.3132L118.079 29.1247L121.019 29.9724L121.452 29.251L122.083 29.2149L123.327 28.3673L123.869 28.4935L124.482 27.7902L124.734 29.3952L125.924 30.5134H127.493L128.323 31.0184L130.523 31.343L131.894 31.325L133.012 30.9643L133.77 31.1085L135.555 30.6396L137.413 29.6117L138.657 28.4394L140.388 30.279L143.057 30.5855L149.82 32.7677L151.407 32.6054L152.562 32.912L153.932 32.8038L158.134 31.4151L158.838 30.9282L159 30.4773L160.371 30.9102L161.272 32.389L162.841 32.9661L163.437 33.4531L165.258 34.0121L167.296 33.5613L167.512 33.976L168.613 33.5613L168.595 32.7858L169.442 31.5594L169.857 30.2249L170.921 29.3592L171.606 27.9705L170.614 27.8984L170.344 27.4836L171.065 27.6098L170.614 26.7802L171.264 26.6359L171.733 26.9245L172.472 26.3835L173.608 24.8686L173.482 23.3897L173.915 23.2454L174.077 21.8387L173.879 21.5321L174.871 20.414L174.348 19.8369L174.853 19.6385L176.115 18.1056L178.045 17.4383H178.928L179.56 16.9333L181.796 16.6989L183.347 17.0776L184.195 16.789L186.16 17.4202L188.018 22.9929L189.19 24.5439L191.048 24.9587L192.31 25.626L196.476 26.0408L199.001 24.9407L199.326 24.057L200.209 23.5701L200.732 23.9488L201.418 23.7865L202.68 24.3095L206.503 27.682Z"/>
</mask>
<path d="M206.503 27.682L206.143 28.2951L205.818 28.0246L205.53 28.3492L205.602 29.4494L205.331 29.8281L204.141 29.9904L203.708 32.4251L202.987 32.7136L202.446 33.6514L204.213 34.8598L203.87 35.6533L204.249 37.2944L203.87 37.8715L203.979 38.7913L202.806 41.0817L201.562 42.3622L199.849 43.2639L199.668 43.1016L199.271 43.4262L199.001 43.2459L198.622 43.6066L197.991 45.2117H198.821L198.514 46.2036L199.055 46.4741L198.893 46.961L198.171 46.7266L197.721 46.1855L195.665 45.6986L194.33 44.7968L192.238 44.0394L191.408 43.0295L191.03 42.9754L190.867 43.3L190.146 43.5344L189.569 43.3541L189.407 43.5885L189.064 44.869L189.37 45.0854L189.1 45.8429L189.208 46.7266L188.379 48.4579L188.92 50.3155L189.407 50.8926L189.352 52.0468L189.695 53.4895L190.849 54.247L190.525 55.3652L190.651 56.7719L190.471 57.4391L191.967 58.6835L193.699 58.5934L193.518 59.6214L194.564 61.9659L194.005 62.3987L193.681 63.6611L192.563 64.9055L192.022 65.0498L191.535 64.4727L190.795 64.5809L190.651 64.0579L189.515 64.3645L189.19 64.6891L189.262 65.2121L188.757 65.5728L188.902 67.4664L188.09 68.7289L187.098 68.1698L185.583 69.2699L183.293 68.6748L182.048 70.334L181.598 71.9751L181.814 73.4539L179.668 72.931L179.74 72.0292L179.524 71.939L179.199 72.2636L179.055 72.0653L179.487 70.9651L179.091 70.9471L178.514 71.6325L178.099 71.3078L178.189 69.9552L177.161 67.0517L177.576 66.0597L177.54 64.0759L178.063 62.561L178.153 60.9559L177.63 60.6493L177.197 61.1363L176.53 60.3067L175.953 60.0722L175.646 60.469L174.907 60.5592L174.564 59.964L174.131 60.3788L173.879 60.1263L171.895 60.5411L171.516 59.9279L171.101 59.7656L170.452 60.1804L169.677 59.4591L169.099 59.3508L167.639 52.3354L163.328 55.7259L162.3 57.1145L161.831 56.8621L161.886 55.798L161.525 55.4914L161.002 55.7078L158.73 55.4734L157.629 55.7619L157.305 56.5374L157.882 57.0424L157.665 58.6294L157.052 59.5492L156.583 59.7296L156.223 60.487L155.501 60.9199L154.942 63.2283L153.896 63.1742L150.848 62.056L144.32 60.2706L138.296 59.3148L137.467 58.9902L135.321 59.4591L134.491 58.8458L134.798 57.9441L131.425 57.1867L125.87 56.7719L124.482 56.9883L123.418 57.6195L123.129 58.1606L122.967 58.8458L123.309 59.2787L123.814 59.1164L124.031 59.405L123.688 59.8378L116.997 58.395L116.096 58.5573L115.789 58.0163L116.114 57.5293L115.663 57.385L116.204 56.826L117.033 56.6998L117.358 56.2669H118.079V55.9964L117.683 55.8341L116.186 56.3751L115.302 55.9242L114.058 54.6077L114.581 53.8142L114.725 52.8764L114.112 51.1811L113.571 50.5138L113.39 49.7203L113.625 48.8907L112.633 47.8267L112.435 46.961L111.515 46.0953L109.405 46.2577L109.026 45.8248L108.701 45.8609L108.539 44.3821L109.387 42.9213V42.0015L108.882 41.5146L108.918 40.4866L110.685 39.6209L111.298 39.6029L111.912 40.162L112.958 40.0537L113.823 39.0077L115.014 38.9176L115.518 38.4487L115.428 37.7814L115.735 37.1141L115.555 36.555L116.041 36.1402L116.114 35.491L114.941 34.8237L115.032 33.6514L114.743 32.7497L115.518 31.7037L115.969 31.5053L116.979 29.9724L117.106 27.3213L117.286 27.7541L117.106 28.223L117.629 28.3132L118.079 29.1247L121.019 29.9724L121.452 29.251L122.083 29.2149L123.327 28.3673L123.869 28.4935L124.482 27.7902L124.734 29.3952L125.924 30.5134H127.493L128.323 31.0184L130.523 31.343L131.894 31.325L133.012 30.9643L133.77 31.1085L135.555 30.6396L137.413 29.6117L138.657 28.4394L140.388 30.279L143.057 30.5855L149.82 32.7677L151.407 32.6054L152.562 32.912L153.932 32.8038L158.134 31.4151L158.838 30.9282L159 30.4773L160.371 30.9102L161.272 32.389L162.841 32.9661L163.437 33.4531L165.258 34.0121L167.296 33.5613L167.512 33.976L168.613 33.5613L168.595 32.7858L169.442 31.5594L169.857 30.2249L170.921 29.3592L171.606 27.9705L170.614 27.8984L170.344 27.4836L171.065 27.6098L170.614 26.7802L171.264 26.6359L171.733 26.9245L172.472 26.3835L173.608 24.8686L173.482 23.3897L173.915 23.2454L174.077 21.8387L173.879 21.5321L174.871 20.414L174.348 19.8369L174.853 19.6385L176.115 18.1056L178.045 17.4383H178.928L179.56 16.9333L181.796 16.6989L183.347 17.0776L184.195 16.789L186.16 17.4202L188.018 22.9929L189.19 24.5439L191.048 24.9587L192.31 25.626L196.476 26.0408L199.001 24.9407L199.326 24.057L200.209 23.5701L200.732 23.9488L201.418 23.7865L202.68 24.3095L206.503 27.682Z" fill="#F85937" fill-opacity="0.24" stroke="#F85937" stroke-width="2.31786" mask="url(#path-5-inside-4_193_222)"/>
<path d="M155.555 63.1721L156.011 61.292L156.524 60.9839L156.674 60.894L156.749 60.7362L157.01 60.1875L157.264 60.0901L157.435 60.024L157.538 59.8707L158.151 58.9509L158.225 58.8399L158.243 58.7078L158.459 57.1207L158.501 56.8117L158.267 56.6063L158.004 56.3762L158.057 56.2498L158.778 56.0606L160.946 56.2843L161.091 56.2993L161.227 56.2433L161.287 56.2182L161.256 56.8327L161.237 57.1986L161.56 57.3723L162.029 57.6248L162.471 57.8627L162.769 57.4593L163.751 56.1332L167.265 53.3689L168.535 59.469L168.614 59.8488L168.996 59.9204L169.408 59.9977L170.061 60.6048L170.389 60.9104L170.767 60.6688L171.146 60.4266L171.405 60.8456L171.619 61.1915L172.017 61.1083L173.694 60.7577L173.725 60.7886L174.126 61.1897L174.434 60.8942L174.599 61.1808L174.98 61.1344L175.719 61.0442L175.96 61.0149L176.108 60.8234L176.145 60.7747L176.176 60.787L176.749 61.4995L177.178 62.0334L177.538 61.6287L177.492 62.4481L176.995 63.8869L176.962 63.9839L176.964 64.0865L176.997 65.9485L176.63 66.8281L176.543 67.0344L176.618 67.2451L177.606 70.036L177.524 71.2693L177.503 71.5752L177.745 71.7641L178.16 72.0888L178.424 72.296L176.106 72.1937L165.73 68.4157L165.16 67.9568L164.765 67.1988L164.654 66.9858L164.425 66.9137L160.92 65.8105L156.492 63.5249L156.461 63.5089L156.428 63.4968L155.555 63.1721Z" fill="#F85937" fill-opacity="0.24" stroke="#F85937" stroke-width="1.15893"/>
</g>
<defs>
<clipPath id="clip0_193_222">
<rect width="337.248" height="90.1734" fill="white" transform="translate(0.538086 0.482178)"/>
</clipPath>
</defs>
</svg>
