<svg width="373" height="349" viewBox="0 0 373 349" fill="none" xmlns="http://www.w3.org/2000/svg">
<g clip-path="url(#clip0_193_132)">
<mask id="path-1-inside-1_193_132" fill="white">
<path d="M303.743 267.104L299.149 266.848L294.008 265.951L293.349 265.622L292.964 264.579L293.111 264.194L298.106 259.821L301.236 258.942L301.656 259.034L302.151 260.644L304.493 265.603L304.529 266.225L303.743 267.104ZM294.794 262.108L290.037 266.006L287.713 267.049L285.187 267.561L284.327 267.47L283.614 266.884L282.424 266.555L271.518 265.823L266.303 267.085L265.37 267.726L264.455 267.836L264.016 267.067L264.125 266.116L267.09 258.375L272.708 247.524L276.294 242.108L277.264 241.064L282.717 237.222L287.182 235.465L295.929 233.836L299.808 234.038L301.254 234.44L301.931 235.044L303.907 238.356L304.987 239.491L307.402 239.948L308.537 241.742L306.78 246.682L304.621 250.141L303.633 255.136L302.59 256.472L300.485 258.412L296.844 259.217L294.794 262.108ZM295.599 213.598L296.716 214.513L299.095 214.952L300.595 217.166L298.783 218.301L297.411 217.788L295.288 214.989L295.051 214.055L295.599 213.598ZM221.69 54.727L226.924 55.77L237.83 56.5752L240.739 57.8012L240.904 58.094L240.117 58.9357L234.225 59.9422L229.577 61.461L219.311 60.546L211.955 58.7893L210.327 57.5999L208.442 56.7765L203.776 55.3674L201.909 55.0015L199.841 55.1479L196.017 54.5257L194.041 52.1834L195.742 51.6711L197.883 52.3664L218.159 53.812L221.69 54.727ZM303.065 63.2725L305.261 63.2909L308.848 64.4986L320.285 69.7321L332.106 75.8805L335.381 76.3563L340.047 75.789L342.39 74.6728L344.201 74.7825L344.512 75.7707L345.775 77.3261L349.27 78.9364L350.954 78.6253L351.137 78.1312L354.174 78.1861L359.06 78.8998L361.933 79.9245L362.555 80.4003L362.775 81.1506L362.317 82.3034L361.457 83.2L361.256 83.8405L362.098 84.5359L365.154 83.6758L369.692 83.4928L370.808 83.5843L370.918 83.8039V201.118L369.673 201.246L368.447 204.851L369.179 205.784L369.051 206.406L367.368 209.609L366.398 210.579L366.27 212.061L366.654 215.483L367.661 217.679L369.143 219.197L370.149 219.289L370.936 218.868L370.973 289.849L368.978 288.605L366.837 288.019L365.739 287.251L363.067 283.866L358.365 279.492L355.034 274.057L346.342 266.628L340.724 262.511L338.62 260.114L338.291 259.583L338.51 258.339L341.036 256.234L343.323 252.044L343.762 250.342L340.779 251.641L340.267 253.782L340.359 255.704L337.998 257.058L336.424 257.625L329.983 257.607L327.074 257.954L324.182 259.62L320.669 260.461L319.022 260.553L317.741 260.406L316.149 259.4L314.319 256.838L310.074 258.448L306.579 261.01L305.481 263.371L304.566 263.481L302.608 259.729L302.242 258.137L304.383 255.191L304.603 251.239L304.969 250.836L307.164 249.793L307.604 248.293L307.53 246.389L309.159 242.309L310.367 241.028L310.403 240.095L309.598 239.289L307.622 238.558L305.335 236.966L304.182 234.312L303.065 232.94L299.936 230.872L296.99 229.371L296.716 228.64L297.1 228.383L305.335 228.694L307.238 229.847L308.994 230.25L312.965 229.847L314.447 227.432L312.965 228.091L312.508 228.713L308.738 229.06L302.571 227.176L299.442 225.748L294.154 221.082L293.587 220.35L293.55 219.344L294.666 218.447L296.13 218.41L297.869 219.014L299.204 219.051L301.217 217.752L304.511 217.349L306.853 218.154L308.903 220.204L310.769 221.375L311.702 221.631L313.276 221.283L311.446 220.863L310.165 220.185L307.896 218.136L306.927 217.587L305.371 216.983L303.633 216.764L297.283 213.433L296.807 211.439L298.015 211.091L297.118 209.883L290.933 203.954L289.543 202.106L288.609 200.02L288.024 198.007L288.115 196.452L287.237 193.817L285.041 189.754L285.078 186.058L282.369 185.308L280.979 184.1L281.729 183.002L286.798 180.532L286.468 180.257L285.608 180.239L282.662 180.696L280.851 181.74L278.38 182.435L277.923 182.16L277.337 178.867L277.996 172.901L277.74 171.986L276.825 173.597L274.043 172.553L268.645 169.004L267.749 167.924L264.986 166.131L263.265 165.673L262.204 165.014L262.058 164.648L262.79 163.99L260.411 163.971L256.952 162.416L253.64 160.019L252.506 158.665L250.676 159.47L244.125 157.622L238.397 156.871L237.647 156.103L232.34 153.651L223.74 149.076L220.519 149.113L213.456 146.258L212.596 145.489L211.461 143.806L210.071 143.239L206.045 143.037L203.611 143.33L194.15 141.281L191.113 141.537L188.039 142.232L186.282 141.61L179.511 137.749L176.529 136.486L179.53 132.15L181.469 130.667L182.659 128.142L184.599 125.159L188.789 119.962L187.142 119.212H186.245L184.013 118.169L178.779 116.541L173.253 114.308L161.45 110.886L157.864 109.111L155.32 108.361L157.406 103.75L159.2 101.517L162.182 99.7422L162.622 98.26V96.1739L165.458 94.6917L169.996 90.5379L171.112 95.0943L171.972 95.7531L173.272 95.4786L174.498 94.6002L174.662 93.6853L175.229 93.0082L176.053 93.0814L176.272 94.2708L175.943 96.485L175.046 97.3085L174.735 99.9252L176.767 103.859L180.518 106.623L184.415 107.629L191.241 108.416L195.303 107.647L197.042 106.787L198.268 105.616L198.744 104.518L198.689 103.786L199.86 102.359L200.756 101.737L203.263 101.005L204.947 99.669L204.892 99.1933L204.123 98.6077L204.855 97.6744L209.393 95.7165L210.327 94.2708L210.912 89.2753L213.163 86.6036L213.895 86.5121L218.122 84.5359L220.409 82.6877L221.196 81.3152L223.191 76.1001L223.282 74.8923L222.935 73.4467L223.648 72.5501L225.314 71.3972L227.637 71.2143L229.229 71.3057L229.339 71.8364L229.669 72.056L231.425 72.4952L233.511 72.6782L236.238 72.4403L238.91 70.9215L243.759 68.7805L246.156 68.0303L247.62 68.2315L249.999 67.829L251.426 66.8774L251.499 66.3468L250.328 63.053L249.175 62.5223L247.51 60.6192L247.858 58.3684L250.09 57.1973L252.378 56.6301L254.939 55.5138L259.514 53.0984L260.319 52.1285L263.156 50.7561L270.786 48.0662L271.738 48.0296L273.494 48.542L274.977 50.2255L277.593 52.2383L288.756 56.1909L296.423 58.0208L299.223 59.7775L300.613 61.6439L302.37 63.1445L303.065 63.2725ZM178.285 37.4162L176.51 37.3979L174.443 34.3603L174.79 32.5304L175.705 31.3044L177.187 31.2129L178.523 31.8534L180.499 33.8845L180.353 35.7876L179.456 37.0503L178.285 37.4162ZM195.907 22.7588L199.183 22.832L201.964 23.2712L204.929 25.2292L206.703 23.8568L207.692 23.7286L208.899 24.424L214.444 29.0902L218.525 35.0008L220.812 34.5982L223.959 36.0072L224.618 36.666L223.136 37.9835L220.775 39.301L217.39 40.033L215.487 39.9964L213.895 38.8069L213.017 38.5325L211.187 38.624L209.814 39.118L208.735 38.8984L207.124 37.3064L205.697 31.524L205.752 29.8405L204.709 27.5897L203.794 27.4982L200.482 29.0719L197.206 26.2905L195.999 26.016L196.145 27.0042L195.376 26.7114L193.547 24.973L192.412 22.5392L192.888 21.6426L195.907 22.7588Z"/>
</mask>
<path d="M303.743 267.104L299.149 266.848L294.008 265.951L293.349 265.622L292.964 264.579L293.111 264.194L298.106 259.821L301.236 258.942L301.656 259.034L302.151 260.644L304.493 265.603L304.529 266.225L303.743 267.104ZM294.794 262.108L290.037 266.006L287.713 267.049L285.187 267.561L284.327 267.47L283.614 266.884L282.424 266.555L271.518 265.823L266.303 267.085L265.37 267.726L264.455 267.836L264.016 267.067L264.125 266.116L267.09 258.375L272.708 247.524L276.294 242.108L277.264 241.064L282.717 237.222L287.182 235.465L295.929 233.836L299.808 234.038L301.254 234.44L301.931 235.044L303.907 238.356L304.987 239.491L307.402 239.948L308.537 241.742L306.78 246.682L304.621 250.141L303.633 255.136L302.59 256.472L300.485 258.412L296.844 259.217L294.794 262.108ZM295.599 213.598L296.716 214.513L299.095 214.952L300.595 217.166L298.783 218.301L297.411 217.788L295.288 214.989L295.051 214.055L295.599 213.598ZM221.69 54.727L226.924 55.77L237.83 56.5752L240.739 57.8012L240.904 58.094L240.117 58.9357L234.225 59.9422L229.577 61.461L219.311 60.546L211.955 58.7893L210.327 57.5999L208.442 56.7765L203.776 55.3674L201.909 55.0015L199.841 55.1479L196.017 54.5257L194.041 52.1834L195.742 51.6711L197.883 52.3664L218.159 53.812L221.69 54.727ZM303.065 63.2725L305.261 63.2909L308.848 64.4986L320.285 69.7321L332.106 75.8805L335.381 76.3563L340.047 75.789L342.39 74.6728L344.201 74.7825L344.512 75.7707L345.775 77.3261L349.27 78.9364L350.954 78.6253L351.137 78.1312L354.174 78.1861L359.06 78.8998L361.933 79.9245L362.555 80.4003L362.775 81.1506L362.317 82.3034L361.457 83.2L361.256 83.8405L362.098 84.5359L365.154 83.6758L369.692 83.4928L370.808 83.5843L370.918 83.8039V201.118L369.673 201.246L368.447 204.851L369.179 205.784L369.051 206.406L367.368 209.609L366.398 210.579L366.27 212.061L366.654 215.483L367.661 217.679L369.143 219.197L370.149 219.289L370.936 218.868L370.973 289.849L368.978 288.605L366.837 288.019L365.739 287.251L363.067 283.866L358.365 279.492L355.034 274.057L346.342 266.628L340.724 262.511L338.62 260.114L338.291 259.583L338.51 258.339L341.036 256.234L343.323 252.044L343.762 250.342L340.779 251.641L340.267 253.782L340.359 255.704L337.998 257.058L336.424 257.625L329.983 257.607L327.074 257.954L324.182 259.62L320.669 260.461L319.022 260.553L317.741 260.406L316.149 259.4L314.319 256.838L310.074 258.448L306.579 261.01L305.481 263.371L304.566 263.481L302.608 259.729L302.242 258.137L304.383 255.191L304.603 251.239L304.969 250.836L307.164 249.793L307.604 248.293L307.53 246.389L309.159 242.309L310.367 241.028L310.403 240.095L309.598 239.289L307.622 238.558L305.335 236.966L304.182 234.312L303.065 232.94L299.936 230.872L296.99 229.371L296.716 228.64L297.1 228.383L305.335 228.694L307.238 229.847L308.994 230.25L312.965 229.847L314.447 227.432L312.965 228.091L312.508 228.713L308.738 229.06L302.571 227.176L299.442 225.748L294.154 221.082L293.587 220.35L293.55 219.344L294.666 218.447L296.13 218.41L297.869 219.014L299.204 219.051L301.217 217.752L304.511 217.349L306.853 218.154L308.903 220.204L310.769 221.375L311.702 221.631L313.276 221.283L311.446 220.863L310.165 220.185L307.896 218.136L306.927 217.587L305.371 216.983L303.633 216.764L297.283 213.433L296.807 211.439L298.015 211.091L297.118 209.883L290.933 203.954L289.543 202.106L288.609 200.02L288.024 198.007L288.115 196.452L287.237 193.817L285.041 189.754L285.078 186.058L282.369 185.308L280.979 184.1L281.729 183.002L286.798 180.532L286.468 180.257L285.608 180.239L282.662 180.696L280.851 181.74L278.38 182.435L277.923 182.16L277.337 178.867L277.996 172.901L277.74 171.986L276.825 173.597L274.043 172.553L268.645 169.004L267.749 167.924L264.986 166.131L263.265 165.673L262.204 165.014L262.058 164.648L262.79 163.99L260.411 163.971L256.952 162.416L253.64 160.019L252.506 158.665L250.676 159.47L244.125 157.622L238.397 156.871L237.647 156.103L232.34 153.651L223.74 149.076L220.519 149.113L213.456 146.258L212.596 145.489L211.461 143.806L210.071 143.239L206.045 143.037L203.611 143.33L194.15 141.281L191.113 141.537L188.039 142.232L186.282 141.61L179.511 137.749L176.529 136.486L179.53 132.15L181.469 130.667L182.659 128.142L184.599 125.159L188.789 119.962L187.142 119.212H186.245L184.013 118.169L178.779 116.541L173.253 114.308L161.45 110.886L157.864 109.111L155.32 108.361L157.406 103.75L159.2 101.517L162.182 99.7422L162.622 98.26V96.1739L165.458 94.6917L169.996 90.5379L171.112 95.0943L171.972 95.7531L173.272 95.4786L174.498 94.6002L174.662 93.6853L175.229 93.0082L176.053 93.0814L176.272 94.2708L175.943 96.485L175.046 97.3085L174.735 99.9252L176.767 103.859L180.518 106.623L184.415 107.629L191.241 108.416L195.303 107.647L197.042 106.787L198.268 105.616L198.744 104.518L198.689 103.786L199.86 102.359L200.756 101.737L203.263 101.005L204.947 99.669L204.892 99.1933L204.123 98.6077L204.855 97.6744L209.393 95.7165L210.327 94.2708L210.912 89.2753L213.163 86.6036L213.895 86.5121L218.122 84.5359L220.409 82.6877L221.196 81.3152L223.191 76.1001L223.282 74.8923L222.935 73.4467L223.648 72.5501L225.314 71.3972L227.637 71.2143L229.229 71.3057L229.339 71.8364L229.669 72.056L231.425 72.4952L233.511 72.6782L236.238 72.4403L238.91 70.9215L243.759 68.7805L246.156 68.0303L247.62 68.2315L249.999 67.829L251.426 66.8774L251.499 66.3468L250.328 63.053L249.175 62.5223L247.51 60.6192L247.858 58.3684L250.09 57.1973L252.378 56.6301L254.939 55.5138L259.514 53.0984L260.319 52.1285L263.156 50.7561L270.786 48.0662L271.738 48.0296L273.494 48.542L274.977 50.2255L277.593 52.2383L288.756 56.1909L296.423 58.0208L299.223 59.7775L300.613 61.6439L302.37 63.1445L303.065 63.2725ZM178.285 37.4162L176.51 37.3979L174.443 34.3603L174.79 32.5304L175.705 31.3044L177.187 31.2129L178.523 31.8534L180.499 33.8845L180.353 35.7876L179.456 37.0503L178.285 37.4162ZM195.907 22.7588L199.183 22.832L201.964 23.2712L204.929 25.2292L206.703 23.8568L207.692 23.7286L208.899 24.424L214.444 29.0902L218.525 35.0008L220.812 34.5982L223.959 36.0072L224.618 36.666L223.136 37.9835L220.775 39.301L217.39 40.033L215.487 39.9964L213.895 38.8069L213.017 38.5325L211.187 38.624L209.814 39.118L208.735 38.8984L207.124 37.3064L205.697 31.524L205.752 29.8405L204.709 27.5897L203.794 27.4982L200.482 29.0719L197.206 26.2905L195.999 26.016L196.145 27.0042L195.376 26.7114L193.547 24.973L192.412 22.5392L192.888 21.6426L195.907 22.7588Z" fill="#F85937" fill-opacity="0.24" stroke="#F85937" stroke-width="2.31786" mask="url(#path-1-inside-1_193_132)"/>
<mask id="path-2-inside-2_193_132" fill="white">
<path d="M135.54 135.333L136.93 136.98L127.781 132.881L127.488 130.777L128.422 131.124L130.691 132.863L135.54 135.333ZM28.5462 66.5293L26.2955 66.6025L19.6895 64.6445L14.145 61.7716L13.5411 61.003L14.6025 60.0149L21.0619 57.7092L23.6604 56.3917L33.5601 54.4703L33.7065 55.4219L36.1403 59.0268L36.2501 63.7296L34.53 64.8641L28.5462 66.5293ZM20.2934 39.6848L17.1644 40.6913L14.2731 39.7032L14.3829 39.0993L15.0599 38.4771L18.3537 37.5622L21.19 38.5137L20.2934 39.6848ZM50.944 29.6571L52.0237 31.0661L54.0182 30.7916L55.226 30.3158L56.4886 32.2189L56.3971 35.714L55.3358 40.5998L54.0182 43.6008L53.634 44.0766L52.902 44.2962L50.1572 43.7838L46.4243 40.6913L45.7837 38.8614L44.4113 36.9217L45.0518 35.9336L44.5577 34.5977L43.8624 33.4266L42.8376 33.0424L42.7095 32.6398L42.8376 32.1823L43.4964 31.8163L49.6997 29.7852L50.944 29.6571ZM51.5113 26.4914L50.6878 27.9004L47.6869 29.1813L43.6245 30.0413L40.9529 30.3158L37.5859 30.1328L36.5062 30.3158L35.4998 30.8282L35.0606 30.6818L36.6709 28.8336L37.8786 27.8821L45.5093 27.6625L47.943 27.1135L49.0958 25.8326H50.5415L51.5113 26.4914ZM41.6665 18.6411L37.2015 18.1471L36.9088 16.3721L37.6773 15.8048L41.9227 14.5422L43.3866 15.0546L44.4296 15.878L44.4663 16.3538L43.6428 17.7262L41.6665 18.6411ZM135.631 25.3202L141.194 25.4117L141.341 24.387L148.495 24.57L152.594 27.8821L150.014 32.0176L153.107 37.8549L155.577 40.0325L157.974 44.406L156.529 45.998L156.089 50.591L151.881 54.3788L152.96 60.8567L153.674 62.4304L153.29 66.1267L154.131 74.5442L156.126 77.9661L157.096 78.2955L159.2 80.3816L163.72 91.5988L164.726 91.6354L165.715 90.7936L164.068 84.2609L163.976 82.1017L164.434 81.0403L166.154 79.2836L167.124 79.4849L169.374 80.9122L169.85 82.5774L170.033 90.4825L165.495 94.6364L162.659 96.1186V98.2047L162.22 99.6869L159.237 101.462L157.444 103.694L155.357 108.306L157.901 109.056L161.488 110.831L173.29 114.253L178.817 116.485L184.05 118.114L186.283 119.157H187.179L188.826 119.907L184.636 125.104L182.696 128.087L181.507 130.612L179.567 132.094L176.566 136.431L174.443 135.534L169.539 131.417L169.393 131.015L170.729 125.854L171.515 125.452L176.09 126.019L177.993 126.842L178.579 126.788L179.768 125.909L179.713 125.598L177.591 125.232L170.381 124.775L168.624 126.129L168.002 127.776L165.605 128.288L163.885 125.818L162.787 124.738L160.664 124.226L159.841 127.208L158.67 127.812L155.797 126.202L154.863 125.397L154.223 124.079L154.333 123.109L155.083 122.56L155.174 122.048L154.644 120.914L153.564 119.834L153.107 119.633L149.923 121.298L146.72 119.578L143.793 114.491L142.768 115.003L142.64 115.296L142.896 117.089L142.091 117.272L139.84 115.845L137.827 111.874L137.571 110.849L137.717 110.447L139.383 109.385L139.584 108.946L139.675 107.006L139.218 104.664L140.023 102.011L142.237 100.126L144.689 98.5524L144.744 96.1918L143.683 94.7462L140.59 97.5459L138.303 100.254L137.717 105.085L137.791 108.891L136.601 109.129L134.661 110.447L135.375 111.124L136.125 112.789L135.997 113.85L132.923 116.229L130.105 119.029L129.977 119.578L130.343 121.225L131.441 122.176L131.752 123.347L127.378 127.94L125 129.88L123.81 129.99L119.016 129.441L118.394 129.789L117.204 131.179L114.716 130.557L112.666 127.794L111.66 125.47L112.026 125.177L111.733 124.061L109.61 118.59L110.635 115.9L113.984 114.692L114.953 113.942L115.173 113.448L113.764 110.813L113.27 110.666L112.739 110.941L111.879 110.245L111.202 107.683L111.843 106.128L111.751 105.597L111.038 104.682L110.086 104.445L108.988 104.884L108.951 106.531L108.677 106.805L108.256 106.915L106.811 106.238L104.688 103.383L104.542 101.828L103.407 99.6686L100.516 97.3995L95.7763 94.4534L94.4222 94.0691H91.7871L88.3103 94.9658L84.3944 89.2931L84.7238 88.9088L90.1402 86.347L92.3361 85.8895L95.8312 85.9993L101.943 86.5666L103.883 87.0972L106.079 88.4697L106.829 89.4395L108.622 90.2629L112.41 87.5364L117.991 80.1803L120.754 78.5883L122.401 78.0759L125.183 77.6916L127.195 78.6615L129.611 80.9854L133.417 82.3761L134.716 82.3029L136.528 81.5161L137.919 81.6808L138.852 83.0166L138.669 84.6818L138.87 87.1705L139.328 86.5483L139.913 81.937L139.73 80.8207L140.169 80.7292L140.828 81.0403L142.804 85.0844L143.207 85.3223L143.335 81.6259L142.804 80.162L142.091 79.7228L143.957 77.9478L146.299 76.8316L147.599 74.9285L147.69 71.9641L147.324 71.1955L146.592 73.1169L143.902 74.0136L143.335 73.9587L142.31 72.6411L142.53 72.2569L146.245 70.8113L147.306 69.9329L146.94 67.8285L145.092 68.1396L137.809 72.019L134.552 72.2935L131.24 72.0739L130.032 71.4334L126.775 70.8661L123.719 71.2687L116.198 73.611L114.203 73.4829L111.568 72.3484L110.47 72.6594L107.524 74.2514L105.914 73.4646L105.566 73.062L105.182 71.6164L104.432 70.6466L103.883 70.5185L100.131 71.47L98.1369 72.7143L96.3802 73.1169L95.1542 72.9705L90.6343 69.2924L89.0973 68.7069L87.0112 67.2064L84.8153 63.4917L83.5343 60.6005L83.4062 58.551L84.797 57.0322L84.3395 55.3304L81.9973 53.2626L76.9468 51.3595L76.3429 50.6642L76.3795 50.1701L72.7563 48.4866L62.7285 45.1379L63.0396 45.8699L64.5401 46.858L64.6133 47.5534L63.186 48.7428L60.6607 49.6577L59.7093 48.1023L57.6048 47.2789L55.6468 47.3887L52.9386 45.7418L54.4574 43.6008L55.2077 41.716L55.9762 40.7279L59.7458 39.9593L61.96 36.1166L63.1311 30.4988L62.1612 27.4978L70.3226 24.7164L70.9996 24.8079L71.1094 25.1921L72.3537 25.5947L78.5936 24.4419L81.7044 23.4354L83.1318 21.203L89.0789 16.2806L91.3297 14.8716L94.2574 13.6821L99.4544 12.4378L108.293 13.1515L111.66 14.8716L121.011 18.4948L122.859 18.6594L129.227 24.2223L130.983 24.753L135.631 25.3202ZM50.2487 2.22704L55.4639 3.70926L58.5381 4.00202L63.6068 6.89325L64.0278 7.99119L64.3022 10.2237L63.497 11.962L62.1979 13.8102L59.4714 12.2914L57.4584 12.1084L55.2077 12.9685L53.3961 13.06L52.4262 12.4744L50.1572 9.52829L47.4855 8.46695L44.9237 4.6791L44.2467 4.14841L41.8861 4.42291L42.2887 5.94172L45.491 9.327L48.5835 10.7543L50.4317 11.0471L51.5113 11.7059L52.3164 13.06L51.4564 14.4507L49.3154 15.4571L46.4974 15.8414L45.4544 15.4754L44.9054 14.7435L43.9905 11.1569L41.0992 11.7974L39.6353 13.1332L38.6655 9.61979L36.0122 10.2785L33.8346 10.0224L30.1565 8.77803L29.388 8.26566L30.0284 7.86308L30.7969 8.24737L34.6581 8.57674L36.0305 7.82651L35.1521 6.32598L33.1941 6.38088L33.3955 7.51543L31.84 7.16774L31.1996 5.99662L31.4375 4.97186L33.8529 4.38631H36.5245L43.2036 3.30667L44.576 2.77601L45.2348 3.25177L46.7719 3.12368L46.2412 2.62962L47.2659 2.00745L48.5652 1.87936L50.2487 2.22704ZM8.38081 8.33887L7.79523 8.61334L6.22155 6.71027L0.0548386 0.616742L0 0.250756L0.457472 0.195862L1.51873 0.891214L7.9966 6.10641L8.71017 7.35072L8.78344 7.91798L8.38081 8.33887Z"/>
</mask>
<path d="M135.54 135.333L136.93 136.98L127.781 132.881L127.488 130.777L128.422 131.124L130.691 132.863L135.54 135.333ZM28.5462 66.5293L26.2955 66.6025L19.6895 64.6445L14.145 61.7716L13.5411 61.003L14.6025 60.0149L21.0619 57.7092L23.6604 56.3917L33.5601 54.4703L33.7065 55.4219L36.1403 59.0268L36.2501 63.7296L34.53 64.8641L28.5462 66.5293ZM20.2934 39.6848L17.1644 40.6913L14.2731 39.7032L14.3829 39.0993L15.0599 38.4771L18.3537 37.5622L21.19 38.5137L20.2934 39.6848ZM50.944 29.6571L52.0237 31.0661L54.0182 30.7916L55.226 30.3158L56.4886 32.2189L56.3971 35.714L55.3358 40.5998L54.0182 43.6008L53.634 44.0766L52.902 44.2962L50.1572 43.7838L46.4243 40.6913L45.7837 38.8614L44.4113 36.9217L45.0518 35.9336L44.5577 34.5977L43.8624 33.4266L42.8376 33.0424L42.7095 32.6398L42.8376 32.1823L43.4964 31.8163L49.6997 29.7852L50.944 29.6571ZM51.5113 26.4914L50.6878 27.9004L47.6869 29.1813L43.6245 30.0413L40.9529 30.3158L37.5859 30.1328L36.5062 30.3158L35.4998 30.8282L35.0606 30.6818L36.6709 28.8336L37.8786 27.8821L45.5093 27.6625L47.943 27.1135L49.0958 25.8326H50.5415L51.5113 26.4914ZM41.6665 18.6411L37.2015 18.1471L36.9088 16.3721L37.6773 15.8048L41.9227 14.5422L43.3866 15.0546L44.4296 15.878L44.4663 16.3538L43.6428 17.7262L41.6665 18.6411ZM135.631 25.3202L141.194 25.4117L141.341 24.387L148.495 24.57L152.594 27.8821L150.014 32.0176L153.107 37.8549L155.577 40.0325L157.974 44.406L156.529 45.998L156.089 50.591L151.881 54.3788L152.96 60.8567L153.674 62.4304L153.29 66.1267L154.131 74.5442L156.126 77.9661L157.096 78.2955L159.2 80.3816L163.72 91.5988L164.726 91.6354L165.715 90.7936L164.068 84.2609L163.976 82.1017L164.434 81.0403L166.154 79.2836L167.124 79.4849L169.374 80.9122L169.85 82.5774L170.033 90.4825L165.495 94.6364L162.659 96.1186V98.2047L162.22 99.6869L159.237 101.462L157.444 103.694L155.357 108.306L157.901 109.056L161.488 110.831L173.29 114.253L178.817 116.485L184.05 118.114L186.283 119.157H187.179L188.826 119.907L184.636 125.104L182.696 128.087L181.507 130.612L179.567 132.094L176.566 136.431L174.443 135.534L169.539 131.417L169.393 131.015L170.729 125.854L171.515 125.452L176.09 126.019L177.993 126.842L178.579 126.788L179.768 125.909L179.713 125.598L177.591 125.232L170.381 124.775L168.624 126.129L168.002 127.776L165.605 128.288L163.885 125.818L162.787 124.738L160.664 124.226L159.841 127.208L158.67 127.812L155.797 126.202L154.863 125.397L154.223 124.079L154.333 123.109L155.083 122.56L155.174 122.048L154.644 120.914L153.564 119.834L153.107 119.633L149.923 121.298L146.72 119.578L143.793 114.491L142.768 115.003L142.64 115.296L142.896 117.089L142.091 117.272L139.84 115.845L137.827 111.874L137.571 110.849L137.717 110.447L139.383 109.385L139.584 108.946L139.675 107.006L139.218 104.664L140.023 102.011L142.237 100.126L144.689 98.5524L144.744 96.1918L143.683 94.7462L140.59 97.5459L138.303 100.254L137.717 105.085L137.791 108.891L136.601 109.129L134.661 110.447L135.375 111.124L136.125 112.789L135.997 113.85L132.923 116.229L130.105 119.029L129.977 119.578L130.343 121.225L131.441 122.176L131.752 123.347L127.378 127.94L125 129.88L123.81 129.99L119.016 129.441L118.394 129.789L117.204 131.179L114.716 130.557L112.666 127.794L111.66 125.47L112.026 125.177L111.733 124.061L109.61 118.59L110.635 115.9L113.984 114.692L114.953 113.942L115.173 113.448L113.764 110.813L113.27 110.666L112.739 110.941L111.879 110.245L111.202 107.683L111.843 106.128L111.751 105.597L111.038 104.682L110.086 104.445L108.988 104.884L108.951 106.531L108.677 106.805L108.256 106.915L106.811 106.238L104.688 103.383L104.542 101.828L103.407 99.6686L100.516 97.3995L95.7763 94.4534L94.4222 94.0691H91.7871L88.3103 94.9658L84.3944 89.2931L84.7238 88.9088L90.1402 86.347L92.3361 85.8895L95.8312 85.9993L101.943 86.5666L103.883 87.0972L106.079 88.4697L106.829 89.4395L108.622 90.2629L112.41 87.5364L117.991 80.1803L120.754 78.5883L122.401 78.0759L125.183 77.6916L127.195 78.6615L129.611 80.9854L133.417 82.3761L134.716 82.3029L136.528 81.5161L137.919 81.6808L138.852 83.0166L138.669 84.6818L138.87 87.1705L139.328 86.5483L139.913 81.937L139.73 80.8207L140.169 80.7292L140.828 81.0403L142.804 85.0844L143.207 85.3223L143.335 81.6259L142.804 80.162L142.091 79.7228L143.957 77.9478L146.299 76.8316L147.599 74.9285L147.69 71.9641L147.324 71.1955L146.592 73.1169L143.902 74.0136L143.335 73.9587L142.31 72.6411L142.53 72.2569L146.245 70.8113L147.306 69.9329L146.94 67.8285L145.092 68.1396L137.809 72.019L134.552 72.2935L131.24 72.0739L130.032 71.4334L126.775 70.8661L123.719 71.2687L116.198 73.611L114.203 73.4829L111.568 72.3484L110.47 72.6594L107.524 74.2514L105.914 73.4646L105.566 73.062L105.182 71.6164L104.432 70.6466L103.883 70.5185L100.131 71.47L98.1369 72.7143L96.3802 73.1169L95.1542 72.9705L90.6343 69.2924L89.0973 68.7069L87.0112 67.2064L84.8153 63.4917L83.5343 60.6005L83.4062 58.551L84.797 57.0322L84.3395 55.3304L81.9973 53.2626L76.9468 51.3595L76.3429 50.6642L76.3795 50.1701L72.7563 48.4866L62.7285 45.1379L63.0396 45.8699L64.5401 46.858L64.6133 47.5534L63.186 48.7428L60.6607 49.6577L59.7093 48.1023L57.6048 47.2789L55.6468 47.3887L52.9386 45.7418L54.4574 43.6008L55.2077 41.716L55.9762 40.7279L59.7458 39.9593L61.96 36.1166L63.1311 30.4988L62.1612 27.4978L70.3226 24.7164L70.9996 24.8079L71.1094 25.1921L72.3537 25.5947L78.5936 24.4419L81.7044 23.4354L83.1318 21.203L89.0789 16.2806L91.3297 14.8716L94.2574 13.6821L99.4544 12.4378L108.293 13.1515L111.66 14.8716L121.011 18.4948L122.859 18.6594L129.227 24.2223L130.983 24.753L135.631 25.3202ZM50.2487 2.22704L55.4639 3.70926L58.5381 4.00202L63.6068 6.89325L64.0278 7.99119L64.3022 10.2237L63.497 11.962L62.1979 13.8102L59.4714 12.2914L57.4584 12.1084L55.2077 12.9685L53.3961 13.06L52.4262 12.4744L50.1572 9.52829L47.4855 8.46695L44.9237 4.6791L44.2467 4.14841L41.8861 4.42291L42.2887 5.94172L45.491 9.327L48.5835 10.7543L50.4317 11.0471L51.5113 11.7059L52.3164 13.06L51.4564 14.4507L49.3154 15.4571L46.4974 15.8414L45.4544 15.4754L44.9054 14.7435L43.9905 11.1569L41.0992 11.7974L39.6353 13.1332L38.6655 9.61979L36.0122 10.2785L33.8346 10.0224L30.1565 8.77803L29.388 8.26566L30.0284 7.86308L30.7969 8.24737L34.6581 8.57674L36.0305 7.82651L35.1521 6.32598L33.1941 6.38088L33.3955 7.51543L31.84 7.16774L31.1996 5.99662L31.4375 4.97186L33.8529 4.38631H36.5245L43.2036 3.30667L44.576 2.77601L45.2348 3.25177L46.7719 3.12368L46.2412 2.62962L47.2659 2.00745L48.5652 1.87936L50.2487 2.22704ZM8.38081 8.33887L7.79523 8.61334L6.22155 6.71027L0.0548386 0.616742L0 0.250756L0.457472 0.195862L1.51873 0.891214L7.9966 6.10641L8.71017 7.35072L8.78344 7.91798L8.38081 8.33887Z" fill="#F85937" fill-opacity="0.24" stroke="#F85937" stroke-width="2.31786" mask="url(#path-2-inside-2_193_132)"/>
</g>
<defs>
<clipPath id="clip0_193_132">
<rect width="371.467" height="347.679" fill="white" transform="translate(0.795898 0.894592)"/>
</clipPath>
</defs>
</svg>
