<svg width="260" height="376" viewBox="0 0 260 376" fill="none" xmlns="http://www.w3.org/2000/svg">
<g clip-path="url(#clip0_193_122)">
<path d="M87.6748 128.524L83.8947 128.961L83.9464 128.868L83.9248 128.682L83.6129 125.985L83.5561 125.494L83.0624 125.472L81.8732 125.421L80.1826 124.884L79.3781 123.628L79.2978 123.503L79.1671 123.432L78.259 122.938L78.1758 122.801L78.2146 122.779L78.4966 122.625L78.5146 122.304L78.6123 120.561L78.9879 120.186L80.606 119.606L82.1836 120.224L82.3398 120.285L82.5044 120.253L83.4586 120.07L83.9188 119.981L83.9286 119.513L83.9609 117.958L84.1569 117.728L85.3731 118.425L85.4969 118.496L85.6395 118.502L88.08 118.593L88.3061 118.602L88.4781 118.455L89.1981 117.84L91.6473 117.823L91.7718 117.822L91.885 117.77L95.6395 116.047L97.6296 115.509L97.7412 115.479L97.8326 115.408L99.1665 114.378L100.197 114.209L100.893 115.344L100.924 115.395L100.965 115.439L101.864 116.393L101.951 116.485L102.069 116.533L102.839 116.845L103.175 116.981L103.444 116.738L103.995 116.243L104.138 116.114L104.175 115.926L104.321 115.199H104.525H104.789L104.963 114.999L105.716 114.129L105.89 114.149L106.029 114.165L106.16 114.116L110.113 112.629L111 112.93L111.096 112.962L111.198 112.96L115.583 112.869L118.56 113.19L124.569 114.935L124.892 115.406L124.961 115.507L125.065 115.571L130.497 118.929L130.802 119.118L131.107 118.928L133.144 117.662L133.246 117.599L133.314 117.501L134.73 115.469L138.645 114.901L138.901 115.901L138.953 116.104L139.123 116.227L140.114 116.943L140.201 117.005L140.304 117.033L141.734 117.415L142.716 118.383L142.665 118.974L142.655 119.089L142.69 119.199L143.186 120.759L143.235 120.913L143.358 121.02L144.495 122.011L144.513 122.027L144.532 122.041L146.753 123.674L146.863 123.755L146.998 123.778L150.53 124.387L151.308 125.223L151.787 126.537L151.532 128.375L151.523 128.435L151.528 128.495L151.644 130.175L150.243 132.647L150.209 132.707L150.191 132.773L149.795 134.157L146.379 134.205L143.842 133.529L141.648 131.506L140.2 129.36L140.157 129.297L140.098 129.246L138.208 127.613L137.856 127.309L137.483 127.587L136.676 128.188L134.343 128.425L118.914 127.858L118.903 127.857H118.893H115.553H115.524L115.495 127.86L109.915 128.426L105.601 128.335L105.522 128.333L105.446 128.352L104.51 128.591L104.377 128.625L104.274 128.715L103.289 129.568L100.495 130.116L97.6028 130.215L95.0679 127.355L94.9196 127.188L94.6972 127.164L89.3207 126.576L89.1512 126.558L88.9987 126.634L88.5583 126.854L88.3326 126.967L88.2615 127.209L87.9427 128.293L87.6748 128.524Z" fill="#F85937" fill-opacity="0.24" stroke="#F85937" stroke-width="1.15893"/>
<mask id="path-2-inside-1_193_122" fill="white">
<path d="M203.667 99.2973L202.033 101.573L200.621 106.215L198.767 109.573L195.941 113.463L193.519 114.509L190.73 116.601L188.528 118.748L185.739 123.427L184.987 125.482L181.445 129.758L177.61 131.721L175.243 132.29L173.39 132.308L165.701 133.501L160.288 134.786L156.178 135.263L154.306 134.694L150.232 134.731L150.728 132.932L152.232 130.308L152.086 128.455L152.379 126.473L151.81 124.914L150.819 123.849L147.113 123.207L144.892 121.574L143.755 120.583L143.259 119.023L143.333 118.179L142.048 116.895L140.47 116.473L139.479 115.757L139.112 114.271L143.388 114.069L147.59 114.95L153.095 116.785L153.664 116.858L154.746 116.234L161.793 117.904L164.692 117.794L166.967 116.454L176.748 112.124L177.518 111.151L179.041 107.206L180.858 106.472L185.776 106.784L186.198 106.545L186.968 105.481L186.95 104.362L185.959 103.775L184.803 103.83L184.326 103.004L184.271 102.343L185.115 100.912L187.189 99.4075L188.987 100.068L190.29 99.9763L193.996 97.8844L194.382 96.8935L193.391 94.9668L193.483 94.4347L198.29 90.673L200.254 90.5078L203.391 91.407L204.639 92.4162L204.327 93.4071L204.492 94.2879L207.135 96.5266L206.548 98.0863L205.446 98.7285L204.254 98.8386L203.667 99.2973ZM212.364 61.1483L211.979 61.2767L211.117 60.9097L210.419 58.194L211.245 56.0287L212.218 55.5883L213.227 56.1939L213.447 56.671L213.3 57.2949L211.924 58.8546L211.979 59.6803L212.676 60.7079L212.364 61.1483ZM217.906 29.9905L217.502 31.0181L219.356 33.3852L219.668 33.1833L220.438 33.6604L220.658 35.9725L219.484 37.7341L219.117 37.4772L218.805 37.624L218.64 38.7616L218.346 38.5598L218.383 37.991L217.778 36.9634L216.86 37.0001L216.456 36.4679L215.704 36.2477L215.594 35.7156L215.08 35.8073L214.53 34.5229L214.475 33.6604L215.337 31.7521L215.19 31.4585H214.695L214.493 30.7428L215.098 30.5226L214.952 30.2657L214.328 30.4125L212.181 29.073L211.777 28.4124L211.942 26.7242L213.282 26.2472L215.172 26.5958L217.906 29.9905ZM253.541 24.2103L253.009 24.3021L252.624 23.7516L250.293 18.6137L250.055 16.7236L250.55 16.6869L251.302 17.2374L253.853 20.6688L253.963 21.5129L253.541 24.2103ZM255.101 18.3017L253.119 18.0265L252.825 15.6777L254.147 14.5584L255.945 11.1637V10.4114L255.56 10.0627L253.725 9.62231L253.413 9.32872L252.881 7.56715L252.807 6.50286L253.798 1.97048L254.44 0.814453L256.771 1.2365L258.202 2.52098L259.964 9.16357L258.532 11.3105L256.183 17.2374L255.101 18.3017Z"/>
</mask>
<path d="M203.667 99.2973L202.033 101.573L200.621 106.215L198.767 109.573L195.941 113.463L193.519 114.509L190.73 116.601L188.528 118.748L185.739 123.427L184.987 125.482L181.445 129.758L177.61 131.721L175.243 132.29L173.39 132.308L165.701 133.501L160.288 134.786L156.178 135.263L154.306 134.694L150.232 134.731L150.728 132.932L152.232 130.308L152.086 128.455L152.379 126.473L151.81 124.914L150.819 123.849L147.113 123.207L144.892 121.574L143.755 120.583L143.259 119.023L143.333 118.179L142.048 116.895L140.47 116.473L139.479 115.757L139.112 114.271L143.388 114.069L147.59 114.95L153.095 116.785L153.664 116.858L154.746 116.234L161.793 117.904L164.692 117.794L166.967 116.454L176.748 112.124L177.518 111.151L179.041 107.206L180.858 106.472L185.776 106.784L186.198 106.545L186.968 105.481L186.95 104.362L185.959 103.775L184.803 103.83L184.326 103.004L184.271 102.343L185.115 100.912L187.189 99.4075L188.987 100.068L190.29 99.9763L193.996 97.8844L194.382 96.8935L193.391 94.9668L193.483 94.4347L198.29 90.673L200.254 90.5078L203.391 91.407L204.639 92.4162L204.327 93.4071L204.492 94.2879L207.135 96.5266L206.548 98.0863L205.446 98.7285L204.254 98.8386L203.667 99.2973ZM212.364 61.1483L211.979 61.2767L211.117 60.9097L210.419 58.194L211.245 56.0287L212.218 55.5883L213.227 56.1939L213.447 56.671L213.3 57.2949L211.924 58.8546L211.979 59.6803L212.676 60.7079L212.364 61.1483ZM217.906 29.9905L217.502 31.0181L219.356 33.3852L219.668 33.1833L220.438 33.6604L220.658 35.9725L219.484 37.7341L219.117 37.4772L218.805 37.624L218.64 38.7616L218.346 38.5598L218.383 37.991L217.778 36.9634L216.86 37.0001L216.456 36.4679L215.704 36.2477L215.594 35.7156L215.08 35.8073L214.53 34.5229L214.475 33.6604L215.337 31.7521L215.19 31.4585H214.695L214.493 30.7428L215.098 30.5226L214.952 30.2657L214.328 30.4125L212.181 29.073L211.777 28.4124L211.942 26.7242L213.282 26.2472L215.172 26.5958L217.906 29.9905ZM253.541 24.2103L253.009 24.3021L252.624 23.7516L250.293 18.6137L250.055 16.7236L250.55 16.6869L251.302 17.2374L253.853 20.6688L253.963 21.5129L253.541 24.2103ZM255.101 18.3017L253.119 18.0265L252.825 15.6777L254.147 14.5584L255.945 11.1637V10.4114L255.56 10.0627L253.725 9.62231L253.413 9.32872L252.881 7.56715L252.807 6.50286L253.798 1.97048L254.44 0.814453L256.771 1.2365L258.202 2.52098L259.964 9.16357L258.532 11.3105L256.183 17.2374L255.101 18.3017Z" fill="#F85937" fill-opacity="0.24" stroke="#F85937" stroke-width="2.31786" mask="url(#path-2-inside-1_193_122)"/>
<mask id="path-3-inside-2_193_122" fill="white">
<path d="M73.6046 231.287L76.5956 232.058L77.6599 232.535L78.4857 233.526L79.2013 233.783L80.4858 232.737L81.8069 232.351L82.5409 232.498L83.6236 234.975L83.0547 236.04V236.645L83.3666 237.196L85.3668 238.205L87.5687 238.498L88.3761 238.058L90.413 235.966L93.1837 234.902L98.0464 236.884L101.68 237.911L102.854 237.306L104.212 237.563L106.12 237.471L106.928 237.893L107.864 239.141L109.845 239.526L110.139 240.132L109.937 241.746L110.726 242.077L111.533 243.196L112.543 243.012L113.313 244.921L114.286 244.866L114.598 245.141L114.396 245.526L114.635 246.315L113.02 248.554L113.368 249.967L115.791 250.701L116.433 251.362L117.369 251.729L118.672 253.857L118.396 254.609L117.736 254.885L114.396 251.545L113.277 250.884L111.9 250.866L113.222 253.233L112.451 255.545L110.286 256.408L110.231 257.123L111.754 259.546L114.8 261.747L118.855 263.986L118.763 264.408L119.791 265.711L119.974 266.629L120.818 267.179L123.699 266.922L124.819 267.106L125.002 267.84L124.085 268.5L123.791 270.28L125.002 270.904L125.204 271.565L124.598 272.354L125.644 274.739L125.956 274.978L130.452 274.647L130.25 273.877L128.709 272.757L128.36 271.987L128.745 271.785L129.902 271.858L131.168 272.757L132.415 275.638L132.727 277.602L132.489 282.666L130.287 284.428L128.837 283.529L125.754 280.831L125.204 280.923L124.91 281.198L125.296 281.951L127.424 283.804L128.085 284.813L128.232 285.602L127.718 286.226L127.057 286.501L126.507 285.749L125.479 286.226L124.268 283.804L122.874 282.886L120.451 284.281L119.057 284.74L117.552 284.556L112.524 285.951L111.148 285.694L108.708 287.052L107.001 287.364L105.863 289.492L105.221 292.08L105.827 294.061L107.405 295.511L107.441 296.098L105.148 298.484L102.065 298.557L99.2575 297.273L95.4774 296.869L94.4499 297.364L93.6975 297.181L93.3306 296.428L92.4864 295.878L89.6056 294.759L88.6697 293.841L88.3027 292.905L87.2751 291.878L86.9082 291.052L87.3669 287.712L87.6788 287.455L88.7431 283.529L88.578 280.923L89.3303 278.794L90.2661 278.336L91.4772 275.73L91.3671 273.143L90.9084 272.115L88.4862 271.179L84.1007 270.537L83.2749 269.895L81.2197 266.922L80.3757 266.555L80.0087 265.895V264.977L79.0728 264.794L77.9535 264.977L76.0818 262.481L70.3384 257.49L69.2006 256.041L68.4116 255.674L67.9896 254.426L67.9346 252.921L68.5951 251.233L71.5495 247.215L72.8339 246.572L73.9533 243.746L73.8615 239.489L74.1367 238.48L74.779 237.654L74.8157 235.489L74.4671 235.342L74.7056 234.645L74.2101 234.92L73.7698 234.59L73.5496 233.14H73.311L73.0541 233.948L72.0082 233.709L72.2467 234.241L72.6321 234.333L72.5587 234.755L71.9898 234.7L71.8247 233.397L71.2925 233.012L71.2559 232.627L72.1183 232.902L72.9807 231.544L73.6046 231.287Z"/>
</mask>
<path d="M73.6046 231.287L76.5956 232.058L77.6599 232.535L78.4857 233.526L79.2013 233.783L80.4858 232.737L81.8069 232.351L82.5409 232.498L83.6236 234.975L83.0547 236.04V236.645L83.3666 237.196L85.3668 238.205L87.5687 238.498L88.3761 238.058L90.413 235.966L93.1837 234.902L98.0464 236.884L101.68 237.911L102.854 237.306L104.212 237.563L106.12 237.471L106.928 237.893L107.864 239.141L109.845 239.526L110.139 240.132L109.937 241.746L110.726 242.077L111.533 243.196L112.543 243.012L113.313 244.921L114.286 244.866L114.598 245.141L114.396 245.526L114.635 246.315L113.02 248.554L113.368 249.967L115.791 250.701L116.433 251.362L117.369 251.729L118.672 253.857L118.396 254.609L117.736 254.885L114.396 251.545L113.277 250.884L111.9 250.866L113.222 253.233L112.451 255.545L110.286 256.408L110.231 257.123L111.754 259.546L114.8 261.747L118.855 263.986L118.763 264.408L119.791 265.711L119.974 266.629L120.818 267.179L123.699 266.922L124.819 267.106L125.002 267.84L124.085 268.5L123.791 270.28L125.002 270.904L125.204 271.565L124.598 272.354L125.644 274.739L125.956 274.978L130.452 274.647L130.25 273.877L128.709 272.757L128.36 271.987L128.745 271.785L129.902 271.858L131.168 272.757L132.415 275.638L132.727 277.602L132.489 282.666L130.287 284.428L128.837 283.529L125.754 280.831L125.204 280.923L124.91 281.198L125.296 281.951L127.424 283.804L128.085 284.813L128.232 285.602L127.718 286.226L127.057 286.501L126.507 285.749L125.479 286.226L124.268 283.804L122.874 282.886L120.451 284.281L119.057 284.74L117.552 284.556L112.524 285.951L111.148 285.694L108.708 287.052L107.001 287.364L105.863 289.492L105.221 292.08L105.827 294.061L107.405 295.511L107.441 296.098L105.148 298.484L102.065 298.557L99.2575 297.273L95.4774 296.869L94.4499 297.364L93.6975 297.181L93.3306 296.428L92.4864 295.878L89.6056 294.759L88.6697 293.841L88.3027 292.905L87.2751 291.878L86.9082 291.052L87.3669 287.712L87.6788 287.455L88.7431 283.529L88.578 280.923L89.3303 278.794L90.2661 278.336L91.4772 275.73L91.3671 273.143L90.9084 272.115L88.4862 271.179L84.1007 270.537L83.2749 269.895L81.2197 266.922L80.3757 266.555L80.0087 265.895V264.977L79.0728 264.794L77.9535 264.977L76.0818 262.481L70.3384 257.49L69.2006 256.041L68.4116 255.674L67.9896 254.426L67.9346 252.921L68.5951 251.233L71.5495 247.215L72.8339 246.572L73.9533 243.746L73.8615 239.489L74.1367 238.48L74.779 237.654L74.8157 235.489L74.4671 235.342L74.7056 234.645L74.2101 234.92L73.7698 234.59L73.5496 233.14H73.311L73.0541 233.948L72.0082 233.709L72.2467 234.241L72.6321 234.333L72.5587 234.755L71.9898 234.7L71.8247 233.397L71.2925 233.012L71.2559 232.627L72.1183 232.902L72.9807 231.544L73.6046 231.287Z" fill="#F85937" fill-opacity="0.24" stroke="#F85937" stroke-width="2.31786" mask="url(#path-3-inside-2_193_122)"/>
<mask id="path-4-inside-3_193_122" fill="white">
<path d="M70.0088 374.415L72.0456 374.323L74.1925 375.002L73.587 375.865L72.1741 376.085L66.3572 375.131L65.5682 374.617L65.5498 374.176L66.3021 373.681L68.0821 374.25L70.0088 374.415ZM62.1734 366.8L64.2286 367.809L65.0727 367.295L65.348 368.158L64.8892 369.644L61.8248 370.048L60.7055 369.259L60.3018 368.084L60.577 365.901L61.3477 366.102L62.1734 366.8ZM56.4483 347.202L55.6776 348.945L55.0537 345.643L55.4208 343.312L54.5767 338.761L54.4299 330.853L55.1455 327.018L55.4942 326.394L55.9162 326.339L56.1731 326.889L56.1364 328.082L56.9805 329.605L58.2649 334.523L57.4392 341.716L56.4483 347.202ZM36.1902 207.561L36.9242 208.552L37.5481 207.946L38.6308 207.708L40.3189 206.02L40.9245 206.332L43.6219 206.093L43.8604 207.157L45.4018 207.855H48.7048L51.1636 208.919L52.6316 204.405V203.634L53.1637 203.414L55.4942 206.075L55.8061 206.919L58.5035 210.662L60.577 212.644L62.9625 213.873L64.3571 214.479H65.8984L66.0453 213.873L66.8893 213.635L68.7426 213.91L69.1647 214.295L70.5776 214.479L79.202 218.149L82.3581 218.681L84.1197 219.745L85.6978 219.617L86.9456 219.837L89.2759 221.635L90.4137 222.021L91.9367 222.131L93.1661 223.966L93.9918 223.856L95.1662 224.773L97.4783 229.452L96.3406 229.764L95.8452 230.26L94.4322 232.994L93.6799 233.416L93.2212 234.81L90.432 235.875L88.4135 237.966L87.6062 238.407L85.4042 238.132L83.4041 237.122L83.0921 236.554V235.948L83.6609 234.902L82.56 232.425L81.8443 232.278L80.5232 232.645L79.2387 233.691L78.523 233.434L77.6973 232.462L76.633 231.966L73.6236 231.195L74.3944 230.351L72.9815 228.314L66.2287 226.535L64.9626 226.443L61.9533 227.562L58.5952 229.562L52.3013 234.131L46.8698 237.508L48.9616 243.013L51.4022 244.793L52.4664 245.233L53.4207 246.848L53.1454 248.407L52.9986 254.83L54.0445 257.27L54.6317 261.362L54.3932 262.353L52.2646 265.766L51.6407 267.62L51.3104 273.767L52.7234 275.712L51.7875 282.575L53.017 285.933L53.861 291.804L52.8701 295.144L51.2187 296.796L50.2645 297.383L50.2461 301.732L48.9066 306.851L52.6499 313.219L55.1638 321.641L54.9253 322.008L53.4023 321.494L51.5489 318.558L50.8884 318.246L47.457 319.201L45.0165 320.448L43.4935 320.889L38.1537 319.825L35.7682 321.825L35.3095 323.201L33.6213 324.32L30.0798 324.228L29.511 323.825L29.0706 322.852L29.1623 322.338L28.5568 321.641L23.4923 319.88L20.0058 314.705L19.9141 312.686L20.7581 307.787L21.4554 306.319L23.6574 303.457L25.2538 299.456L25.4006 298.043L24.7033 296.3L24.3547 293.731L27.6393 288.318L28.5384 280.776L28.6302 276.464L27.7311 269.638L25.786 266.5L22.9785 261.014L23.9877 258.408L25.1254 256.83L24.2813 254.279L23.6574 250.848L22.7399 248.701L22.5931 247.013L21.2903 245.783V245.013L21.9876 244.481L22.6849 244.407L23.0702 244.939L24.685 244.481L25.1437 244.095L25.5291 243.031L26.7585 242.572L28.6852 242.646L28.7586 241.948L27.676 240.719L26.7585 238.572L27.2906 237.287L27.1072 236.15L26.6301 235.544L26.997 233.929V232.058L27.5842 230.682L28.9605 231.214L30.8872 230.443H31.8047L33.1075 228.993L33.4928 227.654L35.7866 225.966L36.2086 224.883L36.0251 223.433L35.6581 222.773L34.6305 222.167L32.9424 221.874L32.6488 221.507L32.1717 220.553V218.993L31.6212 218.387L28.832 217.048L28.9054 214.662L32.1717 212.314L33.0158 211.525L33.2543 210.864L34.5755 210.68L34.814 210.075L34.3186 208.442L36.1902 207.561Z"/>
</mask>
<path d="M70.0088 374.415L72.0456 374.323L74.1925 375.002L73.587 375.865L72.1741 376.085L66.3572 375.131L65.5682 374.617L65.5498 374.176L66.3021 373.681L68.0821 374.25L70.0088 374.415ZM62.1734 366.8L64.2286 367.809L65.0727 367.295L65.348 368.158L64.8892 369.644L61.8248 370.048L60.7055 369.259L60.3018 368.084L60.577 365.901L61.3477 366.102L62.1734 366.8ZM56.4483 347.202L55.6776 348.945L55.0537 345.643L55.4208 343.312L54.5767 338.761L54.4299 330.853L55.1455 327.018L55.4942 326.394L55.9162 326.339L56.1731 326.889L56.1364 328.082L56.9805 329.605L58.2649 334.523L57.4392 341.716L56.4483 347.202ZM36.1902 207.561L36.9242 208.552L37.5481 207.946L38.6308 207.708L40.3189 206.02L40.9245 206.332L43.6219 206.093L43.8604 207.157L45.4018 207.855H48.7048L51.1636 208.919L52.6316 204.405V203.634L53.1637 203.414L55.4942 206.075L55.8061 206.919L58.5035 210.662L60.577 212.644L62.9625 213.873L64.3571 214.479H65.8984L66.0453 213.873L66.8893 213.635L68.7426 213.91L69.1647 214.295L70.5776 214.479L79.202 218.149L82.3581 218.681L84.1197 219.745L85.6978 219.617L86.9456 219.837L89.2759 221.635L90.4137 222.021L91.9367 222.131L93.1661 223.966L93.9918 223.856L95.1662 224.773L97.4783 229.452L96.3406 229.764L95.8452 230.26L94.4322 232.994L93.6799 233.416L93.2212 234.81L90.432 235.875L88.4135 237.966L87.6062 238.407L85.4042 238.132L83.4041 237.122L83.0921 236.554V235.948L83.6609 234.902L82.56 232.425L81.8443 232.278L80.5232 232.645L79.2387 233.691L78.523 233.434L77.6973 232.462L76.633 231.966L73.6236 231.195L74.3944 230.351L72.9815 228.314L66.2287 226.535L64.9626 226.443L61.9533 227.562L58.5952 229.562L52.3013 234.131L46.8698 237.508L48.9616 243.013L51.4022 244.793L52.4664 245.233L53.4207 246.848L53.1454 248.407L52.9986 254.83L54.0445 257.27L54.6317 261.362L54.3932 262.353L52.2646 265.766L51.6407 267.62L51.3104 273.767L52.7234 275.712L51.7875 282.575L53.017 285.933L53.861 291.804L52.8701 295.144L51.2187 296.796L50.2645 297.383L50.2461 301.732L48.9066 306.851L52.6499 313.219L55.1638 321.641L54.9253 322.008L53.4023 321.494L51.5489 318.558L50.8884 318.246L47.457 319.201L45.0165 320.448L43.4935 320.889L38.1537 319.825L35.7682 321.825L35.3095 323.201L33.6213 324.32L30.0798 324.228L29.511 323.825L29.0706 322.852L29.1623 322.338L28.5568 321.641L23.4923 319.88L20.0058 314.705L19.9141 312.686L20.7581 307.787L21.4554 306.319L23.6574 303.457L25.2538 299.456L25.4006 298.043L24.7033 296.3L24.3547 293.731L27.6393 288.318L28.5384 280.776L28.6302 276.464L27.7311 269.638L25.786 266.5L22.9785 261.014L23.9877 258.408L25.1254 256.83L24.2813 254.279L23.6574 250.848L22.7399 248.701L22.5931 247.013L21.2903 245.783V245.013L21.9876 244.481L22.6849 244.407L23.0702 244.939L24.685 244.481L25.1437 244.095L25.5291 243.031L26.7585 242.572L28.6852 242.646L28.7586 241.948L27.676 240.719L26.7585 238.572L27.2906 237.287L27.1072 236.15L26.6301 235.544L26.997 233.929V232.058L27.5842 230.682L28.9605 231.214L30.8872 230.443H31.8047L33.1075 228.993L33.4928 227.654L35.7866 225.966L36.2086 224.883L36.0251 223.433L35.6581 222.773L34.6305 222.167L32.9424 221.874L32.6488 221.507L32.1717 220.553V218.993L31.6212 218.387L28.832 217.048L28.9054 214.662L32.1717 212.314L33.0158 211.525L33.2543 210.864L34.5755 210.68L34.814 210.075L34.3186 208.442L36.1902 207.561Z" fill="#F85937" fill-opacity="0.24" stroke="#F85937" stroke-width="2.31786" mask="url(#path-4-inside-3_193_122)"/>
<mask id="path-5-inside-4_193_122" fill="white">
<path d="M26.5918 170.476L26.7937 172.128L26.39 173.155L26.4083 174.899L26.8671 176.532L27.1607 179.082L27.3258 179.541L28.0231 179.394L28.0782 180.33L27.0689 182.55L27.1607 183.56L26.812 184.257L23.9678 184.606L23.6191 185.284L24.6284 184.936L24.8302 185.376L23.7843 185.982L22.5916 186.129L22.6099 186.606L23.509 187.762L24.0962 188.147L24.7385 188.037L25.4358 189.064L26.6101 188.936L27.6561 188.092H28.3167L29.7113 188.899L30.7572 189.909L30.6104 190.404L29.6012 191.432L30.1333 192.991L32.0416 194.79L31.8949 195.946L32.6105 196.184L33.4179 197.579L32.8124 198.313L32.6105 199.304L33.3445 199.799L34.4822 199.634L35.4914 200.074L36.0602 199.854L36.152 204.919L36.4089 205.543L35.7483 205.928L36.1887 207.561L34.317 208.405L34.7941 210.057L34.5556 210.662L33.2344 210.827L32.9959 211.488L32.1334 212.277L28.8855 214.626L28.8121 217.011L31.6013 218.351L32.1334 218.938V220.498L32.6288 221.47L32.9225 221.819L34.6106 222.131L35.6382 222.736L36.0052 223.397L36.1887 224.828L35.7667 225.911L33.473 227.599L33.0876 228.938L31.7664 230.388H30.8489L28.9222 231.159L27.546 230.627L26.9404 232.003V233.874L26.5735 235.489L27.0689 236.095L27.2524 237.232L26.7019 238.517L27.6194 240.664L28.702 241.875L28.6103 242.572L26.6836 242.499L25.4541 242.958L25.0688 244.022L24.61 244.407L22.9953 244.866L22.6099 244.334L21.9126 244.407L21.2337 244.939V245.71L22.5365 246.939L22.6833 248.628L23.6191 250.775L24.243 254.206L19.8575 252.518L18.0041 252.261L15.6921 254.279L14.7746 254.445L12.9763 254.169L10.3523 254.701L7.54483 255.949L6.7007 257.032L6.35205 256.867L3.7831 250.995L3.54455 249.582L3.47119 241.141L3.94824 240.682L5.1777 235.379L5.01256 234.682L4.46203 234.15L2.71885 233.838L1.41603 234.443L1.06738 231.636L1.76462 228.608L2.42524 227.324L3.10417 226.902L4.38868 227.929H5.69149L8.88432 225.819L13.2699 221.488V219.653L12.6093 217.708L12.6827 216.222L13.1231 213.947L15.2884 207.873L16.1141 206.754L16.9582 206.295L18.2977 205.854L19.362 206.35L19.9492 205.176L20.4447 202.166L20.1877 201.616L19.252 201.102L19.0317 200.662L18.1693 197.505L18.206 196.57L18.995 194.606L18.151 190.569L17.9674 188.239L18.0225 187.78L19.2336 186.881L18.8666 185.138L18.4446 184.55L18.5179 184.018L19.8758 181.284L23.087 178.513L23.8944 174.862L24.867 172.348L25.3807 171.357L26.5918 170.476Z"/>
</mask>
<path d="M26.5918 170.476L26.7937 172.128L26.39 173.155L26.4083 174.899L26.8671 176.532L27.1607 179.082L27.3258 179.541L28.0231 179.394L28.0782 180.33L27.0689 182.55L27.1607 183.56L26.812 184.257L23.9678 184.606L23.6191 185.284L24.6284 184.936L24.8302 185.376L23.7843 185.982L22.5916 186.129L22.6099 186.606L23.509 187.762L24.0962 188.147L24.7385 188.037L25.4358 189.064L26.6101 188.936L27.6561 188.092H28.3167L29.7113 188.899L30.7572 189.909L30.6104 190.404L29.6012 191.432L30.1333 192.991L32.0416 194.79L31.8949 195.946L32.6105 196.184L33.4179 197.579L32.8124 198.313L32.6105 199.304L33.3445 199.799L34.4822 199.634L35.4914 200.074L36.0602 199.854L36.152 204.919L36.4089 205.543L35.7483 205.928L36.1887 207.561L34.317 208.405L34.7941 210.057L34.5556 210.662L33.2344 210.827L32.9959 211.488L32.1334 212.277L28.8855 214.626L28.8121 217.011L31.6013 218.351L32.1334 218.938V220.498L32.6288 221.47L32.9225 221.819L34.6106 222.131L35.6382 222.736L36.0052 223.397L36.1887 224.828L35.7667 225.911L33.473 227.599L33.0876 228.938L31.7664 230.388H30.8489L28.9222 231.159L27.546 230.627L26.9404 232.003V233.874L26.5735 235.489L27.0689 236.095L27.2524 237.232L26.7019 238.517L27.6194 240.664L28.702 241.875L28.6103 242.572L26.6836 242.499L25.4541 242.958L25.0688 244.022L24.61 244.407L22.9953 244.866L22.6099 244.334L21.9126 244.407L21.2337 244.939V245.71L22.5365 246.939L22.6833 248.628L23.6191 250.775L24.243 254.206L19.8575 252.518L18.0041 252.261L15.6921 254.279L14.7746 254.445L12.9763 254.169L10.3523 254.701L7.54483 255.949L6.7007 257.032L6.35205 256.867L3.7831 250.995L3.54455 249.582L3.47119 241.141L3.94824 240.682L5.1777 235.379L5.01256 234.682L4.46203 234.15L2.71885 233.838L1.41603 234.443L1.06738 231.636L1.76462 228.608L2.42524 227.324L3.10417 226.902L4.38868 227.929H5.69149L8.88432 225.819L13.2699 221.488V219.653L12.6093 217.708L12.6827 216.222L13.1231 213.947L15.2884 207.873L16.1141 206.754L16.9582 206.295L18.2977 205.854L19.362 206.35L19.9492 205.176L20.4447 202.166L20.1877 201.616L19.252 201.102L19.0317 200.662L18.1693 197.505L18.206 196.57L18.995 194.606L18.151 190.569L17.9674 188.239L18.0225 187.78L19.2336 186.881L18.8666 185.138L18.4446 184.55L18.5179 184.018L19.8758 181.284L23.087 178.513L23.8944 174.862L24.867 172.348L25.3807 171.357L26.5918 170.476Z" fill="#F85937" fill-opacity="0.24" stroke="#F85937" stroke-width="2.31786" mask="url(#path-5-inside-4_193_122)"/>
<mask id="path-6-inside-5_193_122" fill="white">
<path d="M155.776 313.806L153.629 313.641L152.436 311.384L152.29 309.916L154.693 310.191L155.593 310.925L155.905 311.585L155.776 313.806ZM104.562 316.98L102.727 317.09L99.6443 313.384L97.8461 310.521L97.9745 309.035L99.5343 304.906L101.094 303.86L102.984 304.246L103.351 304.557L105.847 309.328L105.645 315.439L105.333 316.558L104.562 316.98ZM126.747 290.502L127.848 297.823L128.233 298.52L128.086 300.374L123.994 303.915L122.526 307.108L122.655 307.971L123.517 308.649L124.325 310.521L123.884 312.943L122.581 315.164L120.857 315.641L117.866 314.576L113.333 314.209L112.471 313.879L112.122 312.173L113.663 306.649L114.141 305.53L115.737 304.576L116.012 303.952L115.774 301.273L113.92 297.016L115.278 294.061L115.976 293.676L117.866 293.584L119.957 292.997L122.581 290.942L125.572 289.492L126.747 290.502ZM142.436 292.41L142.509 296.337L142.142 297.897L141.023 296.685L141.298 294.814L139.959 292.795L139.225 293.181L139.518 296.979L138.858 297.438L137.738 296.979L137.463 296.52L137.555 295.768L138.215 294.832L138.124 294.19L137.867 293.915L137.096 294.318L136.105 296.777L135.316 300.3L134.986 305.383L136.325 306.521L137.004 306.374L142.381 310.613L142.436 311.292L140.16 314.209L137.206 315.494L136.582 315.329L135.536 314.503L132.472 315.898L131.646 316.687L131.224 317.953L132.472 318.045L132.894 318.65L132.509 319.714L130.178 323.403L129.371 323.898L124.673 323.678L123.022 320.907L121.902 318.026L127.169 310.026L128.637 306.081L130.931 295.988L130.637 290.85L131.279 288.465L132.876 285.254L136.619 282.611L137.463 282.373L138.124 282.611L137.573 283.565L138.014 284.96L139.867 285.988L141.702 288.557L142.436 292.41ZM138.215 270.996L138.876 271.106L141.592 270.464L142.913 271.73L143.555 273.051L143.39 274.372L140.509 278.152L140.05 278.391L137.555 278.244L135.94 276.611L134.325 274.409L133.995 273.546L133.958 272.207L135.683 270.299L136.894 270.042L138.215 270.996ZM142.179 181.156L143.06 182.972L141.775 185.064L143.335 187.963L144.142 187.835L144.895 186.018L145.775 185.339L146.106 184.459L147.188 183.248L148.675 182.569L153.281 184.734L152.473 189.798L151.244 190.532L150.161 192.092L149.207 192.166L147.042 191.156L146.565 190.074L145.335 188.863L144.381 189.266L143.904 190.147L143.574 191.23L143.372 194.331L143.041 194.863H142.436L141.555 195.468L140.601 194.991H139.793L139.188 194.716L139.059 193.982L139.39 193.505L140.069 193.432L141.555 191.743L141.005 189.78L140.528 185.798L140.179 185.193L139.427 185.67L137.261 188.092L136.784 190.055L135.426 191.743L135.353 192.276L133.188 194.239L132.435 194.569L131.426 194.367L130.142 191.395L129.132 190.991L128.802 190.386V188.826L129.683 185.45L131.518 183.229L131.995 182.293L132.6 181.559L133.408 181.486L134.766 182.293L135.445 181.816L139.041 180.734L140.197 182.018L141.005 180.403H141.555L142.179 181.156ZM79.8817 105.243L80.6524 105.353L84.3774 104.784L86.1022 103.28H86.6527L87.2399 103.683V104.454L86.8729 104.986L85.7903 105.023L85.3499 105.298L85.7352 105.5L86.0472 106.784L87.1298 108.326L88.818 110.087L89.8639 110.564L91.075 110.876L101.608 109.445L101.956 109.647L103.021 111.83L103.608 112.069L104.25 111.922L105.847 110.601L106.727 110.638L110.085 111.996L105.938 113.555L105.461 113.5L104.507 114.601H103.81L103.571 115.794L103.021 116.289L102.25 115.978L101.351 115.023L100.47 113.555L98.9103 113.812L97.4607 114.932L95.4239 115.464L91.6255 117.225H88.9648L88.084 117.996L85.6435 117.904L84.0104 116.968L83.3681 117.721L83.3314 119.482L82.3773 119.666L80.5973 118.969L78.6523 119.666L78.01 120.29L77.8999 122.235L77.3127 122.547L77.7898 123.336L78.8541 123.923L79.7532 125.354L81.7166 125.978L82.9828 126.033L83.2947 128.712L82.7626 129.63L80.2487 128.877L77.0742 129.685L75.9365 131.189L72.2665 130.749L69.459 131.391L68.3764 131.043L67.6057 130.217L64.0826 129.153L62.5963 128.198L56.3757 127.85L54.2839 129.043L51.2011 130.107L48.0816 133.245L44.1915 138.933L44.8337 139.539L43.8429 141.062L43.4758 144.933L42.3932 146.089L41.4941 145.961L41.6225 148.42L40.7784 150.255L40.6867 152.75L41.3656 153.778L41.4574 155.338L42.5767 158.017L42.0813 159.576L41.8428 163.632L42.3749 164.953L44.5952 168.256L48.9624 173.1L49.311 173.944L50.1918 174.458L50.8524 174.403L52.247 173.449L52.8526 173.32L53.9168 174.109L54.3389 175.137L56.3573 175.339L58.9997 179.633L58.174 182.403L58.3024 183.486L58.8162 184.33L59.7704 184.734L61.6604 188.697L62.5963 188.808L64.1009 188.018L64.5596 186.991L65.4955 186.587L66.7433 186.606V187.927L67.1103 188.551L68.0461 188.881L70.2114 188.587L74.6704 189.138L75.4594 188.606L77.2026 186.33L79.1844 182.348L83.258 177.247L83.9737 177.027L84.5058 176.165L86.0839 174.935L87.295 172.752L88.4326 172.109L90.5428 171.577L90.9282 169.871L91.8457 169.595L92.4696 169.559L93.0751 170.091L92.4696 172.807L92.9283 173.486H93.3871L95.4606 174.678L99.4608 175.137L101.131 175.853L103.553 174.238L104.929 173.981L106.195 174.495L107.094 174.531L108.03 173.596L108.746 169.981L111.498 168.916L113.278 169.705L118.196 167.87L125.04 168.843L128.16 168.825L132.949 168.348L134.234 167.687L134.105 167.21L131.463 166.274L127.811 165.907L126.949 165.357L127.004 164.861L129.719 163.705L132.509 163.32L135.848 163.375L136.766 163.1L137.408 161.907L137.83 161.888L142.711 162.09L145.537 163.173L148.638 164.843L150.014 168.366L149.757 170.641L148.308 172.329L147.684 175.889L146.766 177.137L146.179 177.522L144.069 177.192L143.353 176.825L141.041 174.146L140.436 172.495L137.757 171.871L129.848 173.027L129.114 174.018L128.912 175.339L128.013 177.027L125.627 179.633L123.793 182.807L121.627 184.532L117.829 188.606L115.774 191.211L108.948 195.028L104.14 195.652L102.287 196.863L98.6168 197.579L97.4057 198.496L95.6258 202.882L94.066 204.46L93.1852 204.937L91.2035 205.286L89.1666 205.175L88.5611 204.074L86.2307 201.689L82.6525 200.148L81.7166 200.625L81.4047 202.46L83.0011 207.084L83.6984 206.533L85.6802 206.423L87.35 208.258L90.1575 212.35L91.7173 212.974L93.3871 212.68L94.8184 213.103L98.6901 217.084L102.856 224.186L104.287 228.847L108.012 231.874L113.608 235.801L113.645 237.049L112.324 239.086L112.287 239.765L115.792 242.902L116.251 243.178L117.26 242.719L118.967 243.967L116.966 246.334L115.168 245.838L114.563 246.426L114.342 245.637L114.544 245.27L114.232 244.994L113.26 245.031L112.489 243.123L111.48 243.306L110.691 242.187L109.902 241.857L110.104 240.242L109.81 239.655L107.828 239.269L106.892 238.003L106.103 237.599L104.177 237.691L102.819 237.434L101.626 238.04L97.9928 237.031L93.1302 235.049L93.5889 233.654L94.3413 233.232L95.7542 230.498L96.2496 230.003L97.3873 229.691L95.0752 225.011L93.9009 224.094L93.0751 224.204L91.8457 222.369L90.3227 222.259L89.185 221.874L86.8546 220.075L85.6068 219.855L84.0287 219.984L82.2672 218.919L79.111 218.387L70.4866 214.717L69.0737 214.534L68.6517 214.148L66.7983 213.873L65.9542 214.112L65.8075 214.717H64.2661L62.8715 214.112L60.486 212.882L58.4125 210.901L55.7151 207.157L55.4032 206.313L53.0728 203.652L52.5406 203.873V204.643L51.0727 209.157L48.6138 208.093H45.3108L43.7694 207.396L43.5309 206.331L40.8335 206.57L40.228 206.258L38.5398 207.946L37.4571 208.185L36.8333 208.79L36.0993 207.799L35.6589 206.166L36.3195 205.781L36.0442 205.157L35.9525 200.111L35.3836 200.313L34.356 199.872L33.2184 200.038L32.4844 199.542L32.6862 198.551L33.2918 197.817L32.4844 196.404L31.7687 196.184L31.9156 195.028L30.0072 193.23L29.4934 191.67L30.5026 190.642L30.6494 190.147L29.6035 189.138L28.2089 188.33H27.5483L26.5024 189.174L25.3463 189.321L24.649 188.275L24.0068 188.385L23.4196 188L22.5205 186.844V186.367L23.7132 186.22L24.7592 185.615L24.5573 185.156L23.5481 185.523L23.8967 184.826L26.7409 184.477L27.0896 183.78L26.9978 182.77L28.0071 180.55L27.952 179.633L27.2547 179.779L27.0896 179.321L26.8143 176.77L26.3372 175.119V173.394L26.7409 172.366L26.539 170.715L30.0622 167.852L30.3374 166.036L31.4568 164.971L32.0256 164.935L33.6771 168.476L34.0624 170.256L35.1084 171.907L35.4937 171.962L36.0259 170.99L36.1543 170.036L35.6038 166.696L34.0992 164.733L32.5578 159.576L32.8147 154.861H33.1083L33.3835 153.484L34.5579 150.457L33.9523 148.273L31.4568 149.044L30.8696 148.768L29.5668 147.869L27.7685 144.53L29.787 144.878L29.6401 143.814L31.2183 144.621L32.1541 145.374L32.0623 146.126L32.9982 146.75L33.3651 147.723L34.668 148.034L35.9158 146.603L36.6314 144.768L36.558 141.777L35.9525 140.658L33.4936 138.126L33.2734 137.447L34.0441 136.951L35.5488 137.483L37.2186 137.538L37.3471 137.061L36.8149 135.281L35.7323 133.979L35.6772 133.557L36.6314 132.07L36.7048 130.877L37.5122 129.63L38.7049 128.859L40.4482 128.657L41.4574 127.923L41.7143 126.492L41.0537 123.464L41.0904 122.528L41.4391 121.886L42.7969 120.748H44.1731L47.3843 118.969L47.8981 118.051L47.9715 115.28L48.3936 113.959L49.5313 113.133L50.6322 113.115L51.2194 113.5L51.3663 114.418L50.9626 116.51L51.2011 117.244L53.7517 118.95L58.6694 119.849L59.5318 117.702L59.7704 116.289L60.9264 114.418L62.2109 113.078L64.2661 112.363L65.7707 110.766L66.6882 106.601L66.3579 104.032L66.725 102.619L70.5967 102.032L75.1475 102.601L76.6888 103.224L79.8817 105.243Z"/>
</mask>
<path d="M155.776 313.806L153.629 313.641L152.436 311.384L152.29 309.916L154.693 310.191L155.593 310.925L155.905 311.585L155.776 313.806ZM104.562 316.98L102.727 317.09L99.6443 313.384L97.8461 310.521L97.9745 309.035L99.5343 304.906L101.094 303.86L102.984 304.246L103.351 304.557L105.847 309.328L105.645 315.439L105.333 316.558L104.562 316.98ZM126.747 290.502L127.848 297.823L128.233 298.52L128.086 300.374L123.994 303.915L122.526 307.108L122.655 307.971L123.517 308.649L124.325 310.521L123.884 312.943L122.581 315.164L120.857 315.641L117.866 314.576L113.333 314.209L112.471 313.879L112.122 312.173L113.663 306.649L114.141 305.53L115.737 304.576L116.012 303.952L115.774 301.273L113.92 297.016L115.278 294.061L115.976 293.676L117.866 293.584L119.957 292.997L122.581 290.942L125.572 289.492L126.747 290.502ZM142.436 292.41L142.509 296.337L142.142 297.897L141.023 296.685L141.298 294.814L139.959 292.795L139.225 293.181L139.518 296.979L138.858 297.438L137.738 296.979L137.463 296.52L137.555 295.768L138.215 294.832L138.124 294.19L137.867 293.915L137.096 294.318L136.105 296.777L135.316 300.3L134.986 305.383L136.325 306.521L137.004 306.374L142.381 310.613L142.436 311.292L140.16 314.209L137.206 315.494L136.582 315.329L135.536 314.503L132.472 315.898L131.646 316.687L131.224 317.953L132.472 318.045L132.894 318.65L132.509 319.714L130.178 323.403L129.371 323.898L124.673 323.678L123.022 320.907L121.902 318.026L127.169 310.026L128.637 306.081L130.931 295.988L130.637 290.85L131.279 288.465L132.876 285.254L136.619 282.611L137.463 282.373L138.124 282.611L137.573 283.565L138.014 284.96L139.867 285.988L141.702 288.557L142.436 292.41ZM138.215 270.996L138.876 271.106L141.592 270.464L142.913 271.73L143.555 273.051L143.39 274.372L140.509 278.152L140.05 278.391L137.555 278.244L135.94 276.611L134.325 274.409L133.995 273.546L133.958 272.207L135.683 270.299L136.894 270.042L138.215 270.996ZM142.179 181.156L143.06 182.972L141.775 185.064L143.335 187.963L144.142 187.835L144.895 186.018L145.775 185.339L146.106 184.459L147.188 183.248L148.675 182.569L153.281 184.734L152.473 189.798L151.244 190.532L150.161 192.092L149.207 192.166L147.042 191.156L146.565 190.074L145.335 188.863L144.381 189.266L143.904 190.147L143.574 191.23L143.372 194.331L143.041 194.863H142.436L141.555 195.468L140.601 194.991H139.793L139.188 194.716L139.059 193.982L139.39 193.505L140.069 193.432L141.555 191.743L141.005 189.78L140.528 185.798L140.179 185.193L139.427 185.67L137.261 188.092L136.784 190.055L135.426 191.743L135.353 192.276L133.188 194.239L132.435 194.569L131.426 194.367L130.142 191.395L129.132 190.991L128.802 190.386V188.826L129.683 185.45L131.518 183.229L131.995 182.293L132.6 181.559L133.408 181.486L134.766 182.293L135.445 181.816L139.041 180.734L140.197 182.018L141.005 180.403H141.555L142.179 181.156ZM79.8817 105.243L80.6524 105.353L84.3774 104.784L86.1022 103.28H86.6527L87.2399 103.683V104.454L86.8729 104.986L85.7903 105.023L85.3499 105.298L85.7352 105.5L86.0472 106.784L87.1298 108.326L88.818 110.087L89.8639 110.564L91.075 110.876L101.608 109.445L101.956 109.647L103.021 111.83L103.608 112.069L104.25 111.922L105.847 110.601L106.727 110.638L110.085 111.996L105.938 113.555L105.461 113.5L104.507 114.601H103.81L103.571 115.794L103.021 116.289L102.25 115.978L101.351 115.023L100.47 113.555L98.9103 113.812L97.4607 114.932L95.4239 115.464L91.6255 117.225H88.9648L88.084 117.996L85.6435 117.904L84.0104 116.968L83.3681 117.721L83.3314 119.482L82.3773 119.666L80.5973 118.969L78.6523 119.666L78.01 120.29L77.8999 122.235L77.3127 122.547L77.7898 123.336L78.8541 123.923L79.7532 125.354L81.7166 125.978L82.9828 126.033L83.2947 128.712L82.7626 129.63L80.2487 128.877L77.0742 129.685L75.9365 131.189L72.2665 130.749L69.459 131.391L68.3764 131.043L67.6057 130.217L64.0826 129.153L62.5963 128.198L56.3757 127.85L54.2839 129.043L51.2011 130.107L48.0816 133.245L44.1915 138.933L44.8337 139.539L43.8429 141.062L43.4758 144.933L42.3932 146.089L41.4941 145.961L41.6225 148.42L40.7784 150.255L40.6867 152.75L41.3656 153.778L41.4574 155.338L42.5767 158.017L42.0813 159.576L41.8428 163.632L42.3749 164.953L44.5952 168.256L48.9624 173.1L49.311 173.944L50.1918 174.458L50.8524 174.403L52.247 173.449L52.8526 173.32L53.9168 174.109L54.3389 175.137L56.3573 175.339L58.9997 179.633L58.174 182.403L58.3024 183.486L58.8162 184.33L59.7704 184.734L61.6604 188.697L62.5963 188.808L64.1009 188.018L64.5596 186.991L65.4955 186.587L66.7433 186.606V187.927L67.1103 188.551L68.0461 188.881L70.2114 188.587L74.6704 189.138L75.4594 188.606L77.2026 186.33L79.1844 182.348L83.258 177.247L83.9737 177.027L84.5058 176.165L86.0839 174.935L87.295 172.752L88.4326 172.109L90.5428 171.577L90.9282 169.871L91.8457 169.595L92.4696 169.559L93.0751 170.091L92.4696 172.807L92.9283 173.486H93.3871L95.4606 174.678L99.4608 175.137L101.131 175.853L103.553 174.238L104.929 173.981L106.195 174.495L107.094 174.531L108.03 173.596L108.746 169.981L111.498 168.916L113.278 169.705L118.196 167.87L125.04 168.843L128.16 168.825L132.949 168.348L134.234 167.687L134.105 167.21L131.463 166.274L127.811 165.907L126.949 165.357L127.004 164.861L129.719 163.705L132.509 163.32L135.848 163.375L136.766 163.1L137.408 161.907L137.83 161.888L142.711 162.09L145.537 163.173L148.638 164.843L150.014 168.366L149.757 170.641L148.308 172.329L147.684 175.889L146.766 177.137L146.179 177.522L144.069 177.192L143.353 176.825L141.041 174.146L140.436 172.495L137.757 171.871L129.848 173.027L129.114 174.018L128.912 175.339L128.013 177.027L125.627 179.633L123.793 182.807L121.627 184.532L117.829 188.606L115.774 191.211L108.948 195.028L104.14 195.652L102.287 196.863L98.6168 197.579L97.4057 198.496L95.6258 202.882L94.066 204.46L93.1852 204.937L91.2035 205.286L89.1666 205.175L88.5611 204.074L86.2307 201.689L82.6525 200.148L81.7166 200.625L81.4047 202.46L83.0011 207.084L83.6984 206.533L85.6802 206.423L87.35 208.258L90.1575 212.35L91.7173 212.974L93.3871 212.68L94.8184 213.103L98.6901 217.084L102.856 224.186L104.287 228.847L108.012 231.874L113.608 235.801L113.645 237.049L112.324 239.086L112.287 239.765L115.792 242.902L116.251 243.178L117.26 242.719L118.967 243.967L116.966 246.334L115.168 245.838L114.563 246.426L114.342 245.637L114.544 245.27L114.232 244.994L113.26 245.031L112.489 243.123L111.48 243.306L110.691 242.187L109.902 241.857L110.104 240.242L109.81 239.655L107.828 239.269L106.892 238.003L106.103 237.599L104.177 237.691L102.819 237.434L101.626 238.04L97.9928 237.031L93.1302 235.049L93.5889 233.654L94.3413 233.232L95.7542 230.498L96.2496 230.003L97.3873 229.691L95.0752 225.011L93.9009 224.094L93.0751 224.204L91.8457 222.369L90.3227 222.259L89.185 221.874L86.8546 220.075L85.6068 219.855L84.0287 219.984L82.2672 218.919L79.111 218.387L70.4866 214.717L69.0737 214.534L68.6517 214.148L66.7983 213.873L65.9542 214.112L65.8075 214.717H64.2661L62.8715 214.112L60.486 212.882L58.4125 210.901L55.7151 207.157L55.4032 206.313L53.0728 203.652L52.5406 203.873V204.643L51.0727 209.157L48.6138 208.093H45.3108L43.7694 207.396L43.5309 206.331L40.8335 206.57L40.228 206.258L38.5398 207.946L37.4571 208.185L36.8333 208.79L36.0993 207.799L35.6589 206.166L36.3195 205.781L36.0442 205.157L35.9525 200.111L35.3836 200.313L34.356 199.872L33.2184 200.038L32.4844 199.542L32.6862 198.551L33.2918 197.817L32.4844 196.404L31.7687 196.184L31.9156 195.028L30.0072 193.23L29.4934 191.67L30.5026 190.642L30.6494 190.147L29.6035 189.138L28.2089 188.33H27.5483L26.5024 189.174L25.3463 189.321L24.649 188.275L24.0068 188.385L23.4196 188L22.5205 186.844V186.367L23.7132 186.22L24.7592 185.615L24.5573 185.156L23.5481 185.523L23.8967 184.826L26.7409 184.477L27.0896 183.78L26.9978 182.77L28.0071 180.55L27.952 179.633L27.2547 179.779L27.0896 179.321L26.8143 176.77L26.3372 175.119V173.394L26.7409 172.366L26.539 170.715L30.0622 167.852L30.3374 166.036L31.4568 164.971L32.0256 164.935L33.6771 168.476L34.0624 170.256L35.1084 171.907L35.4937 171.962L36.0259 170.99L36.1543 170.036L35.6038 166.696L34.0992 164.733L32.5578 159.576L32.8147 154.861H33.1083L33.3835 153.484L34.5579 150.457L33.9523 148.273L31.4568 149.044L30.8696 148.768L29.5668 147.869L27.7685 144.53L29.787 144.878L29.6401 143.814L31.2183 144.621L32.1541 145.374L32.0623 146.126L32.9982 146.75L33.3651 147.723L34.668 148.034L35.9158 146.603L36.6314 144.768L36.558 141.777L35.9525 140.658L33.4936 138.126L33.2734 137.447L34.0441 136.951L35.5488 137.483L37.2186 137.538L37.3471 137.061L36.8149 135.281L35.7323 133.979L35.6772 133.557L36.6314 132.07L36.7048 130.877L37.5122 129.63L38.7049 128.859L40.4482 128.657L41.4574 127.923L41.7143 126.492L41.0537 123.464L41.0904 122.528L41.4391 121.886L42.7969 120.748H44.1731L47.3843 118.969L47.8981 118.051L47.9715 115.28L48.3936 113.959L49.5313 113.133L50.6322 113.115L51.2194 113.5L51.3663 114.418L50.9626 116.51L51.2011 117.244L53.7517 118.95L58.6694 119.849L59.5318 117.702L59.7704 116.289L60.9264 114.418L62.2109 113.078L64.2661 112.363L65.7707 110.766L66.6882 106.601L66.3579 104.032L66.725 102.619L70.5967 102.032L75.1475 102.601L76.6888 103.224L79.8817 105.243Z" fill="#F85937" fill-opacity="0.24" stroke="#F85937" stroke-width="2.31786" mask="url(#path-6-inside-5_193_122)"/>
</g>
<defs>
<clipPath id="clip0_193_122">
<rect width="258.731" height="374.334" fill="white" transform="translate(0.341797 0.869537)"/>
</clipPath>
</defs>
</svg>
