<svg width="287" height="289" viewBox="0 0 287 289" fill="none" xmlns="http://www.w3.org/2000/svg">
<path d="M214.596 36.531C214.596 43.6157 213.218 48.3388 210.463 50.7004C207.839 52.9308 204.953 54.0459 201.804 54.0459C201.673 54.0459 201.541 54.0459 201.41 54.0459C198.261 54.0459 193.145 52.6684 186.06 49.9132C178.844 47.0269 160.477 45.5837 160.477 45.5837C160.477 45.5837 143.618 47.2893 139.026 50.7004C134.565 54.1115 129.776 65.6569 129.776 65.6569C129.776 65.6569 126.103 99.178 123.479 146.934C120.986 194.559 119.74 221.454 119.74 227.621C119.74 233.656 121.052 241.659 123.676 251.63C126.299 261.601 127.611 267.046 127.611 267.964C127.611 274.393 124.659 279.378 118.756 282.921C112.983 286.463 104.914 288.234 94.5496 288.234C84.185 288.234 76.1819 286.529 70.5404 283.117C64.8989 279.575 62.0781 274.721 62.0781 268.554C62.0781 265.799 64.1117 259.961 68.1788 251.039C72.3772 241.987 75.0667 233.131 76.2475 224.472C81.233 186.031 83.7258 139.915 83.7258 86.1238C83.7258 69.9865 81.889 59.3594 78.2155 54.2427C74.5419 48.9948 58.9294 46.3709 58.9294 46.3709C58.9294 46.3709 39.8401 48.4044 29.2131 52.4716C18.5861 56.4075 12.0918 58.3755 9.7302 58.3755C3.30151 58.3755 0.0871582 38.1054 0.0871582 38.1054C0.0871582 38.1054 10.2111 22.509 18.9796 14.6866C53.69 -16.2785 71.262 11.341 138.042 11.341C204.821 11.341 149.456 11.341 149.456 11.341L160.673 11.1442C185.076 11.1442 198.917 11.669 202.197 12.7186C210.463 15.3426 214.596 21.7713 214.596 32.0047V36.531Z" fill="#F9FCEC"/>
<path d="M88.1069 191.231C87.935 202.906 72.435 208.517 41.6068 208.063C28.2261 207.866 19.1339 210.488 14.3301 215.928C9.52641 221.368 7.06757 227.958 6.95363 235.698C6.83968 243.438 8.0704 248.967 10.6458 252.285C13.2231 255.472 18.1193 257.119 25.3344 257.225C25.8592 257.233 31.0515 256.588 40.9115 255.289C50.7716 253.991 81.3644 252.605 132.69 251.13C184.147 249.657 215.582 249.004 226.995 249.172C238.408 249.34 245.815 249.777 249.216 250.483C252.75 251.06 257 252.041 261.966 253.427C266.933 254.681 270.073 255.317 271.385 255.337C277.157 255.422 281.12 253.577 283.275 249.804C285.563 245.901 286.774 239.424 286.907 230.372C287.043 221.19 284.77 215.12 280.09 212.165C275.412 209.078 265.923 207.429 251.624 207.219L168.154 208.549C144.278 208.197 132.381 205.267 132.462 199.757C132.526 195.428 141.603 184.933 159.693 168.273C177.785 151.482 186.965 142.892 187.233 142.502C190.984 137.309 192.937 129.399 193.094 118.773C193.25 108.147 190.705 102.796 185.457 102.718C182.834 102.68 171.624 110.978 151.828 127.613C132.033 144.248 117.544 152.498 108.361 152.362C103.376 152.289 87.1199 142.406 59.5929 122.712C49.7253 115.613 41.1638 108.926 33.9082 102.652C26.7859 96.2493 18.502 92.9782 18.502 92.9782C18.502 92.9782 8.57346 98.9334 8.39385 111.133C8.21617 123.202 11.5554 132.568 18.4116 139.229C20.0938 140.828 25.8118 144.587 35.5656 150.504C45.3194 156.42 52.1467 160.589 56.0474 163.008C77.4938 176.838 88.1803 186.246 88.1069 191.231Z" fill="#F9FCEC"/>
</svg>
