<svg width="793" height="318" viewBox="0 0 793 318" fill="none" xmlns="http://www.w3.org/2000/svg">
<g clip-path="url(#clip0_85_471)">
<path d="M352.566 279.982L352.046 279.912L350.986 279.322L350.156 278.652L350.286 278.282L350.916 277.712L351.196 277.632H352.186L352.466 277.792L353.086 278.942L353.076 279.222L352.566 279.982ZM333.346 267.542L333.736 267.722L334.066 268.292L334.396 268.392L335.066 268.022L338.346 268.962L340.256 269.292L341.996 269.122L342.666 268.892L344.336 267.422L345.256 267.002L345.596 267.082L350.156 268.782L352.026 269.952L353.296 271.592L354.596 272.292L354.736 272.652L354.666 272.992L354.366 273.402L353.026 274.542L351.076 275.532L350.106 275.862L349.166 275.942L347.966 276.512L346.966 277.452L347.006 278.202L345.666 278.992L346.196 279.662L346.316 279.282L346.536 279.992L346.176 280.502L345.106 280.802L344.146 280.682L343.956 280.342L344.756 279.702L345.366 279.442L345.126 278.992L345.406 278.362L345.056 277.862L343.656 276.392L341.086 274.152L340.366 273.742L338.766 273.122L337.346 272.852L335.216 272.972L332.786 269.892L332.516 268.022L332.646 267.592L333.346 267.542Z" fill="white"/>
<path d="M416.336 272.942L416.456 273.262L417.126 272.962L417.086 273.122L417.376 273.462L417.106 273.872L416.776 273.642L416.636 273.962L416.446 274.032L416.296 273.872L416.146 272.922L416.336 272.812V272.942ZM372.176 272.332L372.226 272.732L372.046 273.032L371.976 273.732L371.406 274.242L370.986 275.952L369.386 278.332L369.166 278.912L368.396 279.892L368.296 280.472L368.946 280.492L369.446 280.842L369.816 280.922L369.346 281.552L368.726 281.752L368.626 281.572L368.396 281.602L367.946 281.902L367.326 281.882L367.796 280.402L366.946 280.582L366.546 280.962L366.646 281.492L366.546 282.522L366.146 282.492L365.976 282.142L364.806 281.742L364.436 281.872L363.316 281.692L363.046 281.922L362.646 281.822L362.496 281.072L362.196 281.022L361.326 281.202L361.076 281.432L360.676 281.352L360.406 281.122L360.186 281.172L360.056 281.552L359.756 281.632L359.156 281.202L358.606 280.552L358.226 280.632L357.776 280.432H357.156L356.806 280.032L356.606 279.402L357.006 278.652L357.356 278.572L357.426 278.952L358.196 279.382H358.496L359.066 278.802L359.486 278.752L359.936 279.002L360.206 278.802V278.622L360.526 278.642L360.776 278.392L360.926 276.782L360.876 275.202L360.326 274.662L360.156 273.882L360.606 273.232L361.426 272.752L361.526 272.252L361.826 272.352L361.876 272.202L362.846 271.772L363.346 270.992L364.246 270.292L365.896 269.692L367.016 269.792L367.816 270.042L368.266 270.342L370.666 270.892L372.066 272.022L372.176 272.332ZM387.226 268.652L388.376 268.582L388.816 268.832L388.906 269.042L387.646 269.962L386.806 271.802L386.106 272.752L385.106 272.122L385.716 270.882L385.526 270.502L385.286 270.492L385.386 269.922L385.296 269.262L385.876 268.792L386.616 268.472L387.226 268.652ZM412.756 270.442H412.066L411.576 270.042L411.536 269.142L411.856 268.592L412.366 268.222L413.156 268.302L413.546 268.702L413.696 269.232L413.436 269.932L413.026 270.392L412.756 270.442ZM393.506 267.782L394.626 267.652L395.026 267.852L395.476 267.772L396.776 268.272L396.826 269.122L397.146 270.152L397.666 270.702L397.886 270.752L398.266 271.702L399.466 272.332L399.786 272.352L400.166 272.002L400.836 271.802L401.136 271.152L402.206 270.272H402.906L403.186 270.552L404.056 270.582L405.606 271.062L406.126 271.912L406.206 272.442L406.076 274.002L405.676 274.602L405.756 275.032L406.376 274.832L406.596 274.432L406.726 273.632L406.456 273.232L406.506 272.802L406.956 271.952L407.286 271.552L408.306 270.822H408.726L408.896 271.052L409.916 270.972L411.516 271.372L411.346 272.052L411.426 272.502L412.376 273.932L412.426 274.882L411.886 275.132L411.946 275.502L411.786 275.712L412.176 276.332L412.146 277.122L412.426 277.302H412.836L413.236 277.022L413.776 276.922L413.416 276.362L413.806 276.412L414.056 276.262L414.136 275.912L414.456 275.712L414.786 276.212L414.656 276.892L414.326 277.342L414.476 278.472L413.826 279.002L413.476 278.902L413.146 279.032L412.246 278.732L411.046 278.962L410.526 278.312L409.926 277.912L409.456 278.112L409.306 278.462L409.056 278.512L408.256 278.262L407.636 278.312L407.466 278.132L407.086 278.332L406.886 278.712L406.356 278.962L406.456 279.092L406.976 279.322L409.726 279.302L410.526 279.752L410.696 280.202L410.296 280.532L408.926 280.712L408.456 280.582L407.686 280.082L406.836 279.882L405.616 280.112L403.396 281.142L402.326 281.392L401.076 280.912L400.746 280.182L400.856 279.542L401.506 278.742L401.586 278.392L401.436 278.112L401.686 277.682L401.516 277.202L401.236 276.802H401.086L400.986 276.982L401.056 277.532L401.206 277.632L401.076 277.912L400.776 278.112L400.356 277.982L399.976 278.562L399.326 278.862L399.196 279.392L398.726 279.502L397.356 280.882L396.436 281.262L395.616 280.662H395.316L395.046 280.892L394.316 280.942L393.996 281.542L393.496 281.792H393.146L392.076 282.422L391.456 282.192L391.276 281.992V281.692L390.626 281.892L390.476 282.172L389.956 282.202L389.656 281.952H389.356L388.886 282.082L386.486 283.442L384.116 284.242L382.816 284.322L381.166 283.772L380.166 283.822L379.196 284.832L377.526 285.232L376.526 284.882L376.206 284.482L375.556 284.352L375.186 284.602L373.266 283.872L372.476 283.392L372.176 282.892L372.406 282.592L372.456 282.212L372.326 281.982L372.496 281.132L372.826 281.082L373.046 280.852L372.966 280.452L373.736 280.302L373.586 279.752L372.936 278.772L373.206 278.542L372.786 277.542L373.456 276.132L373.926 276.002L374.026 275.802L373.806 274.972L374.276 275.302L375.856 275.052L378.176 273.472L378.846 272.592L379.346 272.442H379.646L380.616 273.042L380.846 272.992L383.796 274.192L383.996 273.712L384.446 273.312L385.066 273.082L385.516 273.232L386.686 273.102L386.936 273.382L387.336 273.402L387.806 273.882L388.426 273.832L388.746 274.782L388.596 275.032L387.976 275.212L387.896 275.392L388.076 275.642L388.546 275.872L389.446 275.792L389.126 274.492L389.526 274.362L389.896 275.312L390.446 275.332L390.496 275.782L389.696 275.862L390.016 276.242L389.916 276.842L390.236 278.052L390.536 278.502L392.036 278.202L393.336 278.752H393.686L395.156 277.542L396.526 277.242L397.196 277.322L397.566 277.672L399.136 277.042L398.936 276.292L398.556 276.192L398.426 275.842L397.856 275.692L397.706 275.942L397.356 275.362L396.736 274.982L396.436 274.482L396.066 274.582L395.566 273.852L393.896 274.052L390.976 272.192L390.176 271.162L389.256 270.332L389.086 269.982L389.406 268.982L390.556 268.152L391.256 268.202L392.956 267.402L393.506 267.782Z" fill="white"/>
<path d="M487.546 309.442L488.256 309.362L488.376 309.522L487.186 310.922L486.816 311.052L486.946 311.232L487.946 311.372L488.156 312.192L487.676 312.782L486.736 312.752L486.146 313.042L485.856 313.402L485.086 313.692L484.906 314.032L484.976 314.392L484.606 315.252L484.346 315.162L483.976 315.402L483.496 315.072L483.106 315.022L482.606 315.302L482.256 315.792L480.496 315.882L479.926 316.292L480.266 316.632L479.976 317.162L479.596 317.172L479.476 316.872L479.016 316.912L478.936 316.752L478.336 316.902L478.216 317.272L477.716 316.972L477.626 316.482L477.766 315.682L477.306 314.802L477.436 314.432L478.286 314.062L478.936 314.022L479.566 313.692L480.296 313.802L480.666 313.582L481.446 313.492L482.856 312.122L483.366 312.162L483.846 311.842L484.066 311.192L484.506 311.222L484.436 310.822L485.266 309.942L486.996 309.162L487.196 308.332L487.806 308.962L487.476 309.202L487.546 309.442ZM462.696 308.402L463.406 308.522L463.566 308.702L463.376 310.022L463.076 310.372L462.496 310.552L461.926 311.152L461.186 311.612L460.576 311.712L460.066 311.462L459.076 311.552L457.976 310.882L460.586 309.422L460.806 308.592L461.216 308.342L461.886 308.122L462.696 308.402ZM488.866 303.602L489.396 303.492L489.486 303.942L488.706 304.202L488.586 304.582L488.186 304.802L488.016 304.792L488.006 304.462L487.566 304.422L487.576 304.832L487.856 304.972L487.996 305.312L487.906 305.602L488.036 305.942L487.606 305.882L487.716 306.162L487.916 306.232L487.806 306.652L487.406 306.642L487.266 306.172L487.076 306.122L486.696 306.192L486.446 306.672L486.296 306.692L486.046 306.252L486.116 305.722L485.966 305.462L486.396 304.882L486.916 304.612L487.436 303.742L487.586 303.162L488.576 302.772L488.796 303.102L488.866 303.602ZM429.186 290.142L429.556 290.392L430.026 291.262L430.446 291.632L430.936 291.782L431.946 291.562L432.216 291.682L432.606 292.282L432.726 292.752L432.796 293.962L433.186 294.462L433.876 294.512L434.246 294.962H434.446L435.156 294.562L436.876 294.142L437.346 294.692L437.416 295.112L439.116 295.982L439.416 296.852L440.596 299.062L441.606 299.412L442.666 300.032L443.156 300.732L443.496 301.802L443.276 302.602L442.586 303.202L442.116 303.272L441.496 304.212L440.636 304.782L440.016 304.802L439.596 305.152L438.566 304.952L438.076 305.072L437.166 305.542L437.096 305.892L436.846 306.162L436.526 306.182L435.736 305.732L435.166 305.182L433.716 305.232L433.006 305.112L432.586 305.212L431.476 304.712L430.736 303.992L430.366 303.872L429.626 302.972L429.186 302.872L429.036 302.722L429.206 302.372L428.956 301.752L427.916 300.562L427.246 300.362L427.176 300.042H426.706L426.656 299.572L425.376 299.372L425.106 299.442L424.806 298.992L423.586 298.182L423.336 297.882L423.086 297.132H422.766L422.456 297.362L422.236 296.992L421.746 296.792L420.536 296.622L419.696 296.322L418.756 296.722L418.486 297.222L417.476 296.702L417.106 296.802L416.886 296.452L415.336 296.332L414.766 296.432L414.646 296.282L412.646 295.612L412.226 295.312L411.216 293.942L410.546 293.442L410.226 292.892L410.866 291.802L411.436 291.252L412.106 290.852L413.556 290.502L414.686 289.832L414.976 289.902L415.226 290.172L416.236 289.672L416.726 289.602L417.486 289.922H418.546L419.456 289.622L420.716 289.942L421.506 289.422L422.536 289.402L423.276 289.922L424.276 290.142L424.616 290.072L425.206 290.322L425.796 289.772L426.976 289.052L427.546 288.212L427.746 288.162L428.286 289.182L429.186 290.142ZM514.296 282.622L514.496 282.702L514.196 283.332L514.186 283.852L514.416 284.212L514.926 284.462L515.376 284.452L516.046 283.932L516.656 283.762L516.976 283.422L517.256 282.792L517.666 283.242L517.926 283.292L518.536 283.802L518.556 284.652L518.296 285.542L518.446 286.292L517.756 286.372L517.116 286.752L517.086 286.892L516.366 286.332L515.326 286.352L515.046 286.922L514.996 287.312L515.256 288.392L516.226 289.062L516.266 289.642L516.746 290.202L516.906 291.392L515.996 292.042L515.226 292.902L515.056 294.542L514.526 295.102L513.416 295.562L512.906 296.012L511.446 297.872L510.836 298.892L510.166 299.142L509.366 299.932L507.476 301.032L506.826 302.422L505.406 303.492L504.836 303.752L504.356 303.762L500.936 303.472L500.456 303.562L499.996 303.752L499.486 304.262L499.326 304.702L498.546 305.172L498.266 305.542L497.256 305.672L496.066 306.212L495.816 306.522L494.526 306.922H493.756L492.856 307.142L492.316 306.882L492.016 306.892L491.306 307.242L491.036 306.892L490.066 306.512L488.706 307.022L488.746 306.492L488.976 306.302L489.356 305.482L489.226 304.792L489.806 304.572L489.876 303.912L491.366 303.282L491.976 303.242L492.526 302.862L493.526 302.482L494.016 301.622L493.816 301.342L492.806 300.992L492.506 301.112L491.916 301.012L491.496 301.192L491.266 301.542L490.966 301.452L490.846 301.262L490.836 299.452L491.196 298.982L491.476 298.882L491.806 298.972L492.206 298.492L492.316 297.422L491.866 296.762L492.356 296.562L492.546 296.212L492.586 295.572L492.356 294.412L493.556 293.172L494.326 292.862L494.476 292.262L494.776 292.002L494.966 292.022L495.446 291.632L496.066 291.432L496.396 290.832L496.936 290.652L497.026 290.312L497.416 290.032L497.606 289.602L497.936 289.332L498.806 289.272L499.686 290.462L500.146 290.442L500.406 290.762L500.816 290.652L501.016 290.172L501.716 289.752L501.926 289.792L502.756 290.602L503.006 291.212L502.866 292.072L504.076 291.792L504.306 291.292L504.086 290.842L504.636 290.162L504.516 289.912L504.626 289.612L504.796 289.632L505.106 289.232L505.596 289.162L505.736 288.732L506.036 288.582L505.916 288.022L506.116 287.592L506.156 287.002L506.346 286.762L506.316 286.452L506.766 286.572L507.616 286.482L508.496 286.172L510.006 284.962L510.086 284.402L510.876 284.312L511.836 283.612L512.906 283.372L513.426 282.922L514.296 282.622ZM425.346 280.272L424.926 280.252L424.916 279.982L425.176 279.712L425.426 279.852L425.346 280.272ZM423.136 279.992L423.086 280.142L422.486 279.902L422.926 279.682L423.136 279.992ZM422.036 277.362L421.796 277.512L421.646 277.382L421.336 277.432L421.186 277.712L421.456 277.992L421.256 278.002L420.846 277.592L421.906 276.912L422.056 276.982L422.036 277.362ZM422.736 276.582L423.026 276.592L423.016 277.202L423.206 277.892L423.306 277.682L423.776 277.642L423.796 277.402L423.466 277.052L423.866 277.202L424.036 276.742L424.406 276.862L424.756 276.672L425.266 276.662L425.496 276.842L425.376 277.422L424.676 277.552L424.556 277.932L424.336 278.102H424.146L424.106 277.872L423.906 277.882L423.676 278.252L423.596 278.622L424.076 278.802L424.226 279.102L424.176 279.382L423.576 280.052L423.306 280.042L423.266 279.702L423.006 279.442L422.266 279.752L422.056 279.082L422.326 278.222L422.566 278.102L422.976 278.212L422.826 277.712L422.596 277.922L422.446 277.842L422.626 277.732L422.666 277.372L422.236 276.572L422.556 276.442L422.736 276.582ZM469.956 273.422L470.536 273.752L470.646 273.552L470.756 273.732L470.616 274.262L470.186 274.622L469.616 274.462L469.256 274.022L469.306 273.502L469.956 273.422ZM419.736 273.832L419.726 274.302L419.906 274.412L421.056 274.622L421.436 274.432L421.396 275.082L421.546 275.342L421.406 275.362L421.186 275.062L421.096 275.252L421.266 275.512V276.202L421.486 276.302L420.576 276.432V275.952L420.206 275.872L420.156 276.162L419.816 276.492L419.446 276.522L419.626 276.872L419.876 276.842L420.076 276.612L420.126 276.742L419.966 276.992L419.926 277.142L419.796 277.352L419.406 277.292L419.076 277.752L419.456 278.202L419.316 278.572L419.726 278.802L419.206 279.052L418.596 278.572L418.076 278.792L418.166 278.292L418.556 277.962L418.646 277.352L418.606 277.142L418.246 276.862L418.046 276.952L418.286 276.452L418.036 276.202L418.316 275.722L418.516 275.772L418.896 275.572V275.182L419.086 275.142L419.066 274.912L418.746 274.782L419.166 274.482L419.136 274.282L418.936 274.182L418.886 273.712L419.386 273.832L419.446 273.392L419.736 273.832ZM483.536 273.422L483.616 273.742L483.286 274.022L481.956 274.522L481.496 274.502L481.136 274.292L480.416 274.902L479.636 276.352L479.176 276.622L478.766 276.582L478.486 276.112L478.736 275.092L479.816 274.512L479.876 274.012L480.306 273.572L480.696 273.542L481.086 273.772L481.406 273.542H482.776L483.166 273.332L483.536 273.422ZM458.626 271.142L458.826 271.172L459.046 271.662L458.946 272.002L458.686 272.152L457.916 271.902L457.746 272.032L457.666 271.932L457.856 271.792L458.076 271.192L458.386 271.052L458.626 271.142ZM484.426 270.102L484.556 270.192L484.766 269.932L484.986 269.892L485.346 270.202L485.966 270.252L486.556 270.572L486.266 271.042L486.036 271.122L486.096 272.142L485.816 272.742L484.856 272.862L483.806 272.682L481.936 273.122L481.526 272.962L480.756 273.112L480.706 272.392L481.316 271.332L482.516 270.642L483.196 270.052L483.856 270.142L484.286 269.882L484.426 269.922V270.102ZM502.596 272.072L501.756 273.122L501.606 274.192L500.266 275.432L499.236 275.582L499.006 275.422L499.206 274.612L498.656 273.312L497.856 273.272L497.176 273.772L497.166 273.942L496.606 273.782L496.596 273.572L497.076 273.032L497.406 272.052L499.036 271.122L499.546 271.422L499.586 272.092L499.756 272.242L500.146 272.132L500.786 271.462L500.976 271.002L501.636 270.622L502.356 269.402L502.776 269.052L503.416 269.042L503.646 269.232L503.736 269.622L503.296 270.442L503.376 271.422L503.186 271.772L502.596 272.072ZM495.326 269.602L496.326 269.722L496.766 270.352L495.296 270.902L494.666 270.742L493.946 271.022L493.566 271.502L493.496 271.972L492.906 272.572L492.836 272.892L492.436 273.372L492.076 273.332L492.106 273.082L491.956 273.002L491.526 273.012L490.986 273.592L490.516 273.832L490.366 274.212L490.746 274.692L490.856 275.192L490.326 275.812L489.746 275.772L489.466 275.072L489.256 274.982L488.536 275.302L488.066 276.032L487.676 276.142L486.896 275.832L486.696 275.432L486.176 275.152L485.766 275.502L484.886 275.372L484.696 275.612L484.346 275.312L484.376 274.892L484.756 274.882L486.036 273.812L486.466 272.962L487.286 272.692L487.496 272.462L488.276 272.332L488.866 271.912L488.126 271.162L487.706 271.092L486.726 271.262L487.326 270.532L487.776 270.332L488.056 270.572L488.696 270.652L489.176 270.172L489.756 270.062L490.386 270.152L490.506 270.242L490.266 270.492L490.146 270.962L489.396 271.822L489.356 272.092L490.296 272.412L491.006 271.852L490.996 271.532L490.686 271.382L490.676 270.952H491.176L491.106 271.302L491.186 271.462L491.766 270.962L491.596 270.262L491.216 270.132V269.812L491.916 269.722L492.146 269.842L492.106 270.242L492.816 270.392L492.946 270.242L492.826 269.782L494.346 268.852L495.326 269.602ZM507.036 268.082L508.476 268.182L508.296 268.512L508.276 269.202L508.526 269.362L509.356 268.862L511.036 268.542L512.366 268.802L513.826 268.832L514.596 268.472L515.436 268.652L516.076 268.502L517.006 268.552L517.706 269.942L517.626 271.082L517.746 271.592L517.366 271.922L516.446 272.172L513.446 272.292L511.876 272.902L510.796 272.972L509.436 272.812L508.366 273.502L507.486 273.702L507.226 273.392L506.666 273.262L505.456 273.972L505.296 273.942L505.226 273.632L504.346 273.732L503.956 273.352L503.986 273.002L504.086 272.692L505.036 271.552L505.086 271.172L505.496 271.042L506.286 270.402L506.926 270.322L507.466 269.992L507.306 269.862L506.646 269.982L505.056 270.772L505.136 270.292L504.966 269.912L505.926 268.622L506.276 268.252L507.036 268.082ZM479.506 267.822L480.286 268.332L480.316 268.772L480.116 269.332L480.396 269.662L480.446 270.262L481.126 270.952L481.146 271.362L480.436 272.042L480.146 272.092L479.476 271.712L479.266 271.782L478.686 272.632L478.916 273.202L478.796 273.802L478.336 273.872L477.816 273.512L477.196 273.342L477.036 273.492L477.146 274.362L478.026 275.292L478.076 275.892L477.866 276.262L476.986 276.602L476.146 276.592L476.036 277.002L475.826 276.842H474.996L474.156 277.362L473.886 277.282L473.646 277.482L473.166 277.552L472.586 278.292L470.616 278.942L469.856 279.022L469.326 278.822L468.246 279.082L467.536 278.852L466.846 278.972L466.496 278.652L465.446 278.692L465.006 278.822L464.706 279.252L464.486 279.292L463.986 279.792L462.096 280.462L461.136 280.482L460.916 280.782L459.726 281.262L458.856 281.192L458.336 280.782L457.816 280.712L457.626 280.852L457.686 281.302L457.536 281.652L457.286 281.722L456.976 281.582L457.296 280.552L456.696 280.312L456.206 279.912L455.466 280.062L452.946 279.742L452.706 279.782L452.536 280.382L452.596 281.232L452.166 281.652L451.596 281.822L450.886 281.432L449.526 281.572L449.236 281.422L447.656 282.022L446.736 282.632L446.306 282.612L444.836 282.122L443.916 281.372L443.636 280.572L443.396 280.482L442.586 280.662L442.246 281.412L441.786 281.532L440.836 281.142L440.026 281.082L439.136 280.182L436.536 280.202L435.756 280.342L435.516 280.212L434.286 280.842L433.986 280.662L433.696 280.822L432.546 280.522L431.736 279.682L431.406 279.632L429.176 280.242L428.306 280.362L427.886 280.272L427.526 280.652V280.972L427.316 281.042L426.896 280.912L427.026 280.642L426.866 280.552L426.876 280.092L426.076 280.022L425.926 279.712L425.406 279.272L425.346 278.902L425.356 278.652L425.446 278.302L425.346 278.072L425.576 277.612L425.586 276.492L425.366 276.392L425.456 276.062L425.936 275.542L425.886 275.392L426.386 275.222L426.706 274.852L426.786 274.302L426.446 273.862L426.376 273.472L426.796 273.432L426.836 274.012L427.136 274.072L427.246 274.242L427.726 273.922L427.966 273.932L428.366 273.512L428.866 273.982L429.106 273.622L428.856 273.482L428.876 273.242L429.226 272.682L429.736 272.722L429.976 272.552L430.186 272.562L430.326 272.992L430.546 273.172L430.366 273.532L430.746 273.572L430.956 273.182L430.966 272.182L431.596 272.472L431.846 272.042H431.996L432.326 271.302L432.566 271.342L433.056 271.192L433.296 270.942L433.786 270.902L434.496 270.872L435.276 271.072L435.986 270.822L436.056 270.352L436.246 270.182L436.706 270.562L436.696 270.892L437.096 271.132L437.946 270.802L438.456 271.092L439.176 271.102L439.346 270.882L439.106 270.612L439.216 270.412L439.966 270.762L440.696 271.652L441.186 271.612L441.616 271.992L442.786 271.842L443.686 272.132L444.836 272.122L445.366 271.942L445.866 272.012L445.836 272.362L445.966 272.492L446.466 272.462V272.822L446.676 273.212L447.386 273.112L448.036 273.392L448.666 273.432L449.046 273.692L449.476 273.612L450.226 274.072L451.006 274.172L451.496 274.382L452.246 275.592L453.466 276.152L454.316 275.702L454.566 276.012L454.896 276.142L455.106 276.672L455.616 276.072L456.226 275.872L455.976 275.652L455.966 275.302L456.136 275.242L456.786 275.662L456.566 275.232L456.666 274.412L456.876 274.192L457.316 274.302L457.286 274.662L457.686 274.552L457.926 274.872L458.786 274.562L459.676 274.652L459.956 274.842L460.466 274.642L460.756 274.332L461.036 274.552L461.926 274.592L462.206 274.422L462.746 273.682L462.686 274.182L463.196 273.742L463.686 273.622L463.916 273.682L463.646 274.492L463.736 275.162L464.656 275.052L464.946 275.412L465.256 275.162L466.216 275.612L467.426 276.822L468.576 277.102L469.176 276.722L469.706 276.622L471.206 276.462L471.626 276.562L472.386 275.512L472.346 275.122L471.736 274.582L471.956 274.242L473.076 273.922L473.376 273.452L473.696 273.362L473.836 272.812L474.106 272.882L474.396 272.612L474.926 272.762L476.126 272.222L476.676 272.322L477.436 271.212L478.546 271.092L478.906 270.862L479.266 269.742L479.696 269.482L479.086 269.142L478.456 269.132L477.516 269.442L477.106 270.122L476.126 269.932L476.096 269.802L476.566 269.402L476.986 268.662V267.892L477.806 267.682L478.426 267.152L479.506 267.822Z" fill="white"/>
<path d="M506.316 286.442L506.346 286.752L506.156 286.992L506.116 287.582L505.916 288.012L506.036 288.572L505.736 288.722L505.596 289.152L505.106 289.222L504.796 289.622L504.626 289.602L504.516 289.902L504.636 290.152L504.086 290.832L504.306 291.282L504.076 291.782L502.866 292.062L503.006 291.202L502.756 290.592L501.926 289.782L501.716 289.742L501.016 290.162L500.816 290.642L500.406 290.752L500.146 290.432L499.686 290.452L498.806 289.262L500.646 288.592L501.206 287.892L503.066 287.192L506.316 286.442ZM554.326 274.272L551.566 276.482L550.256 277.822L546.316 279.122L544.006 279.462L542.716 280.082L541.996 280.782L541.656 281.622L540.856 282.512L538.256 282.942L535.296 283.202L531.666 285.582L529.966 285.652L528.886 285.932L522.166 288.112L521.046 288.772L518.996 290.742L517.576 290.952L516.886 291.412L516.726 290.222L516.246 289.662L516.206 289.082L515.236 288.412L514.976 287.332L515.026 286.942L515.306 286.372L516.346 286.352L517.066 286.912L517.096 286.772L517.736 286.392L518.426 286.312L518.276 285.562L518.536 284.672L518.516 283.822L517.906 283.312L517.646 283.262L517.236 282.812L516.956 283.442L516.636 283.782L516.026 283.952L515.356 284.472L514.906 284.482L514.396 284.232L514.166 283.872L514.176 283.352L514.476 282.722L514.276 282.642L514.826 282.242L516.946 279.192L517.226 277.822L517.846 277.022L519.306 276.592L522.676 275.932L527.596 275.212L529.946 274.362L531.566 274.472L532.406 274.692L533.016 275.032L533.966 275.102L536.656 274.662L537.586 274.282L538.816 273.432L539.746 273.372L541.356 273.852L541.996 274.392L542.386 274.432L545.986 273.352L548.186 272.242L550.026 271.622L553.376 271.772L555.186 272.882L555.206 273.522L554.326 274.272Z" fill="white"/>
</g>
<defs>
<clipPath id="clip0_85_471">
<rect width="792.546" height="316.664" fill="white" transform="translate(0 0.984375)"/>
</clipPath>
</defs>
</svg>
