<svg width="793" height="318" viewBox="0 0 793 318" fill="none" xmlns="http://www.w3.org/2000/svg">
<path d="M199.166 232.592L198.566 232.842L198.526 233.962L199.136 234.292L199.116 234.962L199.506 235.042L199.666 235.772L200.106 236.532L200.066 236.682L199.886 237.292L196.976 237.312L196.676 236.952L195.656 236.682L195.556 236.742L195.856 236.902L195.866 237.152L195.326 237.192L195.116 236.542L194.786 236.442L194.116 237.082L194.556 238.482L194.306 238.812L193.686 238.902L193.576 239.862L194.136 241.102L194.046 242.832L194.156 243.172H194.316L194.756 243.652L194.966 243.622L195.516 244.282L195.146 244.532L195.116 244.802L194.176 245.242L194.096 245.952L193.446 246.642L193.546 247.082L193.366 247.262L193.526 248.022L193.036 248.212L192.026 248.262L191.936 247.982L191.276 247.952L191.216 247.722L190.846 247.622L190.876 247.192L189.966 246.762L189.416 246.742L188.876 246.352L188.416 246.252L187.716 245.442L187.176 245.212L185.736 245.092L182.796 245.702L181.296 245.512L179.176 245.842L178.776 246.132L178.076 245.942L177.736 246.062L177.126 245.512L176.816 245.462L176.666 245.772L176.476 245.782L176.546 245.522L175.976 245.142L174.826 244.902L174.506 244.972L174.306 245.402L173.976 245.682L173.566 245.582L173.416 244.582L173.206 244.302H173.046L172.976 244.042L173.956 244.112L174.286 243.662L175.086 243.082L174.966 242.652L175.796 242.252L176.366 243.522L176.186 243.572L176.116 243.802L176.616 244.132L176.936 244.662L176.986 245.102L177.296 245.352L177.506 245.312L178.026 244.682L178.166 243.692L179.216 242.832L179.286 242.432L179.646 242.292L179.966 241.872L180.186 241.162L180.096 240.362L180.636 239.422L181.036 239.112L181.166 239.592L180.986 239.832L181.396 240.152L181.736 240.212L182.756 240.002L183.456 239.042L183.626 238.462L183.706 235.382L184.316 233.132L184.706 232.892L184.676 232.282L185.426 231.812L185.696 231.412L186.476 230.772L186.656 229.902L186.386 229.952L187.256 229.112L187.996 229.002L188.556 229.652L188.536 230.942L189.556 231.492L189.816 231.522L190.576 231.172L190.836 230.882L190.956 230.392L191.186 230.222L192.056 230.512L192.176 230.712L192.466 230.802L192.866 230.392L193.136 230.652L193.456 230.682L193.366 230.832L193.596 231.352L194.086 231.612L194.466 231.542L195.196 231.772L195.926 231.242L196.416 231.552L197.346 231.382L197.556 231.222L197.986 231.472L198.476 231.322L198.946 231.782L198.856 231.902L199.166 232.592Z" fill="white"/>
<path d="M205.666 229.932L206.436 230.732L206.856 230.812L209.056 230.312L209.966 230.572L210.846 231.512L212.066 233.572L213.676 234.192L214.736 234.322L215.596 235.262L216.016 234.922L216.236 235.062L216.726 235.032L218.036 234.242L218.656 234.262L218.776 234.682L219.386 234.352L219.536 234.622L219.256 234.612L219.336 235.112L220.416 235.492L221.836 236.302L223.446 236.792L224.446 236.172L224.866 235.702L224.796 235.322L224.446 234.982L224.816 235.042L225.086 235.322L226.426 235.292L227.056 235.742L227.136 235.252L227.276 235.182L227.566 235.582L227.726 236.122L227.606 236.292L227.886 237.122L229.226 238.622L230.586 239.432L230.736 240.632L230.646 241.202L231.016 243.052L231.666 244.202L232.256 244.352L232.536 244.012L233.016 244.272L233.096 244.842L234.266 245.122L235.196 244.662L235.246 244.292L234.936 244.182L235.166 243.912L235.636 243.882L235.566 245.352L235.006 246.202L234.756 246.312L234.326 246.892L234.486 247.392L234.436 248.042L235.086 248.412L235.046 248.772L234.776 249.002L234.876 249.312L234.706 249.682L234.756 250.052L234.476 250.312L233.816 250.362L233.336 250.942L232.756 251.002L232.416 250.692L232.076 250.702L231.096 251.182L231.076 251.752L231.356 252.022V252.532L230.886 253.342L230.976 254.162L231.156 254.142L231.366 254.382L232.536 254.292L233.046 254.772L233.156 255.252L233.706 255.842L233.576 256.302L233.676 256.742L233.976 257.112L234.316 258.052L234.236 258.572L233.946 259.012L234.636 259.742L235.126 259.992L234.446 260.422L233.926 260.122L233.186 260.062L232.716 260.372L232.676 260.512L233.006 260.862L232.866 260.992L232.506 260.772L232.376 260.262L231.326 260.222L230.406 260.432L230.006 260.822L229.926 261.942L229.476 262.262L228.856 262.502H227.166L222.696 261.732L221.156 261.212L219.696 261.032L218.656 261.102L218.476 261.002L218.376 260.532L217.926 260.252L217.436 260.042L215.936 259.882L215.606 259.152L214.386 258.282L212.206 257.492L211.846 257.182L210.536 256.932L207.966 256.742L205.956 256.212L196.486 255.552L195.616 255.302L195.126 254.832L194.266 254.552L193.716 254.742L193.696 254.392L193.226 253.332L193.236 252.532L193.806 251.622L194.686 251.432L194.446 250.912L194.546 250.542L195.036 250.122L195.486 249.952L196.116 249.102L196.046 248.192L195.536 247.682L194.306 247.532L193.836 247.702L193.526 248.022L193.366 247.262L193.546 247.082L193.446 246.642L194.096 245.952L194.176 245.242L195.116 244.802L195.146 244.532L195.516 244.282L194.966 243.622L194.756 243.652L194.316 243.172H194.156L194.046 242.832L194.136 241.102L193.576 239.862L193.686 238.902L194.306 238.812L194.556 238.482L194.116 237.082L194.786 236.442L195.116 236.542L195.326 237.192L195.866 237.152L195.856 236.902L195.556 236.742L195.656 236.682L196.676 236.952L196.976 237.312L199.886 237.292L200.066 236.682L200.106 236.532L200.626 236.482L200.386 237.162L200.506 237.312L201.406 237.062L202.256 237.552L202.436 237.502L202.646 236.552L202.436 236.182L202.386 235.622L203.016 235.452L203.426 234.592L203.486 232.602L203.856 232.542L204.036 232.292L203.786 231.882L204.206 231.602L204.046 231.382L203.876 231.472L203.826 231.132L204.136 230.872L204.246 230.212L204.076 229.982L203.786 230.052V229.962L204.386 229.552L205.666 229.932Z" fill="white"/>
<path d="M313.036 273.452L313.686 273.582L314.546 273.532L315.026 273.832L314.856 274.202L313.846 274.442L312.866 274.492L312.416 274.302L312.446 273.782L312.796 273.642L312.876 273.372L313.036 273.452ZM355.656 250.232L356.196 250.412L356.126 250.672L356.356 250.872L356.876 250.932L356.976 251.142H357.236L357.406 251.002V250.632L357.816 250.452L357.806 250.222L358.076 250.092L357.806 251.642L357.506 251.872L356.716 251.932L355.416 251.292L355.246 250.962L355.526 250.522L355.366 250.072L355.506 249.832L355.656 250.232ZM331.856 251.422L331.576 251.482L330.876 251.292L330.086 250.742L329.766 250.122L329.996 249.552L330.846 249.292L331.336 249.632L332.076 251.142L331.856 251.422ZM353.546 247.802L354.116 248.132L354.276 248.502L353.726 248.302L353.146 248.442L352.666 248.262L352.606 247.922L352.326 247.892L352.216 247.622L352.476 247.292L353.546 247.802ZM325.116 246.322L326.876 247.232L327.196 248.002L326.626 247.982L326.266 248.302L325.736 248.492L324.506 248.572L324.166 248.852L323.716 248.642L323.506 248.772L324.106 249.052L324.526 249.522L325.966 249.602L326.196 250.262L324.596 250.072L323.956 249.602L324.046 249.282L323.616 249.092L323.046 249.542L322.916 249.822L322.876 249.992L323.126 250.102L323.236 250.422L323.126 250.652L319.536 250.222L318.936 250.602L318.726 250.512L318.146 250.622L317.726 251.092L317.306 252.302L316.626 252.752L316.416 252.582L316.546 252.492L316.466 252.322L315.706 252.172L312.576 252.062L312.276 252.232L311.006 252.272L310.706 251.782L310.366 251.842L310.346 251.612L310.556 251.352L310.216 251.052L309.836 251.502L310.006 251.882L310.386 252.222L309.456 252.312L305.906 251.442L305.416 251.162L303.926 251.072L303.526 251.322L302.866 251.342L302.416 250.982L302.646 250.042H302.366L302.106 249.362L302.316 248.892L302.916 249.042L304.146 248.022L304.746 247.132L304.706 246.792L305.766 246.412L307.356 246.392L308.036 246.242L309.676 246.452L315.266 246.392L316.456 246.562L319.916 246.312L321.066 246.372L323.636 245.992L325.116 246.322ZM347.376 245.392L349.586 245.552L350.546 245.882L352.036 246.722L352.276 247.162L351.836 247.762L351.406 247.502L350.956 247.532L350.526 247.102L349.506 247.262L349.176 246.882L348.766 246.942L348.666 247.082L348.166 247.022L348.236 247.252L348.946 247.582L349.326 248.132L348.166 248.262L347.896 247.882L347.716 247.892L347.486 248.022L347.516 248.402L347.256 248.482L346.586 247.842L347.056 247.302L346.746 247.402L345.906 247.322L345.766 247.012L345.946 246.392L346.446 246.302L346.686 245.972L346.696 245.792L346.266 245.562L346.356 245.462L346.686 245.302L347.376 245.392ZM285.986 244.382L286.486 244.432L287.316 244.842L287.946 244.862L288.876 244.632L289.576 244.232L290.016 244.282L291.166 246.182L291.556 246.472L292.466 246.592L293.356 246.542L294.386 246.112L294.856 246.232L296.156 245.982L297.406 246.152L297.656 246.012L298.186 246.162L298.776 246.612L299.436 246.742L299.806 246.282L299.576 245.992L299.856 245.812L299.806 245.472L300.206 245.812L300.326 245.742L300.346 246.052L300.626 246.442L300.916 246.432L301.126 246.712L300.996 246.982L300.776 246.892L300.756 247.162L301.076 248.172L301.686 248.622L301.776 249.172L301.396 249.612L301.246 250.402L302.026 251.112L302.066 251.492L301.776 251.672V251.962L302.046 252.142L302.676 252.182L302.846 251.792L303.656 251.702L304.016 251.972L304.406 252.682L305.106 253.242L305.086 253.742L304.866 254.002L305.066 254.102L304.906 255.272L304.966 256.542L304.596 256.602L304.936 257.202L305.406 257.352L305.546 257.572L305.406 258.432L305.606 258.482L305.856 258.972L306.646 259.252L306.886 259.072L307.256 259.482L307.736 259.712L308.136 259.542L308.586 259.652L309.326 260.492L310.756 261.222L311.466 261.082L312.136 261.192L312.726 261.892L313.116 261.672L313.376 261.742L313.886 261.542L314.266 261.152L314.856 261.092L316.506 260.432L317.336 260.662L317.836 260.602L319.386 261.042L320.136 260.622L320.796 261.092L321.026 261.072L321.526 260.922L321.956 260.402L322.536 260.132L323.796 260.442L324.866 259.352L325.726 258.922L326.286 259.312L326.876 260.542L327.036 260.612L328.636 260.732L329.286 260.422L330.136 261.222L331.686 261.482L332.676 262.082L333.126 262.712V263.632L332.346 264.322L332.546 265.622L332.536 266.742L332.116 267.532L332.026 268.302L331.716 268.962L331.816 269.702L331.446 270.492L331.026 272.712L330.976 273.292L331.396 274.132L331.176 274.792L331.406 275.002L331.576 274.912L331.756 274.052L331.666 273.502L331.786 273.432L331.986 273.652L331.966 274.152L332.166 274.672L332.046 275.242L332.416 276.192L332.896 276.772L333.376 276.392L333.996 276.992L334.976 277.152L335.566 278.052L335.316 278.832L334.976 279.102L334.276 279.262L332.646 278.712L331.576 278.742L331.096 278.622L331.036 278.392L331.486 278.172L331.606 277.842L331.446 277.272L330.836 276.652L329.616 276.102L329.076 276.152L328.926 276.332L328.966 276.802L328.806 276.902L326.866 276.392L325.806 276.692L325.546 276.512V276.052L325.256 275.932L324.986 276.092L324.956 276.302L324.346 276.352L324.116 276.102L324.486 276.002L324.506 275.742L324.226 275.412H323.936L323.616 275.752L323.036 275.422L322.196 275.282L322.216 274.872L321.916 275.212L321.756 275.182L321.776 274.332L321.576 274.222L320.916 274.452L320.756 274.722L320.526 274.812L320.306 274.702L320.166 274.832L320.076 274.772L320.246 274.342L320.116 274.092L319.746 274.372L319.546 274.202L319.376 274.322L318.586 273.402L318.156 273.242L317.756 273.302L317.816 273.182L317.646 273.062L317.376 273.212L316.856 273.142L316.076 272.772L316.056 272.362L315.686 272.202L315.086 272.262L314.486 272.622L313.836 271.552L313.546 271.302L312.746 270.772L311.816 270.542L310.946 270.482L308.266 270.932L307.246 271.532L306.906 272.142L306.386 272.562L302.736 273.062L302.816 273.562L302.426 273.692L301.216 273.062L300.146 272.732L298.136 272.562L297.676 272.282H297.216L296.386 271.672L295.626 271.452L295.036 271.762L294.426 271.672L293.856 271.362L291.326 271.272L290.866 271.182L290.586 270.872L290.116 270.672L289.486 270.572L289.386 270.692L289.496 270.912H288.716L288.006 270.322L287.786 270.302L287.666 270.552L287.016 270.382L286.966 270.222L286.556 270.322L286.646 271.382L286.336 271.562L286.006 271.522L286.116 271.192L285.896 270.802L285.556 270.812L285.476 270.972L285.676 271.322L285.296 271.332L285.196 271.542L285.586 271.872L285.656 272.112L285.156 272.242L284.846 272.222L284.686 271.942L283.936 271.862L284.076 271.662L284.006 271.332H283.786L283.746 271.462L283.416 271.372L283.266 271.552L282.986 271.482L282.966 271.112L282.656 271.042L282.416 271.502L281.126 271.192L280.956 270.412L280.626 270.212L279.966 270.582L277.466 270.052L276.946 270.402L275.706 270.512L274.876 269.932L274.836 269.592L274.556 269.572L274.476 270.022L273.476 270.132L271.516 269.482L271.396 268.662L271.646 267.752L272.346 266.832L273.606 267.162L274.446 266.552L274.996 266.862L275.436 266.162L275.366 265.102L275.646 264.912L275.606 264.612L275.786 264.432L276.426 264.272L276.496 264.552L276.916 264.492L277.186 264.822L277.486 264.732L278.106 264.052L278.286 263.352L278.596 263.112L278.016 261.802L278.116 261.242L277.156 261.282L276.326 260.602L276.426 260.222L276.356 259.452L276.536 258.832L275.896 258.412L275.706 257.612L275.736 256.972L275.466 256.642L275.166 255.622L275.626 254.652L275.566 254.162L275.716 253.742L275.536 253.622L275.726 252.912L275.816 252.782L276.146 252.882L276.546 252.752L276.636 252.572L276.846 252.602L277.306 253.162L278.466 253.582L279.206 254.082L280.346 254.352L280.596 254.652L280.996 254.782L281.086 254.512L280.786 254.362L280.946 253.812H280.486L280.846 252.922L281.056 252.712L281.206 252.812L281.426 252.632L281.526 252.722L282.476 252.222L283.156 251.522L283.806 250.242L283.746 249.742L283.956 249.412L283.746 248.512L283.936 248.062L282.956 247.392L283.256 246.872L283.656 246.712L283.896 245.362L284.566 245.272L284.716 245.062L284.676 244.452L284.836 244.272L285.016 244.422L285.216 244.082L285.606 244.352L285.986 244.382ZM302.656 226.402L303.046 226.502L303.036 226.802L303.306 227.332L303.126 228.152L302.366 228.542L301.736 228.492L301.566 228.352L301.206 228.522H300.736L300.446 228.002L300.716 227.112L301.036 227.062L301.106 226.692L301.456 226.472L301.746 226.352L302.136 226.442L302.356 226.102L302.656 226.402Z" fill="white"/>
<path d="M173.986 240.182L173.726 240.672L173.886 241.402L173.586 242.012L172.946 242.242L172.526 242.812L172.316 242.532L172.696 242.082L172.726 241.682L172.396 241.422L172.416 241.002L172.136 241.042L171.596 241.532L171.546 241.842L171.286 241.682L171.566 241.092L172.556 240.342L173.076 240.462V240.202L173.566 240.222L173.826 240.062L173.986 240.182ZM199.556 232.772L201.356 233.112L202.086 232.702L203.486 232.612L203.426 234.592L203.016 235.452L202.376 235.622L202.436 236.182L202.646 236.552L202.436 237.502L202.256 237.562L201.406 237.072L200.506 237.322L200.396 237.162L200.636 236.482L200.106 236.542L199.666 235.782L199.506 235.052L199.116 234.972L199.136 234.312L198.526 233.982L198.556 232.862L199.156 232.602L199.556 232.772Z" fill="white"/>
<path d="M285.206 244.082L285.006 244.422L284.826 244.272L284.666 244.452L284.706 245.062L284.556 245.272L283.896 245.362L283.656 246.712L283.256 246.872L282.956 247.392L283.936 248.062L283.746 248.502L283.956 249.412L283.746 249.732L283.806 250.242L283.156 251.512L282.466 252.222L281.516 252.722L281.416 252.632L281.196 252.812L281.046 252.712L280.836 252.912L280.486 253.802H280.946L280.776 254.352L281.076 254.502L280.986 254.772L280.586 254.642L280.336 254.342L279.196 254.072L278.456 253.572L277.296 253.152L276.836 252.592L276.626 252.562L276.536 252.742L276.136 252.872L275.816 252.772L275.726 252.902L275.536 253.612L275.706 253.732L275.556 254.152L275.616 254.642L275.156 255.602L275.456 256.632L275.726 256.952L275.696 257.592L275.886 258.392L276.526 258.812L276.346 259.432L276.416 260.212L276.316 260.582L277.146 261.272L278.106 261.222L278.006 261.792L278.586 263.092L278.276 263.332L278.096 264.032L277.476 264.722L277.176 264.802L276.906 264.482L276.496 264.542L276.416 264.252L275.786 264.422L275.606 264.602L275.646 264.892L275.366 265.092L275.446 266.142L274.996 266.842L274.446 266.532L273.606 267.142L272.336 266.812L271.646 267.732L271.396 268.642L271.516 269.462L270.326 269.172L270.366 268.672L270.246 268.622L270.066 268.802L269.986 268.692L270.226 268.082L270.006 268.072L269.686 268.452L269.456 268.272L269.506 267.522L268.936 265.912L269.166 265.362L269.146 264.262L269.436 263.422L269.486 262.532L269.196 262.362L268.956 262.632L268.586 262.172L268.266 262.042L268.096 262.262L267.686 262.312L267.496 261.982L267.256 262.212L267.116 262.072L266.016 262.302L265.806 261.962L265.576 261.872L265.216 262.102L264.786 261.702L264.466 261.642L263.656 257.752L261.266 259.632L260.696 260.402L260.436 260.262L260.466 259.672L260.266 259.502L259.976 259.622L258.716 259.492L258.106 259.652L257.926 260.082L258.246 260.362L258.126 261.242L257.786 261.752L257.526 261.852L257.326 262.272L256.926 262.512L256.616 263.792L256.036 263.762L254.346 263.142L250.726 262.152L247.386 261.622L246.926 261.442L245.736 261.702L245.276 261.362L245.446 260.862L243.576 260.442L240.496 260.212L239.726 260.332L239.136 260.682L238.976 260.982L238.886 261.362L239.076 261.602L239.356 261.512L239.476 261.672L239.286 261.912L235.576 261.112L235.076 261.202L234.906 260.902L235.086 260.632L234.836 260.552L235.136 260.242L235.596 260.172L235.776 259.932H236.176V259.782L235.956 259.692L235.126 259.992L234.636 259.742L233.946 259.012L234.236 258.572L234.316 258.052L233.976 257.112L233.676 256.742L233.576 256.302L233.706 255.842L233.156 255.252L233.046 254.772L232.536 254.292L231.366 254.382L231.156 254.142L230.976 254.162L230.886 253.342L231.356 252.532V252.022L231.076 251.752L231.096 251.182L232.076 250.702L232.416 250.692L232.756 251.002L233.336 250.942L233.816 250.362L234.476 250.312L234.756 250.052L234.706 249.682L234.876 249.312L234.776 249.002L235.046 248.772L235.086 248.412L234.436 248.042L234.486 247.392L234.326 246.892L234.756 246.312L235.006 246.202L235.566 245.352L235.636 243.882L235.736 244.122L235.636 244.382L235.926 244.432L236.176 244.882L237.806 245.352L238.046 244.952L238.396 244.932L239.086 244.462L239.386 244.532L239.726 244.142L239.866 245.032L240.526 245.652H241.396L241.856 245.932L243.076 246.112L243.836 246.102L244.456 245.902L244.876 245.982L245.866 245.722L246.896 245.152L247.586 244.502L248.546 245.522L250.026 245.692L253.776 246.902L254.656 246.812L255.296 246.982L256.056 246.922L258.386 246.152L258.776 245.882L258.866 245.632L259.626 245.872L260.126 246.692L260.996 247.012L261.326 247.282L262.336 247.592L263.466 247.342L263.586 247.572L264.196 247.342L264.186 246.912L264.656 246.232L264.886 245.492L265.476 245.012L265.856 244.242L265.306 244.202L265.156 243.972L265.556 244.042L265.306 243.582L265.666 243.502L265.926 243.662L266.336 243.362L266.966 242.522L266.896 241.702L267.136 241.622L267.226 240.842L267.116 240.672L267.666 240.052L267.376 239.732L267.656 239.622L268.356 238.772L269.426 238.402H269.916L270.266 238.122L271.506 237.992L272.366 238.202L272.836 238.042L273.926 238.392L274.956 241.482L275.606 242.342L276.636 242.572L277.336 242.942L279.646 243.172L281.046 242.562L281.226 242.072L281.716 241.802L282.006 242.012L282.386 241.922L283.086 242.212L285.206 244.082Z" fill="white"/>
<path d="M270.326 269.172L268.286 269.082L262.436 266.952L262.026 266.622L261.776 266.142L259.806 265.522L257.326 264.242L256.036 263.762L256.616 263.792L256.926 262.512L257.326 262.272L257.526 261.852L257.786 261.752L258.126 261.242L258.246 260.362L257.926 260.082L258.106 259.652L258.716 259.492L259.976 259.622L260.266 259.502L260.466 259.672L260.436 260.262L260.696 260.402L261.266 259.632L263.656 257.752L264.466 261.642L264.786 261.702L265.216 262.102L265.576 261.872L265.806 261.962L266.016 262.302L267.116 262.072L267.256 262.212L267.496 261.982L267.686 262.312L268.096 262.262L268.266 262.042L268.586 262.172L268.956 262.632L269.196 262.362L269.486 262.532L269.436 263.422L269.146 264.262L269.166 265.362L268.936 265.912L269.506 267.522L269.456 268.272L269.686 268.452L270.006 268.072L270.226 268.082L269.986 268.692L270.066 268.802L270.246 268.622L270.366 268.672L270.326 269.172Z" fill="white"/>
</svg>
