<svg width="793" height="317" viewBox="0 0 793 317" fill="none" xmlns="http://www.w3.org/2000/svg">
<g clip-path="url(#clip0_85_431)">
<path d="M755.556 272.478L753.046 272.338L750.236 271.848L749.876 271.668L749.666 271.098L749.746 270.888L752.476 268.498L754.186 268.018L754.416 268.068L754.686 268.948L755.966 271.658L755.986 271.998L755.556 272.478ZM750.666 269.748L748.066 271.878L746.796 272.448L745.416 272.728L744.946 272.678L744.556 272.358L743.906 272.178L737.946 271.778L735.096 272.468L734.586 272.818L734.086 272.878L733.846 272.458L733.906 271.938L735.526 267.708L738.596 261.778L740.556 258.818L741.086 258.248L744.066 256.148L746.506 255.188L751.286 254.298L753.406 254.408L754.196 254.628L754.566 254.958L755.646 256.768L756.236 257.388L757.556 257.638L758.176 258.618L757.216 261.318L756.036 263.208L755.496 265.938L754.926 266.668L753.776 267.728L751.786 268.168L750.666 269.748ZM751.106 243.238L751.716 243.738L753.016 243.978L753.836 245.188L752.846 245.808L752.096 245.528L750.936 243.998L750.806 243.488L751.106 243.238ZM710.716 156.418L713.576 156.988L719.536 157.428L721.126 158.098L721.216 158.258L720.786 158.718L717.566 159.268L715.026 160.098L709.416 159.598L705.396 158.638L704.506 157.988L703.476 157.538L700.926 156.768L699.906 156.568L698.776 156.648L696.686 156.308L695.606 155.028L696.536 154.748L697.706 155.128L708.786 155.918L710.716 156.418ZM755.186 161.088L756.386 161.098L758.346 161.758L764.596 164.618L771.056 167.978L772.846 168.238L775.396 167.928L776.676 167.318L777.666 167.378L777.836 167.918L778.526 168.768L780.436 169.648L781.356 169.478L781.456 169.208L783.116 169.238L785.786 169.628L787.356 170.188L787.696 170.448L787.816 170.858L787.566 171.488L787.096 171.978L786.986 172.328L787.446 172.708L789.116 172.238L791.596 172.138L792.206 172.188L792.266 172.308V236.418L791.586 236.488L790.916 238.458L791.316 238.968L791.246 239.308L790.326 241.058L789.796 241.588L789.726 242.398L789.936 244.268L790.486 245.468L791.296 246.298L791.846 246.348L792.276 246.118L792.296 284.908L791.206 284.228L790.036 283.908L789.436 283.488L787.976 281.638L785.406 279.248L783.586 276.278L778.836 272.218L775.766 269.968L774.616 268.658L774.436 268.368L774.556 267.688L775.936 266.538L777.186 264.248L777.426 263.318L775.796 264.028L775.516 265.198L775.566 266.248L774.276 266.988L773.416 267.298L769.896 267.288L768.306 267.478L766.726 268.388L764.806 268.848L763.906 268.898L763.206 268.818L762.336 268.268L761.336 266.868L759.016 267.748L757.106 269.148L756.506 270.438L756.006 270.498L754.936 268.448L754.736 267.578L755.906 265.968L756.026 263.808L756.226 263.588L757.426 263.018L757.666 262.198L757.626 261.158L758.516 258.928L759.176 258.228L759.196 257.718L758.756 257.278L757.676 256.878L756.426 256.008L755.796 254.558L755.186 253.808L753.476 252.678L751.866 251.858L751.716 251.458L751.926 251.318L756.426 251.488L757.466 252.118L758.426 252.338L760.596 252.118L761.406 250.798L760.596 251.158L760.346 251.498L758.286 251.688L754.916 250.658L753.206 249.878L750.316 247.328L750.006 246.928L749.986 246.378L750.596 245.888L751.396 245.868L752.346 246.198L753.076 246.218L754.176 245.508L755.976 245.288L757.256 245.728L758.376 246.848L759.396 247.488L759.906 247.628L760.766 247.438L759.766 247.208L759.066 246.838L757.826 245.718L757.296 245.418L756.446 245.088L755.496 244.968L752.026 243.148L751.766 242.058L752.426 241.868L751.936 241.208L748.556 237.968L747.796 236.958L747.286 235.818L746.966 234.718L747.016 233.868L746.536 232.428L745.336 230.208L745.356 228.188L743.876 227.778L743.116 227.118L743.526 226.518L746.296 225.168L746.116 225.018L745.646 225.008L744.036 225.258L743.046 225.828L741.696 226.208L741.446 226.058L741.126 224.258L741.486 220.998L741.346 220.498L740.846 221.378L739.326 220.808L736.376 218.868L735.886 218.278L734.376 217.298L733.436 217.048L732.856 216.688L732.776 216.488L733.176 216.128L731.876 216.118L729.986 215.268L728.176 213.958L727.556 213.218L726.556 213.658L722.976 212.648L719.846 212.238L719.436 211.818L716.536 210.478L711.836 207.978L710.076 207.998L706.216 206.438L705.746 206.018L705.126 205.098L704.366 204.788L702.166 204.678L700.836 204.838L695.666 203.718L694.006 203.858L692.326 204.238L691.366 203.898L687.666 201.788L686.036 201.098L687.676 198.728L688.736 197.918L689.386 196.538L690.446 194.908L692.736 192.068L691.836 191.658H691.346L690.126 191.088L687.266 190.198L684.246 188.978L677.796 187.108L675.836 186.138L674.446 185.728L675.586 183.208L676.566 181.988L678.196 181.018L678.436 180.208V179.068L679.986 178.258L682.466 175.988L683.076 178.478L683.546 178.838L684.256 178.688L684.926 178.208L685.016 177.708L685.326 177.338L685.776 177.378L685.896 178.028L685.716 179.238L685.226 179.688L685.056 181.118L686.166 183.268L688.216 184.778L690.346 185.328L694.076 185.758L696.296 185.338L697.246 184.868L697.916 184.228L698.176 183.628L698.146 183.228L698.786 182.448L699.276 182.108L700.646 181.708L701.566 180.978L701.536 180.718L701.116 180.398L701.516 179.888L703.996 178.818L704.506 178.028L704.826 175.298L706.056 173.838L706.456 173.788L708.766 172.708L710.016 171.698L710.446 170.948L711.536 168.098L711.586 167.438L711.396 166.648L711.786 166.158L712.696 165.528L713.966 165.428L714.836 165.478L714.896 165.768L715.076 165.888L716.036 166.128L717.176 166.228L718.666 166.098L720.126 165.268L722.776 164.098L724.086 163.688L724.886 163.798L726.186 163.578L726.966 163.058L727.006 162.768L726.366 160.968L725.736 160.678L724.826 159.638L725.016 158.408L726.236 157.768L727.486 157.458L728.886 156.848L731.386 155.528L731.826 154.998L733.376 154.248L737.546 152.778L738.066 152.758L739.026 153.038L739.836 153.958L741.266 155.058L747.366 157.218L751.556 158.218L753.086 159.178L753.846 160.198L754.806 161.018L755.186 161.088ZM686.996 146.958L686.026 146.948L684.896 145.288L685.086 144.288L685.586 143.618L686.396 143.568L687.126 143.918L688.206 145.028L688.126 146.068L687.636 146.758L686.996 146.958ZM696.626 138.948L698.416 138.988L699.936 139.228L701.556 140.298L702.526 139.548L703.066 139.478L703.726 139.858L706.756 142.408L708.986 145.638L710.236 145.418L711.956 146.188L712.316 146.548L711.506 147.268L710.216 147.988L708.366 148.388L707.326 148.368L706.456 147.718L705.976 147.568L704.976 147.618L704.226 147.888L703.636 147.768L702.756 146.898L701.976 143.738L702.006 142.818L701.436 141.588L700.936 141.538L699.126 142.398L697.336 140.878L696.676 140.728L696.756 141.268L696.336 141.108L695.336 140.158L694.716 138.828L694.976 138.338L696.626 138.948Z" fill="white"/>
<path d="M663.636 200.468L664.396 201.368L659.396 199.128L659.236 197.978L659.746 198.168L660.986 199.118L663.636 200.468ZM605.166 162.868L603.936 162.908L600.326 161.838L597.296 160.268L596.966 159.848L597.546 159.308L601.076 158.048L602.496 157.328L607.906 156.278L607.986 156.798L609.316 158.768L609.376 161.338L608.436 161.958L605.166 162.868ZM600.656 148.198L598.946 148.748L597.366 148.208L597.426 147.878L597.796 147.538L599.596 147.038L601.146 147.558L600.656 148.198ZM617.406 142.718L617.996 143.488L619.086 143.338L619.746 143.078L620.436 144.118L620.386 146.028L619.806 148.698L619.086 150.338L618.876 150.598L618.476 150.718L616.976 150.438L614.936 148.748L614.586 147.748L613.836 146.688L614.186 146.148L613.916 145.418L613.536 144.778L612.976 144.568L612.906 144.348L612.976 144.098L613.336 143.898L616.726 142.788L617.406 142.718ZM617.716 140.988L617.266 141.758L615.626 142.458L613.406 142.928L611.946 143.078L610.106 142.978L609.516 143.078L608.966 143.358L608.726 143.278L609.606 142.268L610.266 141.748L614.436 141.628L615.766 141.328L616.396 140.628H617.186L617.716 140.988ZM612.336 136.698L609.896 136.428L609.736 135.458L610.156 135.148L612.476 134.458L613.276 134.738L613.846 135.188L613.866 135.448L613.416 136.198L612.336 136.698ZM663.686 140.348L666.726 140.398L666.806 139.838L670.716 139.938L672.956 141.748L671.546 144.008L673.236 147.198L674.586 148.388L675.896 150.778L675.106 151.648L674.866 154.158L672.566 156.228L673.156 159.768L673.546 160.628L673.336 162.648L673.796 167.248L674.886 169.118L675.416 169.298L676.566 170.438L679.036 176.568L679.586 176.588L680.126 176.128L679.226 172.558L679.176 171.378L679.426 170.798L680.366 169.838L680.896 169.948L682.126 170.728L682.386 171.638L682.486 175.958L680.006 178.228L678.456 179.038V180.178L678.216 180.988L676.586 181.958L675.606 183.178L674.466 185.698L675.856 186.108L677.816 187.078L684.266 188.948L687.286 190.168L690.146 191.058L691.366 191.628H691.856L692.756 192.038L690.466 194.878L689.406 196.508L688.756 197.888L687.696 198.698L686.056 201.068L684.896 200.578L682.216 198.328L682.136 198.108L682.866 195.288L683.296 195.068L685.796 195.378L686.836 195.828L687.156 195.798L687.806 195.318L687.776 195.148L686.616 194.948L682.676 194.698L681.716 195.438L681.376 196.338L680.066 196.618L679.126 195.268L678.526 194.678L677.366 194.398L676.916 196.028L676.276 196.358L674.706 195.478L674.196 195.038L673.846 194.318L673.906 193.788L674.316 193.488L674.366 193.208L674.076 192.588L673.486 191.998L673.236 191.888L671.496 192.798L669.746 191.858L668.146 189.078L667.586 189.358L667.516 189.518L667.656 190.498L667.216 190.598L665.986 189.818L664.886 187.648L664.746 187.088L664.826 186.868L665.736 186.288L665.846 186.048L665.896 184.988L665.646 183.708L666.086 182.258L667.296 181.228L668.636 180.368L668.666 179.078L668.086 178.288L666.396 179.818L665.146 181.298L664.826 183.938L664.866 186.018L664.216 186.148L663.156 186.868L663.546 187.238L663.956 188.148L663.886 188.728L662.206 190.028L660.666 191.558L660.596 191.858L660.796 192.758L661.396 193.278L661.566 193.918L659.176 196.428L657.876 197.488L657.226 197.548L654.606 197.248L654.266 197.438L653.616 198.198L652.256 197.858L651.136 196.348L650.586 195.078L650.786 194.918L650.626 194.308L649.466 191.318L650.026 189.848L651.856 189.188L652.386 188.778L652.506 188.508L651.736 187.068L651.466 186.988L651.176 187.138L650.706 186.758L650.336 185.358L650.686 184.508L650.636 184.218L650.246 183.718L649.726 183.588L649.126 183.828L649.106 184.728L648.956 184.878L648.726 184.938L647.936 184.568L646.776 183.008L646.696 182.158L646.076 180.978L644.496 179.738L641.906 178.128L641.166 177.918H639.726L637.826 178.408L635.686 175.308L635.866 175.098L638.826 173.698L640.026 173.448L641.936 173.508L645.276 173.818L646.336 174.108L647.536 174.858L647.946 175.388L648.926 175.838L650.996 174.348L654.046 170.328L655.556 169.458L656.456 169.178L657.976 168.968L659.076 169.498L660.396 170.768L662.476 171.528L663.186 171.488L664.176 171.058L664.936 171.148L665.446 171.878L665.346 172.788L665.456 174.148L665.706 173.808L666.026 171.288L665.926 170.678L666.166 170.628L666.526 170.798L667.606 173.008L667.826 173.138L667.896 171.118L667.606 170.318L667.216 170.078L668.236 169.108L669.516 168.498L670.226 167.458L670.276 165.838L670.076 165.418L669.676 166.468L668.206 166.958L667.896 166.928L667.336 166.208L667.456 165.998L669.486 165.208L670.066 164.728L669.866 163.578L668.856 163.748L664.876 165.868L663.096 166.018L661.286 165.898L660.626 165.548L658.846 165.238L657.176 165.458L653.066 166.738L651.976 166.668L650.536 166.048L649.936 166.218L648.326 167.088L647.446 166.658L647.256 166.438L647.046 165.648L646.636 165.118L646.336 165.048L644.286 165.568L643.196 166.248L642.236 166.468L641.566 166.388L639.096 164.378L638.256 164.058L637.116 163.238L635.916 161.208L635.216 159.628L635.146 158.508L635.906 157.678L635.656 156.748L634.376 155.618L631.616 154.578L631.286 154.198L631.306 153.928L629.326 153.008L623.846 151.178L624.016 151.578L624.836 152.118L624.876 152.498L624.096 153.148L622.716 153.648L622.196 152.798L621.046 152.348L619.976 152.408L618.496 151.508L619.326 150.338L619.736 149.308L620.156 148.768L622.216 148.348L623.426 146.248L624.066 143.178L623.536 141.538L627.996 140.018L628.366 140.068L628.426 140.278L629.106 140.498L632.516 139.868L634.216 139.318L634.996 138.098L638.246 135.408L639.476 134.638L641.076 133.988L643.916 133.308L648.746 133.698L650.586 134.638L655.696 136.618L656.706 136.708L660.186 139.748L661.146 140.038L663.686 140.348ZM617.026 127.728L619.876 128.538L621.556 128.698L624.326 130.278L624.556 130.878L624.706 132.098L624.266 133.048L623.556 134.058L622.066 133.228L620.966 133.128L619.736 133.598L618.746 133.648L618.216 133.328L616.976 131.718L615.516 131.138L614.116 129.068L613.746 128.778L612.456 128.928L612.676 129.758L614.426 131.608L616.116 132.388L617.126 132.548L617.716 132.908L618.156 133.648L617.686 134.408L616.516 134.958L614.976 135.168L614.406 134.968L614.106 134.568L613.606 132.608L612.026 132.958L611.226 133.688L610.696 131.768L609.246 132.128L608.056 131.988L606.046 131.308L605.626 131.028L605.976 130.808L606.396 131.018L608.506 131.198L609.256 130.788L608.776 129.968L607.706 129.998L607.816 130.618L606.966 130.428L606.616 129.788L606.746 129.228L608.066 128.908H609.526L613.176 128.318L613.926 128.028L614.286 128.288L615.126 128.218L614.836 127.948L615.396 127.608L616.106 127.538L617.026 127.728ZM594.146 131.068L593.826 131.218L592.966 130.178L589.596 126.848L589.566 126.648L589.816 126.618L590.396 126.998L593.936 129.848L594.326 130.528L594.366 130.838L594.146 131.068Z" fill="white"/>
</g>
<defs>
<clipPath id="clip0_85_431">
<rect width="792.546" height="316.664" fill="white" transform="translate(0 0.320312)"/>
</clipPath>
</defs>
</svg>
