<svg width="793" height="317" viewBox="0 0 793 317" fill="none" xmlns="http://www.w3.org/2000/svg">
<path d="M466.816 109.57L467.406 109.77L469.816 109.72L471.486 109.9L474.896 110.89L475.136 111.24L478.096 113.07L479.206 112.38L480.056 111.16L482.606 110.79L482.816 111.61L483.356 112L484.216 112.23L484.916 112.92L484.876 113.39L485.146 114.24L485.766 114.78L486.976 115.67L489.006 116.02L489.546 116.6L489.856 117.45L489.706 118.53L489.776 119.54L488.966 120.97L488.686 121.95L486.546 121.98L485.046 121.58L483.766 120.4L482.956 119.2L481.926 118.31L481.416 118.69L480.036 118.83L471.606 118.52H469.786L466.726 118.83L464.356 118.78L463.846 118.91L463.246 119.43L461.616 119.75L459.866 119.81L458.386 118.14L455.456 117.82L455.216 117.94L455.016 118.62L454.726 118.87L451.956 119.19L452.236 118.69L452.066 117.22L451.376 117.19L450.306 116.85L449.806 116.07L449.236 115.76L448.976 115.33L449.286 115.16L449.346 114.09L449.686 113.75L450.746 113.37L451.716 113.75L452.236 113.65L452.256 112.69L452.606 112.28L453.496 112.79L454.826 112.84L455.306 112.43L456.756 112.42L458.826 111.47L459.936 111.17L460.726 110.56L461.576 110.42L462.066 111.22L462.556 111.74L462.976 111.91L463.276 111.64L463.406 110.99H463.776L464.296 110.39L464.556 110.42L466.816 109.57Z" fill="white"/>
<path d="M517.806 102.64L516.916 103.88L516.146 106.41L515.136 108.24L513.596 110.36L512.276 110.93L510.756 112.07L509.556 113.24L508.036 115.79L507.626 116.91L505.696 119.24L503.606 120.31L502.316 120.62L501.306 120.63L497.116 121.28L494.166 121.98L491.926 122.24L490.906 121.93L488.686 121.95L488.956 120.97L489.776 119.54L489.696 118.53L489.856 117.45L489.546 116.6L489.006 116.02L486.986 115.67L485.776 114.78L485.156 114.24L484.886 113.39L484.926 112.93L484.226 112.23L483.366 112L482.826 111.61L482.626 110.8L484.956 110.69L487.246 111.17L490.246 112.17L490.556 112.21L491.146 111.87L494.986 112.78L496.566 112.72L497.806 111.99L503.136 109.63L503.556 109.1L504.386 106.95L505.376 106.55L508.056 106.72L508.286 106.59L508.706 106.01L508.696 105.4L508.156 105.08L507.526 105.11L507.266 104.66L507.236 104.3L507.696 103.52L508.826 102.7L509.806 103.06L510.516 103.01L512.536 101.87L512.746 101.33L512.206 100.28L512.256 99.99L514.876 97.94L515.946 97.85L517.656 98.34L518.336 98.89L518.166 99.43L518.256 99.91L519.696 101.13L519.376 101.98L518.776 102.33L518.126 102.39L517.806 102.64ZM522.546 81.85L522.336 81.92L521.866 81.72L521.486 80.24L521.936 79.06L522.466 78.82L523.016 79.15L523.136 79.41L523.056 79.75L522.306 80.6L522.336 81.05L522.716 81.61L522.546 81.85ZM525.566 64.87L525.346 65.43L526.356 66.72L526.526 66.61L526.946 66.87L527.066 68.13L526.426 69.09L526.226 68.95L526.056 69.03L525.966 69.65L525.806 69.54L525.826 69.23L525.496 68.67L524.996 68.69L524.776 68.4L524.366 68.28L524.306 67.99L524.026 68.04L523.726 67.34L523.696 66.87L524.166 65.83L524.086 65.67H523.816L523.706 65.28L524.036 65.16L523.956 65.02L523.616 65.1L522.446 64.37L522.226 64.01L522.316 63.09L523.046 62.83L524.076 63.02L525.566 64.87ZM544.986 61.72L544.696 61.77L544.486 61.47L543.216 58.67L543.086 57.64L543.356 57.62L543.766 57.92L545.156 59.79L545.216 60.25L544.986 61.72ZM545.836 58.5L544.756 58.35L544.596 57.07L545.316 56.46L546.296 54.61V54.2L546.086 54.01L545.086 53.77L544.916 53.61L544.626 52.65L544.586 52.07L545.126 49.6L545.476 48.97L546.746 49.2L547.526 49.9L548.486 53.52L547.706 54.69L546.426 57.92L545.836 58.5Z" fill="white"/>
<path d="M446.926 174.57L448.556 174.99L449.136 175.25L449.586 175.79L449.976 175.93L450.676 175.36L451.396 175.15L451.796 175.23L452.386 176.58L452.076 177.16V177.49L452.246 177.79L453.336 178.34L454.536 178.5L454.976 178.26L456.086 177.12L457.596 176.54L460.246 177.62L462.226 178.18L462.866 177.85L463.606 177.99L464.646 177.94L465.086 178.17L465.596 178.85L466.676 179.06L466.836 179.39L466.726 180.27L467.156 180.45L467.596 181.06L468.146 180.96L468.566 182L469.096 181.97L469.266 182.12L469.156 182.33L469.286 182.76L468.406 183.98L468.596 184.75L469.916 185.15L470.266 185.51L470.776 185.71L471.486 186.87L471.336 187.28L470.976 187.43L469.156 185.61L468.546 185.25L467.796 185.24L468.516 186.53L468.096 187.79L466.916 188.26L466.886 188.65L467.716 189.97L469.376 191.17L471.586 192.39L471.536 192.62L472.096 193.33L472.196 193.83L472.656 194.13L474.226 193.99L474.836 194.09L474.936 194.49L474.436 194.85L474.276 195.82L474.936 196.16L475.046 196.52L474.716 196.95L475.286 198.25L475.456 198.38L477.906 198.2L477.796 197.78L476.956 197.17L476.766 196.75L476.976 196.64L477.606 196.68L478.296 197.17L478.976 198.74L479.146 199.81L479.016 202.57L477.816 203.53L477.026 203.04L475.346 201.57L475.046 201.62L474.886 201.77L475.096 202.18L476.256 203.19L476.616 203.74L476.696 204.17L476.416 204.51L476.056 204.66L475.756 204.25L475.196 204.51L474.536 203.19L473.776 202.69L472.456 203.45L471.696 203.7L470.876 203.6L468.136 204.36L467.386 204.22L466.056 204.96L465.126 205.13L464.506 206.29L464.156 207.7L464.486 208.78L465.346 209.57L465.366 209.89L464.116 211.19L462.436 211.23L460.906 210.53L458.846 210.31L458.286 210.58L457.876 210.48L457.676 210.07L457.216 209.77L455.646 209.16L455.136 208.66L454.936 208.15L454.376 207.59L454.176 207.14L454.426 205.32L454.596 205.18L455.176 203.04L455.086 201.62L455.496 200.46L456.006 200.21L456.666 198.79L456.606 197.38L456.356 196.82L455.036 196.31L452.646 195.96L452.196 195.61L451.076 193.99L450.616 193.79L450.416 193.43V192.93L449.906 192.83L449.296 192.93L448.276 191.57L445.146 188.85L444.526 188.06L444.096 187.86L443.866 187.18L443.836 186.36L444.196 185.44L445.806 183.25L446.506 182.9L447.116 181.36L447.066 179.04L447.216 178.49L447.566 178.04L447.586 176.86L447.396 176.78L447.526 176.4L447.256 176.55L447.016 176.37L446.896 175.58H446.766L446.626 176.02L446.056 175.89L446.186 176.18L446.396 176.23L446.356 176.46L446.046 176.43L445.956 175.72L445.666 175.51L445.646 175.3L446.116 175.45L446.586 174.71L446.926 174.57Z" fill="white"/>
<path d="M444.966 252.57L446.076 252.52L447.246 252.89L446.916 253.36L446.146 253.48L442.976 252.96L442.546 252.68L442.536 252.44L442.946 252.17L443.916 252.48L444.966 252.57ZM440.696 248.42L441.816 248.97L442.276 248.69L442.426 249.16L442.176 249.97L440.506 250.19L439.896 249.76L439.676 249.12L439.826 247.93L440.246 248.04L440.696 248.42ZM437.576 237.74L437.156 238.69L436.816 236.89L437.016 235.62L436.556 233.14L436.476 228.83L436.866 226.74L437.056 226.4L437.286 226.37L437.426 226.67L437.406 227.32L437.866 228.15L438.566 230.83L438.116 234.75L437.576 237.74ZM426.536 161.64L426.936 162.18L427.276 161.85L427.866 161.72L428.786 160.8L429.116 160.97L430.586 160.84L430.716 161.42L431.556 161.8H433.356L434.696 162.38L435.496 159.92V159.5L435.786 159.38L437.056 160.83L437.226 161.29L438.696 163.33L439.826 164.41L441.126 165.08L441.886 165.41H442.726L442.806 165.08L443.266 164.95L444.276 165.1L444.506 165.31L445.276 165.41L449.976 167.41L451.696 167.7L452.656 168.28L453.516 168.21L454.196 168.33L455.466 169.31L456.086 169.52L456.916 169.58L457.586 170.58L458.036 170.52L458.676 171.02L459.936 173.57L459.316 173.74L459.046 174.01L458.276 175.5L457.866 175.73L457.616 176.49L456.096 177.07L454.996 178.21L454.556 178.45L453.356 178.3L452.266 177.75L452.096 177.44V177.11L452.406 176.54L451.806 175.19L451.416 175.11L450.696 175.31L449.996 175.88L449.606 175.74L449.156 175.21L448.576 174.94L446.936 174.52L447.356 174.06L446.586 172.95L442.906 171.98L442.216 171.93L440.576 172.54L438.746 173.63L435.316 176.12L432.356 177.96L433.496 180.96L434.826 181.93L435.406 182.17L435.926 183.05L435.776 183.9L435.696 187.4L436.266 188.73L436.586 190.96L436.456 191.5L435.296 193.36L434.956 194.37L434.776 197.72L435.546 198.78L435.036 202.52L435.706 204.35L436.166 207.55L435.626 209.37L434.726 210.27L434.206 210.59L434.196 212.96L433.466 215.75L435.506 219.22L436.876 223.81L436.746 224.01L435.916 223.73L434.906 222.13L434.546 221.96L432.676 222.48L431.346 223.16L430.516 223.4L427.606 222.82L426.306 223.91L426.056 224.66L425.136 225.27L423.206 225.22L422.896 225L422.656 224.47L422.706 224.19L422.376 223.81L419.616 222.85L417.716 220.03L417.666 218.93L418.126 216.26L418.506 215.46L419.706 213.9L420.576 211.72L420.656 210.95L420.276 210L420.086 208.6L421.876 205.65L422.366 201.54L422.416 199.19L421.926 195.47L420.866 193.76L419.336 190.77L419.886 189.35L420.506 188.49L420.046 187.1L419.706 185.23L419.206 184.06L419.126 183.14L418.416 182.47V182.05L418.796 181.76L419.176 181.72L419.386 182.01L420.266 181.76L420.516 181.55L420.726 180.97L421.396 180.72L422.446 180.76L422.486 180.38L421.896 179.71L421.396 178.54L421.686 177.84L421.586 177.22L421.326 176.89L421.526 176.01V174.99L421.846 174.24L422.596 174.53L423.646 174.11H424.146L424.856 173.32L425.066 172.59L426.316 171.67L426.546 171.08L426.446 170.29L426.246 169.93L425.686 169.6L424.766 169.44L424.606 169.24L424.346 168.72V167.87L424.046 167.54L422.526 166.81L422.566 165.51L424.346 164.23L424.806 163.8L424.936 163.44L425.656 163.34L425.786 163.01L425.516 162.12L426.536 161.64Z" fill="white"/>
<path d="M421.306 141.43L421.416 142.33L421.196 142.89L421.206 143.84L421.456 144.73L421.616 146.12L421.706 146.37L422.086 146.29L422.116 146.8L421.566 148.01L421.616 148.56L421.426 148.94L419.876 149.13L419.686 149.5L420.236 149.31L420.346 149.55L419.776 149.88L419.126 149.96L419.136 150.22L419.626 150.85L419.946 151.06L420.296 151L420.676 151.56L421.316 151.49L421.886 151.03H422.246L423.006 151.47L423.576 152.02L423.496 152.29L422.946 152.85L423.236 153.7L424.276 154.68L424.196 155.31L424.586 155.44L425.026 156.2L424.696 156.6L424.586 157.14L424.986 157.41L425.606 157.32L426.156 157.56L426.466 157.44L426.516 160.2L426.656 160.54L426.296 160.75L426.536 161.64L425.516 162.1L425.776 163L425.646 163.33L424.926 163.42L424.796 163.78L424.326 164.21L422.556 165.49L422.516 166.79L424.036 167.52L424.326 167.84V168.69L424.596 169.22L424.756 169.41L425.676 169.58L426.236 169.91L426.436 170.27L426.536 171.05L426.306 171.64L425.056 172.56L424.846 173.29L424.126 174.08H423.626L422.576 174.5L421.826 174.21L421.496 174.96V175.98L421.296 176.86L421.566 177.19L421.666 177.81L421.366 178.51L421.866 179.68L422.456 180.34L422.406 180.72L421.356 180.68L420.686 180.93L420.476 181.51L420.226 181.72L419.346 181.97L419.136 181.68L418.756 181.72L418.386 182.01V182.43L419.096 183.1L419.176 184.02L419.686 185.19L420.026 187.06L417.636 186.14L416.626 186L415.366 187.1L414.866 187.19L413.886 187.04L412.456 187.33L410.926 188.01L410.466 188.6L410.276 188.51L408.876 185.31L408.746 184.54L408.706 179.94L408.966 179.69L409.636 176.8L409.546 176.42L409.246 176.13L408.296 175.96L407.586 176.29L407.396 174.76L407.776 173.11L408.136 172.41L408.506 172.18L409.206 172.74H409.916L411.656 171.59L414.046 169.23V168.23L413.686 167.17L413.726 166.36L413.966 165.12L415.146 161.81L415.596 161.2L416.056 160.95L416.786 160.71L417.366 160.98L417.686 160.34L417.956 158.7L417.816 158.4L417.306 158.12L417.186 157.88L416.716 156.16L416.736 155.65L417.166 154.58L416.706 152.38L416.606 151.11L416.636 150.86L417.296 150.37L417.096 149.42L416.866 149.1L416.906 148.81L417.646 147.32L419.396 145.81L419.836 143.82L420.366 142.45L420.646 141.91L421.306 141.43Z" fill="white"/>
<path d="M491.706 219.54L490.536 219.45L489.886 218.22L489.806 217.42L491.116 217.57L491.606 217.97L491.776 218.33L491.706 219.54ZM463.796 221.27L462.796 221.33L461.116 219.31L460.136 217.75L460.206 216.94L461.056 214.69L461.906 214.12L462.936 214.33L463.136 214.5L464.496 217.1L464.386 220.43L464.216 221.04L463.796 221.27ZM475.886 206.84L476.486 210.83L476.696 211.21L476.616 212.22L474.386 214.15L473.586 215.89L473.656 216.36L474.126 216.73L474.566 217.75L474.326 219.07L473.616 220.28L472.676 220.54L471.046 219.96L468.576 219.76L468.106 219.58L467.916 218.65L468.756 215.64L469.016 215.03L469.886 214.51L470.036 214.17L469.906 212.71L468.896 210.39L469.636 208.78L470.016 208.57L471.046 208.52L472.186 208.2L473.616 207.08L475.246 206.29L475.886 206.84ZM484.436 207.88L484.476 210.02L484.276 210.87L483.666 210.21L483.816 209.19L483.086 208.09L482.686 208.3L482.846 210.37L482.486 210.62L481.876 210.37L481.726 210.12L481.776 209.71L482.136 209.2L482.086 208.85L481.946 208.7L481.526 208.92L480.986 210.26L480.556 212.18L480.376 214.95L481.106 215.57L481.476 215.49L484.406 217.8L484.436 218.17L483.196 219.76L481.586 220.46L481.246 220.37L480.676 219.92L479.006 220.68L478.556 221.11L478.326 221.8L479.006 221.85L479.236 222.18L479.026 222.76L477.756 224.77L477.316 225.04L474.756 224.92L473.856 223.41L473.246 221.84L476.116 217.48L476.916 215.33L478.166 209.83L478.006 207.03L478.356 205.73L479.226 203.98L481.266 202.54L481.726 202.41L482.086 202.54L481.786 203.06L482.026 203.82L483.036 204.38L484.036 205.78L484.436 207.88ZM482.136 196.21L482.496 196.27L483.976 195.92L484.696 196.61L485.046 197.33L484.956 198.05L483.386 200.11L483.136 200.24L481.776 200.16L480.896 199.27L480.016 198.07L479.836 197.6L479.816 196.87L480.756 195.83L481.416 195.69L482.136 196.21ZM484.296 147.25L484.776 148.24L484.076 149.38L484.926 150.96L485.366 150.89L485.776 149.9L486.256 149.53L486.436 149.05L487.026 148.39L487.836 148.02L490.346 149.2L489.906 151.96L489.236 152.36L488.646 153.21L488.126 153.25L486.946 152.7L486.686 152.11L486.016 151.45L485.496 151.67L485.236 152.15L485.056 152.74L484.946 154.43L484.766 154.72H484.436L483.956 155.05L483.436 154.79H482.996L482.666 154.64L482.596 154.24L482.776 153.98L483.146 153.94L483.956 153.02L483.656 151.95L483.396 149.78L483.206 149.45L482.796 149.71L481.616 151.03L481.356 152.1L480.616 153.02L480.576 153.31L479.396 154.38L478.986 154.56L478.436 154.45L477.736 152.83L477.186 152.61L477.006 152.28V151.43L477.486 149.59L478.486 148.38L478.746 147.87L479.076 147.47L479.516 147.43L480.256 147.87L480.626 147.61L482.586 147.02L483.216 147.72L483.656 146.84H483.956L484.296 147.25ZM450.346 105.88L450.766 105.94L452.796 105.63L453.736 104.81H454.036L454.356 105.03V105.45L454.156 105.74L453.566 105.76L453.326 105.91L453.536 106.02L453.706 106.72L454.296 107.56L455.216 108.52L455.786 108.78L456.446 108.95L462.186 108.17L462.376 108.28L462.956 109.47L463.276 109.6L463.626 109.52L464.496 108.8L464.976 108.82L466.806 109.56L464.546 110.41L464.286 110.38L463.766 110.98H463.386L463.256 111.63L462.956 111.9L462.536 111.73L462.046 111.21L461.566 110.41L460.716 110.55L459.926 111.16L458.816 111.45L456.746 112.41H455.296L454.816 112.83L453.486 112.78L452.596 112.27L452.246 112.68L452.226 113.64L451.706 113.74L450.736 113.36L449.676 113.74L449.326 114.08L449.266 115.14L448.946 115.31L449.206 115.74L449.786 116.06L450.276 116.84L451.346 117.18L452.036 117.21L452.206 118.67L451.916 119.17L450.546 118.76L448.816 119.2L448.196 120.02L446.196 119.78L444.666 120.13L444.076 119.94L443.656 119.49L441.736 118.91L440.926 118.39L437.536 118.2L436.396 118.85L434.716 119.43L433.016 121.14L430.896 124.24L431.246 124.57L430.706 125.4L430.506 127.51L429.916 128.14L429.426 128.07L429.496 129.41L429.036 130.41L428.986 131.77L429.356 132.33L429.406 133.18L430.016 134.64L429.746 135.49L429.616 137.7L429.906 138.42L431.116 140.22L433.496 142.86L433.686 143.32L434.166 143.6L434.526 143.57L435.286 143.05L435.616 142.98L436.196 143.41L436.426 143.97L437.526 144.08L438.966 146.42L438.516 147.93L438.586 148.52L438.866 148.98L439.386 149.2L440.416 151.36L440.926 151.42L441.746 150.99L441.996 150.43L442.506 150.21L443.186 150.22V150.94L443.386 151.28L443.896 151.46L445.076 151.3L447.506 151.6L447.936 151.31L448.886 150.07L449.966 147.9L452.186 145.12L452.576 145L452.866 144.53L453.726 143.86L454.386 142.67L455.006 142.32L456.156 142.03L456.366 141.1L456.866 140.95L457.206 140.93L457.536 141.22L457.206 142.7L457.456 143.07H457.706L458.836 143.72L461.016 143.97L461.926 144.36L463.246 143.48L463.996 143.34L464.686 143.62L465.176 143.64L465.686 143.13L466.076 141.16L467.576 140.58L468.546 141.01L471.226 140.01L474.956 140.54L476.656 140.53L479.266 140.27L479.966 139.91L479.896 139.65L478.456 139.14L476.466 138.94L475.996 138.64L476.026 138.37L477.506 137.74L479.026 137.53L480.846 137.56L481.346 137.41L481.696 136.76L481.926 136.75L484.586 136.86L486.126 137.45L487.816 138.36L488.566 140.28L488.426 141.52L487.636 142.44L487.296 144.38L486.796 145.06L486.476 145.27L485.326 145.09L484.936 144.89L483.676 143.43L483.346 142.53L481.886 142.19L477.576 142.82L477.176 143.36L477.066 144.08L476.576 145L475.276 146.42L474.276 148.15L473.096 149.09L471.026 151.31L469.906 152.73L466.186 154.81L463.566 155.15L462.556 155.81L460.556 156.2L459.896 156.7L458.926 159.09L458.076 159.95L457.596 160.21L456.516 160.4L455.406 160.34L455.076 159.74L453.806 158.44L451.856 157.6L451.346 157.86L451.176 158.86L452.046 161.38L452.426 161.08L453.506 161.02L454.416 162.02L455.946 164.25L456.796 164.59L457.706 164.43L458.486 164.66L460.596 166.83L462.866 170.7L463.646 173.24L465.676 174.89L468.726 177.03L468.746 177.71L468.026 178.82L468.006 179.19L469.916 180.9L470.166 181.05L470.716 180.8L471.646 181.48L470.556 182.77L469.576 182.5L469.246 182.82L469.126 182.39L469.236 182.19L469.066 182.04L468.536 182.06L468.116 181.02L467.566 181.12L467.136 180.51L466.706 180.33L466.816 179.45L466.656 179.13L465.576 178.92L465.066 178.23L464.636 178.01L463.586 178.06L462.846 177.92L462.196 178.25L460.216 177.7L457.566 176.62L457.816 175.86L458.226 175.63L458.996 174.14L459.266 173.87L459.886 173.7L458.626 171.15L457.986 170.65L457.536 170.71L456.866 169.71L456.036 169.65L455.416 169.44L454.146 168.46L453.466 168.34L452.606 168.41L451.646 167.83L449.926 167.54L445.226 165.54L444.456 165.44L444.226 165.23L443.216 165.08L442.756 165.21L442.676 165.54H441.836L441.076 165.21L439.776 164.54L438.646 163.46L437.176 161.42L437.006 160.96L435.736 159.51L435.446 159.63V160.05L434.646 162.51L433.306 161.93H431.506L430.666 161.55L430.536 160.97L429.066 161.1L428.736 160.93L427.816 161.85L427.226 161.98L426.886 162.31L426.486 161.77L426.246 160.88L426.606 160.67L426.456 160.33L426.406 157.58L426.096 157.69L425.536 157.45L424.916 157.54L424.516 157.27L424.626 156.73L424.956 156.33L424.516 155.56L424.126 155.44L424.206 154.81L423.166 153.83L422.886 152.98L423.436 152.42L423.516 152.15L422.946 151.6L422.186 151.16H421.826L421.256 151.62L420.626 151.7L420.246 151.13L419.896 151.19L419.576 150.98L419.086 150.35V150.09L419.736 150.01L420.306 149.68L420.196 149.43L419.646 149.63L419.836 149.25L421.386 149.06L421.576 148.68L421.526 148.13L422.076 146.92L422.046 146.42L421.666 146.5L421.576 146.25L421.426 144.86L421.166 143.96V143.02L421.386 142.46L421.276 141.56L423.196 140L423.346 139.01L423.956 138.43L424.266 138.41L425.166 140.34L425.376 141.31L425.946 142.21L426.156 142.24L426.446 141.71L426.516 141.19L426.216 139.37L425.396 138.3L424.556 135.49L424.696 132.92H424.856L425.006 132.17L425.646 130.52L425.316 129.33L423.956 129.75L423.636 129.6L422.926 129.11L421.946 127.29L423.046 127.48L422.966 126.9L423.826 127.34L424.336 127.75L424.286 128.16L424.796 128.5L424.996 129.03L425.706 129.2L426.386 128.42L426.776 127.42L426.736 125.79L426.406 125.18L425.066 123.8L424.946 123.43L425.366 123.16L426.186 123.45L427.096 123.48L427.166 123.22L426.876 122.25L426.286 121.54L426.256 121.31L426.776 120.5L426.816 119.85L427.256 119.17L427.906 118.75L428.856 118.64L429.406 118.24L429.546 117.46L429.186 115.81L429.206 115.3L429.396 114.95L430.136 114.33H430.886L432.636 113.36L432.916 112.86L432.956 111.35L433.186 110.63L433.806 110.18L434.406 110.17L434.726 110.38L434.806 110.88L434.586 112.02L434.716 112.42L436.106 113.35L438.786 113.84L439.256 112.67L439.386 111.9L440.016 110.88L440.716 110.15L441.836 109.76L442.656 108.89L443.156 106.62L442.976 105.22L443.176 104.45L445.286 104.13L447.766 104.44L448.606 104.78L450.346 105.88Z" fill="white"/>
</svg>
