<svg width="793" height="317" viewBox="0 0 793 317" fill="none" xmlns="http://www.w3.org/2000/svg">
<path d="M36.7057 92.0578L36.5357 92.1578L35.8257 91.0678L34.5757 89.7278L33.5957 89.2678L33.0057 89.1678L32.7657 89.0178L32.8757 88.8678L33.8657 88.6678L35.9257 88.7978L36.6157 89.8778L36.9557 90.8578L36.9457 91.7178L36.7057 92.0578ZM9.15574 30.9478L11.7457 32.3678L11.8257 33.0278L12.1057 33.4878L13.1157 34.4878L14.9057 35.8878L15.7557 36.2378L19.6957 37.2178L23.7357 37.4878L25.6457 37.1378L27.8757 36.2578H28.2357L29.1357 36.7378L30.6557 36.3778L31.7757 36.4978L33.1857 37.0278L33.5657 37.3578L33.8857 38.2178L34.5057 38.4278L35.4857 38.2278L39.4157 36.7078L39.8857 36.7278L40.7657 37.6178L41.8557 39.1278L44.0057 41.3878L45.5657 42.7078L46.7757 42.9878L47.6657 44.7578L47.8157 46.2778L48.2257 47.2478L48.6657 47.8378L48.5757 48.7678L49.3957 48.6678L50.3657 49.0278L51.0057 49.3378L53.0657 50.9178L53.2057 52.2478L52.8457 53.1078L52.4457 53.2478L51.6457 53.0978L50.8757 53.3078L50.8157 53.6278L50.5457 53.7478L49.9857 53.8678L49.6057 53.7778L49.5157 53.9878L49.8157 54.5178L49.7857 54.8978L49.3757 55.1378L49.5257 55.6078L49.0557 56.2878L49.0857 57.2578L48.8757 57.5478L48.6357 58.8778L47.4257 59.5278L47.4857 59.9078L47.3357 60.1778L46.7757 59.7978L46.5957 59.8278L46.5057 60.1478L46.9157 60.8878L46.7957 61.2378L45.3157 62.4178L44.8757 63.0378L45.2057 63.8578L45.6757 64.3578V64.6778L45.9457 64.8578L45.9157 65.5978L46.6557 65.9478L46.8657 66.8278L47.4257 67.2378L47.0957 67.7678L47.3657 68.3278L47.3957 68.7678L48.0457 69.2078L48.3157 69.0878L48.6957 69.7978L48.4557 70.5878L46.0857 71.2378L46.1757 71.4178L46.7657 71.5378L47.2657 72.0378L47.3257 72.7778L47.9457 73.4278L47.8557 74.3978L47.2357 74.3378L47.0557 74.4578L47.2657 74.7178L47.2357 75.2478L47.5057 76.1278V77.1878L48.4257 77.4278L49.0157 78.4878L49.9657 78.6078L49.9357 78.8678L50.1757 79.1578L49.8457 79.6578L49.7857 80.0378L49.9357 80.6878L50.4357 81.1878L50.4657 81.4478L49.8457 81.6578L49.6057 83.0678L49.7857 84.0678L50.1957 84.6278L50.1357 85.3378L50.9657 85.6878L51.4957 87.3078L50.8857 90.0978L47.3757 88.1178H46.9757L46.0457 88.5778L43.9457 88.0478L42.2957 85.7478L42.1957 81.7478L41.8757 79.5778L41.2957 77.7978L41.0957 77.5878L40.2957 77.5778L38.7257 76.9578L38.2557 76.7378L37.5957 76.1078L36.3557 74.3778L35.8957 72.4178L35.4257 71.6478L33.8957 71.1278L32.3157 68.6078L31.0857 66.2878L29.6857 65.5078L29.2157 64.9878L28.9157 63.8578L27.3157 62.7378L24.6757 62.5878L23.3457 62.8078L22.6657 62.6678L22.1457 62.3678L20.4657 60.7278L18.6057 57.9578L16.9057 56.1478L16.1457 55.9078L14.8357 54.8978L13.8557 54.4578L12.6857 53.4178L10.7257 51.0578L7.88574 48.4178L5.58574 46.5378L3.71574 43.7078L1.30574 39.0178L1.64574 38.3478L1.58574 38.0478L0.415737 36.1778L0.815737 34.0578L0.255737 32.7778L0.425737 31.2078L1.28574 31.2178L3.45574 29.8178L3.85574 29.7478L6.72574 30.1878L9.15574 30.9478Z" fill="white"/>
<path d="M202.096 179.058L201.456 179.238L200.886 179.068L199.196 178.098L199.516 177.328L200.666 176.818L202.366 177.548L202.496 177.838L202.096 179.058ZM218.376 170.648L222.736 171.858L225.826 174.368L226.346 176.128L224.826 178.758L224.696 180.688L223.076 181.428L222.616 182.558L221.016 182.928L220.836 182.638L220.736 181.488L219.016 179.538L218.646 179.678L218.186 180.148L218.526 180.568L218.456 181.328L218.066 181.588L215.116 182.538L214.556 182.298L213.986 178.788L214.546 177.138L214.606 174.838L214.966 174.408L214.936 173.458L215.206 171.518L215.486 171.148L216.226 171.038L217.276 171.108L218.376 170.648ZM188.246 157.528L189.066 158.858L189.556 160.258L189.546 162.068L189.916 163.998L190.836 166.808L191.346 167.888L192.126 168.878L192.856 169.568L193.356 169.778L197.336 170.508L200.196 171.628L199.516 172.018L198.466 173.218L197.196 176.488L197.076 177.318L197.206 177.758L197.986 178.218L198.296 178.148L199.486 178.698V179.928L199.076 180.358L195.646 180.428L194.346 178.348L191.526 177.078L189.186 176.408L188.276 175.958L186.606 175.788L186.196 175.488L185.266 173.938L184.956 172.598V172.008L185.606 170.508L185.526 169.618L184.916 169.098L184.176 168.888L183.586 168.148L183.226 164.628L183.076 164.298L182.296 163.738L177.676 163.218L176.566 163.548L175.296 163.658L171.746 162.778L171.486 161.928L171.836 160.618L172.446 160.168L174.326 159.488L176.036 158.308L176.266 157.948L176.316 157.488L176.076 157.018L175.176 156.468L175.336 155.558L176.166 154.708L177.236 154.028L179.336 153.368L179.826 153.488L180.566 155.238L180.716 156.908L181.636 157.648L182.876 157.938L183.366 157.898L181.626 153.688L182.236 153.368L184.706 152.698L185.116 152.788L187.126 154.148L187.416 154.568L187.146 155.398L187.286 155.968L188.246 157.528Z" fill="white"/>
<path d="M118.546 174.608L118.756 175.198L119.606 175.738L119.746 176.448L120.626 176.978L120.756 177.258L121.196 177.408L121.496 178.598L121.896 179.238L122.516 179.378L122.986 179.818L124.136 179.418L125.106 179.638L125.736 180.218L126.026 180.958L125.916 182.178L126.146 182.328L125.946 182.828L127.616 184.348L128.246 184.448L128.496 184.698L129.286 184.138L130.146 184.108L131.046 183.548L131.296 183.658L131.326 183.998L131.616 184.468L131.886 184.348L132.446 184.608L133.006 184.358L132.846 184.468L132.916 185.028L133.126 185.228L133.946 184.908L134.736 184.998L134.946 185.448L134.766 185.798L134.806 186.628L134.656 187.558L134.626 187.698L134.296 187.788L133.976 188.508L133.256 189.248L133.086 189.198L132.726 188.558L132.196 187.998L131.666 187.698L131.506 187.738L131.436 189.188L130.946 189.498L130.316 190.258L130.196 191.398L128.866 191.868L128.636 192.228L128.166 192.408L128.836 192.608L129.236 193.008L129.406 193.408L130.296 193.918L131.146 194.998L131.826 195.388L132.586 195.588L133.196 195.298L133.596 195.458L133.856 195.968L134.066 196.088L135.326 196.148L136.266 196.008L136.556 196.248L136.956 196.298L137.456 197.668L137.916 198.338L137.926 199.968L139.836 200.278L140.326 200.838L141.056 201.278L141.786 201.288L142.356 201.498L142.756 201.408L143.096 202.018L143.646 202.318L144.626 201.958L145.186 202.138L145.496 202.788L145.506 203.358L144.936 203.898L144.676 204.418L145.766 205.458L145.056 206.078L145.836 206.118L146.476 206.618L146.776 207.038L146.956 207.918L146.566 208.408L146.926 208.318L147.546 208.608L147.946 208.628L148.306 209.228L148.226 209.558L148.146 209.608L148.036 209.718L147.226 209.668L147.096 210.178L146.586 210.578L146.156 210.658L145.586 211.188L145.266 211.248L145.086 211.778L144.286 211.678L143.756 211.108L143.286 210.878L142.436 210.678L142.136 210.878L141.826 210.748L141.756 210.508L141.976 210.348L141.716 209.958L141.206 209.578L140.886 209.598L140.606 209.848L140.206 209.538L140.156 209.358L140.396 209.018L138.806 207.278L135.666 205.198L133.026 204.228L133.086 203.978L132.486 203.158L131.496 202.438L131.356 202.098L127.786 199.408L127.016 198.678L122.466 195.398L122.286 195.178L122.316 194.118L122.736 194.008L122.776 193.738L121.906 192.008L121.646 190.398L119.426 188.598L117.406 187.378L116.166 186.888L116.226 186.568L110.646 182.538L109.176 180.658L109.266 180.418L109.046 179.908L108.676 179.648L108.486 178.918L108.156 178.698L106.956 176.918L105.756 174.018L102.546 172.218L101.416 170.628L100.566 169.828L102.176 168.718L102.596 168.278L103.686 167.838L104.426 167.278L105.226 166.308L105.236 166.288L109.946 169.248L109.616 171.218L109.786 171.338L110.066 170.858L110.506 170.778L110.796 170.978L111.356 170.818L111.476 170.528L111.846 170.568L112.286 171.258L113.746 172.828L114.146 172.988L114.346 173.348L114.676 173.428L115.156 173.908L115.846 174.108L117.186 173.948L118.026 174.468L118.496 174.588L118.546 174.608Z" fill="white"/>
<path d="M160.606 155.648L159.326 155.128L158.786 155.238L158.466 155.398L158.306 155.668L158.406 156.418L158.086 156.848L157.066 157.118L156.096 157.008L155.176 157.438L153.826 157.758L152.746 157.488H151.996L151.496 157.668L150.486 157.148L150.036 157.068L149.316 157.428L149.026 157.948L147.366 158.028L145.186 158.838L144.096 159.798V160.608L143.896 161.368L143.976 161.688L143.776 162.088V163.418L144.336 163.898L143.646 164.378L142.556 164.658L142.476 165.068L142.676 166.628L142.476 166.838L142.596 167.598L142.436 167.638L142.236 167.278L141.706 167.158L141.346 166.508L140.536 166.068L140.376 165.628L139.726 165.068L139.646 164.298L139.326 163.938L138.836 163.858L138.556 164.098L138.396 164.538L138.066 164.658L137.866 164.948L137.626 165.548L138.316 166.228L138.476 166.958L136.936 167.558L135.806 167.198L135.726 166.958L135.526 166.918L135.236 167.438L133.336 167.118L132.616 166.838L132.046 167.678L132.656 168.678L132.166 169.048L131.116 170.818L130.666 171.178L130.386 171.218L130.106 171.058L129.176 171.818L128.406 172.138L128.206 172.338V172.658L127.596 173.308L127.116 173.108L126.706 173.188L126.106 173.628L126.016 173.468H125.256L124.566 173.308L123.996 172.748L123.476 172.458L123.276 172.658H122.986L122.136 172.138L121.576 172.378L121.496 173.108L121.086 173.548L120.276 173.668L120.076 173.868L119.466 174.028L119.066 174.758L118.496 174.588L118.026 174.468L117.186 173.948L115.846 174.108L115.156 173.908L114.676 173.428L114.346 173.348L114.146 172.988L113.746 172.828L112.286 171.258L111.846 170.568L111.476 170.528L111.356 170.818L110.796 170.978L110.506 170.778L110.066 170.858L109.786 171.338L109.616 171.218L109.946 169.248L105.236 166.288L105.466 165.778L105.286 164.128L104.726 162.458L104.336 161.718L103.626 161.398L103.276 160.988L103.126 160.488L102.656 159.988L102.506 159.578L102.296 155.928L102.476 155.898L102.976 156.258L103.156 155.898L103.306 155.868L103.986 156.578L104.546 156.228L105.606 156.258L106.146 155.988L106.706 156.018L107.326 155.838L107.706 156.198L108.716 155.928L109.896 154.138L111.906 152.908L112.526 151.788V151.558L112.116 151.208V150.998L112.526 150.528L112.116 148.908L112.736 148.298L113.356 148.328L113.686 148.088L114.306 147.938L115.126 146.918L115.426 146.058L115.306 145.978L114.956 146.238L114.426 145.798L114.536 145.038L114.396 144.918L114.366 143.918L114.336 143.898L114.936 143.998L114.976 143.688L115.776 143.508L115.956 142.888L116.546 142.598L116.786 142.808L116.896 142.458L117.366 142.188L117.766 142.248L118.216 142.578L118.626 142.418L119.556 142.868L119.926 142.538L120.316 142.578L120.726 142.928V143.238L120.926 143.378L121.316 143.338L122.176 142.848L122.746 142.808L123.046 143.568L124.046 144.078L124.006 144.718L125.226 144.838L125.696 145.598L126.466 145.618L127.266 145.948L127.936 145.858L128.546 146.278L128.836 146.228L129.346 145.618L130.036 145.538L130.566 144.678L131.036 144.238L131.136 143.878L133.236 142.378L134.086 141.408L134.946 140.058L136.126 140.138L136.976 139.918L140.586 140.548L140.976 140.858L141.826 140.388L143.006 140.278L143.426 140.708L144.216 141.068L145.106 142.168L146.006 142.898L147.006 143.318L147.636 143.838L148.736 144.098L149.266 144.468L150.106 144.098L150.076 144.208L151.296 143.948L153.946 144.698L155.856 145.438L158.066 144.688L158.466 144.758L159.216 146.498L158.906 147.938L159.156 148.758L159.866 149.928L159.986 150.988L159.686 152.938L160.126 154.798L160.606 155.648Z" fill="white"/>
<path d="M160.446 132.938L160.566 133.208L161.326 133.428L161.446 133.868L162.036 134.798L162.456 135.118L162.386 135.358L161.356 136.188L160.966 136.998L160.816 138.078L160.696 138.178L160.276 138.078L159.616 137.198H159.416L158.926 137.398L158.776 138.668L158.286 138.868L158.066 138.578L157.946 137.578L157.576 136.358L156.936 136.068L156.396 135.458L156.616 134.598L156.866 134.278L156.846 133.938L157.466 133.868L157.586 133.718L157.656 132.938L157.876 133.698L157.436 134.118L157.856 134.758L158.026 134.608L158.006 133.898L158.126 133.848L158.376 134.118L158.996 134.168L159.486 133.848V133.258L159.656 133.058L160.276 132.858L160.446 132.938ZM165.706 130.568L165.856 130.668L166.226 130.568L166.206 129.668L166.456 129.468L167.636 131.058L168.576 131.818L169.336 131.888L169.406 132.328L169.106 132.378L167.946 131.888L167.656 132.158L168.096 132.668L167.976 132.908L167.066 132.448L166.676 132.568L165.766 131.908L165.816 131.688L165.666 131.568L165.296 131.618L164.996 131.078L164.186 130.638L163.296 130.788L162.406 131.398L161.866 131.298L161.206 131.808L160.836 131.658L160.686 131.218L159.976 131.368L159.486 131.128L159.436 130.908L159.456 130.268L160.146 129.758L160.246 129.538L160.836 129.318L160.666 127.048L161.476 126.678L162.506 127.188L163.146 127.748L163.686 128.558L163.936 128.578L164.186 129.068L164.806 129.558L164.826 129.978L165.026 130.268L165.706 130.568ZM158.786 124.558L158.956 124.778L159.026 124.338L159.276 124.458L159.546 124.388L161.466 126.438L161.026 126.588L160.876 126.488L160.486 126.858L159.996 126.568L158.716 125.148L157.806 123.588L158.026 123.638L158.786 124.558ZM161.196 123.018L162.946 125.168L163.706 125.948L164.276 126.268L164.376 126.538L164.206 126.828L163.546 126.508L162.926 125.898L161.986 125.288L161.096 124.068L160.356 123.458L160.336 122.948L160.956 123.098L161.006 122.898L161.196 123.018ZM159.186 121.428L159.756 121.818L159.706 121.918L159.266 121.848L159.196 121.998L159.446 122.068L159.546 122.338L159.296 122.408L158.676 121.988L158.746 122.258L158.546 122.328L158.296 122.718L157.996 122.648L157.526 121.818L157.306 121.888L157.236 121.248L157.306 121.078L157.776 121.498L157.946 121.448L158.016 121.008L157.576 120.788L157.356 120.468L157.676 120.518L159.186 121.428ZM156.796 113.518L156.596 113.908L156.616 114.348L157.316 114.878L156.986 114.938L156.516 115.218L157.446 115.398L157.516 115.078L157.906 115.368L157.706 115.658L157.066 115.508V116.438L156.946 116.538L156.376 116.078L155.076 113.878L155.096 113.708L155.586 113.588L155.876 113.558L156.516 113.358L156.796 113.518ZM150.786 113.938L150.686 114.108L150.216 113.468L149.156 112.568L148.936 112.198L148.866 111.638L149.846 112.028L150.506 112.638L150.626 113.058L151.046 113.568L150.946 113.858L150.786 113.938ZM149.286 113.688L149.066 114.178L148.896 113.758L148.526 113.708L147.686 113.148L147.216 112.368V111.948L147.486 111.928L147.806 111.508L148.936 112.778L149.286 113.688ZM143.106 111.798L143.216 112.438L144.356 113.758L144.156 114.108L143.176 113.358L143.586 114.078L143.416 114.868L143.726 115.238L143.336 116.208L143.166 116.378L142.816 116.418L142.576 116.048L142.426 116.178L141.856 115.998L141.546 115.358L140.936 114.658L140.756 112.858L141.086 112.378L141.126 111.648L141.666 111.778L141.886 112.088L141.776 111.538L141.906 111.098L141.796 110.968L142.346 110.548L142.846 110.618L143.016 110.888L143.106 111.798ZM154.166 110.788L154.486 110.888L154.636 110.448L155.056 110.398L155.376 110.788L155.226 111.298L154.926 111.368L155.026 111.878L155.446 112.028L155.816 111.958L156.606 112.298V112.498L156.286 112.868L155.326 113.518L154.976 113.548L154.606 112.348L153.946 112.028L153.696 112.128L153.676 111.178L153.476 111.008L153.136 111.328L152.866 111.088L153.036 110.428L153.526 110.328L154.116 110.598L154.166 110.788ZM148.696 110.488H148.496L147.786 109.708V109.388L148.206 109.048L148.696 109.538V110.488ZM149.876 108.558L149.826 108.828L150.146 109.198L150.396 109.418L150.666 109.688L151.896 110.348L151.946 110.838L151.646 110.768L151.526 110.938L151.406 111.138L151.506 111.528L151.356 111.678H151.136L150.646 111.068L149.906 110.828L149.246 110.318V109.758L149.446 109.538L148.806 108.928L148.926 108.638L149.266 108.808L149.636 108.568V108.078L149.806 108.178L149.876 108.558ZM141.846 107.438L141.906 107.608L141.776 107.678L141.426 107.568L141.366 108.318L141.626 108.918L141.976 108.978L142.476 110.098L141.606 110.058L141.516 109.838L140.926 109.768L140.206 109.238L140.186 108.468L140.366 108.338L140.496 107.858L141.196 107.658L141.526 107.088L141.846 107.438ZM154.626 107.408L154.676 107.898L154.456 108.118V109.318L153.716 109.368L153.546 109.808L153.746 110.248L152.906 110.028L152.656 110.248L152.166 110.098L152.016 109.858L151.256 109.778L150.546 109.318L150.226 108.288L150.276 108.018L150.676 107.958L150.596 108.508L150.966 108.488L150.896 107.778L150.726 107.708L150.706 107.438L151.916 107.558L152.086 106.748L152.456 106.678L153.026 107.388L153.366 107.488L153.536 107.248L153.286 107.078V106.738L153.856 106.498L154.296 106.868L154.626 107.408ZM162.086 106.868L162.236 107.528L162.976 107.968L163.446 109.168L163.196 110.388L163.266 110.778L163.466 110.978V111.398L163.196 111.468V111.708L163.446 111.828L164.066 111.758L163.946 112.268L163.186 113.298L162.616 113.058L161.656 113.078L161.086 112.878L160.326 112.218L160.076 112.318L159.386 112.148L159.406 111.978L160.096 111.808L159.626 111.388L159.726 111.118L159.606 110.948L159.166 110.578L159.386 110.238L159.956 110.288L159.756 109.848L160.176 109.338L159.736 108.918L158.946 109.338L158.966 109.898L158.796 110.048H158.496L158.546 109.678L158.076 109.508L157.906 109.878L157.686 109.998L156.506 109.928L156.136 109.608L155.866 108.998L155.746 108.558L156.266 107.798L157.766 107.558L157.496 106.798L157.886 106.628L158.596 106.778L158.696 106.578L159.086 106.428L160.216 106.888L160.836 106.908L161.426 106.538L161.626 106.028L162.046 105.908L162.196 106.008L162.086 106.868Z" fill="white"/>
<path d="M148.276 209.528L148.926 209.478L148.976 209.988L149.406 210.018L149.786 210.498V211.038L149.356 211.438V211.648L149.706 211.678L150.456 212.378L150.756 212.028L150.916 211.138L151.426 211.518L152.826 211.358L153.066 211.148L153.256 211.198L153.336 211.438L154.246 211.708L155.246 211.168L155.376 210.788L155.756 210.708L156.216 210.978H156.616L156.916 210.788L157.316 211.168L157.666 211.058L158.396 210.118L158.426 209.768L158.316 209.418L157.646 208.798L157.596 207.968L157.056 207.648L157.326 206.868L157.976 206.228L157.676 203.518L157.946 202.688L158.216 202.608L158.296 202.228L159.096 201.668L159.606 201.078L160.226 201.128L160.846 200.618L162.056 200.138L162.726 199.578L163.126 200.088L163.346 200.138L165.556 200.248L167.036 200.008L167.116 199.658L168.246 199.098L168.866 198.858L169.486 198.888L169.866 198.378L170.486 197.948L170.806 196.988L171.106 196.668L171.486 196.618L171.186 196.268L171.616 195.838L171.886 194.768L172.106 194.898L172.266 194.818L172.376 194.308L172.916 194.038L173.586 194.278L174.286 193.638L174.506 193.158L174.236 192.538L174.636 192.218L174.746 191.658L175.096 191.198L175.316 191.328L175.616 192.398L175.936 192.158L176.476 192.048L176.796 192.128L176.906 192.848L177.686 192.798L177.876 193.068H178.466L178.336 193.868L178.466 194.028L178.866 193.868L179.216 194.138L179.166 194.598L179.406 194.788L179.726 194.598L179.836 194.678L179.946 194.998H179.566L180.026 195.378V195.618L180.326 195.938L179.926 196.478L179.876 196.768L180.116 196.818V196.548L180.356 196.678L180.816 196.628L180.896 196.678L180.596 196.968V197.208H181.246L181.276 197.448L181.546 197.558L181.436 198.018L181.626 198.148L182.376 198.228L182.676 198.098L182.726 197.828L182.946 197.778L183.456 198.048L183.746 198.598L183.556 201.298L185.016 203.708L185.066 204.038V205.288L184.726 206.118L184.746 206.468L185.236 206.948L184.636 208.168L184.276 210.038L184.456 210.898L184.946 211.518L185.056 211.898L185.016 212.118L184.526 212.378L184.256 213.618L184.406 217.228L184.256 217.758L183.766 218.088L183.636 218.618L183.726 220.788L183.556 222.398L183.766 223.128L183.186 225.258L183.256 226.438L182.896 227.488L182.106 228.608L181.836 228.718L181.676 227.748L180.016 227.528L179.666 227.258L179.466 226.748L179.486 226.238L179.666 225.898L179.576 225.668L178.996 225.118H178.466L178.266 224.878L176.886 224.108L176.056 223.328L175.786 222.618L174.626 220.888L174.296 220.818L173.946 220.968L173.786 221.278V223.048L173.656 223.318L172.926 223.068L172.326 223.478L172.716 223.968L172.726 224.288L173.046 224.278L172.566 224.618L172.766 224.838L172.776 225.188L173.206 225.498L173.116 225.618L172.486 225.628L172.116 226.028L172.376 226.488L173.126 226.408L172.616 226.938L172.046 227.038L170.366 226.118L168.686 225.418L165.666 223.508L164.926 222.928L164.136 221.968L163.576 221.988L162.536 221.678L161.676 222.078L161.216 222.478L161.626 222.738L161.756 223.318L162.766 224.528L163.136 224.778L163.426 225.308L163.406 225.658L163.246 225.768L164.426 227.538L164.316 227.828L164.756 228.998L164.666 229.198L162.186 229.328L161.816 229.118L161.736 228.888L162.046 228.728L161.866 227.998L159.746 226.068L159.336 225.348L158.496 224.728L157.316 224.178L157.646 223.718L156.706 222.568L153.746 220.478L152.266 218.768L152.146 217.738L151.826 217.438L150.516 217.148L150.476 216.728L151.006 216.178L150.846 215.688L150.446 215.218L150.206 214.988L149.846 215.008L149.376 214.388L148.376 213.638H148.066L148.046 213.838L147.866 213.878L147.686 213.768L147.756 213.058L146.976 212.398L146.266 212.438L145.626 211.888L145.096 211.758L145.276 211.228L145.596 211.178L146.166 210.638L146.596 210.558L147.106 210.158L147.236 209.648L148.046 209.698L148.156 209.588L148.276 209.528Z" fill="white"/>
<path d="M137.976 118.328L137.386 118.158L137.076 117.358L137.546 115.628L138.066 115.088L138.576 114.968L139.386 115.638L139.766 116.198L139.896 117.588L139.496 117.948L137.976 118.328ZM128.276 109.968L128.666 110.028L129.836 109.628L130.626 109.688L133.466 111.338L135.286 112.708L135.496 113.028L135.676 113.798L135.426 114.848L134.876 115.148L133.646 113.918L132.586 113.428L129.096 113.328L127.406 113.778L126.876 113.748L125.776 113.198L124.496 111.968L125.026 111.168L125.886 111.048L126.076 110.888V110.148L125.556 109.018L125.606 108.028L125.896 107.608L126.506 107.498L127.076 107.758L128.116 109.098L127.946 109.568L128.276 109.968ZM135.416 109.218L137.636 111.728L137.696 112.248L137.346 112.638L136.726 112.788L136.236 112.688L133.796 110.978L130.636 109.358L130.046 109.268L129.446 109.458L128.846 108.928L129.796 107.278L130.306 107.078H131.016L132.476 107.508L134.016 108.228L135.416 109.218ZM124.356 111.158H123.936L122.406 109.718L122.046 109.368L121.616 108.558L120.966 105.078L121.006 103.158L121.116 102.938L121.946 102.758L122.466 102.888L125.426 105.538L125.706 105.998L125.726 106.328L125.166 108.038L125.226 109.108L125.576 110.228L125.516 110.508L124.356 111.158ZM126.046 102.178L126.216 105.058L125.976 105.408L125.456 105.168L122.816 102.648L122.006 102.388L120.026 102.228L119.206 101.868L118.246 100.938L117.366 99.4479L117.636 99.2279L118.446 99.1879L120.296 99.9379L123.226 100.338L125.006 100.808L125.756 101.238L126.046 102.178ZM110.586 97.6779L109.796 97.6479L108.696 97.3379L108.316 97.1279L107.926 96.6279L106.996 94.1379L107.076 92.8179L107.266 92.1279L107.816 91.6079L111.286 90.6179L111.936 90.7979L112.276 91.1079L113.536 92.8079L113.586 93.6979L112.826 94.6679L112.836 96.0179L112.596 96.4879L111.316 97.4779L110.586 97.6779ZM93.6657 90.6079L94.4857 90.4779L95.4357 91.0679L96.1857 91.2179L96.6957 90.8279L95.5557 90.1179L95.2357 89.4879L95.1557 88.7079L95.3557 88.3179L96.3057 87.7679L98.7057 87.4979L101.166 87.8079L101.046 88.3179L101.396 89.0879L104.846 91.3979L105.586 92.1879L105.846 92.9979L105.866 94.3379L106.586 96.4479L107.266 97.5379L109.606 98.6279L110.356 98.6879L112.076 98.2679L113.286 98.5979L117.796 102.378L119.816 103.448L120.906 106.508L120.716 108.238L121.116 109.608L121.546 110.238L124.836 113.338L125.526 113.838L126.906 114.468L127.426 114.538L129.826 114.318L132.436 114.478L133.126 114.738L133.606 115.108L136.166 118.188L136.346 118.718L136.196 119.388L127.356 124.018L126.646 123.648L125.916 122.828L124.916 122.838L126.816 124.178L127.636 124.418L128.876 123.298L133.116 122.518L137.586 119.998L137.856 119.798L138.576 118.658L140.836 117.818L141.396 117.878L142.556 118.438L147.556 122.198L147.816 122.758L148.796 127.088L148.166 127.318L145.196 127.498L144.916 127.888L144.806 128.798L142.146 130.628L142.316 130.908L142.636 130.858L143.316 130.288L143.996 130.128L144.576 130.178L144.626 130.338L144.256 130.808L145.886 131.018L145.936 131.228L147.566 131.748L148.456 133.058L147.826 132.958L146.936 133.118L145.256 133.848L145.046 134.058L145.206 134.318L144.906 134.978L142.276 136.728L141.896 138.868L141.996 139.288L142.996 140.268L141.816 140.388L140.976 140.858L140.586 140.548L136.976 139.928L136.136 140.138L134.956 140.058L134.096 141.408L133.256 142.388L131.156 143.888L131.056 144.238L130.586 144.688L130.056 145.548L129.366 145.628L128.856 146.228L128.566 146.288L127.956 145.858L127.286 145.958L126.476 145.628L125.706 145.608L125.236 144.848L124.016 144.728L124.056 144.088L123.056 143.578L122.766 142.818L122.196 142.858L121.336 143.348L120.946 143.388L120.746 143.248V142.938L120.336 142.588L119.946 142.548L119.576 142.878L118.656 142.428L118.246 142.588L117.796 142.258L117.406 142.198L116.936 142.468L116.816 142.818L116.576 142.608L115.986 142.898L115.806 143.518L114.996 143.698L114.956 144.008L114.356 143.908L114.146 143.778H113.256L112.756 143.458L111.486 143.108L111.516 142.818L111.166 142.638L110.516 141.758L109.396 141.078L108.956 141.048L108.716 140.698L107.266 139.818L107.176 139.258L106.646 139.138L106.266 138.848L106.446 138.528L106.356 138.438L104.646 137.828L104.206 137.268L103.556 137.008L103.436 136.598L102.316 136.128L101.966 135.718L101.726 135.778L101.426 135.628L100.716 134.098L100.896 133.718L100.926 133.038L100.126 132.448L99.6957 132.378L98.8357 132.638L98.7457 132.788L98.8957 132.878L98.6257 133.378L98.0657 132.938L97.5957 132.908L97.3857 132.588L97.3257 131.968L96.7957 131.678L96.4657 131.178L96.3457 130.828L96.4657 130.388L95.9357 129.478L95.9057 129.238L96.0857 129.058L95.8157 128.178L95.8457 127.828L96.3157 127.448L96.5257 127.418L96.8557 127.888L97.4457 126.858L97.5357 126.008L97.1557 125.068V124.588L97.4257 123.738L97.0457 122.738L96.8657 122.498L96.5157 122.408L95.8657 122.638L94.7757 123.578L94.5357 123.958L93.4457 123.928L90.6057 123.138L89.8357 121.408L89.4557 121.148L89.0757 120.998L88.1557 121.468H87.8857L87.7357 121.028V119.878L86.4657 117.238L86.5557 116.298L87.3857 115.008L86.9157 114.278L85.8557 113.848L84.9857 112.828L85.2657 112.628L85.1457 112.398L85.2657 111.498L84.8357 111.538L84.4057 111.068V110.838L85.1557 110.798L85.3957 110.528L85.5557 109.898L85.2057 108.878L84.8157 108.718L84.8557 108.288L85.4057 107.978L86.0357 107.898L85.9557 107.588L85.3657 107.158L85.0857 106.648L84.8857 105.058L84.3757 104.118L84.1357 104.158L83.8957 103.918L83.8557 103.528L84.2457 103.258L87.2457 103.098V102.748L87.7157 102.628L88.3057 102.748L88.5857 102.588L88.6257 102.198H89.4157L90.2457 101.488L90.3657 101.018L90.1257 100.788L90.2057 100.398L90.6357 99.6879L90.7157 99.2179L90.5557 98.9079L90.6757 98.5179L90.5957 98.2079L90.0057 98.0879L90.0457 97.6579L90.3157 97.3779L90.0757 96.5979L88.1857 96.2479L87.9057 95.9379V95.5479L88.3757 94.2979L88.6157 91.3179L89.1257 89.5979L88.9657 88.6579L88.2557 87.0879L88.0957 85.7579L88.1357 85.0879L88.4857 83.8379L89.3057 86.3379L89.8757 87.5379L91.2157 88.9279L92.7457 90.1179L93.6657 90.6079Z" fill="white"/>
<path d="M90.8957 179.858L90.8657 180.458L91.1357 180.988L91.0657 181.188L90.0657 181.318L89.5957 181.548L90.9657 184.208L90.9957 184.438L90.5957 184.708L90.2957 184.538L89.9957 183.878L89.7957 183.908L89.3657 183.578L89.5657 183.408L89.3657 183.078L88.5957 182.808L88.7657 182.108L88.5657 181.648L88.6357 181.048L88.0357 180.248L87.4357 180.318L86.7657 179.518L86.0957 178.288L86.0657 178.058L86.3657 177.458L85.8957 175.538L85.9657 175.238L86.9957 174.868L88.3657 176.598L89.2657 177.128L90.4657 178.658L90.9657 179.028L90.8957 179.858ZM85.3957 175.438L85.3657 175.838H84.3657L84.2957 176.008L83.7657 175.548L83.5957 176.048L83.3657 176.178L82.9357 175.808L83.0657 175.478L82.6957 175.078L82.9957 174.118V173.188L82.6257 172.388L82.6557 171.828L82.1857 171.528L82.4557 171.198L82.3557 170.398L82.5857 170.068L83.0857 170.168L83.8157 171.198L84.8457 171.828L85.1457 172.258L85.8457 172.558L86.3157 173.618L86.6857 174.018L86.5157 174.778L85.8857 175.008L85.3957 175.438ZM77.9157 164.048L78.5857 165.408L79.0857 165.938L79.1557 166.308L79.7557 166.638L80.1857 167.338L80.5157 168.068V168.298L80.3457 168.428L80.1457 168.358L80.1757 167.998L79.9757 167.698L79.7457 167.898H79.3757L79.1457 167.398H78.3457L77.3757 166.568L76.8757 166.368L76.0057 166.468L75.7357 165.638L75.4657 165.508L74.7357 164.278L74.7657 164.048L74.9957 163.878L75.3957 164.108L75.4657 163.978L75.1657 163.578L75.0357 162.678L75.2057 162.318L75.7357 161.888H76.3357L77.6657 163.018L77.9157 164.048ZM64.4157 143.478L64.7457 144.468L64.5457 144.538L64.3457 144.038L64.2157 144.138L64.6157 145.428L65.6157 146.228L65.7157 146.988L66.3457 147.748L66.3757 148.148L66.8057 148.848L66.6757 149.148L67.2457 149.808L67.2757 150.438L68.3057 151.428L68.4357 151.758L68.5357 152.458L68.2657 152.228L67.9357 152.258L68.3357 152.788L69.0657 153.058L69.1657 153.328L69.0657 153.758L69.4657 154.748L70.1357 154.518L70.6057 155.178L70.7057 156.638L70.3757 157.138L69.7757 155.978L69.6457 156.008L69.8457 156.998L70.1157 157.558L69.6857 157.958L69.3157 157.658L68.5457 157.628L68.1157 157.758L68.0457 158.058L67.4757 158.158L63.3757 155.938L63.1757 155.378L62.5757 154.848L62.7757 154.748V154.518L62.1457 153.288L59.4757 149.348L59.2457 148.688L58.8457 148.458L58.6757 148.158L58.5757 147.728L58.9457 147.328L59.7457 145.178L59.7157 144.118L60.3457 143.458L60.7457 143.358L61.1757 143.558L62.3057 143.458L63.1057 143.158L63.7757 142.658L64.0057 142.688L64.4157 143.478ZM80.9357 111.538L81.3257 111.888L81.9957 111.768L82.3157 112.478L83.6157 112.948L83.8957 113.298L86.0257 114.008L85.8257 113.858L86.8857 114.288L87.3557 115.018L86.5257 116.308L86.4357 117.248L87.7057 119.888V121.038L87.8557 121.478H88.1257L89.0457 121.008L89.4257 121.158L89.8057 121.418L90.5757 123.148L93.4157 123.938L94.5057 123.968L94.7457 123.588L95.8357 122.648L96.4857 122.418L96.8357 122.508L97.0157 122.748L97.3957 123.748L97.1257 124.598V125.078L97.5057 126.018L97.4157 126.868L96.8257 127.898L96.4957 127.428L96.2857 127.458L95.8157 127.838L95.7857 128.188L96.0557 129.068L95.8757 129.248L95.9057 129.488L96.4357 130.398L96.3157 130.688L96.4357 131.188L96.7657 131.688L97.2957 131.978L97.3557 132.598L97.5657 132.918L98.0357 132.948L98.5957 133.388L98.8657 132.888L98.7157 132.798L98.8057 132.648L99.6657 132.388L100.046 132.448L100.846 133.038L100.816 133.718L100.636 134.098L101.346 135.628L101.646 135.778L101.886 135.718L102.236 136.128L103.356 136.598L103.476 137.008L104.126 137.268L104.566 137.828L106.276 138.438L106.366 138.528L106.186 138.848L106.566 139.138L107.096 139.258L107.186 139.818L108.636 140.698L108.876 141.048L109.316 141.078L110.436 141.758L111.086 142.638L111.436 142.818L111.406 143.108L112.676 143.458L113.176 143.778H114.066L114.306 143.928L114.336 144.928L114.486 145.048L114.366 145.808L114.896 146.248L115.246 145.988L115.366 146.078L115.066 146.928L114.236 147.958L113.616 148.108L113.286 148.348L112.666 148.318L112.046 148.938L112.106 149.498L112.456 150.318V150.548L112.046 151.018V151.228L112.456 151.578V151.808L111.836 152.918L109.826 154.148L108.646 155.938L107.646 156.198L107.266 155.848L106.646 156.028L106.086 155.998L105.556 156.258L104.496 156.228L103.936 156.578L103.256 155.868L103.106 155.898L102.926 156.248L102.426 155.898L102.246 155.928L102.456 159.568L102.606 159.978L103.076 160.478L103.226 160.978L103.576 161.388L104.286 161.708L104.666 162.438L105.226 164.118L105.406 165.768L105.166 166.298L104.366 167.268L103.626 167.828L102.536 168.268L102.126 168.708L100.516 169.818L100.236 169.278L98.2357 167.068L97.8357 165.478L96.9957 164.308L97.0357 163.848L97.7757 163.178L98.0757 162.588L98.0857 161.408L97.6357 159.738L95.6457 156.878L94.2057 155.118L93.3057 152.738L92.5457 151.958L92.9057 151.398L92.9557 150.798L92.5257 149.818L92.1257 149.548L91.3757 149.448L90.5757 148.698L90.1757 148.988L89.7957 148.878L89.9257 148.258L90.3657 148.328L90.0757 147.658L89.6957 147.548L89.1457 146.708L89.1257 146.418L89.4557 146.398L89.1257 145.668L89.4257 145.318V144.998L88.8757 143.448L88.6157 142.058L88.3357 141.518L87.8957 140.898L85.0657 138.088L84.3457 136.678L83.6857 135.808L81.3857 133.918V133.688L80.8957 132.978L79.7657 132.298L79.3857 131.458V130.928L78.6957 129.758L78.4757 129.618L78.6957 128.958L78.5557 128.598L78.7457 128.278L78.1657 127.408L77.2657 126.798L76.6857 126.178L75.3357 125.448L73.0557 124.498L72.3657 124.348L71.9457 123.418L71.5857 123.068L70.7857 122.968L69.6757 123.378L68.4957 122.958L69.4257 121.568L70.1757 121.218L70.9657 121.138L71.5957 120.358L72.4657 118.748L72.9357 118.628L74.1557 117.848L75.2157 118.278L76.6757 117.768L77.1857 118.438L77.2657 118.828L77.8957 119.298L78.7257 118.868L79.0057 118.828L79.5157 118.948L79.6357 119.148L80.2657 119.188L80.9757 119.068L81.4857 118.758L82.1557 117.938V117.268L81.4857 116.758L81.4057 115.588L80.7757 115.348H80.1457L79.8657 114.568V114.258L80.1457 113.948L80.0657 111.868L80.6557 111.518L80.9357 111.538Z" fill="white"/>
<path d="M148.226 209.558L148.306 209.228L147.946 208.628L147.546 208.608L146.926 208.318L146.566 208.408L146.956 207.918L146.776 207.038L146.476 206.618L145.836 206.118L145.056 206.078L145.766 205.458L144.676 204.418L144.936 203.898L145.506 203.358L145.496 202.788L145.186 202.138L144.626 201.958L143.646 202.318L143.096 202.018L142.756 201.408L142.356 201.498L141.786 201.288L141.056 201.278L140.326 200.838L139.836 200.278L137.926 199.968L137.916 198.338L137.456 197.668L136.956 196.298L136.556 196.248L136.266 196.008L135.326 196.148L134.066 196.088L133.856 195.968L133.596 195.458L133.196 195.298L132.586 195.588L131.826 195.388L131.146 194.998L130.296 193.918L129.406 193.408L129.236 193.008L128.836 192.608L128.166 192.408L128.636 192.228L128.866 191.868L130.196 191.398L130.316 190.258L130.946 189.498L131.436 189.188L131.506 187.738L131.666 187.698L132.196 187.998L132.726 188.558L133.086 189.198L133.256 189.248L133.976 188.508L134.296 187.788L134.626 187.698L134.656 187.558L134.806 186.628L134.766 185.798L134.946 185.448L134.736 184.998L133.946 184.908L133.126 185.228L132.916 185.028L132.846 184.468L133.006 184.358L132.446 184.608L131.886 184.348L131.616 184.468L131.326 183.998L131.296 183.658L131.046 183.548L130.146 184.108L129.286 184.138L128.496 184.698L128.246 184.448L127.616 184.348L125.946 182.828L126.146 182.328L125.916 182.178L126.026 180.958L125.736 180.218L125.106 179.638L124.136 179.418L122.986 179.818L122.516 179.378L121.896 179.238L121.496 178.598L121.196 177.408L120.756 177.258L120.626 176.978L119.746 176.448L119.606 175.738L118.756 175.198L118.546 174.608L119.066 174.758L119.466 174.028L120.076 173.868L120.276 173.668L121.086 173.548L121.496 173.108L121.576 172.378L122.136 172.138L122.986 172.658H123.276L123.476 172.458L123.996 172.748L124.566 173.308L125.256 173.468H126.016L126.106 173.628L126.706 173.188L127.116 173.108L127.596 173.308L128.206 172.658V172.338L128.406 172.138L129.176 171.818L130.106 171.058L130.386 171.218L130.666 171.178L131.116 170.818L132.166 169.048L132.656 168.678L132.046 167.678L132.616 166.838L133.336 167.118L135.236 167.438L135.526 166.918L135.726 166.958L135.806 167.198L136.936 167.558L138.476 166.958L138.316 166.228L137.626 165.548L137.866 164.948L138.066 164.658L138.396 164.538L138.556 164.098L138.836 163.858L139.326 163.938L139.646 164.298L139.726 165.068L140.376 165.628L140.536 166.068L141.346 166.508L141.706 167.158L142.236 167.278L142.436 167.638L142.596 167.598L142.476 166.838L142.676 166.628L142.476 165.068L142.556 164.658L143.646 164.378L144.336 163.898L143.776 163.418V162.088L143.976 161.688L143.896 161.368L144.096 160.608V159.798L145.186 158.838L147.366 158.028L149.026 157.948L149.316 157.428L150.036 157.068L150.486 157.148L151.496 157.668L151.996 157.488H152.746L153.826 157.758L155.176 157.438L156.096 157.008L157.066 157.118L158.086 156.848L158.406 156.418L158.306 155.668L158.466 155.398L158.786 155.238L159.326 155.128L160.606 155.648L161.246 156.638L161.406 157.538L161.246 158.058L160.766 158.438L160.436 159.168V159.888L160.666 160.308L160.896 160.218L161.386 159.028L161.796 159.098L163.066 160.178L165.136 161.448L166.506 161.508L167.246 162.178L167.456 162.648L167.766 164.218L167.716 164.688L167.456 165.058L167.026 165.158L166.666 165.788L166.346 165.728L165.756 166.208L164.636 167.998L165.516 168.148L165.786 167.998L166.816 166.528L167.866 166.298L168.306 167.098L169.436 167.158L169.926 167.538L171.456 167.928L172.936 167.098L175.346 167.938L178.406 168.278L180.036 168.258L180.316 168.858L179.856 170.588L180.126 172.018L180.286 172.398L181.016 173.038L181.706 173.238L182.516 173.208L182.856 173.368L183.066 173.988L182.876 175.988L183.506 177.278L184.216 177.898L185.236 177.988L185.976 177.788L186.276 177.848L187.076 178.188L187.516 178.588L187.666 179.558L187.536 180.808L188.316 182.378V182.778L188.006 183.198L186.306 184.078L185.196 185.238L184.016 187.748L183.676 188.868L183.526 189.998L183.766 190.898L184.216 191.368L185.516 192.098L185.926 193.068L185.716 193.918L184.816 195.318L184.206 196.598L183.986 198.248L183.706 198.608L183.406 198.058L182.896 197.788L182.686 197.838L182.626 198.108L182.336 198.248L181.576 198.168L181.396 198.028L181.496 197.578L181.236 197.468L181.206 197.228H180.556V196.988L180.856 196.688L180.776 196.638L180.316 196.688L180.076 196.558V196.828L179.836 196.768L179.886 196.478L180.286 195.938L179.996 195.618V195.378L179.536 194.998H179.916L179.806 194.678L179.696 194.598L179.376 194.788L179.136 194.598L179.186 194.148L178.836 193.878L178.646 194.038L178.296 193.878L178.436 193.068H177.836L177.656 192.808L176.876 192.858L176.766 192.138L176.446 192.058L175.906 192.158L175.576 192.398L175.286 191.328L175.066 191.198L174.716 191.648L174.606 192.218L174.206 192.538L174.476 193.148L174.266 193.638L173.566 194.278L172.886 194.038L172.346 194.308L172.246 194.818L172.086 194.898L171.866 194.758L171.596 195.828L171.166 196.258L171.466 196.608L171.086 196.658L170.786 196.988L170.466 197.948L169.846 198.378L169.476 198.888L168.856 198.858L168.236 199.098L167.106 199.668L167.026 200.008L165.546 200.258L163.336 200.148L163.116 200.098L162.716 199.588L162.046 200.148L160.836 200.628L160.216 201.138L159.596 201.088L159.086 201.678L158.286 202.238L158.206 202.618L157.936 202.698L157.666 203.528L157.966 206.228L157.316 206.878L157.046 207.648L157.586 207.978L157.646 208.808L158.316 209.418L158.426 209.768L158.396 210.118L157.666 211.058L157.316 211.168L156.916 210.788L156.616 210.978H156.216L155.756 210.708L155.386 210.788L155.246 211.168L154.246 211.698L153.336 211.438L153.256 211.188L153.066 211.138L152.826 211.358L151.426 211.518L150.916 211.138L150.756 212.028L150.456 212.378L149.706 211.678L149.356 211.648V211.438L149.786 211.028V210.498L149.406 210.008L148.976 209.988L148.926 209.478L148.276 209.528L148.226 209.558Z" fill="white"/>
<path d="M55.5957 131.308L56.0157 131.348L56.7257 132.168L57.2457 133.078L57.2857 133.588L56.9557 133.948L57.1457 134.178L56.9957 134.978L57.1057 135.438L56.8957 135.758L56.6457 135.848L57.0057 136.608L56.9457 136.818L56.7357 136.928L56.3557 136.988L56.5857 136.358L56.4857 136.228L56.1957 136.478L55.8657 136.328L55.6357 136.408L55.4457 136.828L55.6557 137.128L55.5557 137.378L55.2657 136.978L54.6557 136.558L53.2557 136.078L53.8457 135.828L53.8857 136.058L54.2257 136.038L54.4357 135.198L54.7657 134.968L54.7057 133.808L54.9157 132.968L55.3357 132.608L55.7757 132.418L55.9457 131.998L55.4257 131.278L55.5957 131.308ZM55.0557 127.058L55.1557 127.288L55.4757 127.058V127.548L56.5857 128.838L56.6957 129.408L56.5657 129.768L56.8357 130.298L56.7957 130.618L57.7757 131.338L58.1957 131.888L58.1157 132.798L57.7357 132.818L57.6757 133.048L57.9457 133.658L57.8357 133.848L57.3357 132.668L57.0457 132.438L56.0557 130.858L55.8057 130.748V130.348L54.6957 128.978V128.828L54.3757 127.878L53.4157 127.408L54.4057 126.948L55.0557 127.058ZM58.9657 124.058L59.9857 124.158L60.4957 124.028L60.7857 124.348L62.0457 124.098L63.0857 125.088L62.9557 125.518L63.0457 125.648L62.6357 125.728L62.4357 125.518L61.8157 125.418L61.2857 125.838L60.9057 125.888L60.4857 125.708L59.6157 125.838L58.7157 125.498L57.8257 125.488L57.5057 125.278L57.3957 124.608L58.1857 124.068L58.8457 123.958L58.9657 124.058ZM40.0457 102.598L40.3757 103.358L42.8357 106.708L44.6057 107.328L46.7157 109.198L47.1757 110.378L46.4757 111.988L46.3157 116.008L46.0357 116.508L45.0057 117.608L43.0757 117.118L42.7357 116.708L42.8957 116.398L41.5657 113.008L39.5057 110.868L38.5557 110.818L38.0857 110.608L37.7557 109.638L36.9457 108.088L35.3057 105.388L32.9557 103.098L33.7057 102.788L34.8457 102.848L35.3357 102.718L36.7257 101.478L37.8357 101.248L39.3257 101.788L40.0457 102.598ZM56.9057 98.5479L57.5857 98.6679L57.8857 98.1579L58.3157 98.4079L58.7057 99.0979L58.0157 99.2179L56.7457 99.1279L56.0357 98.8679L55.8457 98.3779L56.3257 97.7479L56.9157 97.9979V98.5479H56.9057ZM21.1557 86.8079L19.4257 86.6479L19.1157 86.4579L18.8157 85.4579L14.7157 82.7679L11.5757 81.6479L10.5557 81.4579L8.53571 79.5279L8.35571 78.9279L8.44571 78.6379L10.0657 76.6079L11.6757 76.9179L13.6357 79.3479L14.2057 79.6079L15.4457 79.7879L17.3957 81.8879L19.7057 83.4779L21.1657 84.0779L21.6457 84.7879L21.6557 85.2479L22.0857 86.3579L21.1557 86.8079ZM50.8957 90.0879L51.5057 87.2979L50.9757 85.6779L50.1457 85.3279L50.2057 84.6179L49.7957 84.0579L49.6157 83.0579L49.8557 81.6479L50.4757 81.4379L50.4457 81.1779L49.9457 80.6779L49.7957 80.0279L49.8557 79.6479L50.1857 79.1479L49.9457 78.8579L49.9757 78.5979L49.0257 78.4779L48.4357 77.4179L47.5157 77.1779V76.1179L47.2457 75.2379L47.2757 74.7079L47.0657 74.4479L47.2457 74.3279L47.8657 74.3879L47.9557 73.4179L47.3357 72.7679L47.2757 72.0279L46.7757 71.5279L46.1857 71.4079L46.0957 71.2279L48.4657 70.5779L48.7057 69.7879L48.3257 69.0779L48.0557 69.1979L47.4057 68.7579L47.3757 68.3179L47.1057 67.7579L47.4357 67.2279L46.8757 66.8179L46.6657 65.9379L45.9257 65.5879L45.9557 64.8479L45.6857 64.6679V64.3479L45.2157 63.8479L44.8857 63.0279L45.3257 62.4079L46.8057 61.2279L46.9257 60.8779L46.5157 60.1379L46.6057 59.8179L46.7857 59.7879L47.3457 60.1679L47.4957 59.8979L47.4357 59.5179L48.6457 58.8679L48.8857 57.5379L49.0957 57.2479L49.0657 56.2779L49.5357 55.5979L49.3857 55.1279L49.7957 54.8879L49.8257 54.5079L49.5257 53.9779L49.6157 53.7679L49.9957 53.8579L50.5557 53.7379L50.8257 53.6179L50.8857 53.2979L51.6557 53.0879L52.4557 53.2379L52.8557 53.0979L52.9557 55.8079L53.7257 56.8479L54.9157 56.8079L56.4057 57.4479L57.5157 58.1079L58.3357 59.4079L60.0757 59.8479L60.4257 60.4379L60.3257 60.9679L60.5557 61.7979L62.6957 63.2079L64.9257 63.9379L66.6957 64.9179L70.6557 67.4179L71.8357 68.4779L73.0457 68.9479L73.9657 69.5979L74.6857 70.8779L75.0457 71.2279L75.5657 71.5379L76.9257 71.9479L78.7857 72.9979L81.1457 75.3579L82.5257 76.4579L82.6557 76.7879L82.7557 78.9779L82.6157 79.5779L82.0357 80.3679L82.0757 80.8079L83.2157 82.0879L82.9457 82.3479L83.4557 82.1979L83.1457 81.4479L83.3857 80.9879L82.8557 80.5879L82.4757 80.6279L82.4457 80.4879L83.3857 79.8579L83.7857 79.9279L84.4957 80.6979L84.4257 82.0879L85.1557 83.7879L85.2857 83.7679L84.8857 82.1379V81.4079L85.1857 80.8779L85.7757 80.5279L86.3957 80.5479L87.1157 81.4479L87.7657 82.7179L88.3057 83.2379L88.5257 83.7979L88.1257 85.0679L88.2457 87.0679L88.9557 88.6379L89.1157 89.5779L88.6057 91.2979L88.3657 94.2779L87.8957 95.5279V95.9179L88.1757 96.2279L90.0657 96.5779L90.3057 97.3579L89.9857 97.6279L89.9457 98.0579L90.5357 98.1779L90.6157 98.4879L90.4957 98.8779L90.6557 99.1879L90.5757 99.6579L90.1457 100.368L90.0657 100.758L90.3057 100.998L90.1857 101.468L89.3557 102.178H88.5657L88.5257 102.568L88.2457 102.728L87.6557 102.608L87.1857 102.728V103.078L84.1857 103.238L83.7957 103.508L83.8357 103.898L84.0757 104.138L84.3157 104.098L84.8257 105.038L85.0257 106.628L85.3057 107.138L85.8957 107.568L85.9757 107.878L85.3457 107.958L84.7957 108.268L84.7557 108.698L85.1457 108.858L85.4957 109.878L85.3357 110.508L85.0957 110.778L84.3457 110.818V111.048L84.7757 111.518L85.2057 111.478L85.0857 111.908L85.2057 112.618L84.9257 112.818L85.4357 113.558L85.9857 113.988L83.8557 113.278L83.5757 112.928L82.2757 112.458L81.9557 111.748L81.2857 111.868L80.8957 111.518L80.6157 111.478L80.0257 111.828L80.1057 113.908L79.8257 114.218V114.528L80.1057 115.308H80.7357L81.3657 115.548L81.4457 116.718L82.1157 117.228V117.898L81.4457 118.718L80.9357 119.028L80.2257 119.148L79.5957 119.108L79.4757 118.908L78.9657 118.788L78.6857 118.828L77.8557 119.258L77.2257 118.788L77.1457 118.398L76.6357 117.728L75.1757 118.238L74.1157 117.808L72.8957 118.588L72.4257 118.708L71.5557 120.318L70.9257 121.098L70.1357 121.178L69.3857 121.528L68.4557 122.918L68.2557 122.858L67.9957 122.648L68.3157 122.498V121.628L67.5257 121.148L67.9457 119.988L67.3657 117.038L66.1957 113.758L64.9657 110.978L62.7957 104.558L61.4657 101.518L60.6357 100.458L60.6457 100.128L60.8357 100.138L61.2857 100.618L61.4757 100.698L61.6657 100.538L62.5157 99.2079L62.5357 98.3779L61.6157 97.0179L60.8557 96.3979L60.5957 96.4379L60.3657 96.7079L60.8657 96.8579L61.0757 97.5379L60.6657 97.5679L59.9257 97.0979L57.8857 94.3379L57.3257 93.8279L55.8757 92.9079L52.4457 91.1979L50.8957 90.0879Z" fill="white"/>
</svg>
