<svg width="793" height="317" viewBox="0 0 793 317" fill="none" xmlns="http://www.w3.org/2000/svg">
<g clip-path="url(#clip0_60_218)">
<path d="M202.096 179.386L201.456 179.566L200.886 179.396L199.196 178.426L199.516 177.656L200.666 177.146L202.366 177.876L202.496 178.166L202.096 179.386ZM218.376 170.976L222.736 172.186L225.826 174.696L226.346 176.456L224.826 179.086L224.696 181.016L223.076 181.756L222.616 182.886L221.016 183.256L220.836 182.966L220.736 181.816L219.016 179.866L218.646 180.006L218.186 180.476L218.526 180.896L218.456 181.656L218.066 181.916L215.116 182.866L214.556 182.626L213.986 179.116L214.546 177.466L214.606 175.166L214.966 174.736L214.936 173.786L215.206 171.846L215.486 171.476L216.226 171.366L217.276 171.436L218.376 170.976ZM188.246 157.856L189.066 159.186L189.556 160.586L189.546 162.396L189.916 164.326L190.836 167.136L191.346 168.216L192.126 169.206L192.856 169.896L193.356 170.106L197.336 170.836L200.196 171.956L199.516 172.346L198.466 173.546L197.196 176.816L197.076 177.646L197.206 178.086L197.986 178.546L198.296 178.476L199.486 179.026V180.256L199.076 180.686L195.646 180.756L194.346 178.676L191.526 177.406L189.186 176.736L188.276 176.286L186.606 176.116L186.196 175.816L185.266 174.266L184.956 172.926V172.336L185.606 170.836L185.526 169.946L184.916 169.426L184.176 169.216L183.586 168.476L183.226 164.956L183.076 164.626L182.296 164.066L177.676 163.546L176.566 163.876L175.296 163.986L171.746 163.106L171.486 162.256L171.836 160.946L172.446 160.496L174.326 159.816L176.036 158.636L176.266 158.276L176.316 157.816L176.076 157.346L175.176 156.796L175.336 155.886L176.166 155.036L177.236 154.356L179.336 153.696L179.826 153.816L180.566 155.566L180.716 157.236L181.636 157.976L182.876 158.266L183.366 158.226L181.626 154.016L182.236 153.696L184.706 153.026L185.116 153.116L187.126 154.476L187.416 154.896L187.146 155.726L187.286 156.296L188.246 157.856Z" fill="white"/>
<path d="M236.006 156.106L235.616 156.036L235.036 154.586L235.186 154.286L236.776 153.816L237.396 153.956L237.946 154.566L237.966 154.826L237.646 155.456L236.006 156.106ZM247.816 144.566L248.356 144.626L248.776 144.296L249.406 144.336L249.866 144.806L250.266 144.926L250.606 144.786L250.936 144.386L251.406 144.626L251.716 145.156L251.906 146.016L251.836 146.546L252.066 146.796V147.046L247.056 149.936L245.746 149.506L245.306 149.056L245.866 148.446L246.046 147.936L246.466 145.736L246.426 145.306L247.176 144.256L247.816 144.566ZM249.756 91.8061L249.256 93.1861L248.876 93.4061L248.576 94.1561L247.976 94.2261L247.926 94.7061L248.096 95.3561L248.546 95.6761L248.946 96.2961L250.146 96.5961L250.296 96.9461L249.876 99.0861L250.176 99.7361L251.996 101.546L252.346 101.696L253.176 102.986L254.446 103.036L254.946 103.236L255.196 103.536L255.366 104.926L256.856 105.666L257.206 106.536L257.636 106.886L258.236 106.816L258.966 106.966L259.416 107.636L259.566 108.156L260.046 108.556L260.466 109.276L260.786 110.246H261.766L262.736 110.496L263.636 111.866L263.986 112.136L265.186 112.556L265.916 112.626L266.466 112.506L266.866 111.836L267.316 112.286L267.766 112.266L268.146 111.946L268.916 111.696L269.866 111.146L270.586 111.026L271.216 110.476L271.486 109.876L275.336 109.376L277.286 108.806L277.606 109.106L279.356 109.676L279.856 109.996L280.356 109.976L281.056 109.676L281.826 109.796L282.526 110.966L282.756 110.946L282.856 110.426L283.376 110.356L284.506 109.536L284.776 109.516L285.776 110.036L286.356 109.866L288.056 110.216L288.376 109.446L289.726 108.056L292.946 107.836L292.916 107.186L293.166 106.586L293.316 105.096L294.166 104.256L294.216 103.606L293.796 102.956L294.296 102.406H294.716L295.986 101.616L297.556 101.266L298.106 100.996L298.186 100.696L299.206 100.326L302.106 100.696L303.756 100.576L304.306 100.976L304.656 100.996L305.226 100.696L305.576 100.226L305.776 100.176L306.596 100.396L307.516 100.326L308.146 100.446L308.666 100.746L308.796 101.146L308.626 101.196L308.126 102.186L307.626 102.356L307.326 102.656L307.176 103.106L307.926 103.176L309.276 102.726L309.646 102.776L310.026 103.446L310.776 103.666L312.376 103.516L313.146 103.716L313.866 104.216L314.036 104.566L314.636 104.936L314.936 105.306L315.336 105.326L315.666 105.026L316.236 104.806L317.056 104.756L317.726 105.056L318.476 106.396L318.796 106.496H319.096L319.446 106.276L319.826 105.826L321.726 105.056L322.006 104.216L321.876 104.016L321.946 103.846L323.866 103.056L324.266 102.606L327.316 102.286L328.286 102.936L328.486 103.216L328.456 103.226L327.636 103.646L327.516 105.366L327.726 105.546L327.396 105.966V106.656L327.186 107.346L326.886 107.646L326.366 107.556L325.816 107.916L325.516 107.766L324.816 107.826L324.296 108.246L324.206 108.906L323.906 109.146L323.236 109.296L323.146 109.656L323.476 109.956L323.596 110.376L323.416 110.886L322.896 111.396L322.806 111.666L323.076 112.356L323.656 112.836V113.136L323.136 113.766L323.196 114.576L323.016 114.936L322.346 115.206L322.166 115.746L322.286 115.986L321.776 116.276L321.546 116.986L321.186 117.226L320.996 117.666L320.626 117.826L320.436 118.246H320.036L319.356 118.666L319.086 119.756L317.776 120.516L317.616 120.826L316.656 121.646L316.606 121.876L316.076 122.286L315.156 122.846L313.776 122.586L313.036 122.786L312.406 123.166L312.376 123.356L313.406 124.366L314.956 125.186L314.806 126.526L314.996 126.876L315.356 127.126L315.096 127.506L314.916 128.266L315.286 128.316L315.356 128.536L314.996 129.326L314.556 129.586L314.896 129.786L314.816 130.116L314.456 130.186L314.186 130.756L313.626 131.276L312.776 131.456L312.356 132.056L311.826 132.426L311.636 133.026L311.346 133.246L312.126 133.956L312.316 134.736L311.656 135.536L311.496 136.026L311.376 136.106L311.226 135.966L310.936 135.466L310.446 135.456L310.306 135.106L309.926 135.226L309.656 135.746H309.286L308.956 135.976L307.626 135.836L307.296 136.146L305.856 136.566L305.186 137.196L304.486 137.316L303.906 137.136L303.326 137.286L303.246 138.146L302.506 138.176L302.256 138.596L301.366 138.626L300.766 138.976V139.176L299.846 139.256L299.746 139.446L298.896 139.286L298.816 139.746L298.586 139.976L298.216 139.716L298.206 139.106L297.836 138.966L297.346 139.406L296.496 139.716L296.086 139.536L295.726 139.976L295.316 139.496L294.676 138.286L294.336 137.996L293.786 137.966L292.966 139.106L293.196 139.826L293.096 139.896H292.716L291.946 139.586L290.866 139.476L290.676 139.656L290.986 140.776L290.916 141.086L289.706 141.426L289.336 141.276L288.846 140.746L288.706 141.606L288.996 142.366L288.326 142.216L288.176 142.286L288.016 142.856L287.556 143.116L286.546 143.046L285.776 143.316L285.556 143.616L284.626 144.176L284.036 144.216L283.736 144.586L283.916 145.276L283.446 145.756L282.966 145.906L282.696 146.446L283.006 147.086L282.746 147.566L283.076 147.856L282.956 148.156L281.766 148.356L281.456 148.616L280.346 148.626L280.126 148.806L280.006 149.346H279.706L279.346 150.096L278.716 150.426L278.556 151.026L278.136 151.506L277.926 151.546L277.966 151.836L276.856 151.616L276.736 152.146L276.356 152.006L276.496 152.796L276.416 153.446L276.106 153.306L276.066 152.816L275.796 152.656L274.976 153.146L275.236 153.536L275.306 153.986L274.496 154.206L274.126 153.786L273.646 153.936L273.346 154.236L272.856 153.846L272.416 154.386L271.536 154.606L271.246 155.026L270.696 155.406L270.736 156.186L271.176 156.296L271.356 156.736L271.616 156.926L272.036 156.826L272.216 156.686L272.326 156.236L272.746 156.056L273.036 156.216L273.256 156.736L273.376 157.936L273.226 158.316L272.856 158.656L272.746 159.096L272.716 159.736L273.046 160.146L273.006 160.516L272.666 160.936L272.816 161.356L273.156 161.586L273.676 161.446L274.566 161.566L274.606 161.716L274.456 162.116L274.526 162.536L273.826 163.126L274.506 164.416L274.466 164.646L274.276 164.876L274.306 165.166L273.686 165.886L274.376 167.016L274.896 168.836L274.976 170.146L275.506 172.206L275.176 173.026L275.626 173.296L275.966 173.286L276.116 173.736L275.596 174.646L274.696 175.096L273.246 175.466L273.096 176.036L272.476 176.556L271.296 176.756L270.516 177.236L269.306 177.646L268.926 177.936L268.586 178.876L267.256 179.706L266.916 179.566L266.996 179.266L266.806 178.576L266.886 177.736L266.516 176.866L266.046 176.296L265.406 176.226L264.326 176.556L263.016 177.186L261.066 178.786L260.866 178.516L260.396 178.416L260.226 177.476L259.886 176.906L260.426 175.836L260.526 175.236L260.186 174.766L259.776 174.576L259.596 172.916L258.336 172.546L259.006 171.746L259.256 170.486L258.216 166.686L257.486 165.816L257.526 164.706L258.016 163.246L258.026 162.566L257.326 160.766L256.636 160.266L254.966 159.556L254.186 158.806L254.376 157.886L255.716 157.096L256.406 155.896L257.056 152.566L257.066 151.046L256.846 150.306L256.636 149.926L255.976 149.406L255.176 149.226L254.306 148.126L254.826 146.726L252.906 146.096L251.736 144.486L251.066 144.076L250.336 144.566L249.206 143.816L248.796 143.056L248.496 142.786L246.516 142.236L246.226 141.966L245.746 142.086L245.946 142.926L245.686 143.336L245.426 143.416L243.706 142.846L243.146 142.276L242.686 141.386L242.886 138.786L243.346 138.906L243.706 139.276L244.856 139.616L245.646 139.656L246.696 140.286L246.716 139.776L245.746 139.046L244.876 139.016L244.646 138.556L244.916 138.096L244.956 137.436L243.536 137.466L243.136 137.596L241.456 136.996L240.736 136.186L240.306 134.256L239.316 131.676L239.656 131.086L240.296 130.956L240.126 130.146L241.256 128.356L241.636 126.746L241.436 125.566L240.596 123.676L239.496 122.516L238.676 122.276L237.446 122.226L237.166 121.966L237.196 121.336L237.646 120.396V119.876L236.936 119.036L237.406 116.916L237.136 115.996L236.406 115.206L236.656 114.336L235.906 113.446L236.056 113.016L236.746 112.466L237.266 112.416L237.936 111.726L238.326 110.586L237.896 109.166L237.406 108.746L236.936 107.386L237.066 107.186L237.796 107.356V106.596L238.396 105.476L239.126 104.746L239.356 103.956L239.156 102.696L239.286 101.806L239.656 101.116L240.396 100.426L242.616 99.0861L243.156 98.4961V98.0461L243.656 96.9561L244.356 95.9961L244.416 94.9461L244.156 94.3361L244.226 94.0761L244.696 93.9061L246.076 93.8761L246.386 93.4361L246.856 93.2361L248.546 93.2061L249.756 91.8061ZM235.786 78.4361L235.616 78.4961L234.646 77.7561L235.566 76.9861L235.876 75.9361L236.356 75.7661L236.626 75.8461L236.806 76.1961L236.626 77.6861L235.786 78.4361ZM182.176 78.6561L181.796 78.6761L181.536 78.4061L181.206 75.7161L181.326 74.8361L181.506 74.7961L184.056 76.2161L183.446 77.5561L182.576 78.4361L182.176 78.6561ZM226.656 64.2061L224.366 64.6861L222.906 63.8761L223.506 63.0361L224.756 62.1261L224.126 61.7561L222.336 61.1661L221.356 59.3161L221.126 58.1961L221.716 57.4861L222.456 57.2761L224.416 55.2261L225.626 55.5061L225.736 56.3461L225.956 56.8361L228.156 59.0061L228.316 60.7961L228.096 61.5761L226.656 64.2061Z" fill="white"/>
<path d="M393.766 85.0461L395.206 86.6161L395.946 87.8461L395.926 88.2761L395.316 89.1961L392.606 91.6461L391.606 91.2261L391.306 91.2361L391.776 91.6761L391.986 92.3861L391.896 94.5561L392.046 95.1561L392.846 96.0661L395.146 97.6561L396.596 99.1161L401.526 102.016L402.056 103.366L403.376 103.976L403.966 103.886L404.566 104.066L407.666 106.726L408.016 107.646L408.776 108.536L409.946 109.006L410.216 108.976L411.466 109.386L411.646 109.546L411.716 110.496L411.156 111.296L410.426 111.986L408.006 113.656L405.966 112.886L402.996 113.166L400.206 112.916L397.126 112.336L395.496 111.596L394.796 110.876L394.126 109.076L393.456 108.506L392.646 108.106L392.406 108.196L392.376 108.636L394.776 112.736L394.866 113.476L394.636 113.846L394.256 113.916L393.916 113.816L393.166 113.116L392.586 113.016L390.996 113.526L389.796 114.696L389.436 115.466L389.426 116.376L387.716 119.906L386.806 120.566L385.996 122.296L385.286 124.396L385.046 125.626L385.486 126.856L385.956 127.276L386.106 127.966L385.916 128.396L385.286 129.066L384.496 131.536L384.506 132.006L385.106 133.286L384.656 136.406L387.226 134.736L387.676 134.596L387.886 134.686L387.956 134.956L386.896 138.546L387.716 140.316L387.746 140.756L387.606 140.976L384.816 142.216L382.676 142.096L381.976 141.266L381.556 141.526L381.416 142.326L379.466 144.676L377.416 148.016L377.036 148.346L375.636 148.966L373.796 149.296L372.476 146.326L372.786 145.206L372.706 145.006L372.466 145.066L371.986 146.356L371.996 146.896L372.696 147.596L373.286 148.906L372.736 150.906L370.486 151.686L368.986 152.736L368.856 152.896L368.946 153.656L369.436 154.446L369.326 154.926L368.996 155.326L366.626 156.266L364.966 157.076L363.536 157.976L363.656 158.286L364.186 158.556L364.886 158.406L365.476 157.936L366.296 157.756L367.016 157.836L367.366 158.046L367.626 160.286L367.586 162.556L367.196 163.046L366.106 163.426L365.856 163.706L367.176 163.986H367.986L368.396 163.586L368.736 164.326L368.686 164.666L370.106 165.046L369.996 166.436L369.296 168.906L367.966 168.296L366.866 168.006L364.166 167.976L362.886 167.556L360.156 167.406L359.766 167.336L359.236 166.846L358.696 167.336L357.916 167.626L357.816 167.936L357.426 168.296L356.886 168.466L356.606 167.936L356.636 166.916L355.926 165.186L356.106 163.666L356.466 163.106L356.316 162.856L355.716 162.606L355.216 162.746L354.866 162.466L354.686 162.506L354.896 161.906L354.616 161.586V161.166L354.936 160.456L355.006 159.746L354.866 157.876L354.506 157.136L354.016 156.576L353.906 156.076L354.046 155.766L353.336 155.196L353.196 154.876L353.336 154.176L353.056 153.786L352.446 153.676L351.846 153.926L351.666 153.576L351.736 153.226L352.376 152.656L352.806 151.986L353.626 151.286L353.946 151.356L353.796 152.126L354.046 152.196L355.116 150.926L355.366 149.936L355.356 149.946L355.586 148.646L356.036 148.116L356.946 147.456L356.976 147.196L356.216 146.536L355.896 146.606L355.556 146.936L355.326 146.796L355.136 146.106L354.796 145.966L354.396 145.526L353.976 145.576L353.766 144.626L353.536 144.336L352.216 143.496L351.616 142.516L350.826 141.826L349.146 141.526L348.736 140.516L348.766 139.326L348.486 137.426L347.986 136.996L347.596 135.966L346.876 135.226L346.646 135.166L346.856 134.076L346.486 133.976L346.296 132.516L346.716 132.436L346.756 131.956L346.466 131.506L347.016 130.556V129.886L347.456 129.626L347.876 129.046L347.516 127.926L345.096 129.096L344.806 129.756L344.336 129.766L343.866 129.996L343.106 130.656L342.206 130.416L341.186 130.606V130.076L340.976 129.606L341.056 128.966L340.606 128.116L340.506 126.676L340.266 126.366L339.896 126.386L339.576 126.036L338.986 126.146L338.696 125.646L339.066 124.766L338.986 124.346L339.416 123.866L339.436 123.516L339.826 123.446L340.016 123.246L340.546 122.116L341.216 121.686L341.486 121.746L341.596 121.956L341.906 121.796L342.636 121.746L342.806 121.766L343.146 122.246L343.296 121.926L344.486 121.096L344.686 120.706L344.736 119.996L344.086 119.426L343.766 118.776L343.036 117.916L342.476 116.756L342.186 115.146L341.796 114.446L341.346 114.076L340.836 113.936L340.036 114.686L339.996 114.916L340.296 115.396L339.826 115.276L339.626 114.856L339.096 114.526L338.706 114.766L338.206 114.696L337.386 115.296L337.066 115.156L336.516 115.256L336.026 115.906L335.136 116.546L334.346 116.576V117.206L334.136 117.596L333.136 117.626L332.466 118.076L332.526 118.746L332.316 118.806L331.616 118.686L331.106 118.256L330.376 118.076L328.826 118.256L328.406 118.076L328.306 117.656L327.676 117.326V117.116L328.006 116.786L327.676 115.816L326.946 115.366L326.646 115.486L326.286 115.396L325.006 116.056L324.466 115.966L323.766 116.206L323.526 116.146L323.276 116.326L322.856 115.996H322.366L322.246 115.756L322.426 115.216L323.096 114.946L323.276 114.586L323.216 113.766L323.736 113.136V112.836L323.156 112.356L322.886 111.656L322.976 111.386L323.496 110.876L323.676 110.366L323.556 109.936L323.216 109.636L323.306 109.276L323.976 109.126L324.276 108.886L324.376 108.226L324.886 107.796L325.586 107.736L325.886 107.886L326.436 107.526L326.946 107.616L327.256 107.316L327.466 106.626V105.936L327.796 105.506L327.586 105.326L327.706 103.606L328.526 103.186L328.896 103.036L329.136 102.586L329.836 102.496L331.416 101.826L331.986 101.286L334.566 102.796L334.966 102.676L335.176 102.246L335.966 102.666L336.216 103.126L336.836 103.636L338.426 104.096L339.206 104.966L339.406 105.986L339.616 106.246L340.436 105.786L341.156 105.886L341.676 106.096L341.986 106.496L342.136 107.116L342.546 107.576L343.006 107.776L343.676 107.826L344.556 106.856H345.896L346.456 107.116L347.226 107.216L348.056 106.296L349.086 106.496L349.856 105.576L350.366 105.326L350.626 103.736L351.036 103.326L352.996 103.386L355.306 102.516L357.626 102.466L358.656 101.596L359.216 100.416L360.096 99.6461L361.686 97.5061L362.976 95.0461L362.666 93.8761L362.766 93.2061L363.236 92.6461L364.316 92.0861L364.566 91.4161L365.236 91.0061L365.396 90.1861L365.446 87.9861L365.646 87.2761L366.476 85.8961L366.836 85.6361L367.146 84.3061L367.396 83.9961L367.916 83.9461L368.476 84.5161L369.256 84.8161L369.556 85.1261V85.5361L370.176 85.8461L370.896 85.7861L371.926 85.4861L373.676 84.3561L375.936 83.5861L377.946 82.4161L379.236 82.3661L380.676 82.6661L382.266 82.2561H383.146L383.656 83.3861L384.276 83.8461L385.566 84.4561L386.076 84.5661L387.156 84.3061L387.616 84.6161L388.756 85.9961L390.136 86.5061L390.506 86.5561L391.786 85.7861L393.076 85.6361" fill="white"/>
<path d="M366.416 189.866L366.246 190.066L365.146 188.286L365.796 186.636L366.656 185.546L366.886 185.486L367.086 185.936V186.526L366.416 189.866ZM361.706 196.816L361.146 196.976L360.616 196.926L360.546 196.716L360.606 195.946L360.996 194.666L360.936 192.876L360.036 191.626L359.786 190.816L359.806 190.156L361.706 184.596L364.156 182.846L364.386 182.906L364.446 183.256L364.086 185.546L364.356 188.196L365.176 192.176L364.936 194.606L362.426 196.486L361.706 196.816ZM355.366 149.936L355.116 150.926L354.056 152.196L353.806 152.126L353.946 151.346L353.626 151.276L352.806 151.986L352.376 152.656L351.736 153.216L351.666 153.566L351.846 153.916L352.446 153.666L353.046 153.776L353.326 154.166L353.186 154.876L353.326 155.196L354.036 155.756L353.896 156.076L354.006 156.566L354.506 157.126L354.856 157.866L354.996 159.736L354.926 160.446L354.606 161.156V161.576L354.886 161.896L354.676 162.496L354.856 162.456L355.206 162.736L355.706 162.596L356.306 162.846L356.446 163.096L356.096 163.656L355.916 165.176L356.626 166.906L356.586 167.926L356.866 168.456L357.396 168.276L357.786 167.926L357.896 167.606L358.676 167.326L359.206 166.836L359.736 167.326L360.126 167.396L362.856 167.536L364.136 167.956L366.836 167.996L367.936 168.276L369.266 168.896L368.876 170.766L368.356 171.426L367.956 171.446L367.796 171.286L367.676 170.676L366.916 170.276L364.936 170.676L364.886 172.296L365.896 173.206L366.096 176.316L365.766 177.166L364.376 178.966L363.866 179.226L363.636 179.176L363.396 178.826L363.186 177.626L362.236 175.976L362.036 175.786L361.906 175.926L361.526 177.646L361.716 178.536L362.696 179.936L363.266 180.436L363.366 181.416L362.596 181.806L361.346 183.516L359.826 186.386L359.446 188.836L359.206 189.306L358.826 189.526L356.846 189.816L355.696 190.916L355.046 191.336L351.806 192.716L347.276 194.346L341.076 196.936L337.286 199.216L336.046 199.376L335.686 198.986L335.556 198.416L335.546 191.096L335.436 190.256L335.086 189.556L334.066 188.216L333.356 187.556L332.626 187.636L331.086 186.756V185.846L331.866 183.476L333.326 181.186L333.716 178.926L335.246 175.926L336.236 175.646L336.586 175.366L336.766 175.156L336.626 174.906L336.836 174.516L337.196 174.626L338.046 174.306L338.506 173.706L338.826 171.906L339.526 171.356L340.026 170.576L339.986 169.936L340.196 169.616L340.766 169.656L346.666 165.386L347.056 165.666L347.376 165.626L347.586 164.316L347.976 163.506L347.266 161.956V161.566L348.226 160.826L348.476 160.016L347.806 159.096L347.696 158.316L348.406 156.096L349.296 152.216L349.436 152.036L351.286 151.896L353.096 151.226L353.486 150.906L353.986 151.016L354.976 150.236L355.366 149.936Z" fill="white"/>
<path d="M268.616 178.876L268.966 177.946L269.346 177.656L270.546 177.246L271.326 176.776L272.506 176.566L273.126 176.046L273.276 175.476L274.726 175.106L275.636 174.656L276.156 173.746L275.996 173.296L275.656 173.316L275.206 173.036L275.536 172.226L275.006 170.156L274.916 168.856L274.396 167.026L273.716 165.896L274.326 165.176L274.306 164.886L274.496 164.656L274.536 164.426L273.846 163.136L274.546 162.546L274.476 162.126L274.636 161.736L274.586 161.586L273.696 161.456L273.176 161.596L272.836 161.366L272.686 160.946L273.026 160.516L273.066 160.156L272.746 159.746L272.766 159.106L272.876 158.666L273.246 158.326L273.396 157.946L273.276 156.746L273.056 156.226L272.766 156.066L272.346 156.246L272.236 156.696L272.056 156.826L271.636 156.926L271.376 156.736L271.196 156.296L270.756 156.186L270.716 155.416L271.266 155.036L271.546 154.606L272.426 154.396L272.866 153.846L273.356 154.246L273.656 153.946L274.136 153.796L274.506 154.216L275.316 153.996L275.246 153.546L274.986 153.156L275.806 152.666L276.086 152.826L276.126 153.316L276.436 153.456L276.526 152.796L276.386 152.006L276.766 152.146L276.896 151.616L278.006 151.836L277.956 151.546L278.166 151.506L278.586 151.026L278.756 150.436L279.386 150.106L279.746 149.356H280.046L280.166 148.816L280.386 148.636L281.496 148.626L281.806 148.366L283.006 148.156L283.126 147.856L282.796 147.576L283.056 147.096L282.736 146.456L283.016 145.916L283.496 145.766L283.956 145.286L283.786 144.596L284.086 144.226L284.676 144.186L285.606 143.626L285.826 143.336L286.586 143.056L287.606 143.126L288.066 142.866L288.226 142.296L288.376 142.226L289.056 142.376L288.766 141.616L288.906 140.756L289.396 141.286L289.766 141.436L290.966 141.096L291.036 140.786L290.726 139.676L290.916 139.496L291.996 139.606L292.766 139.916H293.146L293.246 139.846L293.006 139.126L293.836 137.986L294.376 138.016L294.726 138.296L295.366 139.506L295.776 139.986L296.136 139.546L296.546 139.726L297.396 139.416L297.886 138.976L298.256 139.116L298.266 139.726L298.636 139.986L298.876 139.756L298.956 139.286L299.806 139.456L299.896 139.266L300.816 139.186V138.976L301.416 138.626L302.306 138.596L302.556 138.176L303.296 138.146L303.376 137.296L303.956 137.146L304.526 137.316L305.226 137.196L305.896 136.566L307.336 136.146L307.666 135.836L308.996 135.976L309.326 135.736H309.696L309.966 135.226L310.356 135.106L310.486 135.456L310.986 135.466L311.266 135.976L311.416 136.106L311.546 136.026L311.706 135.536L312.366 134.736L312.176 133.956L311.396 133.246L311.676 133.036L311.876 132.436L312.406 132.066L312.826 131.466L313.686 131.286L314.246 130.776L314.516 130.206L314.876 130.136L314.956 129.806L314.616 129.606L315.056 129.346L315.406 128.556L315.336 128.336L314.966 128.286L315.146 127.516L315.406 127.136L315.056 126.896L314.856 126.546L315.016 125.196L313.466 124.386L312.436 123.376L312.466 123.186L313.096 122.806L313.836 122.606L315.216 122.856L316.136 122.306L316.666 121.896L316.726 121.666L317.686 120.846L317.846 120.536L319.166 119.776L319.436 118.686L320.116 118.266H320.516L320.706 117.846L321.076 117.676L321.266 117.246L321.626 116.996L321.856 116.286L322.366 115.996H322.856L323.276 116.326L323.526 116.146L323.766 116.206L324.466 115.966L325.006 116.056L326.286 115.396L326.646 115.486L326.946 115.366L327.676 115.816L328.006 116.786L327.676 117.116V117.326L328.306 117.656L328.406 118.076L328.826 118.256L330.376 118.076L331.106 118.256L331.616 118.686L332.316 118.806L332.526 118.746L332.466 118.076L333.136 117.626L334.136 117.596L334.346 117.206V116.576L335.136 116.546L336.026 115.906L336.516 115.256L337.066 115.156L337.386 115.296L338.206 114.696L338.706 114.766L339.096 114.526L339.626 114.856L339.826 115.276L340.296 115.396L339.996 114.916L340.036 114.686L340.836 113.936L341.346 114.076L341.796 114.446L342.186 115.146L342.476 116.756L343.036 117.916L343.766 118.776L344.086 119.426L344.736 119.996L344.686 120.706L344.486 121.096L343.296 121.926L343.146 122.246L342.806 121.766L342.636 121.746L341.906 121.796L341.596 121.956L341.486 121.746L341.216 121.686L340.546 122.116L340.016 123.246L339.826 123.446L339.436 123.516L339.416 123.866L338.986 124.346L339.066 124.766L338.696 125.646L338.986 126.146L339.576 126.036L339.896 126.386L340.266 126.366L340.506 126.676L340.606 128.116L341.056 128.966L340.976 129.606L341.186 130.076V130.606L342.206 130.416L343.106 130.656L343.866 129.996L344.336 129.766L344.806 129.756L345.096 129.096L347.516 127.926L347.876 129.046L347.456 129.626L347.016 129.886V130.556L346.466 131.506L346.756 131.956L346.716 132.436L346.296 132.516L346.486 133.976L346.856 134.076L346.646 135.166L346.876 135.226L347.596 135.966L347.986 136.996L348.486 137.426L348.766 139.326L348.736 140.516L349.146 141.526L350.826 141.826L351.616 142.516L352.216 143.496L353.536 144.336L353.766 144.626L353.976 145.576L354.396 145.526L354.796 145.966L355.136 146.106L355.326 146.796L355.556 146.936L355.896 146.606L356.216 146.536L356.976 147.196L356.946 147.456L356.036 148.116L355.586 148.646L355.356 149.946L355.006 150.256L354.016 151.036L353.516 150.926L353.126 151.246L351.316 151.916L349.466 152.056L349.326 152.236L348.436 156.116L347.726 158.336L347.836 159.116L348.506 160.036L348.256 160.846L347.296 161.586V161.976L348.006 163.526L347.616 164.336L347.406 165.646L347.086 165.676L346.696 165.396L340.806 169.666L340.236 169.636L340.016 169.956L340.056 170.586L339.556 171.366L338.856 171.916L338.536 173.716L338.076 174.316L337.226 174.626L336.866 174.526L336.656 174.916L336.796 175.156L336.616 175.376L336.266 175.656L335.266 175.936L333.746 178.936L333.356 181.196L331.896 183.496L331.116 185.856V186.766L328.696 185.616L326.836 185.116L325.616 185.206L322.026 186.926L320.176 187.206L319.376 187.176L318.306 186.526L318.796 184.966L318.866 183.386L318.606 182.476L318.246 181.946L315.986 182.086L315.536 182.576L315.366 183.176L314.096 183.466L312.006 182.136L308.886 178.876L308.366 178.806L306.896 180.406L306.786 180.976L307.226 181.546L306.926 182.546L303.616 184.576L302.436 185.406L301.736 186.126L299.986 186.666L299.666 186.636L297.686 185.066L295.756 184.396L294.716 184.376L293.266 184.936L289.576 188.456L288.966 188.796L288.556 188.856L287.106 188.256L287.756 185.976L287.286 182.316V181.496L287.566 180.416L287.536 179.696L286.176 177.266L285.776 175.666L285.296 175.596L285.366 176.396L284.796 177.236L285.226 177.586L285.126 178.036L284.186 178.206L283.886 178.536L282.646 179.306L282.476 178.836L281.566 178.036L280.826 177.466L280.396 177.396H278.916L275.866 179.146L274.646 179.676L273.676 179.976L272.196 180.176L270.016 178.636L268.616 178.876Z" fill="white"/>
<path d="M388.446 70.9461L387.886 71.3761L386.596 70.3561L386.126 69.1161L386.156 68.7061L386.316 68.4861L387.776 68.3661L388.596 68.6161L388.746 68.9361L388.446 70.9461ZM383.716 66.1561L385.916 67.4561L385.906 67.6561L385.366 68.1261L383.676 67.3861L381.746 67.2861L381.106 66.9761L380.706 66.4361L380.786 66.0061L381.696 65.6261L383.716 66.1561ZM389.406 58.7561L388.626 59.0461L387.436 58.1761L387.256 57.2861L387.326 57.0661L388.106 56.2161L388.596 56.2661L389.846 57.2761L389.946 57.7461L389.406 58.7561ZM392.186 55.4461L392.616 55.6361L393.036 57.6461L392.476 58.0861L391.966 58.1661L391.356 57.8561L387.836 55.0361L387.896 54.7761L388.796 54.0361L389.306 54.0061L390.306 54.3561L390.496 54.7361L391.076 55.1561L392.186 55.4461ZM354.226 56.8861L354.266 55.9561L354.596 55.2861L354.966 55.3161L355.756 54.4061L356.156 54.4661L356.296 54.7961L356.706 54.6861L356.836 54.1161L357.556 53.5161L357.416 53.0961L357.536 52.0561L358.066 51.8661L358.396 52.4361L359.906 52.7361L360.176 52.9361L360.286 53.4261L360.936 53.9261L361.136 53.7961L361.526 53.0361L362.376 52.7061L362.506 52.0661L362.656 51.9561L364.066 52.1661L364.366 52.3461L365.886 51.9961L367.056 52.9661L367.256 53.6061L367.846 53.4661L368.076 52.9261L368.446 53.0861L368.916 53.0061L368.866 52.3861L369.406 51.7161L369.816 52.1661L370.196 52.2861L370.446 52.8961L371.216 52.6561L371.746 52.8161L372.056 52.7161L372.336 52.5561L372.596 52.0561L373.006 52.3061L373.386 52.7861L373.646 52.6761L374.136 52.9561L374.826 52.7561L375.356 52.3461L376.086 52.5261L376.376 52.7561L377.026 52.8161L377.306 53.1161L377.646 52.7261L378.756 52.8761L379.406 52.7061L379.996 52.8161L380.636 52.6561L380.726 52.4661L381.256 52.2561L384.276 54.4061L384.676 55.2661L384.916 55.4161L386.126 55.7561L387.016 55.4961L387.256 55.6661L386.446 56.1661L385.536 56.4461L383.976 55.9961L383.806 56.1861V56.7461L384.196 57.0661L385.156 57.2961L387.796 59.5161L386.046 59.7761L387.706 60.7261L389.266 60.8961L390.536 62.2361L390.576 62.4961L390.326 63.1361L391.386 63.4561L391.306 63.7061L390.106 64.8261L389.036 65.0361L385.866 65.2661L383.196 64.8861L381.396 65.1861L380.916 65.4761L380.476 66.1261L380.506 66.5361L381.066 67.4061L382.546 68.3361L383.806 68.1861L384.606 68.3961L384.626 69.2361L384.346 69.7561L386.106 70.6761L385.936 70.9561L384.676 71.1261L383.816 71.4661L383.526 71.9261L382.556 72.0961L382.386 72.4361L382.926 72.7561L384.936 73.1061L387.646 74.2861L388.866 76.3661L388.586 77.9761L388.576 79.2361L389.596 79.4161L390.396 79.9061L390.606 80.2361L390.746 81.5761L390.976 82.2961L393.756 85.0361L393.066 85.6261L391.776 85.7761L390.486 86.5461L390.126 86.4961L388.736 85.9861L387.606 84.6061L387.146 84.2961L386.066 84.5561L385.556 84.4561L384.266 83.8461L383.646 83.3861L383.136 82.2561H382.266L380.666 82.6661L379.226 82.3561L377.936 82.4061L375.926 83.5861L373.666 84.3561L371.916 85.4861L370.886 85.7961L370.166 85.8461L369.546 85.5361V85.1261L369.256 84.8161L368.486 84.5061L367.916 83.9461L367.406 83.9961L367.146 84.3061L366.836 85.6361L366.476 85.8961L365.656 87.2761L365.446 87.9961L365.396 90.1961L365.246 91.0161L364.576 91.4261L364.316 92.0861L363.236 92.6461L362.776 93.2061L362.676 93.8761L362.986 95.0561L361.696 97.5061L360.096 99.6561L359.226 100.426L358.656 101.606L357.626 102.476L355.306 102.526L352.996 103.396L351.036 103.346L350.626 103.756L350.366 105.336L349.856 105.596L349.086 106.516L348.056 106.316L347.236 107.236L346.466 107.136L345.896 106.876H344.556L343.686 107.846L343.016 107.796L342.556 107.596L342.146 107.136L341.996 106.526L341.686 106.116L341.176 105.916L340.456 105.816L339.636 106.276L339.426 106.016L339.216 104.996L338.446 104.126L336.856 103.666L336.236 103.156L335.976 102.696L335.186 102.276L335.676 101.466L335.496 101.166L335.616 100.416L336.416 99.9461L336.936 99.0261L337.316 98.7161L337.446 97.7261L337.336 96.5361L337.206 96.4061L337.696 95.7461L337.626 95.4761L338.186 95.3161L338.726 95.5661L339.176 94.9261L339.846 94.8161L340.206 94.4761L339.806 93.6661L339.856 93.4361L340.546 92.9161L340.526 92.6961L340.016 92.4461L339.256 92.7861L339.056 92.3361L339.216 91.3761L338.866 91.1861L338.706 90.8961L338.686 90.0761L339.026 88.7661L340.866 88.5661L341.646 88.0761L341.686 87.8461L341.356 87.4161L341.666 86.7861L342.336 86.8961L342.766 86.6661L343.276 86.0761H343.946L344.146 85.4861L344.596 85.0761L345.176 84.8961L345.956 84.9161L346.556 84.4161L346.626 84.1061L346.156 83.7661L346.046 83.4261L345.376 82.6361L344.386 82.9461L344.076 82.4761L344.386 82.0961L344.476 81.6861V81.1961L344.246 81.0561V80.6761L344.846 80.1561V79.7261L345.026 79.3861L344.846 79.1161L344.336 78.9861L344.296 78.8061L345.256 78.0361L345.506 76.9761L347.096 75.9161L347.436 75.0861L348.046 75.7361L348.086 76.1461L349.316 76.0561L350.126 75.2861L351.156 75.1461L351.336 74.8061V73.9661L351.466 73.7161L352.276 73.0461V72.8461L351.566 72.3261L351.516 72.1461L351.936 69.3361L352.566 68.0761L352.906 68.0961L353.306 68.7261L353.706 68.1461L353.126 67.1361L352.996 66.0361L352.616 65.5661L352.456 64.7061L352.506 63.1561L352.646 62.4461L353.166 61.4061L353.206 60.8461L353.156 60.6661L352.376 60.1061L352.246 59.7961L353.096 59.5661L353.546 59.1561L354.216 57.0761L354.226 56.8861Z" fill="white"/>
<path d="M384.456 13.2461L384.096 13.2861L383.026 13.0261L382.756 12.7161L382.886 12.4761L383.856 12.3961L384.536 12.1261L384.656 11.8961L384.556 11.6861L383.946 11.6061L383.886 11.3661L384.066 11.1861L385.056 10.9361L385.476 11.2361L385.876 11.9061L385.836 12.3761L385.626 12.6361L384.456 13.2461ZM373.216 14.0161L373.496 14.1461L373.916 14.0861L374.576 13.8061L377.786 9.83605L377.896 9.52605L377.466 8.35605L377.486 7.93605L378.136 7.16605L378.496 6.92605L379.456 6.77605L380.026 6.96605L381.256 7.74605L381.316 8.72605L381.186 9.18605L381.326 10.8061L381.926 13.0161L385.016 14.7561L386.606 14.7861L388.156 15.1861L388.646 15.5861L389.476 16.7661L389.736 17.3961L389.446 19.6461L389.226 19.7761L388.566 19.6761L388.056 19.8761L387.546 20.2761L387.336 20.7561L387.366 21.0061L388.416 22.5461L388.626 24.3861L387.846 25.1161L385.646 25.8761L390.476 25.5461L392.286 24.8961L394.016 23.1061L394.366 23.0161L395.086 23.7361L396.406 26.4261L395.636 27.3561L394.946 27.4761L393.056 27.2961L392.656 27.5761L392.826 28.3161L393.476 29.5261L396.416 29.4461L396.946 27.7661L397.296 27.4761L398.716 27.0661L400.706 27.4161L402.456 28.2661L404.256 29.4661L405.466 30.3461L406.216 31.1461L410.416 33.9361L412.756 34.3761L413.316 34.2261L413.816 33.8361L414.826 33.7061L415.676 34.3961L416.316 35.4061L416.256 37.4961L415.416 38.7861L414.506 39.4161L412.756 40.1461L410.046 40.8761L406.386 42.3361L403.756 42.0661L401.976 41.3661L401.396 40.8261L400.376 40.7361L397.836 42.0161L396.676 43.2861L396.536 43.8861L399.126 46.8661L401.456 48.3761L401.676 48.0661L401.856 48.0361L402.626 48.3861L402.656 48.8661L402.316 49.3261L403.046 49.9761L403.646 49.5461L404.526 49.6161L405.396 51.0561L405.136 51.4461L403.746 52.5561L401.256 52.6061L397.436 53.3161L396.426 53.6161L394.196 54.7561L392.636 54.3761L391.896 53.6661L388.956 52.1561L387.856 52.5161L388.246 54.0061L387.366 55.1661L387.216 55.6661L386.976 55.4961L386.086 55.7561L384.876 55.4161L384.636 55.2661L384.236 54.4061L381.216 52.2561L380.686 52.4661L380.596 52.6561L379.956 52.8161L379.366 52.7061L378.716 52.8761L377.606 52.7261L377.266 53.1161L376.986 52.8161L376.336 52.7561L376.046 52.5261L375.316 52.3461L374.786 52.7561L374.096 52.9561L373.606 52.6761L373.346 52.7861L372.966 52.3061L372.556 52.0561L372.296 52.5561L372.016 52.7161L371.706 52.8161L371.176 52.6561L370.406 52.8961L370.156 52.2861L369.776 52.1661L369.366 51.7161L368.826 52.3861L368.876 53.0061L368.406 53.0861L368.036 52.9261L367.806 53.4661L367.256 53.6061L367.066 52.9761L365.896 52.0061L364.376 52.3561L364.076 52.1761L362.666 51.9661L362.516 52.0761L362.386 52.7161L361.536 53.0461L361.146 53.8061L360.946 53.9361L360.296 53.4361L360.186 52.9461L359.916 52.7461L358.406 52.4461L358.076 51.8761L357.546 52.0661L357.426 53.1061L357.566 53.5261L356.846 54.1261L356.716 54.6961L356.306 54.8061L356.166 54.4761L355.766 54.4161L354.976 55.3261L354.606 55.2961L354.276 55.9661L354.236 56.8961V56.9261L353.896 56.8561L353.346 56.4261L353.036 55.6861L353.466 54.5861V48.8861L352.846 45.3961L352.356 41.2861L350.646 41.0261L351.526 40.6661L352.026 40.2061L352.306 38.2961L352.046 37.8961L351.536 37.9361L350.766 37.5861L348.596 36.0561L348.956 34.4761L351.516 32.4661L355.566 32.4161L356.516 32.1761L357.056 31.6561L357.856 30.2561L358.266 28.4861L360.556 26.8761L360.596 25.8461L361.236 24.5061L361.576 21.9161L365.356 17.8461L368.336 15.5961L368.446 14.7161L370.806 12.0061L370.796 10.7561L371.036 9.48605L372.056 7.38605L372.716 6.51605L372.926 6.42605L374.066 7.42605L374.186 7.70605L374.526 10.2261L374.386 11.0261L373.666 11.9561L373.166 12.9861L373.096 13.7161L373.216 14.0161ZM381.856 1.28605L381.746 2.68605L381.296 3.71605L379.546 3.89605L378.656 4.43605L378.326 4.99605H378.106L377.856 3.85605L378.036 2.10605L378.176 1.89605L379.466 1.02605L380.806 0.706055L381.606 0.856055L381.856 1.28605ZM374.796 2.97605L374.486 3.63605L374.406 3.55605L374.866 2.06605L376.976 0.706055L377.266 1.47605L377.276 2.19605L376.236 2.62605L374.796 2.97605Z" fill="white"/>
<path d="M280.286 86.5561L279.536 86.8461L279.236 86.6361L278.426 85.2961L278.566 84.4861L278.246 80.4261L278.426 79.8361L278.866 79.6161L279.306 79.9661L279.776 81.0261L279.696 84.5161L280.286 86.5561ZM350.636 41.0161L352.346 41.2761L352.836 45.3861L353.456 48.8761V54.5761L353.026 55.6761L353.336 56.4161L353.886 56.8461L354.226 56.9161L354.216 57.0461L353.546 59.1261L353.096 59.5361L352.246 59.7661L352.376 60.0761L353.156 60.6361L353.206 60.8161L353.166 61.3761L352.646 62.4161L352.506 63.1261L352.456 64.6761L352.616 65.5361L352.996 66.0061L353.126 67.1061L353.706 68.1161L353.306 68.6961L352.906 68.0661L352.566 68.0461L351.936 69.3061L351.516 72.1161L351.566 72.2961L352.276 72.8161V73.0161L351.466 73.6861L351.336 73.9361V74.7761L351.156 75.1161L350.126 75.2561L349.316 76.0261L348.086 76.1161L348.046 75.7061L347.436 75.0561L347.096 75.8861L345.506 76.9461L345.256 78.0061L344.296 78.7761L344.336 78.9561L344.846 79.0861L345.026 79.3561L344.846 79.6961V80.1261L344.246 80.6461V81.0261L344.476 81.1661V81.6561L344.386 82.0661L344.076 82.4461L344.386 82.9161L345.376 82.6061L346.046 83.3961L346.156 83.7361L346.626 84.0761L346.556 84.3861L345.956 84.8861L345.176 84.8661L344.596 85.0461L344.146 85.4561L343.946 86.0461H343.276L342.766 86.6361L342.336 86.8661L341.666 86.7561L341.356 87.3861L341.686 87.8161L341.646 88.0461L340.866 88.5361L339.026 88.7361L338.686 90.0461L338.706 90.8661L338.866 91.1561L339.216 91.3461L339.056 92.3061L339.256 92.7561L340.016 92.4161L340.526 92.6661L340.546 92.8861L339.856 93.4061L339.806 93.6361L340.206 94.4461L339.846 94.7861L339.176 94.8961L338.726 95.5361L338.186 95.2861L337.626 95.4461L337.696 95.7161L337.206 96.3761L337.336 96.5061L337.446 97.6961L337.316 98.6861L336.936 98.9961L336.416 99.9161L335.616 100.386L335.496 101.136L335.676 101.436L335.186 102.246L334.976 102.666L334.586 102.786L332.006 101.276L331.426 101.816L329.846 102.476L329.146 102.566L328.906 103.016L328.566 103.156L328.366 102.876L327.396 102.226L324.346 102.546L323.946 102.996L322.026 103.786L321.956 103.956L322.086 104.156L321.806 104.996L319.906 105.766L319.526 106.216L319.176 106.436H318.876L318.556 106.336L317.806 104.996L317.136 104.696L316.316 104.746L315.746 104.966L315.416 105.266L315.016 105.246L314.716 104.876L314.116 104.506L313.946 104.156L313.226 103.656L312.456 103.456L310.856 103.606L310.106 103.386L309.726 102.716L309.356 102.666L308.006 103.116L307.256 103.046L307.406 102.596L307.706 102.296L308.206 102.126L308.706 101.136L308.876 101.086L308.746 100.686L308.226 100.386L307.596 100.266L306.676 100.336L305.856 100.116L305.656 100.166L305.306 100.636L304.736 100.936L304.386 100.916L303.836 100.516L302.186 100.636L299.286 100.266L298.266 100.636L298.186 100.936L297.636 101.206L296.066 101.556L294.796 102.346H294.376L293.876 102.896L294.296 103.546L294.246 104.196L293.396 105.036L293.246 106.526L292.996 107.126L293.026 107.776L289.806 107.996L288.456 109.386L288.136 110.156L286.436 109.806L285.856 109.976L284.856 109.456L284.586 109.476L283.456 110.296L282.936 110.366L282.836 110.886L282.606 110.906L281.906 109.736L281.136 109.616L280.436 109.916L279.936 109.936L279.436 109.616L277.686 109.046L277.366 108.746L275.416 109.316L271.566 109.816L271.296 110.416L270.666 110.966L269.946 111.086L268.996 111.636L268.226 111.886L267.846 112.206L267.396 112.226L266.946 111.776L266.546 112.446L265.996 112.566L265.266 112.496L264.066 112.076L263.716 111.806L262.816 110.436L261.846 110.186H260.866L260.546 109.216L260.126 108.496L259.646 108.096L259.496 107.576L259.046 106.906L258.316 106.756L257.716 106.826L257.286 106.476L256.936 105.606L255.446 104.866L255.276 103.476L255.026 103.176L254.526 102.976L253.256 102.926L252.426 101.636L252.076 101.486L250.256 99.6761L249.956 99.0261L250.376 96.8861L250.226 96.5361L249.026 96.2361L248.626 95.6161L248.176 95.2961L247.926 94.7061L247.976 94.2361L248.576 94.1661L248.876 93.4161L249.256 93.1961L249.756 91.8161L249.906 92.9961L249.836 94.1361L250.176 94.7961L250.846 95.5961L254.116 97.8261L254.606 98.3661L255.536 98.5061L260.226 98.1061L261.336 96.5861L261.566 96.4561L261.766 96.5261L264.106 99.1761L264.156 99.5061L268.006 100.666L268.536 100.956L268.656 101.276L268.556 101.606L267.536 102.496L267.736 102.596L268.546 102.456L269.036 101.996L269.246 100.566L270.066 100.476L272.736 101.706L274.236 103.276L275.836 103.986L278.676 104.516L279.696 104.296L278.116 103.146L277.336 103.096L276.406 103.436L275.916 103.376L274.156 102.306L273.376 101.076L273.156 100.406L273.656 98.7861L274.266 98.5061L276.146 93.9361L276.706 91.8961L277.296 91.0661L277.566 90.9161L278.776 91.2261L279.196 90.9961L279.566 90.5261L279.596 90.3261L279.306 90.2461L276.486 90.6261L276.156 90.5461L276.336 88.5461L276.826 86.1961L277.076 85.7861L277.406 85.6661L278.636 86.3861L279.546 87.2161L279.996 86.9261L280.966 86.7161L280.146 84.7861L280.726 81.4861L280.926 81.1061L284.736 78.4761L287.416 78.0361L289.606 77.9161L292.076 77.4861L305.426 74.1161L306.956 73.6361L307.946 73.0961L308.496 72.5761L309.196 71.5061L312.526 67.4861L314.946 63.9461L316.726 61.9461L319.356 59.8061L320.496 58.6961L323.796 54.4361L324.456 53.1061L324.976 51.0661L324.926 50.2861L324.426 48.8261L324.496 48.6061L325.026 48.3161L327.066 48.4361L328.976 49.1561L330.516 51.2361L330.766 52.9561L331.876 54.1861L334.396 56.3261L335.626 57.7361L335.686 58.1061L335.936 58.3561L336.486 58.2961L337.776 57.5661L339.006 56.2161L339.986 52.7261L339.926 51.5661L339.616 51.2561L338.636 46.4161L338.696 45.9861L339.806 44.8861L341.406 44.7061L341.896 44.5261L342.266 44.2161L342.716 43.3661L342.936 44.6761L342.696 45.3861L342.876 47.5361L343.306 48.7661L344.046 52.0761L346.076 52.8061L348.226 53.2961L348.536 53.1761L348.416 52.2561L347.366 51.4561L347.116 51.0861L346.996 50.3461V48.9361L347.176 48.4461L347.116 47.7061L346.136 44.6461L344.926 43.0661L346.176 42.1561L347.316 42.7161L348.036 43.2661L348.536 43.1661L349.156 42.7161L350.636 41.0161Z" fill="white"/>
<path d="M404.566 47.616L404.086 48.286L403.416 48.276L400.306 47.036L402.536 46.736L404.566 47.616ZM344.926 43.016L346.136 44.596L347.116 47.656L347.176 48.396L346.996 48.886L347.116 51.036L347.366 51.406L348.416 52.206L348.536 53.126L348.226 53.246L346.076 52.756L344.046 52.026L343.306 48.716L342.876 47.486L342.696 45.336L342.936 44.626L343.226 44.866L343.426 44.786L344.516 43.986L344.926 43.016ZM342.186 43.026L342.056 43.286L342.686 43.186L342.716 43.326L342.266 44.176L341.896 44.486L341.406 44.666L339.806 44.846L338.696 45.946L338.636 46.376L339.616 51.216L339.926 51.526L339.986 52.686L339.006 56.176L337.776 57.526L336.486 58.256L335.936 58.316L335.686 58.066L335.626 57.706L334.396 56.296L331.876 54.156L330.766 52.926L330.516 51.206L328.976 49.126L327.066 48.406L328.166 48.396L328.566 48.586L330.256 48.346L334.056 46.696L334.486 46.416L336.586 44.256L337.806 43.336L340.866 41.426L343.056 40.546L343.556 40.446L344.056 40.546L344.156 40.696L342.186 43.026Z" fill="white"/>
</g>
<defs>
<clipPath id="clip0_60_218">
<rect width="792.546" height="316.664" fill="white" transform="translate(0 0.328125)"/>
</clipPath>
</defs>
</svg>
