<svg width="793" height="318" viewBox="0 0 793 318" fill="none" xmlns="http://www.w3.org/2000/svg">
<path d="M584.816 270.284L583.256 270.214L581.786 269.494L581.626 269.164L582.676 268.784L584.036 268.854L585.066 269.364L585.126 269.884L584.816 270.284ZM564.546 267.404L566.386 268.054L568.126 268.204L568.996 268.054L569.436 268.324L569.466 268.574L567.886 270.244L567.696 270.294L564.316 269.174L563.836 268.874L563.156 267.564L564.546 267.404ZM615.756 271.764L615.086 271.814L615.076 271.584L616.666 269.864L617.896 269.194L618.486 268.204L619.386 267.214L619.716 267.124L622.236 267.934L621.606 268.554L618.446 269.774L617.366 270.544L617.216 270.984L616.066 271.724L615.756 271.764ZM597.816 266.704L596.556 266.404L594.646 264.064L594.506 263.674L594.656 262.944L594.756 262.564L595.036 262.254L596.666 262.034L598.716 262.584L599.106 262.904L599.446 264.344L597.816 266.704ZM545.096 259.954L545.906 259.964L546.336 261.304L544.926 261.364L543.246 261.874L542.346 262.514L541.376 263.704L539.906 264.484L537.476 264.204L534.746 263.664L533.746 263.684L531.446 264.164L529.216 265.954L528.916 266.014L528.736 265.764L529.436 263.094L532.196 259.734L535.886 260.824L538.536 260.364L539.776 259.294L541.066 258.694L543.366 258.114L543.576 258.264L543.656 258.934L545.096 259.954ZM556.766 259.604L556.506 259.734L556.166 259.664L555.926 259.254L556.296 257.254L556.656 257.024L558.346 257.574L558.406 257.834L558.276 258.534L556.766 259.604ZM620.406 257.174L619.066 256.754L618.836 256.224L619.146 255.744L619.666 255.554L621.996 255.314L622.206 255.454L621.466 256.354L620.406 257.174ZM631.946 251.934L631.216 252.244L630.836 252.174L630.226 252.674L630.896 255.944V256.654L630.046 259.214L629.046 260.514L626.086 262.694L625.096 264.294L625.036 265.554L624.836 265.894L624.376 266.134L621.496 265.854L621.016 265.614L620.596 263.314L622.416 260.174L622.186 259.664L623.236 256.814L624.436 255.814L624.906 255.634L625.816 254.774L627.046 253.284L628.406 250.884L629.166 250.474L630.466 250.334L631.446 250.824L631.946 251.934ZM635.186 250.174L636.086 251.514L636.236 252.154L635.966 252.674L635.786 252.724L634.946 252.144L634.536 251.254L633.546 251.074L632.376 251.334L631.866 251.234L631.726 251.014L631.826 250.534L632.116 250.334L635.186 250.174ZM578.576 251.924L578.086 252.094L576.576 251.154L576.346 250.744L576.406 250.534L576.726 250.174L577.946 249.434L579.336 250.194L579.416 250.394L579.016 251.384L578.576 251.924ZM686.636 237.094L686.336 237.424L685.706 238.874L685.606 239.534L684.976 240.754L684.716 240.524L684.256 240.594L684.186 240.994L684.356 241.454L684.656 241.624V242.024H684.326L683.996 242.224L683.866 242.914L683.206 243.934L682.676 244.434H682.376L681.816 244.004L681.886 243.544L682.386 243.084L682.716 242.294L682.786 241.464L683.186 240.874L682.886 240.904L682.656 240.604L682.326 239.714L682.426 239.214L683.086 238.754L683.816 238.494L683.786 237.764L683.956 237.534L684.646 237.204L684.946 236.674L685.936 235.884L686.466 235.914L686.766 236.214L686.636 237.094ZM649.846 229.914L649.236 230.164L648.416 229.904L647.976 229.464L648.026 228.224L647.796 226.074L647.316 224.704L647.426 224.384L648.546 224.064L650.356 227.514V228.644L649.846 229.914ZM683.696 225.524L683.796 226.544L684.196 227.634L683.566 227.764V228.064L684.886 228.724L684.856 229.054L684.686 229.314L684.286 229.414L683.526 229.084L683.496 229.584L683.896 229.844L683.966 230.074L683.896 230.504L683.636 230.634L683.276 230.564L682.646 230.064L682.476 230.194V230.494L683.406 231.154L683.606 231.514L684.166 231.844L684.526 232.434L684.166 234.744L683.866 235.664L683.206 236.784L681.946 237.444L681.446 237.344L681.216 237.544L681.576 238.534L682.106 238.864L682.036 239.364L680.946 240.354L680.056 240.094L679.726 240.264L679.496 240.824L679.596 241.154L680.096 240.984L680.066 241.484L679.436 242.504L678.746 242.964L677.426 244.484L677.396 245.144L676.896 245.774L674.846 246.664L674.546 246.994L674.086 246.944L673.726 246.054L673.396 245.754H672.706L671.946 244.434V244.074L672.176 243.874L672.536 242.354L672.766 239.244L673.066 238.484L673.036 238.054L673.336 237.064L673.206 235.314L672.776 233.794L673.436 233.724L673.006 232.534L673.236 231.974V231.474L673.666 231.114L673.836 231.284V231.614L674.096 231.644L674.596 231.344H675.096L675.196 232.004L675.396 232.174L675.726 232.074L676.186 231.614L676.716 230.294V230.094L676.216 229.794L676.246 229.494L676.416 229.194L676.946 228.794L677.016 228.464L677.416 228.134L677.676 227.504L677.606 227.274L677.306 227.144L676.806 227.444L676.076 226.854L675.246 226.754L674.746 226.224L674.816 225.894L675.446 225.204L676.436 225.834L676.796 225.864L678.086 224.874L678.716 223.224L679.476 222.724L679.546 222.094L679.346 221.234L679.516 220.774L680.406 219.554L681.036 219.384L681.396 219.584L682.356 221.234L682.856 221.664L682.886 221.994L683.316 222.654L683.346 223.774L684.176 224.834L684.106 225.334L683.696 225.524ZM652.966 228.704L651.136 231.084L650.966 231.034L650.956 230.724L652.566 225.724L652.906 225.124L653.496 224.564L655.716 218.984L656.126 218.814L656.696 218.894L657.026 219.594L655.676 223.984L655.146 224.634L654.296 225.134L653.126 226.734L652.846 227.744L652.966 228.704ZM576.296 189.924L574.216 190.334L574.086 190.204L574.346 189.624L574.336 188.644L574.866 188.254L576.076 188.374L576.996 189.284L576.976 189.484L576.296 189.924ZM578.036 188.274L578.856 188.564L579.216 187.914L579.476 187.944L579.766 188.724V189.914L578.326 190.134L578.106 190.044L576.906 188.364L576.876 188.054L577.096 187.844L577.356 187.824L578.036 188.274ZM573.046 190.074L572.406 191.234L571.406 192.074L569.296 192.684L568.916 192.644L570.726 190.934L570.946 190.484L570.666 190.364L567.006 192.644L566.256 192.594L565.836 192.064L565.806 191.224L566.706 190.234L567.786 189.544L570.496 189.024L571.266 188.074L571.976 187.784L572.526 187.914L573.096 188.244L573.246 188.484L573.046 190.074ZM560.896 185.594L558.956 185.034L558.266 184.354L559.016 183.754L559.796 183.854L560.736 184.734L561.196 185.394L560.896 185.594ZM563.326 183.684L561.586 183.674L560.986 183.174L562.196 182.074L563.026 181.944L563.606 182.404L563.566 183.534L563.326 183.684ZM549.846 181.804L551.716 182.984L551.926 183.954L550.896 183.904L550.676 184.264L550.876 185.004L551.626 185.684L552.156 185.484L552.466 185.154L554.466 185.814L554.056 189.944L553.716 190.574L553.176 190.734L552.516 190.554L551.796 190.734L550.246 191.374L547.666 192.754L544.666 193.684L541.466 192.544L539.286 191.534L536.866 189.904L533.436 186.654L532.966 185.354L532.826 182.484L533.096 181.924L534.326 181.084L534.736 181.174L535.166 181.774L535.736 182.244L536.346 182.274L536.896 181.524L537.576 181.144L539.866 180.544L545.416 180.324L546.966 180.584L549.846 181.804ZM598.316 177.724L602.186 179.264L603.406 179.324L607.686 178.944L608.346 179.114L612.026 181.724L612.736 183.534V184.904L613.006 185.814L613.456 186.334L614.666 186.294L615.496 186.494L616.136 187.134L616.956 189.524L616.886 190.144L616.286 190.994L616.036 193.534L616.186 194.344L612.486 192.894L611.476 191.834L608.716 190.224L604.146 188.684L601.676 187.424L601.116 186.684L601.086 185.834L600.296 185.204L599.896 185.074L595.806 184.764L593.456 184.434L593.166 184.754L593.286 185.294L594.016 186.154L594.206 186.714L593.956 187.284L593.486 187.404L589.826 186.494L588.776 186.414L587.146 185.794L586.396 185.334L583.516 185.454L583.196 185.194L583.356 184.804L584.046 184.184L584.086 183.514L583.396 183.024L582.516 182.894L580.596 184.104L579.126 185.474L578.876 185.944L577.856 186.804L575.856 187.244L575.386 187.224L574.736 186.954L574.246 186.534L572.486 183.924L571.016 182.934L570.396 180.574L569.706 180.594L568.926 181.384L568.306 182.894L567.976 185.124L567.516 185.764L567.086 185.874L566.156 187.544L565.826 188.934L565.666 188.684L565.416 187.644L565.936 186.494L566.056 185.244L565.186 183.894L564.736 182.524L566.946 180.804L570.206 176.844L574.176 176.944L577.006 176.814L581.956 176.994L584.086 176.514L584.966 175.804L585.326 175.834L585.646 176.024L585.776 176.374L585.746 177.724L586.276 178.334L586.826 178.654L588.206 178.364L590.516 176.894L590.846 176.624L591.026 175.924L591.506 175.714L593.636 175.564L595.416 176.104L597.866 177.124L598.316 177.724Z" fill="white"/>
<path d="M533.856 170.274L533.346 170.354L532.816 170.054L532.346 169.464L531.996 168.744L531.746 167.094L530.856 165.804L530.236 163.324L530.676 162.234L530.926 161.834L531.286 161.604L531.876 161.684L532.666 162.374L532.686 162.804L532.156 164.274L532.126 164.884L534.166 169.354L533.856 170.274ZM522.886 158.774L526.656 159.094L527.966 158.924L528.506 158.604L532.446 158.484L538.676 159.014L538.426 159.394L537.016 159.994L532.316 160.524L523.426 161.074L521.366 160.104L521.236 159.884L521.226 159.054L521.856 158.324L522.446 158.234L522.626 158.614L522.886 158.774ZM514.576 156.964L515.546 157.304L517.396 156.804L520.376 157.514L520.856 158.494L520.886 160.164L520.506 160.034L518.116 159.954L516.316 160.224L515.866 160.454L515.726 161.034L515.346 161.154L512.836 160.334L511.656 160.604L510.016 161.574L507.976 162.144L507.106 162.324L505.056 162.384L503.726 160.084L503.706 159.014L504.406 156.864L504.886 156.314L507.226 155.854L509.036 155.844L514.576 156.964ZM565.166 152.254L569.156 154.574L569.686 155.024L569.976 155.534L570.006 155.964L569.646 156.724L568.806 157.184L568.276 157.244L562.176 156.764L561.036 157.424L559.376 157.674L557.436 156.784L556.786 156.254L556.516 155.814L556.796 154.774L556.726 154.274L556.946 153.224L557.316 152.494L557.616 152.154L557.936 152.404L560.846 150.604L562.456 150.914L565.166 152.254ZM560.586 149.344L558.526 149.534L557.856 149.084V148.904L558.716 148.114L559.416 147.874L561.216 148.594L560.586 149.344ZM555.456 141.384L554.756 141.624L552.736 141.164L552.606 140.974L552.626 140.484L553.206 138.644L553.446 138.404L553.866 138.304L554.316 138.404L554.966 139.624L555.456 141.384ZM559.836 133.254L561.776 135.764L561.466 136.714L560.766 137.384L560.386 138.194L560.446 138.674L561.176 139.814L561.716 140.124L562.346 139.744L563.576 139.564L564.676 140.054L565.446 141.074L565.386 141.584L564.046 142.684L562.986 142.974L561.626 142.394L560.416 140.924L558.296 141.824L557.856 141.674L557.516 141.074L556.906 138.404L555.186 136.584L554.956 135.574L555.486 133.604L556.356 133.384L557.076 134.024L558.266 133.764L559.146 133.054L559.836 133.254ZM553.116 136.824L551.966 136.754L551.806 136.314L551.786 132.794L552.436 132.324L554.036 132.154L554.436 132.614L554.816 134.284L554.356 136.284L553.116 136.824ZM565.016 96.6841L565.486 96.8541L565.816 96.7641L566.236 96.8841L567.196 97.7541L567.466 98.2541L567.896 101.594L567.076 104.574L565.666 107.044L564.396 108.094L561.236 110.254L560.846 110.844L560.896 111.864L561.316 112.574L562.996 113.764L563.686 114.054L564.546 113.924L565.806 112.974L566.006 110.704L566.796 109.374L567.906 108.524L568.786 108.414L569.566 108.554L570.136 108.264L570.626 107.234L570.476 106.764L570.146 106.494L569.716 106.444L569.506 105.624L570.506 104.034L573.726 101.804L574.896 101.314L576.736 100.804L578.096 100.604L579.116 100.634L579.506 100.714L579.766 100.954L579.296 108.774L578.716 109.444L574.936 111.654L572.396 112.394L570.906 113.874L570.896 114.314L571.316 115.164L572.396 116.094L573.266 116.594L577.396 118.084L578.146 118.054L578.896 118.214L579.216 120.694L579.046 121.574L579.706 122.054L581.576 122.554L582.356 123.194L582.886 124.214L581.996 123.554L581.326 123.304L576.636 122.204L575.066 120.884L573.456 120.874L572.076 121.074L570.936 120.774L570.346 120.434L570.006 119.944L568.506 119.684L566.496 119.504L565.866 119.884L565.606 120.214L565.136 122.544L565.616 122.924L565.916 125.294L565.226 126.424L565.266 127.774L567.876 134.614L568.866 136.464L569.626 137.474L570.936 139.704L574.196 142.944L572.126 142.834L571.616 142.664L571.236 142.304L571.366 141.954L569.636 140.634L568.146 140.024L567.606 139.584L566.246 136.584L564.806 134.184L562.386 132.824L561.436 131.364L562.076 126.534L561.856 124.294L561.306 121.834L560.656 121.474L559.826 120.594L559.066 118.274L558.996 117.324L559.386 115.364L560.116 114.604L560.656 113.524L560.576 113.004L558.726 112.454L558.526 112.154L558.786 111.174L558.316 109.534L556.916 109.794L556.786 109.404L556.896 106.814L559.056 102.904L559.186 101.904L559.036 101.524L559.786 97.7641L561.926 94.5741L565.696 90.5541L566.356 89.9941L568.206 89.9841L567.966 91.1041L566.356 93.5441L565.936 94.0441L565.466 94.1941L564.776 94.7441L564.686 96.3041L565.016 96.6841ZM575.866 92.5041L573.946 92.5941L572.036 93.0641L571.496 91.6441L571.176 89.1341L571.276 88.0941L572.306 86.1741L573.256 84.9941L574.756 83.5341L576.976 82.4841L577.226 82.5341L579.106 85.1041L579.256 85.8941L577.976 89.6441L577.086 91.2441L576.106 92.3641L575.866 92.5041Z" fill="white"/>
</svg>
