<svg width="57" height="34" viewBox="0 0 57 34" fill="none" xmlns="http://www.w3.org/2000/svg">
<path fill-rule="evenodd" clip-rule="evenodd" d="M0.556025 20.4495L6.43816 5.6135C8.55796 0.266882 16.005 -0.165542 21.1071 2.48923C21.6636 2.77879 22.2269 3.01621 22.7916 3.18662C26.6064 4.33773 29.1544 4.24802 32.9951 3.18662C33.932 2.92772 34.8732 2.49985 35.7947 1.96173C40.6716 -0.885909 47.9166 -0.0862571 49.9173 5.19483L55.7312 20.5407C56.4946 22.5557 56.3133 24.8203 55.0077 26.5345C52.8261 29.3988 49.0773 33.4395 45.2393 33.525C41.2832 33.6132 37.327 29.497 35.0229 26.5734C33.6586 24.8423 33.5053 22.5275 33.9384 20.3664C34.4136 17.9944 34.5951 14.969 32.9951 13.3901C30.1589 10.5912 25.6278 10.5912 22.7916 13.3901C21.159 15.0013 21.3812 18.1185 21.8778 20.5107C22.3088 22.5869 22.1978 24.8087 20.9424 26.5175C18.8539 29.3601 15.2543 33.3755 11.4997 33.525C7.54919 33.6824 3.59577 29.5531 1.29006 26.607C-0.0793005 24.8573 -0.262864 22.515 0.556025 20.4495ZM9.05076 21.5529C9.05076 22.8303 8.01528 23.8657 6.73796 23.8657C5.46064 23.8657 4.42517 22.8303 4.42517 21.5529C4.42517 20.2756 5.46064 19.2401 6.73796 19.2401C8.01528 19.2401 9.05076 20.2756 9.05076 21.5529ZM12.18 20.0565C13.4573 20.0565 14.4928 19.021 14.4928 17.7437C14.4928 16.4664 13.4573 15.4309 12.18 15.4309C10.9027 15.4309 9.8672 16.4664 9.8672 17.7437C9.8672 19.021 10.9027 20.0565 12.18 20.0565ZM18.3018 22.3691C18.3018 23.6464 17.2664 24.6819 15.989 24.6819C14.7117 24.6819 13.6762 23.6464 13.6762 22.3691C13.6762 21.0918 14.7117 20.0563 15.989 20.0563C17.2664 20.0563 18.3018 21.0918 18.3018 22.3691ZM11.3634 29.3075C12.6407 29.3075 13.6762 28.272 13.6762 26.9947C13.6762 25.7174 12.6407 24.6819 11.3634 24.6819C10.0861 24.6819 9.05058 25.7174 9.05058 26.9947C9.05058 28.272 10.0861 29.3075 11.3634 29.3075ZM42.2466 21.553C42.2466 22.8303 41.2112 23.8658 39.9338 23.8658C38.6565 23.8658 37.621 22.8303 37.621 21.553C37.621 20.2757 38.6565 19.2402 39.9338 19.2402C41.2112 19.2402 42.2466 20.2757 42.2466 21.553ZM45.3759 20.0565C46.6532 20.0565 47.6887 19.021 47.6887 17.7437C47.6887 16.4664 46.6532 15.4309 45.3759 15.4309C44.0985 15.4309 43.0631 16.4664 43.0631 17.7437C43.0631 19.021 44.0985 20.0565 45.3759 20.0565ZM51.4977 22.3692C51.4977 23.6465 50.4622 24.6819 49.1849 24.6819C47.9076 24.6819 46.8721 23.6465 46.8721 22.3692C46.8721 21.0918 47.9076 20.0564 49.1849 20.0564C50.4622 20.0564 51.4977 21.0918 51.4977 22.3692ZM44.5595 29.3075C45.8369 29.3075 46.8723 28.272 46.8723 26.9947C46.8723 25.7174 45.8369 24.6819 44.5595 24.6819C43.2822 24.6819 42.2468 25.7174 42.2468 26.9947C42.2468 28.272 43.2822 29.3075 44.5595 29.3075Z" fill="white"/>
</svg>
