<svg width="164" height="150" viewBox="0 0 164 150" fill="none" xmlns="http://www.w3.org/2000/svg">
<g filter="url(#filter0_d_87_516)">
<path d="M25.1071 14.0926L51.5351 11.6901C52.2595 11.6243 52.9323 12.0705 53.1534 12.7634L57.8813 27.5772C58.3427 29.0231 59.2627 30.2791 60.5021 31.1552L80.1908 45.0731C80.7275 45.4525 81.445 45.4525 81.9817 45.0731L101.283 31.4293C102.757 30.3873 103.77 28.8148 104.109 27.0418L106.797 13.0053C106.951 12.2021 107.702 11.6563 108.513 11.7577L127.462 14.1263C128.339 14.2359 129.186 14.5108 129.96 14.9365L135.675 18.0798C136.252 18.3972 136.782 18.7946 137.247 19.2603L141.1 23.1133C142.171 24.1843 142.865 25.5745 143.077 27.0743L155.339 113.996C155.706 116.594 154.585 119.178 152.437 120.685L136.138 132.124C134.941 132.963 133.276 132.505 132.678 131.171L129.315 123.67C128.967 122.894 128.764 122.06 128.716 121.21L125.686 67.8122L115.424 102.779C115.285 103.253 115.197 103.741 115.16 104.233L113.391 128.298C113.315 129.329 113.47 130.365 113.843 131.329L117.578 140.977C117.758 141.442 117.458 141.954 116.964 142.025L98.9262 144.602L79.8185 146.1C79.372 146.135 78.923 146.127 78.478 146.076L42.7745 141.985C42.316 141.933 42.0045 141.494 42.1062 141.044L44.4591 130.624C44.5731 130.119 44.6306 129.603 44.6306 129.086V107.554C44.6306 106.917 44.5436 106.284 44.372 105.671L33.7715 67.8122V120.234C33.7715 121.704 33.3071 123.137 32.4447 124.328L27.1191 131.682C26.3175 132.789 24.7389 132.97 23.7075 132.073L10.415 120.515C8.76032 119.076 7.87786 116.943 8.03215 114.756L14.2698 26.3279C14.3425 25.2978 14.6427 24.2966 15.149 23.3966L17.2546 19.6533C17.662 18.9291 18.1954 18.2834 18.8297 17.7467L21.2299 15.7157C22.3249 14.7892 23.6787 14.2225 25.1071 14.0926Z" fill="white"/>
</g>
<defs>
<filter id="filter0_d_87_516" x="0.258127" y="0.0488722" width="162.907" height="149.951" filterUnits="userSpaceOnUse" color-interpolation-filters="sRGB">
<feFlood flood-opacity="0" result="BackgroundImageFix"/>
<feColorMatrix in="SourceAlpha" type="matrix" values="0 0 0 0 0 0 0 0 0 0 0 0 0 0 0 0 0 0 127 0" result="hardAlpha"/>
<feOffset dy="-3.87826"/>
<feGaussianBlur stdDeviation="3.87826"/>
<feComposite in2="hardAlpha" operator="out"/>
<feColorMatrix type="matrix" values="0 0 0 0 0 0 0 0 0 0 0 0 0 0 0 0 0 0 0.25 0"/>
<feBlend mode="normal" in2="BackgroundImageFix" result="effect1_dropShadow_87_516"/>
<feBlend mode="normal" in="SourceGraphic" in2="effect1_dropShadow_87_516" result="shape"/>
</filter>
</defs>
</svg>
