<svg width="173" height="145" viewBox="0 0 173 145" fill="none" xmlns="http://www.w3.org/2000/svg">
<path d="M0.633477 117.86L19.2473 45.5206C19.3666 45.0572 19.5308 44.6065 19.7376 44.1749L30.0484 22.6609L41.0158 5.37903C42.5491 2.96283 45.345 1.65563 48.1823 2.0283L82.2782 6.50674C82.9836 6.59938 83.6986 6.58918 84.4011 6.47645L123.771 0.158057C126.723 -0.315699 129.668 1.04498 131.221 3.60001L142.51 22.178C142.705 22.4994 142.876 22.8355 143.02 23.183L151.982 44.8238L172.433 117.698C173.466 121.379 171.507 125.237 167.926 126.574L131.389 140.218C130.764 140.452 130.111 140.599 129.446 140.656L81.8071 144.751C81.3359 144.792 80.862 144.787 80.3917 144.736L42.5736 140.673C41.9403 140.605 41.3184 140.454 40.7237 140.226L5.11957 126.558C1.63208 125.219 -0.297427 121.478 0.633477 117.86Z" fill="white"/>
</svg>
