<svg width="167" height="245" viewBox="0 0 167 245" fill="none" xmlns="http://www.w3.org/2000/svg">
<g filter="url(#filter0_d_93_37)">
<path d="M30.1636 16.7376L56.1149 14.3784C56.7165 14.3237 57.2952 14.6232 57.5979 15.1461L64.3727 26.8481C65.1877 28.2558 66.4686 29.3346 67.9943 29.8985L81.0795 34.7343C82.6256 35.3057 84.3239 35.3116 85.8739 34.751L99.5194 29.8154C100.936 29.303 102.149 28.346 102.977 27.0875L110.867 15.0951C111.191 14.6014 111.769 14.3351 112.355 14.4084L131.509 16.8027C132.566 16.9348 133.578 17.3069 134.469 17.8905L141.574 22.545C143.337 23.7006 144.484 25.5915 144.694 27.6896L147.853 59.2765V71.5498C147.853 72.1132 147.547 72.6323 147.055 72.9059L141.223 76.1456C140.993 76.2737 140.734 76.3409 140.47 76.3409H137.769H135.83H135.199C132.921 76.3409 130.786 75.2294 129.48 73.3633L128.849 72.4626L121.093 109.306L119.673 130.603C119.587 131.893 119.861 133.181 120.464 134.324L145.173 181.16C145.407 181.605 145.593 182.074 145.727 182.559L156.465 221.436C156.648 222.098 156.374 222.801 155.792 223.165L145.573 229.551C144.774 230.05 143.882 230.383 142.951 230.528L119.541 234.186L87.9675 237.229C87.5579 237.269 87.1456 237.272 86.7355 237.239L49.7131 234.247C49.2106 234.207 48.714 234.112 48.232 233.964L12.4026 222.996C11.5955 222.749 11.1341 221.902 11.3641 221.09L23.3117 178.9C23.3442 178.785 23.3898 178.674 23.4477 178.57L48.0811 134.155C48.6557 133.119 48.9571 131.954 48.9571 130.769V110.356C48.9571 109.66 48.8531 108.968 48.6484 108.303L37.2255 71.1781C36.9014 70.1249 35.6133 69.7359 34.7604 70.4337L33.648 71.3439C32.7506 72.0781 31.6844 72.5773 30.5457 72.7962L23.6012 74.1317C22.6748 74.3099 21.7219 74.2984 20.8 74.098L15.3479 72.9128C14.1743 72.6576 13.3876 71.5512 13.5321 70.3589L16.3798 46.8661L18.4656 29.4839C18.6231 28.1715 19.15 26.9308 19.9849 25.906L25.3838 19.2802C26.5702 17.8242 28.2932 16.9076 30.1636 16.7376Z" fill="white"/>
</g>
<defs>
<filter id="filter0_d_93_37" x="0.833872" y="0.798097" width="166.158" height="243.832" filterUnits="userSpaceOnUse" color-interpolation-filters="sRGB">
<feFlood flood-opacity="0" result="BackgroundImageFix"/>
<feColorMatrix in="SourceAlpha" type="matrix" values="0 0 0 0 0 0 0 0 0 0 0 0 0 0 0 0 0 0 127 0" result="hardAlpha"/>
<feOffset dy="-3.10261"/>
<feGaussianBlur stdDeviation="5.23565"/>
<feComposite in2="hardAlpha" operator="out"/>
<feColorMatrix type="matrix" values="0 0 0 0 0 0 0 0 0 0 0 0 0 0 0 0 0 0 0.25 0"/>
<feBlend mode="normal" in2="BackgroundImageFix" result="effect1_dropShadow_93_37"/>
<feBlend mode="normal" in="SourceGraphic" in2="effect1_dropShadow_93_37" result="shape"/>
</filter>
</defs>
</svg>
