<svg width="181" height="245" viewBox="0 0 181 245" fill="none" xmlns="http://www.w3.org/2000/svg">
<g filter="url(#filter0_d_91_29)">
<path d="M37.3578 16.4489L63.309 14.0897C63.9107 14.035 64.4893 14.3345 64.792 14.8574L71.5669 26.5594C72.3818 27.9671 73.6627 29.0459 75.1884 29.6098L88.2737 34.4456C89.8197 35.017 91.5181 35.0229 93.068 34.4623L106.714 29.5267C108.13 29.0143 109.343 28.0573 110.171 26.7988L118.061 14.8064C118.386 14.3127 118.963 14.0464 119.549 14.1197L138.704 16.514C139.76 16.6461 140.773 17.0182 141.663 17.6018L148.768 22.2563C150.532 23.4119 151.678 25.3028 151.888 27.4009L155.047 58.9878L155.807 97.0013C155.817 97.5125 155.884 98.021 156.005 98.5177L163.967 131.123L170.394 170.328C171.091 174.578 167.811 178.438 163.505 178.438H162.475C159.437 178.438 156.747 176.473 155.824 173.578L140.552 125.68C140.391 125.174 140.288 124.651 140.245 124.122L136.043 72.1739L128.287 109.017L126.867 130.314C126.781 131.604 127.055 132.892 127.658 134.036L152.367 180.872C152.602 181.316 152.788 181.785 152.921 182.27L163.659 221.147C163.842 221.809 163.568 222.512 162.986 222.876L152.768 229.262C151.968 229.762 151.077 230.094 150.145 230.24L126.736 233.897L95.1617 236.941C94.7521 236.98 94.3398 236.983 93.9296 236.95L56.9072 233.958C56.4048 233.918 55.9082 233.823 55.4261 233.675L19.5967 222.707C18.7897 222.46 18.3282 221.613 18.5582 220.801L30.5059 178.611C30.5384 178.496 30.584 178.386 30.6419 178.281L55.2752 133.867C55.8498 132.831 56.1513 131.665 56.1513 130.481V110.059C56.1513 109.368 56.0488 108.682 55.8471 108.021L44.9043 72.1739L40.3115 124.226C40.2709 124.686 40.1847 125.142 40.0541 125.585L25.4281 175.245C24.386 178.783 20.7716 180.9 17.1761 180.079L16.0343 179.818C12.5908 179.03 10.2779 175.795 10.6472 172.282L25.6835 29.2539C25.8253 27.9047 26.3573 26.626 27.2143 25.5742L32.578 18.9915C33.7643 17.5355 35.4873 16.6189 37.3578 16.4489Z" fill="white"/>
</g>
<defs>
<filter id="filter0_d_91_29" x="0.137094" y="0.50937" width="180.822" height="243.832" filterUnits="userSpaceOnUse" color-interpolation-filters="sRGB">
<feFlood flood-opacity="0" result="BackgroundImageFix"/>
<feColorMatrix in="SourceAlpha" type="matrix" values="0 0 0 0 0 0 0 0 0 0 0 0 0 0 0 0 0 0 127 0" result="hardAlpha"/>
<feOffset dy="-3.10261"/>
<feGaussianBlur stdDeviation="5.23565"/>
<feComposite in2="hardAlpha" operator="out"/>
<feColorMatrix type="matrix" values="0 0 0 0 0 0 0 0 0 0 0 0 0 0 0 0 0 0 0.25 0"/>
<feBlend mode="normal" in2="BackgroundImageFix" result="effect1_dropShadow_91_29"/>
<feBlend mode="normal" in="SourceGraphic" in2="effect1_dropShadow_91_29" result="shape"/>
</filter>
</defs>
</svg>
