<svg width="182" height="189" viewBox="0 0 182 189" fill="none" xmlns="http://www.w3.org/2000/svg">
<g filter="url(#filter0_d_91_27)">
<path d="M37.3578 16.8907L63.309 14.5315C63.9107 14.4768 64.4893 14.7763 64.792 15.2991L71.5669 27.0012C72.3818 28.4088 73.6627 29.4877 75.1884 30.0516L88.2737 34.8874C89.8197 35.4588 91.5181 35.4647 93.068 34.904L106.714 29.9684C108.13 29.456 109.343 28.4991 110.171 27.2406L118.061 15.2482C118.386 14.7545 118.963 14.4882 119.549 14.5615L138.47 16.9266C139.675 17.0773 140.821 17.54 141.793 18.2689L151.869 25.8262C153.403 26.9764 154.396 28.7065 154.615 30.6108L170.826 171.099C171.304 175.244 168.063 178.88 163.891 178.88H162.475C159.437 178.88 156.747 176.915 155.824 174.02L140.578 126.201C140.4 125.643 140.293 125.064 140.259 124.479L137.207 71.0644L126.982 108.557C126.818 109.156 126.736 109.774 126.736 110.394V131.52C126.736 132.32 126.873 133.114 127.142 133.867L129.971 141.787C130.302 142.715 129.695 143.713 128.719 143.845L91.5991 148.891C90.981 148.975 90.3545 148.976 89.7363 148.893L52.2323 143.893C51.1404 143.747 50.5439 142.542 51.0904 141.585L55.2315 134.338C55.8343 133.284 56.1513 132.09 56.1513 130.875V110.361C56.1513 109.762 56.0744 109.166 55.9223 108.587L46.0678 71.0644L41.8673 126.817C41.8238 127.395 41.7085 127.965 41.524 128.514L25.5855 175.991C24.4437 179.392 20.9097 181.374 17.4121 180.574L16.0343 180.259C12.5908 179.472 10.2779 176.237 10.6472 172.724L25.6835 29.6957C25.8253 28.3464 26.3573 27.0677 27.2143 26.016L32.578 19.4332C33.7643 17.9772 35.4873 17.0607 37.3578 16.8907Z" fill="white"/>
</g>
<defs>
<filter id="filter0_d_91_27" x="0.137094" y="0.951112" width="181.207" height="187.168" filterUnits="userSpaceOnUse" color-interpolation-filters="sRGB">
<feFlood flood-opacity="0" result="BackgroundImageFix"/>
<feColorMatrix in="SourceAlpha" type="matrix" values="0 0 0 0 0 0 0 0 0 0 0 0 0 0 0 0 0 0 127 0" result="hardAlpha"/>
<feOffset dy="-3.10261"/>
<feGaussianBlur stdDeviation="5.23565"/>
<feComposite in2="hardAlpha" operator="out"/>
<feColorMatrix type="matrix" values="0 0 0 0 0 0 0 0 0 0 0 0 0 0 0 0 0 0 0.25 0"/>
<feBlend mode="normal" in2="BackgroundImageFix" result="effect1_dropShadow_91_27"/>
<feBlend mode="normal" in="SourceGraphic" in2="effect1_dropShadow_91_27" result="shape"/>
</filter>
</defs>
</svg>
