<svg width="153" height="151" viewBox="0 0 153 151" fill="none" xmlns="http://www.w3.org/2000/svg">
<g filter="url(#filter0_d_92_35)">
<path d="M22.8216 14.7866L49.2495 12.3841C49.9739 12.3182 50.6467 12.7645 50.8679 13.4573L55.5957 28.2712C56.0571 29.717 56.9772 30.9731 58.2165 31.8492L77.9052 45.7671C78.4419 46.1464 79.1594 46.1464 79.6961 45.7671L98.997 32.1233C100.471 31.0813 101.484 29.5088 101.824 27.7358L104.512 13.6993C104.665 12.8961 105.416 12.3503 106.228 12.4517L125.176 14.8203C126.053 14.9299 126.901 15.2048 127.675 15.6305L133.39 18.7738C133.967 19.0911 134.496 19.4886 134.962 19.9543L138.995 23.9879C139.954 24.9468 140.613 26.1643 140.891 27.4915L145.159 47.8451C145.366 48.8331 144.913 49.8421 144.036 50.343L137.899 53.85C137.547 54.0509 137.149 54.1566 136.744 54.1566H125.34H123.919C123.013 54.1566 122.3 54.93 122.373 55.8333L123.401 68.5061L113.139 103.473C112.999 103.947 112.911 104.435 112.875 104.927L111.105 128.991C111.03 130.023 111.184 131.059 111.557 132.023L115.292 141.671C115.472 142.136 115.172 142.648 114.678 142.719L96.6407 145.296L77.533 146.794C77.0864 146.829 76.6375 146.821 76.1924 146.77L40.4889 142.679C40.0304 142.627 39.7189 142.188 39.8206 141.738L42.1736 131.318C42.2875 130.813 42.345 130.297 42.345 129.78V108.248C42.345 107.611 42.258 106.978 42.0865 106.365L31.4859 68.5061V58.6934C31.4859 57.1902 30.4084 55.9033 28.9287 55.6391L21.2541 54.2686C20.8367 54.1941 20.427 54.0817 20.0301 53.9328L10.5943 50.3944C9.21115 49.8757 8.38549 48.4537 8.62072 46.9953L11.8966 26.6848C12.0276 25.8729 12.3009 25.0906 12.7041 24.3739L14.969 20.3473C15.3764 19.6231 15.9098 18.9774 16.5441 18.4407L18.9443 16.4097C20.0393 15.4832 21.3931 14.9165 22.8216 14.7866Z" fill="white"/>
</g>
<defs>
<filter id="filter0_d_92_35" x="0.824533" y="0.742903" width="152.141" height="149.951" filterUnits="userSpaceOnUse" color-interpolation-filters="sRGB">
<feFlood flood-opacity="0" result="BackgroundImageFix"/>
<feColorMatrix in="SourceAlpha" type="matrix" values="0 0 0 0 0 0 0 0 0 0 0 0 0 0 0 0 0 0 127 0" result="hardAlpha"/>
<feOffset dy="-3.87826"/>
<feGaussianBlur stdDeviation="3.87826"/>
<feComposite in2="hardAlpha" operator="out"/>
<feColorMatrix type="matrix" values="0 0 0 0 0 0 0 0 0 0 0 0 0 0 0 0 0 0 0.25 0"/>
<feBlend mode="normal" in2="BackgroundImageFix" result="effect1_dropShadow_92_35"/>
<feBlend mode="normal" in="SourceGraphic" in2="effect1_dropShadow_92_35" result="shape"/>
</filter>
</defs>
</svg>
