<svg width="152" height="98" viewBox="0 0 152 98" fill="none" xmlns="http://www.w3.org/2000/svg">
<path d="M15.1408 29.3995L32.075 3.47985C33.6048 1.13839 36.3304 -0.132551 39.1073 0.200685L74.5543 4.45432C75.1335 4.52382 75.7188 4.52417 76.298 4.45535L112.297 0.178277C114.999 -0.142751 117.657 1.05447 119.207 3.29057L137.217 29.2652C137.69 29.9478 138.044 30.7056 138.264 31.5065L150.772 77.0207C151.816 80.8188 149.681 84.7648 145.931 85.9701L119.193 94.5647C118.614 94.7506 118.015 94.8641 117.409 94.9026L73.9088 97.6708C73.559 97.6931 73.2081 97.6903 72.8587 97.6625L38.159 94.9023C37.6759 94.8639 37.1979 94.7778 36.7317 94.6453L5.7841 85.8497C1.84312 84.7296 -0.422455 80.6048 0.746573 76.678L14.2491 31.3233C14.4519 30.6424 14.7522 29.9943 15.1408 29.3995Z" fill="white"/>
</svg>
